<svg width="80" height="80" viewBox="0 0 80 80" fill="none" xmlns="http://www.w3.org/2000/svg">
<g clip-path="url(#clip0_752_9983)">
<path d="M40 60.47C35.9375 60.47 32.24 59.375 28.905 57.19C25.57 55.0025 23.07 52.19 21.405 48.7525L5 20C1.5625 26.1475 0 33.0225 0 40C0 50 3.255 58.725 9.765 66.1725C16.275 73.62 24.375 78.0725 34.0625 79.5325L45.665 59.455C44.4975 59.7975 42.55 60.47 40 60.47Z" fill="#A1D0E6" fill-opacity="0.7"/>
<path d="M27.4225 23.8275C31.1175 20.965 35.3125 20 40 20H74.375C70.8325 13.96 66.015 8.855 59.9225 5.3125C53.8275 1.7725 47.1875 0 40 0C33.75 0 27.915 1.3275 22.5 3.985C17.0825 6.64 12.07 10.5075 8.39746 15.47L20 35C21.145 30.5225 23.7225 26.695 27.4225 23.8275Z" fill="#A1D0E6"/>
<path d="M76.9925 25H53.75C57.8125 29.0625 60.47 34.2725 60.47 40C60.4978 44.1823 59.2432 48.2727 56.875 51.72L40.47 80C51.4075 79.895 60.73 75.9375 68.44 68.125C76.145 60.3125 80 50.9375 80 40C80 34.8975 79.14 29.53 76.9925 25Z" fill="#A1D0E6" fill-opacity="0.5"/>
<path d="M40 55C48.2843 55 55 48.2843 55 40C55 31.7157 48.2843 25 40 25C31.7157 25 25 31.7157 25 40C25 48.2843 31.7157 55 40 55Z" fill="white"/>
</g>
<defs>
<clipPath id="clip0_752_9983">
<rect width="80" height="80" fill="white"/>
</clipPath>
</defs>
</svg>
