<svg width="24" height="24" viewBox="0 0 24 24" fill="none" xmlns="http://www.w3.org/2000/svg">
<path d="M21.4339 14.1545C21.5762 13.4885 21.6471 12.8093 21.6455 12.1282C21.6384 10.8829 21.3859 9.65122 20.9025 8.50354C20.4191 7.35586 19.7143 6.31471 18.8283 5.43961C17.9422 4.56452 16.8924 3.87264 15.7388 3.40353C14.5852 2.93443 13.3505 2.6973 12.1052 2.7057C11.5604 2.7043 11.0165 2.75175 10.4802 2.84748C9.64759 2.32431 8.69063 2.03238 7.70776 2.00172C6.72489 1.97105 5.75159 2.20276 4.88796 2.67301C4.02434 3.14326 3.30158 3.83507 2.794 4.6773C2.28642 5.51952 2.01236 6.48175 2 7.46503C2.00063 8.43443 2.26082 9.38598 2.75354 10.2208C2.63129 10.8416 2.56812 11.4726 2.56488 12.1053C2.57532 13.342 2.83129 14.5644 3.31795 15.7013C3.8046 16.8383 4.51224 17.8673 5.39978 18.7286C6.28733 19.5898 7.33711 20.2662 8.48818 20.7185C9.63926 21.1708 10.8687 21.3899 12.1052 21.3632C12.6902 21.3676 13.2741 21.312 13.8478 21.1974C14.6396 21.6775 15.5383 21.953 16.4631 21.999C17.3961 22.0167 18.3179 21.7937 19.1397 21.3517C19.9615 20.9096 20.6556 20.2633 21.1551 19.475C21.6546 18.6868 21.9426 17.7832 21.9914 16.8513C22.0403 15.9194 21.8483 14.9907 21.4339 14.1545ZM16.439 15.9921C16.0252 16.5469 15.4614 16.9718 14.8142 17.2169C14.0132 17.5357 13.1556 17.6878 12.2938 17.6639C11.2928 17.6964 10.2987 17.4865 9.39618 17.0522C8.8683 16.771 8.41571 16.367 8.07654 15.8744C7.77546 15.4626 7.60352 14.9707 7.58254 14.461C7.58017 14.3315 7.60641 14.2031 7.65938 14.0849C7.71235 13.9666 7.79076 13.8616 7.889 13.7772C8.10072 13.5848 8.37958 13.4833 8.66543 13.4947C8.89665 13.4851 9.12333 13.5608 9.30243 13.7074C9.49893 13.8907 9.65172 14.1158 9.74951 14.366C9.87049 14.6798 10.0374 14.9738 10.2447 15.2386C10.4343 15.4874 10.6859 15.6822 10.9742 15.8035C11.369 15.9698 11.7947 16.0501 12.223 16.039C12.8288 16.0722 13.4299 15.9159 13.9428 15.5919C14.1408 15.4762 14.3056 15.3112 14.4212 15.1131C14.5368 14.915 14.5993 14.6904 14.6026 14.461C14.6094 14.299 14.5814 14.1373 14.5204 13.987C14.4595 13.8367 14.367 13.7012 14.2493 13.5897C13.9899 13.344 13.6742 13.1657 13.3298 13.0704C12.9537 12.9527 12.4345 12.8349 11.7987 12.6943C11.0686 12.5398 10.352 12.3272 9.65576 12.0585C9.12063 11.844 8.64994 11.4951 8.28925 11.0454C7.94808 10.5917 7.77327 10.0345 7.79413 9.46729C7.79346 8.88815 7.984 8.32499 8.33618 7.86524C8.73523 7.36792 9.26566 6.99238 9.86731 6.78124C10.631 6.51203 11.4374 6.38453 12.247 6.40501C12.8845 6.39684 13.5197 6.48395 14.1315 6.66344C14.6074 6.80132 15.0542 7.02491 15.4499 7.32323C15.7652 7.55826 16.0297 7.85465 16.2275 8.19457C16.3787 8.46036 16.4597 8.76022 16.4631 9.06596C16.4634 9.1985 16.4364 9.3297 16.3837 9.45131C16.3309 9.57291 16.2536 9.68231 16.1566 9.77263C16.0598 9.87411 15.9426 9.9539 15.8127 10.0067C15.6828 10.0596 15.5432 10.0842 15.403 10.0791C15.1756 10.0925 14.9506 10.0258 14.7673 9.89043C14.578 9.71348 14.4189 9.50685 14.2961 9.27867C14.1087 8.90488 13.8436 8.57544 13.5186 8.31236C13.0828 8.03974 12.5705 7.91577 12.0583 7.95903C11.5294 7.93437 11.0049 8.0656 10.55 8.33641C10.3866 8.42427 10.2487 8.5529 10.1498 8.70979C10.0508 8.86668 9.99406 9.04651 9.98511 9.2318C9.98637 9.43535 10.0525 9.63321 10.1738 9.79668C10.3197 9.97167 10.5056 10.1089 10.7158 10.1969C10.9305 10.314 11.1602 10.4013 11.3984 10.4565C11.634 10.5274 12.0114 10.6211 12.5523 10.7389C13.212 10.8807 13.825 11.0454 14.367 11.21C14.8578 11.3554 15.3256 11.5694 15.7564 11.8458C16.1233 12.0869 16.4297 12.4094 16.6517 12.7881C16.8787 13.2157 16.9921 13.6945 16.9811 14.1786C17.0091 14.8268 16.8182 15.4656 16.439 15.9921Z" fill="#A1D0E6"/>
</svg>
