<svg width="24" height="24" viewBox="0 0 24 24" fill="none" xmlns="http://www.w3.org/2000/svg">
<path fill-rule="evenodd" clip-rule="evenodd" d="M8.78252 0C8.46764 0.000292386 8.15591 0.0626089 7.86512 0.183391C7.57433 0.304172 7.31018 0.481053 7.08776 0.703932C6.86533 0.926811 6.68899 1.19132 6.5688 1.48236C6.44862 1.7734 6.38694 2.08526 6.38729 2.40013C6.387 2.71497 6.44872 3.02679 6.56893 3.31777C6.68915 3.60876 6.8655 3.87321 7.08791 4.09605C7.31033 4.31888 7.57446 4.49572 7.86522 4.61647C8.15598 4.73723 8.46768 4.79953 8.78252 4.79982H11.1778V2.40013C11.1781 2.08526 11.1164 1.7734 10.9962 1.48236C10.8761 1.19132 10.6997 0.926811 10.4773 0.703932C10.2549 0.481053 9.99071 0.304172 9.69992 0.183391C9.40913 0.0626089 9.0974 0.000292386 8.78252 0ZM8.78252 6.40021H2.39523C2.08039 6.4005 1.7687 6.4628 1.47794 6.58356C1.18717 6.70431 0.923044 6.88115 0.700626 7.10398C0.478208 7.32681 0.301858 7.59127 0.181644 7.88226C0.0614312 8.17324 -0.000291191 8.48506 1.49167e-06 8.7999C-0.000349742 9.11477 0.0613294 9.42663 0.181517 9.71767C0.301704 10.0087 0.478044 10.2732 0.700468 10.4961C0.922892 10.719 1.18704 10.8959 1.47783 11.0166C1.76862 11.1374 2.08036 11.1997 2.39523 11.2H8.78252C9.0974 11.1997 9.40913 11.1374 9.69992 11.0166C9.99071 10.8959 10.2549 10.719 10.4773 10.4961C10.6997 10.2732 10.8761 10.0087 10.9962 9.71767C11.1164 9.42663 11.1781 9.11477 11.1778 8.7999C11.178 8.48506 11.1163 8.17324 10.9961 7.88226C10.8759 7.59127 10.6995 7.32681 10.4771 7.10398C10.2547 6.88115 9.99058 6.70431 9.69982 6.58356C9.40906 6.4628 9.09736 6.4005 8.78252 6.40021Z" fill="#A1D0E6"/>
<path fill-rule="evenodd" clip-rule="evenodd" d="M23.9522 8.7999C23.9525 8.48506 23.8907 8.17324 23.7705 7.88226C23.6503 7.59127 23.474 7.32681 23.2515 7.10398C23.0291 6.88115 22.765 6.70431 22.4742 6.58356C22.1835 6.4628 21.8718 6.4005 21.5569 6.40021C21.2421 6.4005 20.9304 6.4628 20.6396 6.58356C20.3489 6.70431 20.0847 6.88115 19.8623 7.10398C19.6399 7.32681 19.4636 7.59127 19.3433 7.88226C19.2231 8.17324 19.1614 8.48506 19.1617 8.7999V11.2H21.5569C21.8718 11.1997 22.1835 11.1374 22.4743 11.0166C22.7651 10.8959 23.0293 10.719 23.2517 10.4961C23.4741 10.2732 23.6505 10.0087 23.7707 9.71767C23.8908 9.42663 23.9525 9.11477 23.9522 8.7999ZM17.5649 8.7999V2.40013C17.5652 2.08526 17.5036 1.7734 17.3834 1.48236C17.2632 1.19132 17.0868 0.926811 16.8644 0.703932C16.642 0.481053 16.3778 0.304172 16.087 0.183391C15.7963 0.0626089 15.4845 0.000292386 15.1696 0C14.8548 0.000292386 14.543 0.0626089 14.2522 0.183391C13.9615 0.304172 13.6973 0.481053 13.4749 0.703932C13.2525 0.926811 13.0761 1.19132 12.9559 1.48236C12.8357 1.7734 12.7741 2.08526 12.7744 2.40013V8.7999C12.7741 9.11477 12.8357 9.42663 12.9559 9.71767C13.0761 10.0087 13.2525 10.2732 13.4749 10.4961C13.6973 10.719 13.9615 10.8959 14.2522 11.0166C14.543 11.1374 14.8548 11.1997 15.1696 11.2C15.4845 11.1997 15.7963 11.1374 16.087 11.0166C16.3778 10.8959 16.642 10.719 16.8644 10.4961C17.0868 10.2732 17.2632 10.0087 17.3834 9.71767C17.5036 9.42663 17.5652 9.11477 17.5649 8.7999Z" fill="white"/>
<path fill-rule="evenodd" clip-rule="evenodd" d="M15.1696 23.9993C15.4845 23.9991 15.7963 23.9367 16.087 23.816C16.3778 23.6952 16.642 23.5183 16.8644 23.2954C17.0868 23.0725 17.2632 22.808 17.3834 22.517C17.5036 22.226 17.5652 21.9141 17.5649 21.5992C17.5652 21.2844 17.5035 20.9726 17.3832 20.6816C17.263 20.3906 17.0867 20.1261 16.8643 19.9033C16.6418 19.6805 16.3777 19.5036 16.0869 19.3829C15.7962 19.2621 15.4845 19.1998 15.1696 19.1995H12.7744V21.5992C12.7741 21.9141 12.8357 22.226 12.9559 22.517C13.0761 22.808 13.2525 23.0725 13.4749 23.2954C13.6973 23.5183 13.9615 23.6952 14.2522 23.816C14.543 23.9367 14.8548 23.9991 15.1696 23.9993ZM15.1696 17.5991H21.5569C21.8718 17.5988 22.1835 17.5365 22.4742 17.4158C22.765 17.295 23.0291 17.1182 23.2515 16.8954C23.474 16.6725 23.6503 16.4081 23.7705 16.1171C23.8907 15.8261 23.9525 15.5143 23.9522 15.1995C23.9525 14.8846 23.8908 14.5727 23.7707 14.2817C23.6505 13.9906 23.4741 13.7261 23.2517 13.5032C23.0293 13.2804 22.7651 13.1035 22.4743 12.9827C22.1835 12.8619 21.8718 12.7996 21.5569 12.7993H15.1696C14.8548 12.7996 14.543 12.8619 14.2522 12.9827C13.9615 13.1035 13.6973 13.2804 13.4749 13.5032C13.2525 13.7261 13.0761 13.9906 12.9559 14.2817C12.8357 14.5727 12.7741 14.8846 12.7744 15.1995C12.7741 15.5143 12.8358 15.8261 12.9561 16.1171C13.0763 16.4081 13.2526 16.6725 13.475 16.8954C13.6975 17.1182 13.9616 17.295 14.2523 17.4158C14.5431 17.5365 14.8548 17.5988 15.1696 17.5991Z" fill="#A1D0E6"/>
<path fill-rule="evenodd" clip-rule="evenodd" d="M2.03011e-06 15.1995C-0.000290653 15.5143 0.0614317 15.8261 0.181645 16.1171C0.301858 16.4081 0.478208 16.6725 0.700626 16.8954C0.923044 17.1182 1.18717 17.295 1.47794 17.4158C1.7687 17.5365 2.0804 17.5988 2.39523 17.5991C2.71007 17.5988 3.02177 17.5365 3.31253 17.4158C3.60329 17.295 3.86742 17.1182 4.08984 16.8954C4.31226 16.6725 4.48861 16.4081 4.60882 16.1171C4.72904 15.8261 4.79076 15.5143 4.79047 15.1995V12.7993H2.39523C2.08032 12.7996 1.76855 12.8619 1.47773 12.9827C1.18691 13.1036 0.922741 13.2805 0.700311 13.5034C0.477881 13.7263 0.30155 13.9909 0.181389 14.282C0.0612282 14.5731 -0.000407769 14.8845 2.03011e-06 15.1995ZM6.38729 15.1995V21.5992C6.38694 21.9141 6.44862 22.226 6.5688 22.517C6.68899 22.808 6.86533 23.0725 7.08776 23.2954C7.31018 23.5183 7.57433 23.6952 7.86512 23.816C8.15591 23.9367 8.46764 23.9991 8.78252 23.9993C9.0974 23.9991 9.40913 23.9367 9.69992 23.816C9.99071 23.6952 10.2549 23.5183 10.4773 23.2954C10.6997 23.0725 10.8761 22.808 10.9962 22.517C11.1164 22.226 11.1781 21.9141 11.1778 21.5992V15.1999C11.1781 14.885 11.1164 14.5732 10.9962 14.2821C10.8761 13.9911 10.6997 13.7266 10.4773 13.5037C10.2549 13.2808 9.99071 13.1039 9.69992 12.9832C9.40913 12.8624 9.0974 12.8001 8.78252 12.7998C8.46764 12.8001 8.15591 12.8624 7.86512 12.9832C7.57433 13.1039 7.31018 13.2808 7.08776 13.5037C6.86533 13.7266 6.68899 13.9911 6.5688 14.2821C6.44862 14.5732 6.38694 14.8846 6.38729 15.1995Z" fill="white"/>
</svg>
