<svg width="24" height="24" viewBox="0 0 24 24" fill="none" xmlns="http://www.w3.org/2000/svg">
<path d="M11.9961 1.99902C10.0183 1.99902 8.08489 2.58551 6.4404 3.68433C4.7959 4.78314 3.51418 6.34493 2.7573 8.17219C2.00043 9.99945 1.80239 12.0101 2.18825 13.9499C2.5741 15.8897 3.52651 17.6716 4.92503 19.0701C6.32356 20.4686 8.10539 21.421 10.0452 21.8069C11.985 22.1927 13.9957 21.9947 15.8229 21.2378C17.6502 20.4809 19.212 19.1992 20.3108 17.5547C21.4096 15.9102 21.9961 13.9768 21.9961 11.999C21.9962 10.6858 21.7376 9.38537 21.2351 8.17206C20.7326 6.95876 19.996 5.85632 19.0674 4.92771C18.1388 3.9991 17.0364 3.26251 15.8231 2.76001C14.6098 2.2575 13.3093 1.99891 11.9961 1.99902ZM15.1756 17.1515C15.1382 17.2448 15.0812 17.3291 15.0086 17.3986C14.9359 17.4681 14.8492 17.5213 14.7544 17.5546C14.6595 17.5879 14.5586 17.6005 14.4584 17.5916C14.3582 17.5827 14.2611 17.5525 14.1736 17.503L11.4589 15.3936L9.71662 17.001C9.67619 17.0309 9.6289 17.0501 9.5791 17.0569C9.52929 17.0637 9.47858 17.0579 9.43162 17.04L9.76562 14.0515L9.77631 14.06L9.78314 14.001C9.78314 14.001 14.6681 9.55347 14.8671 9.36398C15.0686 9.17498 15.0021 9.13398 15.0021 9.13398C15.0136 8.90345 14.6406 9.13398 14.6406 9.13398L8.1681 13.298L5.47261 12.38C5.47261 12.38 5.05861 12.2315 5.01961 11.905C4.97861 11.581 5.4861 11.405 5.4861 11.405L16.2031 7.14751C16.2031 7.14751 17.0841 6.75499 17.0841 7.40502L15.1756 17.1515Z" fill="white"/>
</svg>
