<svg width="232" height="346" viewBox="0 0 232 346" fill="none" xmlns="http://www.w3.org/2000/svg">
<g clip-path="url(#clip0_752_1328)">
<path d="M167.096 224.824C167.072 224.752 167.045 224.683 167.018 224.613C167.001 224.569 166.983 224.522 166.966 224.477C166.936 224.402 166.901 224.325 166.865 224.253C166.845 224.218 166.832 224.18 166.814 224.14C166.759 224.028 166.704 223.92 166.644 223.812L163.123 217.529C163.183 217.638 163.242 217.744 163.293 217.857C163.313 217.893 163.326 217.931 163.345 217.971C163.378 218.045 163.413 218.121 163.446 218.195C163.463 218.239 163.481 218.287 163.498 218.331C163.525 218.401 163.552 218.47 163.576 218.541C163.592 218.59 163.609 218.642 163.624 218.691C163.647 218.759 163.669 218.827 163.689 218.897C163.699 218.937 163.712 218.98 163.723 219.02C163.756 219.143 163.784 219.27 163.809 219.398C163.815 219.429 163.821 219.461 163.827 219.492C163.854 219.645 163.879 219.801 163.896 219.956C163.901 219.992 163.903 220.029 163.907 220.065C163.919 220.197 163.929 220.326 163.935 220.46C163.936 220.498 163.94 220.538 163.941 220.576C163.947 220.738 163.945 220.9 163.935 221.062C163.934 221.094 163.932 221.126 163.93 221.157C163.923 221.296 163.91 221.437 163.895 221.576C163.889 221.621 163.885 221.662 163.879 221.707C163.858 221.876 163.833 222.044 163.797 222.213C163.793 222.235 163.786 222.257 163.781 222.276C163.75 222.427 163.714 222.582 163.672 222.735C163.659 222.78 163.646 222.826 163.633 222.871C163.584 223.045 163.532 223.219 163.472 223.394L132.623 311.223C132.571 311.371 132.514 311.517 132.456 311.66C132.437 311.709 132.414 311.757 132.395 311.806C132.353 311.902 132.313 311.996 132.27 312.09C132.244 312.146 132.213 312.202 132.187 312.258C132.146 312.342 132.105 312.427 132.06 312.512C132.028 312.572 131.995 312.629 131.963 312.689C131.919 312.767 131.876 312.849 131.83 312.924C131.76 313.039 131.69 313.155 131.615 313.269C131.61 313.272 131.607 313.281 131.603 313.287C131.524 313.407 131.441 313.526 131.361 313.644C131.335 313.681 131.305 313.716 131.277 313.755C131.218 313.834 131.16 313.916 131.099 313.992C131.065 314.034 131.032 314.079 130.998 314.12C130.941 314.19 130.883 314.265 130.826 314.334C130.789 314.378 130.755 314.42 130.718 314.463C130.658 314.535 130.594 314.605 130.532 314.673C130.497 314.712 130.461 314.751 130.425 314.79C130.354 314.868 130.28 314.943 130.207 315.018C130.177 315.046 130.151 315.076 130.123 315.107C130.019 315.21 129.915 315.31 129.808 315.408C129.648 315.554 129.485 315.694 129.32 315.831C129.281 315.864 129.242 315.897 129.202 315.927C129.032 316.063 128.861 316.196 128.687 316.323C128.675 316.33 128.664 316.336 128.654 316.345C128.487 316.465 128.315 316.583 128.14 316.695C128.098 316.722 128.056 316.749 128.013 316.776C127.833 316.891 127.646 317.002 127.459 317.106C127.371 317.154 127.283 317.203 127.193 317.253C127.149 317.277 127.105 317.302 127.061 317.326C126.925 317.397 126.785 317.463 126.646 317.529C126.637 317.533 126.631 317.537 126.623 317.542C126.492 317.602 126.357 317.662 126.224 317.719C126.177 317.738 126.13 317.756 126.08 317.776C125.986 317.813 125.89 317.854 125.796 317.891C125.739 317.911 125.681 317.932 125.624 317.952C125.538 317.984 125.448 318.015 125.363 318.046C125.302 318.068 125.24 318.087 125.178 318.106C125.094 318.134 125.01 318.161 124.924 318.186C124.862 318.205 124.795 318.222 124.732 318.238C124.649 318.261 124.566 318.284 124.481 318.304C124.415 318.321 124.349 318.334 124.286 318.351C124.201 318.37 124.12 318.389 124.035 318.408C123.97 318.422 123.902 318.436 123.836 318.449C123.753 318.465 123.67 318.48 123.587 318.495C123.52 318.506 123.454 318.519 123.387 318.529C123.303 318.541 123.218 318.554 123.136 318.564C123.069 318.574 123.003 318.58 122.936 318.59C122.85 318.6 122.766 318.608 122.678 318.614C122.613 318.62 122.547 318.625 122.481 318.631C122.393 318.637 122.307 318.639 122.219 318.646C122.156 318.65 122.092 318.651 122.027 318.652C121.936 318.653 121.845 318.653 121.753 318.654C121.692 318.653 121.632 318.656 121.574 318.653C121.473 318.651 121.371 318.646 121.269 318.642C121.218 318.639 121.169 318.64 121.121 318.635C120.97 318.626 120.819 318.614 120.667 318.595L-72.2502 297.031L-68.73 303.313L124.173 324.873C124.324 324.89 124.475 324.902 124.627 324.914C124.678 324.916 124.729 324.919 124.78 324.921C124.882 324.926 124.981 324.933 125.082 324.935C125.143 324.935 125.203 324.933 125.261 324.935C125.353 324.935 125.444 324.934 125.535 324.933C125.6 324.932 125.662 324.928 125.73 324.926C125.816 324.924 125.905 324.917 125.99 324.912C126.055 324.907 126.121 324.901 126.187 324.895C126.27 324.888 126.358 324.881 126.44 324.87C126.509 324.863 126.573 324.855 126.641 324.847C126.726 324.835 126.808 324.824 126.893 324.812C126.96 324.802 127.027 324.792 127.092 324.778C127.175 324.763 127.258 324.748 127.342 324.732C127.407 324.719 127.475 324.705 127.54 324.692C127.622 324.673 127.707 324.653 127.791 324.634C127.858 324.616 127.923 324.603 127.99 324.585C128.074 324.565 128.157 324.542 128.24 324.52C128.303 324.504 128.368 324.483 128.435 324.465C128.521 324.441 128.605 324.414 128.689 324.386C128.751 324.367 128.813 324.348 128.874 324.326C128.961 324.297 129.046 324.265 129.135 324.232C129.192 324.212 129.25 324.191 129.307 324.171C129.402 324.134 129.496 324.097 129.588 324.058C129.638 324.038 129.686 324.019 129.733 324.001C129.862 323.945 129.994 323.887 130.122 323.828C130.131 323.823 130.142 323.816 130.151 323.812C130.291 323.746 130.428 323.678 130.566 323.609C130.61 323.585 130.654 323.56 130.698 323.536C130.78 323.491 130.86 323.45 130.942 323.405C130.948 323.402 130.957 323.397 130.963 323.394C131.15 323.29 131.335 323.176 131.517 323.064C131.561 323.039 131.602 323.009 131.644 322.982C131.819 322.87 131.991 322.752 132.158 322.633C132.169 322.627 132.181 322.62 132.191 322.611C132.365 322.484 132.536 322.351 132.706 322.215C132.745 322.182 132.785 322.152 132.824 322.119C132.992 321.98 133.155 321.84 133.312 321.695C133.312 321.695 133.318 321.692 133.321 321.691C133.424 321.595 133.526 321.496 133.627 321.395C133.657 321.366 133.683 321.337 133.713 321.309C133.786 321.234 133.862 321.157 133.934 321.079C133.969 321.04 134.005 321.001 134.041 320.962C134.105 320.892 134.167 320.824 134.226 320.752C134.263 320.709 134.298 320.667 134.335 320.623C134.394 320.552 134.451 320.482 134.509 320.408C134.544 320.366 134.578 320.324 134.61 320.279C134.67 320.2 134.729 320.121 134.787 320.039C134.812 320.002 134.842 319.967 134.868 319.93C134.951 319.811 135.034 319.692 135.113 319.572C135.116 319.57 135.118 319.561 135.121 319.559C135.188 319.453 135.256 319.347 135.32 319.242C135.325 319.231 135.331 319.221 135.337 319.21C135.381 319.132 135.426 319.053 135.467 318.977C135.499 318.917 135.532 318.86 135.564 318.8C135.61 318.717 135.65 318.63 135.691 318.546C135.717 318.489 135.748 318.434 135.774 318.377C135.817 318.284 135.86 318.188 135.899 318.093C135.918 318.044 135.941 317.997 135.96 317.948C136.018 317.805 136.075 317.658 136.127 317.511L166.976 229.682C167.036 229.507 167.09 229.335 167.137 229.159C167.15 229.113 167.163 229.068 167.176 229.022C167.218 228.869 167.254 228.715 167.285 228.563C167.289 228.542 167.295 228.519 167.301 228.501C167.334 228.333 167.361 228.161 167.383 227.995C167.391 227.952 167.393 227.909 167.399 227.864C167.417 227.723 167.427 227.583 167.434 227.445C167.436 227.413 167.438 227.382 167.439 227.35C167.447 227.185 167.446 227.024 167.445 226.863C167.444 226.826 167.44 226.786 167.439 226.748C167.435 226.616 167.423 226.484 167.411 226.353C167.407 226.317 167.405 226.279 167.4 226.244C167.383 226.088 167.358 225.933 167.331 225.78C167.325 225.748 167.319 225.717 167.312 225.683C167.287 225.555 167.256 225.43 167.225 225.305C167.219 225.281 167.214 225.257 167.21 225.236C167.203 225.217 167.198 225.201 167.194 225.18C167.175 225.11 167.152 225.042 167.13 224.974C167.114 224.925 167.097 224.873 167.081 224.824L167.096 224.824Z" fill="#FF834E"/>
<path d="M130.979 323.492C130.923 323.523 130.865 323.555 130.809 323.586L130.616 323.693C130.479 323.761 130.336 323.828 130.197 323.894L130.165 323.912C130.032 323.97 129.903 324.026 129.771 324.084C129.744 324.098 129.715 324.107 129.684 324.12L129.59 324.157C129.506 324.192 129.425 324.225 129.34 324.257L129.133 324.333C129.056 324.36 128.98 324.387 128.903 324.414C128.854 324.429 128.806 324.445 128.754 324.462L128.716 324.475C128.631 324.503 128.547 324.53 128.461 324.554C128.396 324.575 128.333 324.591 128.266 324.609C128.18 324.633 128.097 324.656 128.013 324.676C127.946 324.694 127.881 324.707 127.814 324.724C127.73 324.744 127.645 324.764 127.559 324.781C127.491 324.796 127.426 324.809 127.358 324.824C127.274 324.839 127.188 324.856 127.105 324.871C127.038 324.881 126.968 324.893 126.901 324.903C126.816 324.916 126.732 324.928 126.647 324.94C126.58 324.95 126.511 324.958 126.443 324.965C126.356 324.974 126.273 324.982 126.185 324.989L126.152 324.992C126.097 324.995 126.043 325.002 125.986 325.003C125.909 325.007 125.831 325.012 125.753 325.016L125.671 325.02C125.623 325.023 125.578 325.025 125.529 325.025C125.45 325.027 125.369 325.026 125.289 325.027L125.203 325.029C125.161 325.029 125.116 325.031 125.072 325.028C124.972 325.026 124.87 325.021 124.768 325.016L124.615 325.009C124.46 324.999 124.311 324.985 124.158 324.97L-68.782 303.392L-72.4059 296.929L-72.2434 296.947L120.66 318.507C120.81 318.523 120.959 318.537 121.109 318.546L121.258 318.552C121.36 318.557 121.459 318.564 121.558 318.563C121.592 318.563 121.631 318.564 121.666 318.564L121.773 318.566C121.853 318.564 121.931 318.567 122.01 318.566C122.059 318.565 122.107 318.562 122.157 318.561L122.227 318.557C122.304 318.552 122.384 318.551 122.46 318.543C122.515 318.54 122.569 318.533 122.621 318.531L122.654 318.528C122.737 318.52 122.825 318.514 122.907 318.503C122.973 318.497 123.04 318.487 123.104 318.479C123.189 318.466 123.271 318.455 123.355 318.443C123.422 318.433 123.489 318.423 123.555 318.41C123.638 318.394 123.721 318.379 123.804 318.364C123.869 318.351 123.935 318.338 124.003 318.323C124.085 318.305 124.169 318.285 124.251 318.266C124.314 318.25 124.383 318.236 124.446 318.22C124.529 318.197 124.612 318.174 124.695 318.151L124.732 318.142C124.785 318.128 124.834 318.113 124.887 318.098C124.973 318.074 125.057 318.047 125.138 318.021L125.171 318.011C125.223 317.994 125.271 317.978 125.323 317.961C125.41 317.932 125.496 317.9 125.581 317.868L125.639 317.848C125.677 317.834 125.715 317.821 125.752 317.804C125.846 317.768 125.94 317.731 126.033 317.691L126.089 317.668C126.117 317.656 126.145 317.645 126.173 317.633C126.307 317.578 126.437 317.517 126.568 317.457L126.591 317.444C126.732 317.381 126.867 317.314 127.003 317.243L127.161 317.155C127.242 317.115 127.32 317.076 127.399 317.032C127.574 316.935 127.752 316.829 127.95 316.704L128.077 316.622C128.268 316.497 128.435 316.386 128.588 316.275L128.671 316.321L128.621 316.252C128.779 316.138 128.94 316.014 129.133 315.858L129.251 315.762C129.438 315.609 129.595 315.472 129.736 315.34C129.843 315.243 129.948 315.143 130.048 315.041L130.134 314.955C130.207 314.88 130.28 314.805 130.352 314.727L130.449 314.62C130.521 314.542 130.582 314.473 130.642 314.402L130.75 314.273C130.807 314.203 130.867 314.132 130.924 314.062L131.024 313.933C131.084 313.854 131.143 313.775 131.2 313.698L131.28 313.588C131.365 313.472 131.444 313.352 131.523 313.232C131.607 313.101 131.677 312.986 131.743 312.872C131.781 312.809 131.816 312.747 131.849 312.683L131.91 312.573C131.931 312.534 131.951 312.5 131.971 312.462C132.004 312.398 132.038 312.333 132.069 312.266L132.131 312.143C132.148 312.111 132.164 312.079 132.179 312.044C132.218 311.961 132.253 311.88 132.288 311.799L132.328 311.705C132.341 311.674 132.354 311.648 132.367 311.618C132.426 311.474 132.482 311.328 132.533 311.185L163.382 223.356C163.435 223.204 163.487 223.041 163.542 222.838L163.578 222.703C163.619 222.549 163.655 222.399 163.686 222.248L163.701 222.186C163.73 222.031 163.758 221.867 163.783 221.684C163.786 221.648 163.793 221.613 163.796 221.577C163.814 221.417 163.825 221.277 163.834 221.142L163.84 221.05C163.849 220.892 163.851 220.73 163.845 220.568L163.84 220.455C163.836 220.323 163.826 220.195 163.813 220.068L163.804 219.961C163.787 219.806 163.762 219.651 163.735 219.505L163.714 219.412C163.689 219.284 163.66 219.162 163.626 219.039L163.592 218.916C163.573 218.846 163.55 218.778 163.53 218.713L163.519 218.68C163.505 218.642 163.495 218.601 163.481 218.563C163.457 218.492 163.43 218.422 163.403 218.353L163.388 218.311C163.375 218.28 163.364 218.248 163.352 218.22C163.322 218.144 163.286 218.072 163.253 217.999L163.229 217.954C163.223 217.931 163.212 217.91 163.203 217.888C163.151 217.779 163.095 217.672 163.037 217.566L163.183 217.485L166.703 223.767C166.763 223.876 166.823 223.985 166.876 224.101C166.889 224.125 166.899 224.15 166.909 224.175L166.932 224.216C166.964 224.294 166.999 224.371 167.029 224.446C167.042 224.477 167.054 224.506 167.064 224.538L167.083 224.585C167.11 224.655 167.139 224.727 167.163 224.798C167.176 224.837 167.19 224.875 167.201 224.916L167.213 224.951C167.235 225.019 167.256 225.092 167.276 225.162L167.292 225.218C167.292 225.218 167.299 225.245 167.302 225.258L167.309 225.285C167.342 225.413 167.373 225.538 167.398 225.666L167.417 225.763C167.445 225.916 167.469 226.071 167.487 226.234L167.498 226.343C167.509 226.475 167.518 226.608 167.524 226.743L167.527 226.86C167.532 227.027 167.528 227.193 167.525 227.353L167.52 227.447C167.514 227.589 167.501 227.73 167.483 227.871L167.468 228.002C167.444 228.188 167.417 228.352 167.383 228.513L167.37 228.578C167.339 228.729 167.302 228.884 167.26 229.042C167.247 229.087 167.235 229.136 167.222 229.181C167.165 229.382 167.112 229.549 167.057 229.71L136.207 317.539C136.156 317.687 136.099 317.833 136.039 317.981C136.029 318.01 136.013 318.038 136.003 318.067L135.963 318.154C135.926 318.239 135.887 318.326 135.847 318.414C135.829 318.45 135.811 318.487 135.793 318.524L135.744 318.628C135.71 318.697 135.677 318.769 135.639 318.839C135.619 318.877 135.597 318.92 135.573 318.96L135.523 319.049C135.484 319.117 135.446 319.188 135.407 319.255L135.326 319.231L135.391 319.287C135.325 319.397 135.258 319.503 135.191 319.609C135.102 319.746 135.019 319.865 134.936 319.984L134.852 320.095C134.794 320.177 134.735 320.256 134.673 320.337L134.572 320.465C134.514 320.54 134.457 320.61 134.397 320.681C134.36 320.725 134.326 320.766 134.289 320.81C134.226 320.883 134.165 320.951 134.1 321.022C134.06 321.067 134.028 321.104 133.993 321.138C133.922 321.216 133.846 321.293 133.772 321.368L133.686 321.454C133.586 321.555 133.484 321.654 133.377 321.751C133.227 321.888 133.066 322.031 132.879 322.184L132.761 322.28C132.576 322.429 132.408 322.56 132.243 322.678L132.223 322.689C132.055 322.813 131.886 322.929 131.694 323.051C131.651 323.078 131.609 323.105 131.564 323.134C131.374 323.254 131.188 323.365 131.006 323.465L130.986 323.477C130.986 323.477 130.977 323.482 130.971 323.485L130.979 323.492ZM130.912 323.337L130.976 323.398L130.936 323.324C131.114 323.225 131.299 323.112 131.488 322.996C131.531 322.972 131.572 322.942 131.614 322.914C131.805 322.79 131.972 322.678 132.125 322.567L132.145 322.555C132.319 322.428 132.488 322.297 132.67 322.15L132.788 322.054C132.975 321.901 133.132 321.764 133.273 321.632C133.384 321.529 133.485 321.435 133.585 321.333L133.671 321.247C133.745 321.172 133.818 321.097 133.889 321.019C133.922 320.982 133.956 320.948 133.989 320.91C134.061 320.832 134.122 320.764 134.182 320.693C134.219 320.649 134.253 320.607 134.29 320.564C134.35 320.492 134.407 320.422 134.462 320.35L134.563 320.221C134.622 320.142 134.682 320.063 134.741 319.984L134.822 319.874C134.905 319.756 134.985 319.638 135.064 319.518C135.14 319.399 135.204 319.295 135.268 319.19L135.285 319.158C135.324 319.09 135.36 319.024 135.396 318.958L135.447 318.865C135.468 318.826 135.492 318.786 135.513 318.748C135.549 318.682 135.583 318.613 135.616 318.541L135.668 318.436C135.686 318.399 135.706 318.365 135.721 318.33C135.759 318.247 135.796 318.162 135.832 318.076L135.871 317.986C135.883 317.96 135.894 317.931 135.906 317.905C135.964 317.762 136.021 317.615 136.071 317.472L166.92 229.644C166.975 229.487 167.026 229.324 167.081 229.125C167.094 229.08 167.107 229.034 167.117 228.99C167.158 228.837 167.193 228.687 167.224 228.536L167.24 228.473C167.272 228.318 167.299 228.153 167.321 227.972L167.335 227.845C167.35 227.706 167.362 227.569 167.37 227.431L167.376 227.339C167.381 227.183 167.383 227.021 167.381 226.857L167.376 226.745C167.371 226.613 167.361 226.484 167.348 226.357L167.338 226.248C167.32 226.092 167.296 225.937 167.268 225.791L167.248 225.699C167.225 225.574 167.194 225.449 167.16 225.326L167.126 225.202C167.107 225.132 167.084 225.064 167.063 224.999L167.051 224.964C167.039 224.928 167.029 224.888 167.017 224.852C166.993 224.781 166.966 224.712 166.939 224.642L166.92 224.595C166.908 224.567 166.9 224.537 166.886 224.506C166.856 224.431 166.82 224.359 166.787 224.285L166.764 224.244C166.759 224.22 166.746 224.197 166.737 224.174C166.685 224.065 166.629 223.958 166.569 223.849L163.755 218.83C163.755 218.83 163.764 218.86 163.767 218.873L163.803 218.999C163.835 219.127 163.866 219.252 163.891 219.38L163.91 219.477C163.936 219.627 163.962 219.785 163.98 219.948L163.991 220.057C164.002 220.189 164.011 220.322 164.017 220.457L164.021 220.574C164.025 220.741 164.024 220.906 164.018 221.067L164.013 221.162C164.006 221.3 163.994 221.445 163.976 221.585C163.969 221.642 163.967 221.678 163.961 221.716C163.937 221.902 163.909 222.071 163.877 222.227L163.863 222.292C163.831 222.448 163.792 222.599 163.753 222.756L163.715 222.895C163.657 223.1 163.604 223.268 163.55 223.424L132.701 311.253C132.649 311.401 132.594 311.55 132.533 311.695C132.519 311.726 132.505 311.756 132.492 311.787L132.451 311.878C132.414 311.964 132.378 312.045 132.34 312.128C132.325 312.163 132.306 312.196 132.291 312.232L132.229 312.354C132.197 312.421 132.161 312.487 132.13 312.555C132.109 312.593 132.088 312.631 132.067 312.67L132.007 312.776C131.971 312.842 131.934 312.905 131.896 312.968C131.828 313.086 131.755 313.203 131.68 313.317L131.668 313.336C131.589 313.456 131.508 313.578 131.424 313.697L131.341 313.808C131.283 313.89 131.224 313.969 131.161 314.049L131.057 314.18C130.999 314.254 130.942 314.324 130.883 314.395L130.771 314.526C130.712 314.597 130.647 314.667 130.583 314.738L130.473 314.856C130.401 314.934 130.325 315.01 130.252 315.085L130.168 315.174C130.064 315.278 129.959 315.378 129.85 315.477C129.706 315.61 129.546 315.749 129.358 315.906L129.239 316.002C129.047 316.159 128.88 316.285 128.722 316.4L128.704 316.41C128.536 316.533 128.367 316.65 128.172 316.773L128.045 316.855C127.847 316.98 127.663 317.089 127.488 317.186C127.409 317.23 127.33 317.273 127.251 317.317L127.169 317.362C127.143 317.377 127.116 317.391 127.09 317.406C126.954 317.477 126.814 317.543 126.672 317.61L126.612 317.544L126.647 317.62C126.513 317.683 126.381 317.74 126.246 317.8C126.22 317.814 126.187 317.825 126.159 317.836L126.103 317.86C126.006 317.898 125.914 317.938 125.815 317.973C125.776 317.987 125.738 318 125.697 318.015L125.639 318.036C125.551 318.069 125.464 318.098 125.377 318.127C125.325 318.144 125.273 318.161 125.222 318.178L125.189 318.189C125.105 318.216 125.021 318.243 124.932 318.269C124.879 318.283 124.827 318.301 124.774 318.315L124.737 318.324C124.654 318.346 124.568 318.371 124.484 318.391C124.417 318.408 124.352 318.422 124.285 318.439C124.201 318.459 124.116 318.479 124.035 318.497C123.966 318.512 123.901 318.525 123.833 318.54C123.75 318.555 123.663 318.572 123.579 318.584C123.512 318.595 123.445 318.605 123.375 318.616C123.29 318.629 123.205 318.641 123.119 318.651C123.052 318.661 122.983 318.668 122.918 318.674C122.831 318.683 122.745 318.693 122.66 318.697L122.627 318.7C122.572 318.704 122.518 318.711 122.463 318.714C122.385 318.719 122.303 318.722 122.225 318.727L122.155 318.731C122.106 318.731 122.055 318.736 122.005 318.737C121.926 318.739 121.845 318.737 121.766 318.739L121.66 318.74C121.622 318.742 121.583 318.74 121.549 318.74C121.448 318.738 121.346 318.733 121.247 318.727L121.091 318.721C120.937 318.71 120.785 318.698 120.634 318.682L-72.0975 297.135L-68.6763 303.238L124.183 324.795C124.334 324.812 124.483 324.825 124.633 324.834L124.786 324.842C124.885 324.848 124.985 324.85 125.086 324.852C125.128 324.852 125.17 324.852 125.211 324.852L125.3 324.853C125.379 324.851 125.457 324.854 125.536 324.852C125.581 324.851 125.629 324.847 125.675 324.848L125.758 324.845C125.832 324.842 125.91 324.837 125.988 324.833C126.043 324.829 126.097 324.823 126.152 324.819L126.185 324.816C126.268 324.808 126.353 324.803 126.438 324.791C126.507 324.784 126.571 324.775 126.639 324.768C126.721 324.757 126.806 324.745 126.891 324.732C126.958 324.722 127.025 324.712 127.09 324.699C127.173 324.684 127.256 324.668 127.34 324.653C127.405 324.64 127.47 324.627 127.539 324.612C127.62 324.594 127.705 324.574 127.786 324.556C127.854 324.541 127.918 324.525 127.982 324.509C128.066 324.489 128.148 324.463 128.23 324.441C128.297 324.423 128.359 324.404 128.423 324.388C128.509 324.363 128.59 324.338 128.674 324.31L128.712 324.297C128.761 324.281 128.81 324.266 128.859 324.25C128.932 324.225 129.009 324.198 129.086 324.171L129.289 324.097C129.372 324.066 129.453 324.033 129.534 324L129.631 323.962C129.659 323.95 129.687 323.938 129.712 323.928C129.841 323.872 129.97 323.816 130.098 323.757L130.121 323.744C130.268 323.678 130.406 323.609 130.542 323.538L130.732 323.433C130.795 323.402 130.854 323.369 130.917 323.338L130.912 323.337Z" fill="black"/>
<path d="M132.624 311.226C130.999 315.85 125.641 319.151 120.653 318.591L-72.2506 297.031C-77.2372 296.474 -79.962 292.272 -78.3371 287.648L-47.488 199.82C-45.8647 195.193 -40.5047 191.895 -35.518 192.452L157.385 214.012C162.372 214.569 165.096 218.77 163.472 223.394L132.622 311.223L132.624 311.226ZM131.39 279.858L132.648 279.999C134.663 280.224 136.829 278.891 137.486 277.02L144.848 256.065C145.505 254.193 144.406 252.496 142.391 252.271L141.133 252.13C139.118 251.906 136.949 253.239 136.292 255.11L128.93 276.066C128.273 277.937 129.377 279.637 131.392 279.861" fill="#FF834E"/>
<path d="M127.429 317.218C125.356 318.365 122.959 318.935 120.643 318.677L-72.257 297.115C-74.7352 296.84 -76.737 295.672 -77.8919 293.833C-79.0098 292.053 -79.1953 289.846 -78.4127 287.622L-47.5637 199.793C-45.9281 195.14 -40.5199 191.811 -35.5047 192.372L157.398 213.932C159.877 214.207 161.878 215.375 163.033 217.215C164.151 218.994 164.337 221.201 163.554 223.426L132.705 311.254C131.825 313.759 129.852 315.882 127.434 317.22L127.429 317.218ZM-42.2127 193.971C-44.5934 195.288 -46.5394 197.377 -47.4071 199.848L-78.2561 287.677C-79.0198 289.852 -78.8411 292.006 -77.7506 293.743C-76.623 295.54 -74.6644 296.678 -72.2388 296.948L120.664 318.508C125.606 319.059 130.935 315.782 132.547 311.196L163.396 223.367C164.16 221.192 163.981 219.039 162.89 217.301C161.763 215.504 159.804 214.366 157.379 214.096L-35.5245 192.536C-37.8041 192.281 -40.1712 192.842 -42.2127 193.971ZM135.413 279.487C134.568 279.954 133.59 280.188 132.645 280.082L131.387 279.941C130.369 279.828 129.546 279.348 129.073 278.589C128.613 277.854 128.536 276.948 128.856 276.035L136.218 255.079C136.884 253.176 139.097 251.818 141.147 252.046L142.405 252.186C143.423 252.299 144.243 252.781 144.718 253.536C145.178 254.271 145.254 255.176 144.932 256.091L137.57 277.047C137.208 278.072 136.402 278.94 135.413 279.487ZM138.448 252.787C137.495 253.314 136.719 254.149 136.371 255.136L129.01 276.092C128.706 276.958 128.777 277.812 129.208 278.502C129.656 279.214 130.434 279.67 131.399 279.777L132.657 279.918C134.631 280.138 136.764 278.828 137.407 276.995L144.769 256.039C145.073 255.173 145.002 254.319 144.57 253.629C144.123 252.917 143.346 252.464 142.381 252.357L141.123 252.216C140.212 252.115 139.266 252.338 138.447 252.791L138.448 252.787Z" fill="black"/>
<path d="M161.172 218.378C161.923 219.578 162.036 221.108 161.48 222.685L130.631 310.514C130.188 311.779 129.355 312.98 128.223 313.986C126.172 315.808 123.359 316.765 120.881 316.489L-72.024 294.926C-73.8191 294.726 -75.245 293.922 -76.0363 292.664C-76.786 291.468 -76.8958 289.936 -76.3427 288.36L-45.4936 200.532C-45.0484 199.265 -44.2139 198.067 -43.082 197.061C-41.0301 195.239 -38.2175 194.282 -35.7423 194.559L157.161 216.119C158.956 216.32 160.382 217.123 161.17 218.383L161.172 218.378Z" fill="#FDA813"/>
<path d="M137.489 277.019C136.832 278.89 134.666 280.222 132.651 279.998L131.393 279.857C129.378 279.632 128.274 277.933 128.932 276.062L136.293 255.106C136.951 253.235 139.117 251.903 141.134 252.126L142.392 252.267C144.407 252.491 145.508 254.192 144.851 256.063L137.489 277.019Z" fill="#E7D6B8"/>
<path d="M135.413 279.487C134.568 279.954 133.59 280.188 132.642 280.084L131.384 279.943C130.367 279.83 129.543 279.349 129.07 278.591C128.61 277.855 128.533 276.95 128.853 276.037L136.215 255.081C136.883 253.181 139.092 251.817 141.145 252.048L142.403 252.188C143.42 252.301 144.24 252.783 144.715 253.537C145.175 254.273 145.252 255.178 144.929 256.093L137.567 277.049C137.206 278.074 136.399 278.942 135.41 279.489L135.413 279.487ZM138.448 252.787C137.495 253.314 136.719 254.149 136.371 255.136L129.01 276.092C128.706 276.958 128.777 277.813 129.208 278.503C129.656 279.214 130.435 279.67 131.399 279.777L132.657 279.918C134.631 280.138 136.764 278.828 137.407 276.995L144.769 256.039C145.073 255.173 145.002 254.319 144.57 253.629C144.123 252.917 143.346 252.464 142.381 252.357L141.123 252.216C140.212 252.115 139.266 252.338 138.447 252.791L138.448 252.787Z" fill="black"/>
<path d="M95.5398 272.146C91.7081 269.735 89.9846 265.693 90.8734 262.086L89.2914 268.493C88.4009 272.097 90.1215 276.14 93.9561 278.551L285.847 399.287L287.429 392.88L95.5427 272.145L95.5398 272.146Z" fill="#0D67AA"/>
<path d="M285.898 399.421L285.8 399.36L93.8547 278.588C90.1618 276.233 88.2969 272.178 89.2114 268.472L90.7912 262.082C90.7912 262.082 90.7938 262.073 90.7934 262.065L90.9569 262.105L90.9546 262.122C90.0616 265.769 91.9209 269.767 95.5849 272.076L287.524 392.844L285.898 399.421ZM94.0568 278.518L285.789 399.155L287.332 392.919L95.4952 272.217C92.2963 270.204 90.4482 266.917 90.5682 263.674L89.3719 268.514C88.4701 272.166 90.3298 276.171 93.9983 278.481L94.0568 278.518Z" fill="black"/>
<path d="M145.327 220.515L130.833 239.093C129.539 240.752 126.864 241.073 124.859 239.811L123.609 239.021C121.605 237.759 121.029 235.391 122.321 233.737L136.815 215.159C138.111 213.503 140.783 213.176 142.787 214.439L144.037 215.228C146.042 216.49 146.62 218.856 145.325 220.512L145.327 220.515Z" fill="#F7E0BE"/>
<path d="M129.756 240.115C128.331 240.902 126.37 240.863 124.813 239.886L123.563 239.097C122.509 238.433 121.793 237.421 121.6 236.327C121.432 235.38 121.666 234.445 122.257 233.688L136.751 215.111C138.07 213.422 140.797 213.092 142.834 214.371L144.084 215.16C145.139 215.824 145.858 216.834 146.049 217.933C146.216 218.877 145.982 219.815 145.391 220.568L130.897 239.146C130.586 239.544 130.196 239.867 129.754 240.112L129.756 240.115ZM137.976 214.288C137.552 214.522 137.18 214.831 136.882 215.211L122.388 233.788C121.826 234.506 121.607 235.394 121.765 236.293C121.948 237.343 122.637 238.312 123.654 238.95L124.904 239.74C126.872 240.977 129.503 240.665 130.766 239.041L145.26 220.464C145.822 219.747 146.041 218.858 145.884 217.959C145.701 216.91 145.012 215.94 143.994 215.302L142.744 214.512C141.24 213.568 139.35 213.527 137.976 214.288Z" fill="black"/>
<path d="M153.1 181.216C156.298 177.115 162.913 176.322 167.873 179.441L359.761 300.179C364.723 303.302 366.149 309.154 362.95 313.252L302.204 391.108C299.004 395.211 292.391 396.002 287.431 392.883L95.5427 272.145C90.5828 269.025 89.155 263.17 92.3569 259.071L153.103 181.214L153.1 181.216ZM144.037 215.228L142.784 214.44C140.78 213.178 138.106 213.501 136.811 215.158L122.317 233.735C121.023 235.395 121.597 237.759 123.605 239.02L124.858 239.807C126.862 241.07 129.537 240.749 130.831 239.09L145.325 220.512C146.619 218.853 146.04 216.487 144.036 215.225" fill="#17235D"/>
<path d="M299.477 393.518C295.991 395.446 291.193 395.349 287.382 392.953L95.4936 272.214C92.9121 270.592 91.1609 268.123 90.6884 265.445C90.2816 263.142 90.8474 260.857 92.2845 259.015L153.031 181.159C156.25 177.034 162.926 176.227 167.912 179.366L359.8 300.104C362.382 301.727 364.133 304.196 364.606 306.873C365.012 309.177 364.445 311.459 363.008 313.301L302.262 391.157C301.501 392.13 300.552 392.92 299.472 393.517L299.477 393.518ZM153.101 181.216L153.167 181.267L92.421 259.124C91.0122 260.927 90.4578 263.164 90.8581 265.421C91.324 268.052 93.0463 270.475 95.5895 272.077L287.478 392.815C292.393 395.909 298.973 395.121 302.139 391.06L362.885 313.203C364.291 311.402 364.849 309.164 364.45 306.909C363.984 304.278 362.26 301.852 359.718 300.253L167.83 179.515C162.915 176.421 156.338 177.208 153.169 181.27L153.102 181.219L153.101 181.216ZM129.757 240.11C128.33 240.899 126.371 240.858 124.815 239.881L123.562 239.093C122.507 238.43 121.793 237.421 121.598 236.324C121.43 235.377 121.663 234.438 122.253 233.682L136.747 215.105C138.064 213.418 140.794 213.086 142.829 214.369L144.082 215.157C145.137 215.821 145.856 216.831 146.047 217.93C146.216 218.877 145.981 219.812 145.394 220.567L130.9 239.144C130.589 239.542 130.199 239.866 129.757 240.11ZM137.976 214.287C137.552 214.522 137.18 214.831 136.882 215.211L122.388 233.788C121.826 234.506 121.606 235.399 121.766 236.296C121.952 237.344 122.641 238.313 123.654 238.95L124.907 239.738C126.875 240.975 129.506 240.663 130.772 239.038L145.266 220.461C145.825 219.745 146.047 218.855 145.888 217.953C145.703 216.9 145.013 215.935 143.999 215.296L142.746 214.508C141.242 213.563 139.352 213.523 137.977 214.283L137.976 214.287Z" fill="black"/>
<g opacity="0.2">
<path d="M358.55 302.119L166.659 181.382C163.696 179.519 159.807 179.317 156.982 180.88C156.152 181.339 155.451 181.93 154.903 182.632L94.1542 260.49C93.1215 261.813 92.7286 263.389 93.022 265.045C93.3788 267.057 94.7377 268.941 96.7512 270.206L288.638 390.942C291.601 392.806 295.494 393.008 298.319 391.446C299.15 390.987 299.851 390.396 300.398 389.694L361.145 311.837C362.177 310.514 362.57 308.939 362.277 307.283C361.923 305.268 360.561 303.386 358.55 302.119ZM124.859 239.81L123.609 239.021C121.605 237.758 121.029 235.391 122.322 233.737L136.815 215.159C138.111 213.503 140.783 213.176 142.787 214.438L144.037 215.228C146.042 216.49 146.621 218.856 145.325 220.512L130.831 239.09C129.538 240.749 126.862 241.07 124.858 239.808L124.859 239.81Z" fill="black"/>
</g>
<path d="M-36.8914 286.258L-0.330991 212.251L5.62468 212.606L-29.0578 287.826L-36.8914 286.258Z" fill="#CC693E"/>
<path d="M327.326 302.468L286.699 358.134C286.699 358.134 220.455 301.895 174.651 276.896L208.085 213.154C208.085 213.154 296.777 259.702 327.323 302.47L327.326 302.468Z" fill="#17235D"/>
<path d="M286.716 358.255L286.646 358.198C285.984 357.636 219.885 301.678 174.613 276.971L174.541 276.93L174.579 276.855L208.054 213.041L208.129 213.08C208.349 213.196 230.603 224.913 256.3 241.704C271.394 251.565 284.705 261.222 295.865 270.408C309.816 281.89 320.428 292.661 327.399 302.421L327.434 302.47L327.401 302.52L286.721 358.257L286.716 358.255ZM174.765 276.86C219.4 301.244 284.201 355.91 286.688 358.01L327.226 302.467C320.262 292.733 309.675 281.988 295.76 270.535C284.606 261.354 271.298 251.703 256.209 241.843C231.259 225.54 209.561 214.026 208.125 213.267L174.765 276.86Z" fill="black"/>
<path d="M285.816 352.948C272.513 341.863 218.938 297.923 179.22 275.531L209.541 217.728C216.171 221.174 233.126 230.235 252.163 242.373C283.134 262.118 310.689 285.942 323.24 302.649L285.816 352.948Z" fill="#0D67AA"/>
<path d="M285.831 353.071L285.761 353.013C270.683 340.451 218.435 297.738 179.179 275.608L179.107 275.567L179.144 275.497L209.504 217.618L209.579 217.657C216.031 221.01 233.103 230.125 252.207 242.307C267.156 251.837 281.835 262.656 294.663 273.593C307.129 284.22 317.032 294.255 323.307 302.604L323.347 302.655L323.31 302.706L285.833 353.073L285.831 353.071ZM179.333 275.5C218.536 297.617 270.643 340.2 285.802 352.826L323.137 302.649C316.867 294.315 306.984 284.312 294.554 273.715C281.734 262.784 267.061 251.97 252.119 242.444C233.094 230.315 216.086 221.225 209.578 217.842L179.333 275.5Z" fill="black"/>
<g opacity="0.2">
<path d="M220.146 296.895L264.091 330.231L286.376 262.987L268.301 248.971L220.146 296.895Z" fill="black"/>
</g>
<path d="M96.5145 238.867L137.134 173.235C137.134 173.235 232.527 207.315 275.337 241.693L243.645 310.844C243.645 310.844 124.176 237.96 96.5132 238.872L96.5145 238.867Z" fill="#FDA813"/>
<path d="M243.683 310.961L243.603 310.913C243.303 310.73 213.357 292.486 180.414 274.588C161.068 264.075 144.488 255.739 131.141 249.808C114.463 242.4 102.815 238.748 96.5167 238.954L96.3598 238.961L96.4423 238.827L137.098 173.136L137.16 173.159C137.399 173.246 161.345 181.829 190.214 194.499C207.17 201.941 222.479 209.319 235.718 216.422C252.271 225.303 265.617 233.786 275.386 241.631L275.436 241.672L275.409 241.734L243.679 310.967L243.683 310.961ZM96.6695 238.782C103.026 238.639 114.646 242.295 131.209 249.655C144.561 255.587 161.143 263.927 180.493 274.441C212.598 291.886 241.86 309.659 243.608 310.722L275.231 241.717C263.011 231.913 238.339 215.801 190.148 194.65C162.016 182.302 138.558 173.836 137.168 173.339L96.6665 238.783L96.6695 238.782Z" fill="black"/>
<path d="M242.136 305.946C233.464 300.729 208.743 286.007 182.07 271.512C143.446 250.526 116.686 238.615 102.306 235.998L138.578 177.393C145.508 179.945 165.585 187.498 188.868 197.721C225.29 213.711 253.636 229.221 271.116 242.707L242.133 305.948L242.136 305.946Z" fill="#F7E0BE"/>
<path d="M242.173 306.068L242.093 306.02C232.843 300.455 208.476 285.959 182.031 271.587C143.484 250.643 116.655 238.697 102.295 236.081L102.173 236.06L102.237 235.956L138.545 177.293L138.607 177.316C146.045 180.054 165.837 187.52 188.902 197.645C225.249 213.603 253.695 229.162 271.169 242.644L271.221 242.684L271.194 242.745L242.171 306.072L242.173 306.068ZM102.444 235.937C116.853 238.6 143.653 250.541 182.109 271.437C208.481 285.768 232.788 300.224 242.099 305.825L271.017 242.728C253.55 229.265 225.135 213.727 188.838 197.792C165.843 187.697 146.103 180.248 138.616 177.491L102.447 235.935L102.444 235.937Z" fill="black"/>
<path d="M-81.4615 204.479L-48.9042 136.679C-48.9042 136.679 -50.4416 176.861 0.919375 217.882L-30.2598 285.211C-30.2598 285.211 -74.3879 256.53 -81.4615 204.479Z" fill="#CA860F"/>
<path d="M-30.223 285.333L-30.3046 285.282C-34.1259 282.799 -43.8377 275.245 -53.269 264.42C-60.1917 256.474 -66.0058 247.95 -70.5497 239.092C-76.229 228.015 -79.9292 216.372 -81.5434 204.49L-81.546 204.464L-81.5349 204.443L-48.8047 136.279L-48.8187 136.682C-48.9497 140.154 -47.9408 149.885 -43.1699 161.875C-39.6662 170.676 -34.7188 179.415 -28.461 187.843C-20.6369 198.379 -10.736 208.464 0.973367 217.814L1.02601 217.854L0.998709 217.915L-30.2201 285.331L-30.223 285.333ZM-81.3741 204.492C-79.7612 216.345 -76.0681 227.96 -70.4035 239.011C-65.8661 247.858 -60.0614 256.372 -53.1498 264.304C-43.7941 275.04 -34.1648 282.556 -30.2965 285.089L0.814134 217.906C-10.8832 208.557 -20.7825 198.475 -28.6037 187.938C-34.8695 179.494 -39.8264 170.745 -43.3353 161.928C-48.6626 148.539 -48.9909 139.029 -48.9958 137.052L-81.3741 204.492Z" fill="black"/>
<g opacity="0.2">
<path d="M208.948 203.097L181.698 263.457L107.85 234.819L137.133 173.235L208.948 203.097Z" fill="black"/>
</g>
<path d="M160.599 251.486L192.465 185.807C192.465 185.807 102.713 143.49 56.0715 149.772L21.6215 217.609C21.6215 217.609 118.483 232.653 160.597 251.491L160.599 251.486Z" fill="#17235D"/>
<path d="M160.639 251.594L160.565 251.562C148.559 246.194 124.024 237.672 75.3 227.565C46.1587 221.522 21.8512 217.727 21.6085 217.689L21.4954 217.671L21.5493 217.568L56.0201 149.693L56.0633 149.688C66.7122 148.253 80.5096 149.259 97.0783 152.671C110.328 155.4 125.372 159.667 141.786 165.356C169.736 175.039 192.277 185.627 192.501 185.733L192.579 185.771L192.541 185.849L160.64 251.601L160.639 251.594ZM21.7472 217.539C23.5956 217.829 47.2148 221.567 75.3303 227.399C102.199 232.973 138.785 241.655 160.556 251.375L192.351 185.843C190.876 185.151 168.848 174.905 141.73 165.51C125.321 159.825 110.287 155.56 97.0419 152.834C80.5155 149.428 66.7495 148.424 56.1257 149.849L21.7459 217.544L21.7472 217.539Z" fill="black"/>
<path d="M158.953 247.059C141.07 239.558 113.191 231.854 75.9943 224.138C54.2856 219.636 35.2423 216.375 26.7815 214.985L58.2888 152.946C98.9315 148.654 171.867 180.24 187.871 187.453L158.953 247.059Z" fill="#0D67AA"/>
<path d="M158.993 247.167L158.92 247.139C141.048 239.643 113.142 231.931 75.9801 224.223C54.6204 219.792 35.9806 216.584 26.7701 215.068L26.657 215.05L26.708 214.949L58.2345 152.868L58.2777 152.863C75.527 151.043 100.446 155.397 132.341 165.806C157.527 174.026 179.585 183.63 187.903 187.378L187.984 187.414L187.947 187.492L158.99 247.169L158.993 247.167ZM26.9089 214.918C36.1587 216.444 54.7367 219.643 76.0103 224.057C113.134 231.758 141.024 239.461 158.912 246.951L187.759 187.492C179.387 183.72 157.394 174.153 132.294 165.963C100.446 155.57 75.5689 151.215 58.343 153.023L26.9089 214.918Z" fill="black"/>
<g opacity="0.2">
<path d="M25.0193 210.915L78.6811 217.029L107.278 155.072L76.0036 148.839L52.1916 148.012L25.0193 210.915Z" fill="black"/>
</g>
<path d="M63.5959 208.66L96.1802 141.448C96.1802 141.448 39.887 126.93 0.257528 149.552L-30.5301 216.829C-30.5301 216.829 18.4188 198.959 63.5943 208.657L63.5959 208.66Z" fill="#FDA813"/>
<path d="M63.642 208.757L63.577 208.743C40.2561 203.736 15.9216 206.225 -0.388595 209.191C-18.061 212.408 -30.3757 216.867 -30.4995 216.912L-30.6867 216.981L-30.6048 216.798L0.192193 149.496L0.215587 149.483C9.26211 144.315 19.9383 140.678 31.9501 138.662C41.5552 137.052 52.0299 136.469 63.0846 136.935C81.9012 137.728 96.0629 141.332 96.2023 141.37L96.3007 141.397L96.2569 141.49L63.6436 208.76L63.642 208.757ZM-30.3686 216.686C-28.7522 216.115 -16.9184 212.029 -0.42108 209.029C15.8875 206.06 40.2191 203.572 63.5484 208.567L96.0599 141.507C94.7611 141.182 81.0429 137.861 63.0739 137.102C52.0341 136.636 41.5698 137.217 31.9768 138.828C20.3871 140.772 10.0417 144.233 1.20902 149.118C0.913618 149.281 0.615297 149.446 0.323148 149.616L-30.3686 216.686Z" fill="black"/>
<path d="M61.6776 204.791C38.6147 200.381 14.987 202.836 -1.02746 205.75C-10.7573 207.521 -18.8 209.629 -24.2071 211.219L2.89257 151.997C13.782 145.99 33.0738 139.126 63.2262 140.444C75.56 140.985 85.8189 142.747 91.2227 143.844L61.6747 204.792L61.6776 204.791Z" fill="#F7E0BE"/>
<path d="M61.725 204.883L61.6616 204.873C38.5247 200.446 14.8063 202.951 -1.01353 205.831C-10.9439 207.639 -19.0935 209.802 -24.1828 211.297L-24.3602 211.349L2.8269 151.933L2.85029 151.92C13.7339 145.917 33.0429 139.036 63.2284 140.359C75.7257 140.905 86.1428 142.725 91.2386 143.763L91.3458 143.784L91.3007 143.882L61.7266 204.886L61.725 204.883ZM-24.0541 211.088C-18.9498 209.592 -10.8666 207.455 -1.04309 205.667C14.7767 202.788 38.4876 200.282 61.6285 204.695L91.1024 143.903C85.9722 142.865 75.6204 141.067 63.2252 140.525C33.0998 139.208 13.8271 146.064 2.95785 152.053L-24.0528 211.083L-24.0541 211.088Z" fill="black"/>
<path d="M-35.7435 195.296L-24.3082 191.451L9.0415 122.757C9.0415 122.757 -9.78265 128.214 -20.3638 139.019C-30.9449 149.824 -49.6439 207.427 -49.6439 207.427L-35.7419 195.299L-35.7435 195.296Z" fill="#17235D"/>
<path d="M-49.8197 207.689L-49.7274 207.4C-49.5412 206.825 -30.9013 149.654 -20.4278 138.958C-9.95293 128.258 8.82768 122.729 9.01551 122.675L9.19586 122.621L-24.2484 191.517L-24.2809 191.528L-35.7029 195.37L-49.8213 207.686L-49.8197 207.689ZM-8.02656 130.105C-12.3786 132.512 -16.8069 135.506 -20.3043 139.078C-30.3648 149.353 -48.0134 202.723 -49.4681 207.164L-35.7825 195.226L-35.7679 195.218L-24.3634 191.385L8.88259 122.891C7.61001 123.276 -0.0787577 125.706 -8.02819 130.102L-8.02656 130.105Z" fill="black"/>
<path d="M-41.6191 195.887L-47.506 201.023C-40.7525 181.681 -31.5926 159.094 -27.2652 149.868C-25.5093 146.123 -11.1563 135.626 -6.38607 132.988C-3.3268 131.296 -0.305228 129.909 2.2955 128.832L-26.7514 188.662L-32.2714 190.518C-35.7102 191.676 -38.8852 193.497 -41.6178 195.883L-41.6191 195.887Z" fill="#0D67AA"/>
<path d="M-47.6874 201.296L-47.5821 200.996C-41.0405 182.259 -31.8318 159.414 -27.3371 149.835C-25.5591 146.047 -11.3312 135.635 -6.42056 132.919C-3.74443 131.439 -0.820679 130.041 2.26686 128.759L2.47127 128.673L2.37507 128.872L-26.6855 188.733L-32.2392 190.604C-35.6855 191.762 -38.8196 193.56 -41.561 195.951L-47.6874 201.296ZM-6.34388 133.065C-11.1053 135.698 -25.4603 146.219 -27.1872 149.905C-31.6544 159.431 -40.7864 182.076 -47.3202 200.751L-41.6699 195.823C-38.9125 193.42 -35.758 191.61 -32.2942 190.443L-26.8067 188.597L2.12744 128.997C-0.881775 130.255 -3.72753 131.622 -6.33932 133.066L-6.34388 133.065Z" fill="black"/>
<path d="M236.3 290.206L238.267 291.34L238.004 292.018L237.497 291.723L235.58 296.674L235.973 296.901L235.764 297.435C235.552 297.314 235.384 297.28 235.257 297.34C235.245 297.346 235.233 297.352 235.222 297.359C235.095 297.441 234.984 297.606 234.888 297.847L234.121 297.407L236.538 291.176L236.032 290.883L236.298 290.203L236.3 290.206Z" fill="#FAFAFA"/>
<path d="M231.083 287.018C231.534 287.279 231.835 287.596 231.986 287.973C232.137 288.349 232.122 288.772 231.942 289.24L230.234 293.637C230.079 294.041 229.866 294.305 229.596 294.431C229.555 294.454 229.509 294.468 229.462 294.479C229.126 294.576 228.734 294.49 228.286 294.231C227.838 293.973 227.536 293.656 227.382 293.281C227.228 292.906 227.245 292.486 227.425 292.018L229.13 287.622C229.286 287.214 229.503 286.944 229.772 286.822C229.813 286.799 229.859 286.786 229.906 286.775C230.242 286.677 230.634 286.764 231.082 287.022L231.083 287.018ZM231.027 288.58C231.11 288.365 231.137 288.185 231.104 288.042C231.074 287.905 230.975 287.788 230.818 287.698C230.663 287.611 230.536 287.589 230.426 287.638C230.312 287.694 230.215 287.836 230.128 288.06L228.338 292.675C228.255 292.89 228.228 293.07 228.264 293.204C228.297 293.339 228.393 293.451 228.551 293.544C228.699 293.631 228.828 293.651 228.934 293.6C229.054 293.542 229.15 293.404 229.237 293.188L231.024 288.574" fill="#FAFAFA"/>
<path d="M227.755 285.102C228.204 285.361 228.504 285.682 228.658 286.057C228.809 286.434 228.794 286.856 228.614 287.324L226.909 291.72C226.752 292.121 226.538 292.39 226.269 292.511C226.228 292.534 226.182 292.548 226.137 292.562C225.802 292.655 225.409 292.573 224.961 292.314C224.512 292.056 224.213 291.734 224.057 291.364C223.902 290.993 223.919 290.569 224.1 290.101L225.802 285.707C225.961 285.297 226.177 285.031 226.447 284.905C226.488 284.882 226.534 284.869 226.58 284.855C226.914 284.762 227.307 284.844 227.755 285.102ZM227.699 286.664C227.784 286.452 227.809 286.27 227.775 286.131C227.743 285.991 227.647 285.88 227.489 285.787C227.337 285.698 227.204 285.68 227.097 285.727C226.981 285.788 226.884 285.922 226.799 286.149L225.007 290.762C224.926 290.979 224.897 291.156 224.932 291.294C224.969 291.431 225.061 291.542 225.219 291.634C225.374 291.721 225.504 291.742 225.611 291.694C225.724 291.635 225.824 291.499 225.906 291.281L227.698 286.669" fill="#FAFAFA"/>
<path d="M234.41 288.938C234.859 289.196 235.161 289.516 235.313 289.893C235.465 290.272 235.449 290.692 235.269 291.16L233.563 295.556C233.404 295.958 233.191 296.222 232.924 296.347C232.883 296.37 232.837 296.383 232.791 296.397C232.457 296.49 232.064 296.408 231.616 296.15C231.166 295.888 230.864 295.571 230.712 295.199C230.562 294.825 230.574 294.405 230.755 293.936L232.46 289.541C232.619 289.13 232.833 288.862 233.105 288.739C233.146 288.716 233.192 288.702 233.237 288.689C233.572 288.596 233.965 288.678 234.413 288.936L234.41 288.938ZM234.354 290.5C234.438 290.28 234.467 290.103 234.432 289.965C234.399 289.83 234.303 289.711 234.146 289.621C233.993 289.529 233.862 289.513 233.751 289.563C233.637 289.618 233.538 289.757 233.454 289.985L231.667 294.598C231.582 294.818 231.556 294.993 231.589 295.128C231.625 295.27 231.722 295.381 231.878 295.471C232.029 295.557 232.16 295.58 232.263 295.531C232.386 295.47 232.479 295.335 232.564 295.115L234.355 290.503" fill="#FAFAFA"/>
<path d="M155.7 232.78L156.955 233.317L156.289 237.975L156.179 238.66L156.235 238.672L156.423 238.023L157.891 233.716L158.922 234.159L156.475 240.231L155.224 239.695L155.859 235.147L155.962 234.469L155.914 234.445L155.718 235.106L154.289 239.296L153.256 238.85L155.7 232.78Z" fill="white"/>
<path d="M147.323 229.034C147.808 229.241 148.141 229.505 148.318 229.826C148.497 230.149 148.505 230.516 148.34 230.922L146.786 234.782C146.634 235.157 146.408 235.398 146.107 235.51C146.079 235.522 146.05 235.53 146.02 235.539C145.674 235.631 145.26 235.572 144.771 235.367C144.286 235.159 143.951 234.892 143.768 234.575C143.59 234.259 143.578 233.893 143.749 233.484L145.304 229.624C145.457 229.244 145.684 229 145.987 228.89C146.015 228.878 146.044 228.87 146.075 228.864C146.422 228.772 146.839 228.829 147.324 229.036L147.323 229.034ZM147.347 230.39C147.424 230.197 147.441 230.042 147.4 229.919C147.362 229.802 147.254 229.704 147.08 229.632C146.925 229.564 146.791 229.55 146.683 229.59L146.66 229.603C146.548 229.65 146.453 229.775 146.378 229.97L144.744 234.02C144.667 234.212 144.652 234.363 144.691 234.483C144.737 234.599 144.843 234.694 145.011 234.77C145.169 234.836 145.3 234.852 145.408 234.811L145.431 234.798C145.546 234.75 145.639 234.63 145.716 234.437L147.347 230.39Z" fill="white"/>
<path d="M152.966 231.606L155.092 232.517L154.855 233.117L154.306 232.883L152.556 237.227L152.977 237.408L152.79 237.877C152.57 237.783 152.397 237.76 152.271 237.803C152.254 237.812 152.235 237.819 152.217 237.829C152.085 237.902 151.977 238.05 151.893 238.265L151.066 237.909L153.271 232.435L152.725 232.2L152.962 231.6L152.966 231.606Z" fill="white"/>
<path d="M143.725 227.494C144.212 227.704 144.545 227.969 144.722 228.289C144.901 228.612 144.908 228.976 144.746 229.388L143.191 233.248C143.04 233.624 142.813 233.864 142.513 233.976C142.485 233.988 142.455 233.997 142.426 234.005C142.079 234.097 141.662 234.04 141.177 233.833C140.692 233.625 140.358 233.361 140.175 233.044C139.995 232.725 139.986 232.362 140.157 231.953L141.71 228.09C141.862 227.71 142.09 227.466 142.392 227.356C142.42 227.344 142.45 227.336 142.479 227.327C142.826 227.235 143.243 227.292 143.728 227.5L143.725 227.494ZM143.75 228.845C143.825 228.655 143.842 228.499 143.802 228.379C143.758 228.258 143.652 228.163 143.483 228.092C143.327 228.024 143.192 228.007 143.087 228.046C143.078 228.051 143.072 228.054 143.063 228.059C142.952 228.113 142.856 228.235 142.78 228.43L141.148 232.483C141.074 232.673 141.057 232.829 141.098 232.944C141.142 233.058 141.249 233.156 141.419 233.227C141.574 233.294 141.705 233.31 141.813 233.27C141.822 233.265 141.828 233.262 141.836 233.257C141.946 233.208 142.04 233.087 142.117 232.895L143.75 228.845Z" fill="white"/>
<path d="M150.917 230.575C151.402 230.783 151.737 231.05 151.915 231.37C152.093 231.693 152.1 232.058 151.934 232.468L150.381 236.331C150.228 236.704 150.003 236.947 149.701 237.056C149.673 237.068 149.643 237.077 149.612 237.082C149.266 237.174 148.851 237.116 148.362 236.907C147.878 236.702 147.545 236.438 147.362 236.121C147.185 235.801 147.175 235.438 147.338 235.029L148.896 231.167C149.047 230.785 149.279 230.541 149.584 230.43C149.612 230.418 149.639 230.411 149.665 230.404C150.013 230.315 150.431 230.372 150.916 230.58L150.917 230.575ZM150.944 231.93C151.023 231.74 151.039 231.582 150.999 231.462C150.957 231.344 150.851 231.249 150.68 231.175C150.524 231.107 150.39 231.093 150.285 231.132C150.277 231.136 150.268 231.141 150.262 231.145C150.152 231.194 150.057 231.319 149.979 231.516L148.348 235.564C148.271 235.756 148.255 235.907 148.298 236.025C148.339 236.141 148.448 236.234 148.616 236.31C148.776 236.378 148.905 236.391 149.014 236.354C149.023 236.349 149.029 236.346 149.038 236.341C149.149 236.287 149.244 236.169 149.322 235.977L150.95 231.926" fill="white"/>
<path d="M49.949 191.615C50.4601 191.731 50.8153 191.911 51.02 192.143C51.2235 192.379 51.254 192.669 51.1055 193.009L49.7468 196.208C49.6135 196.519 49.3951 196.732 49.0932 196.849C49.0653 196.861 49.0357 196.869 49.0061 196.878C48.6558 196.984 48.2259 196.98 47.7176 196.862C47.2094 196.744 46.8484 196.568 46.642 196.333C46.4402 196.099 46.4113 195.812 46.5523 195.473L47.9111 192.274C48.0456 191.958 48.264 191.745 48.5688 191.626C48.5968 191.615 48.6263 191.606 48.6559 191.597C49.0046 191.489 49.4332 191.497 49.9444 191.614L49.949 191.615ZM50.0565 192.679C50.1215 192.521 50.1296 192.397 50.0793 192.306C50.0305 192.218 49.9168 192.151 49.7368 192.108C49.572 192.073 49.4342 192.072 49.3266 192.112L49.3032 192.125C49.1885 192.173 49.1034 192.282 49.0325 192.444L47.6043 195.8C47.5393 195.959 47.5266 196.081 47.5799 196.171C47.6302 196.262 47.7453 196.325 47.9282 196.366C48.0917 196.406 48.2279 196.403 48.3354 196.363L48.3617 196.348C48.4735 196.302 48.5603 196.196 48.6269 196.041L50.0581 192.682" fill="#F6F6F6"/>
<path d="M46.1677 190.744C46.6805 190.864 47.037 191.039 47.2433 191.274C47.4422 191.509 47.4757 191.797 47.3288 192.139L45.9701 195.339C45.8397 195.648 45.6214 195.861 45.3165 195.98C45.2886 195.992 45.259 196 45.2294 196.009C44.8791 196.115 44.4492 196.111 43.941 195.993C43.4298 195.876 43.0717 195.698 42.8699 195.465C42.6664 195.228 42.6375 194.941 42.7802 194.605L44.1389 191.406C44.278 191.091 44.4948 190.875 44.7983 190.761C44.8262 190.75 44.8558 190.741 44.8854 190.732C45.2357 190.627 45.6627 190.632 46.171 190.75L46.1677 190.744ZM46.2769 191.812C46.3419 191.653 46.3529 191.528 46.3013 191.442C46.2509 191.351 46.1342 191.285 45.9587 191.244C45.7924 191.205 45.6546 191.205 45.547 191.245C45.5382 191.25 45.5324 191.253 45.5236 191.258C45.4122 191.312 45.3254 191.417 45.2545 191.579L43.8263 194.936C43.7567 195.093 43.7502 195.22 43.8019 195.306C43.8506 195.394 43.9702 195.459 44.1457 195.5C44.3092 195.54 44.4453 195.537 44.5529 195.497C44.5616 195.492 44.5675 195.489 44.5763 195.484C44.6894 195.433 44.7778 195.33 44.8427 195.172L46.274 191.814" fill="#F6F6F6"/>
<path d="M53.7257 192.484C54.2369 192.601 54.5921 192.78 54.7939 193.014C55.0003 193.249 55.0279 193.54 54.8823 193.878L53.5206 197.079C53.3857 197.387 53.1719 197.601 52.87 197.719C52.8421 197.73 52.8125 197.739 52.7829 197.748C52.4342 197.856 52.0027 197.849 51.4899 197.73C50.9833 197.615 50.6252 197.437 50.4204 197.205C50.2157 196.973 50.1868 196.686 50.3308 196.345L51.6895 193.146C51.824 192.83 52.0453 192.616 52.3472 192.498C52.3752 192.487 52.4031 192.475 52.4343 192.469C52.7817 192.366 53.2117 192.37 53.7228 192.486L53.7257 192.484ZM53.8349 193.552C53.9015 193.396 53.908 193.27 53.8577 193.179C53.8089 193.09 53.6952 193.023 53.5152 192.98C53.3504 192.945 53.2155 192.943 53.105 192.985C53.0963 192.99 53.0904 192.993 53.0817 192.998C52.9715 193.047 52.8818 193.154 52.8126 193.319L51.3843 196.676C51.3193 196.834 51.3082 196.959 51.3599 197.046C51.4116 197.132 51.5253 197.2 51.7066 197.238C51.8701 197.278 52.0063 197.275 52.1138 197.235C52.1226 197.23 52.1285 197.227 52.1372 197.222C52.2474 197.173 52.3342 197.067 52.4037 196.91L53.832 193.553" fill="#F6F6F6"/>
<path d="M55.8877 193.099L58.1202 193.614L57.9096 194.111L57.3364 193.979L55.8034 197.581L56.2496 197.683L56.0839 198.074C55.8554 198.02 55.6757 198.02 55.549 198.067C55.5314 198.077 55.5123 198.084 55.4947 198.093C55.366 198.164 55.2637 198.29 55.1906 198.469L54.3193 198.268L56.2491 193.732L55.6758 193.6L55.8864 193.104L55.8877 193.099Z" fill="#F6F6F6"/>
<path d="M58.7601 193.763L60.0746 194.068L59.6768 197.81L59.6079 198.362L59.6605 198.368L59.8171 197.836L61.0576 194.292L62.1436 194.543L60.0033 199.574L58.6859 199.271L59.0636 195.617L59.1283 195.071L59.0769 195.061L58.916 195.599L57.7058 199.046L56.6198 198.795L58.7601 193.763Z" fill="#F6F6F6"/>
</g>
<defs>
<clipPath id="clip0_752_1328">
<rect width="381.409" height="398.503" fill="white" transform="translate(-137.813 185.504) rotate(-28.9442)"/>
</clipPath>
</defs>
</svg>
