<svg width="232" height="265" viewBox="0 0 232 265" fill="none" xmlns="http://www.w3.org/2000/svg">
<path d="M49.6946 53.6326C66.5253 49.1898 86.455 49.8541 102.48 55.6071C105.999 56.8732 109.336 58.3725 112.399 60.1256C123.417 66.4335 128.921 74.6944 128.932 82.9251L128.944 91.7058C128.954 99.829 123.619 107.96 112.867 114.183C102.047 120.447 87.8068 123.581 73.5301 123.58C59.2531 123.579 44.9497 120.444 34.0041 114.18C22.9185 107.833 17.4215 99.5052 17.4797 91.2293L17.476 91.2282L17.4675 82.6015L17.4705 82.2214C17.6201 74.227 22.9599 66.2508 33.5435 60.1254L33.5428 60.1242C38.3503 57.3425 43.8366 55.1811 49.6946 53.6326Z" fill="#17235D" stroke="black" stroke-width="0.2"/>
<path d="M72.8908 59.5115C87.1664 59.5118 101.468 62.6463 112.414 68.9105C123.36 75.1752 128.861 83.373 128.943 91.5494C129.025 99.7253 123.689 107.922 112.869 114.185C102.048 120.449 87.8074 123.583 73.531 123.582C59.2545 123.582 44.9522 120.445 34.0066 114.181C23.0603 107.916 17.559 99.72 17.4778 91.5443C17.3968 83.3689 22.7347 75.1723 33.557 68.9078C44.3761 62.645 58.6151 59.5113 72.8908 59.5115Z" fill="#17235D" stroke="black" stroke-width="0.2"/>
<path d="M102.615 55.6569C106.084 56.9103 109.374 58.3936 112.4 60.1251C123.417 66.4329 128.921 74.6939 128.933 82.9245L128.941 88.9691C127.846 81.5776 122.353 74.3674 112.514 68.7362C109.456 66.9864 106.131 65.4895 102.627 64.2274L102.615 55.6569Z" fill="#17235D" stroke="black" stroke-width="0.2"/>
<path d="M49.5839 62.2425C43.7358 63.7915 38.2602 65.9521 33.4559 68.7332C23.8663 74.2833 18.5315 81.3706 17.4721 88.6505L17.467 82.6037L17.4673 82.6028C17.4524 74.4815 22.7921 66.3491 33.5433 60.1267C38.3163 57.3631 43.7568 55.2118 49.572 53.6668L49.5839 62.2425Z" fill="#17235D" stroke="black" stroke-width="0.2"/>
<path d="M49.7741 53.6132C66.5633 49.1995 86.4276 49.861 102.416 55.5847L102.428 64.1564C86.4268 58.4462 66.5779 57.7887 49.7857 62.1898L49.7741 53.6132Z" fill="#17235D" stroke="black" stroke-width="0.2"/>
<path d="M40.0399 60.8701C63.263 54.7402 90.7599 55.6561 112.872 63.5941C117.729 65.341 122.333 67.4105 126.561 69.8299C141.765 78.5347 149.369 89.9403 149.384 101.312L149.415 123.925C149.43 135.149 142.059 146.374 127.222 154.962C112.289 163.608 92.6388 167.932 72.9406 167.931C53.2427 167.93 33.5072 163.603 18.4022 154.959C3.10359 146.199 -4.49152 134.702 -4.41086 123.268L-4.41581 123.267L-4.44452 100.866C-4.46526 89.6453 2.91375 78.4167 17.7512 69.8291C24.3863 65.9901 31.956 63.0062 40.0399 60.8701Z" fill="#0D67AA" stroke="black" stroke-width="0.2"/>
<path d="M72.0593 79.4761C91.7256 79.4764 111.43 83.7883 126.527 92.4067L126.526 92.4076L126.596 92.4473C141.701 101.092 149.301 112.41 149.415 123.706C149.528 135.002 142.155 146.318 127.225 154.961C112.29 163.606 92.6392 167.931 72.9415 167.93C53.244 167.929 33.5095 163.602 18.4043 154.957C3.29844 146.312 -4.30103 134.996 -4.41289 123.7C-4.52468 112.405 2.84992 101.089 17.7848 92.4431C32.7152 83.8004 52.3628 79.4758 72.0593 79.4761Z" fill="#0D67AA" stroke="black" stroke-width="0.2"/>
<path d="M72.1472 93.0352C89.495 93.0389 106.871 96.7567 119.82 104.177C126.278 107.859 131.032 112.133 133.605 116.529C133.997 117.197 134.325 117.85 134.593 118.485C133.821 122.509 131.233 126.049 128.234 128.929C125.605 131.454 122.667 133.464 120.383 134.841L119.447 135.393C106.635 142.815 89.3277 146.526 71.9749 146.526C54.8933 146.525 37.7796 142.928 24.878 135.748L24.2666 135.403C17.8486 131.699 13.094 127.425 10.4975 122.989C10.1294 122.359 9.79906 121.706 9.50849 121.032C10.313 117.016 12.9088 113.487 15.9054 110.616C18.9084 107.738 22.3052 105.53 24.6789 104.165L24.7133 104.146L24.7139 104.144C37.5232 96.7353 54.815 93.0316 72.1472 93.0352Z" fill="#17235D" stroke="black" stroke-width="0.2"/>
<path d="M134.734 118.84C137.054 124.644 135.052 129.815 131.681 133.997C128.25 138.254 123.414 141.471 120.328 143.257C107.517 150.676 90.2136 154.386 72.8644 154.382C55.5153 154.378 38.1332 150.66 25.1657 143.235C18.7329 139.557 13.9702 135.273 11.3855 130.857C9.41619 127.491 8.95238 124.326 9.4467 121.406C9.69657 121.968 9.98898 122.538 10.3239 123.111C12.9326 127.567 17.7272 131.873 24.1711 135.564C37.1796 143.009 54.6002 146.73 71.9749 146.735C89.3493 146.739 106.691 143.026 119.542 135.589L119.543 135.589C121.919 134.211 125.337 131.982 128.359 129.081C131.299 126.258 133.871 122.789 134.734 118.84Z" fill="#17235D" stroke="black" stroke-width="0.2"/>
<path d="M113.007 63.6428C117.812 65.3759 122.37 67.4302 126.561 69.8281L126.57 69.8341L126.572 69.8347C141.769 78.5386 149.369 89.9413 149.384 101.31L149.411 120.718C148.104 110.342 140.512 100.181 126.695 92.2742C122.472 89.8575 117.88 87.7899 113.038 86.0472L113.007 63.6428Z" fill="#17235D" stroke="black" stroke-width="0.2"/>
<path d="M39.9495 83.3112C31.8745 85.4476 24.3146 88.4309 17.6827 92.2687C4.21789 100.062 -3.1555 110.047 -4.42095 120.267L-4.44387 100.865C-4.46466 89.6449 2.91338 78.4161 17.7506 69.8285C24.3505 66.0075 31.8754 63.0347 39.9181 60.9018L39.9495 83.3112Z" fill="#17235D" stroke="black" stroke-width="0.2"/>
<path d="M40.1181 60.8487C63.2978 54.7476 90.7312 55.6614 112.807 63.5707L112.839 85.9773C90.7512 78.0815 63.333 77.1715 40.1501 83.2593L40.1181 60.8487Z" fill="#17235D" stroke="black" stroke-width="0.2"/>
<path d="M40.6918 212.999C63.9148 206.869 91.4117 207.785 113.524 215.723C118.381 217.47 122.985 219.539 127.213 221.959C142.417 230.664 150.021 242.069 150.036 253.441L150.067 276.054C150.082 287.278 142.711 298.503 127.874 307.091C112.941 315.737 93.2907 320.061 73.5925 320.06C53.8946 320.059 34.1591 315.732 19.0541 307.088C3.75544 298.328 -3.83966 286.831 -3.759 275.397L-3.76396 275.396L-3.79266 252.995C-3.8134 241.774 3.56561 230.546 18.403 221.958C25.0381 218.119 32.6078 215.135 40.6918 212.999Z" fill="#0D67AA" stroke="black" stroke-width="0.2"/>
<path d="M72.7111 231.605C92.3775 231.606 112.082 235.918 127.178 244.536L127.178 244.537L127.248 244.577C142.353 253.222 149.953 264.539 150.066 275.836C150.18 287.131 142.807 298.448 127.876 307.091C112.942 315.735 93.2911 320.06 73.5934 320.059C53.8959 320.058 34.1613 315.732 19.0562 307.087C3.95029 298.441 -3.64917 287.125 -3.76103 275.829C-3.87282 264.534 3.50177 253.218 18.4367 244.572C33.367 235.93 53.0146 231.605 72.7111 231.605Z" fill="#0D67AA" stroke="black" stroke-width="0.2"/>
<path d="M113.658 215.773C118.463 217.506 123.021 219.56 127.212 221.958L127.221 221.964L127.223 221.965C142.42 230.668 150.02 242.071 150.035 253.44L150.062 272.848C148.755 262.472 141.163 252.311 127.347 244.404C123.124 241.987 118.531 239.92 113.69 238.177L113.658 215.773Z" fill="#17235D" stroke="black" stroke-width="0.2"/>
<path d="M40.601 235.443C32.5261 237.58 24.9656 240.561 18.3338 244.399C4.86896 252.192 -2.5047 262.178 -3.77011 272.398L-3.79275 252.995C-3.81354 241.775 3.5645 230.546 18.4017 221.958C25.0016 218.137 32.5265 215.165 40.5692 213.032L40.601 235.443Z" fill="#17235D" stroke="black" stroke-width="0.2"/>
<path d="M40.7692 212.979C63.949 206.877 91.3823 207.791 113.458 215.701L113.49 238.107C91.4023 230.211 63.9841 229.301 40.8013 235.389L40.7692 212.979Z" fill="#17235D" stroke="black" stroke-width="0.2"/>
<path d="M50.511 243.793C67.3417 239.35 87.2714 240.015 103.296 245.767C106.815 247.034 110.153 248.533 113.216 250.286C124.233 256.594 129.737 264.855 129.749 273.085L129.76 281.866C129.771 289.989 124.435 298.121 113.684 304.343C102.863 310.608 88.6232 313.741 74.3465 313.741C60.0695 313.74 45.7661 310.604 34.8205 304.341C23.7342 297.993 18.238 289.666 18.2961 281.39L18.2924 281.389L18.2839 272.762L18.2869 272.382C18.4365 264.387 23.7763 256.411 34.3599 250.286L34.3592 250.285C39.1667 247.503 44.653 245.341 50.511 243.793Z" fill="#17235D" stroke="black" stroke-width="0.2"/>
<path d="M73.707 249.672C87.9826 249.672 102.284 252.807 113.23 259.071C124.177 265.336 129.677 273.533 129.759 281.71C129.841 289.886 124.505 298.082 113.686 304.345C102.864 310.609 88.6236 313.743 74.3472 313.743C60.0707 313.742 45.7684 310.606 34.8227 304.341C23.8765 298.077 18.3752 289.88 18.294 281.705C18.213 273.529 23.5509 265.333 34.3732 259.068C45.1922 252.805 59.4312 249.672 73.707 249.672Z" fill="#17235D" stroke="black" stroke-width="0.2"/>
<path d="M103.432 245.818C106.9 247.072 110.19 248.555 113.216 250.286C124.233 256.594 129.737 264.855 129.749 273.086L129.757 279.13C128.662 271.739 123.17 264.529 113.331 258.898C110.272 257.148 106.947 255.651 103.443 254.389L103.432 245.818Z" fill="#17235D" stroke="black" stroke-width="0.2"/>
<path d="M50.3993 252.404C44.5513 253.953 39.0756 256.113 34.2713 258.895C24.6817 264.445 19.3469 271.532 18.2875 278.812L18.2825 272.765L18.2828 272.764C18.2678 264.643 23.6075 256.51 34.3588 250.288C39.1317 247.524 44.5722 245.373 50.3874 243.828L50.3993 252.404Z" fill="#17235D" stroke="black" stroke-width="0.2"/>
<path d="M50.5896 243.775C67.3787 239.361 87.243 240.022 103.232 245.746L103.244 254.318C87.2423 248.608 67.3933 247.95 50.6012 252.351L50.5896 243.775Z" fill="#17235D" stroke="black" stroke-width="0.2"/>
<path d="M64.988 267.531C72.3176 265.596 80.9981 265.886 87.9762 268.391C89.5084 268.942 90.961 269.595 92.2937 270.358C97.0888 273.103 99.4705 276.69 99.4757 280.253L99.4859 287.403C99.491 290.919 97.1811 294.449 92.5022 297.158C87.7934 299.884 81.5925 301.249 75.3728 301.249C69.1531 301.249 62.925 299.882 58.1616 297.156C53.3366 294.393 50.958 290.778 50.9833 287.196L50.9814 287.195L50.9722 280.111C50.9654 276.606 53.2652 273.085 57.9194 270.379L57.9566 270.358C60.0485 269.147 62.4366 268.205 64.988 267.531Z" fill="#0D67AA" stroke="black" stroke-width="0.2"/>
<path d="M75.0947 273.417C81.3136 273.417 87.5409 274.784 92.304 277.51C97.0684 280.236 99.4504 283.796 99.4858 287.335C99.5212 290.874 97.2113 294.432 92.5028 297.158C87.7933 299.884 81.5927 301.25 75.3731 301.25C69.1537 301.25 62.9261 299.883 58.1629 297.157C53.3988 294.431 51.0171 290.871 50.982 287.332C50.947 283.794 53.2574 280.235 57.9671 277.509C62.675 274.784 68.8755 273.417 75.0947 273.417Z" fill="#0D67AA" stroke="black" stroke-width="0.2"/>
<path d="M64.8735 274.509C62.3344 275.185 59.9555 276.125 57.8661 277.334C53.9389 279.607 51.6369 282.476 50.9795 285.458L50.9725 280.111C50.9659 276.596 53.277 273.065 57.9559 270.357L57.9571 270.357C60.0141 269.165 62.3581 268.236 64.8634 267.565L64.8735 274.509Z" fill="#17235D" stroke="black" stroke-width="0.2"/>
<path d="M65.0632 267.512C72.3527 265.605 80.9669 265.892 87.9098 268.367L87.9201 275.307C80.9653 272.845 72.3662 272.561 65.0733 274.456L65.0632 267.512Z" fill="#17235D" stroke="black" stroke-width="0.2"/>
<path d="M120.319 53.3103C142.69 40.4987 162.957 39.4037 177.802 47.8818L206.314 64.1097C221.053 72.4893 230.324 90.3574 230.745 115.792L230.759 117.008C230.859 142.925 221.815 171.641 207.13 197.087C192.446 222.534 172.125 244.702 149.682 257.528L112.02 279.024L83.4806 262.821L83.4089 252.139L121.071 230.644C140.981 219.248 158.996 199.583 172.006 177.029C185.017 154.475 193.028 129.023 192.923 106.043C192.869 91.3039 189.422 79.4192 183.558 70.691L183.53 70.6497L183.481 70.6469C173.159 70.0759 161.38 73.0897 148.931 80.1949L143.123 83.534C139.337 78.4753 133.835 73.7722 126.655 69.6666L126.656 69.6669C123.871 68.0434 120.932 66.6186 117.857 65.325L117.858 65.3253C116.263 64.6293 114.612 64.0208 112.964 63.413L112.963 63.4127C110.789 62.6374 108.598 61.9225 106.318 61.3071L120.318 53.31L120.319 53.3103Z" fill="#FF834E" stroke="black" stroke-width="0.2"/>
<path d="M148.778 80.2824L143.123 83.5346C139.456 78.6347 134.178 74.0692 127.325 70.0564L126.655 69.6682C123.926 68.0774 121.049 66.6773 118.041 65.4045L120.317 64.0956L148.778 80.2824Z" fill="#FDA813" stroke="black" stroke-width="0.2"/>
<path d="M120.517 64.0078C140.203 52.8078 158.079 51.8171 171.113 59.2281L196.538 73.6833C183.765 68.118 167.115 69.8369 148.973 80.187L120.517 64.0078Z" fill="#FDA813" stroke="black" stroke-width="0.2"/>
<path d="M149.531 257.618L112.026 279.046L83.5686 262.866L121.075 241.438L149.531 257.618Z" fill="#FDA813" stroke="black" stroke-width="0.2"/>
<path d="M206.313 64.1048C221.238 72.5907 230.579 90.8458 230.732 116.829L202.276 100.649C202.16 76.5556 194.162 59.0372 181.1 49.7676L206.313 64.1048Z" fill="#FDA813" stroke="black" stroke-width="0.2"/>
<path d="M230.734 117.062C230.831 142.954 221.802 171.648 207.133 197.08C192.465 222.513 172.164 244.673 149.732 257.504L121.276 241.323C143.705 228.462 163.99 206.302 178.65 180.885C193.309 155.468 202.347 126.786 202.276 100.88L230.734 117.062Z" fill="#FDA813" stroke="black" stroke-width="0.2"/>
<path d="M120.317 53.313C142.76 40.4868 163.143 39.4065 177.938 47.9809C192.732 56.5553 201.974 74.8043 202.094 100.71C202.194 126.627 193.15 155.343 178.465 180.789C164.01 205.838 144.094 227.71 122.067 240.621L121.017 241.23L83.4785 262.709L83.4078 252.141L121.069 230.646C140.979 219.249 158.995 199.585 172.005 177.031C185.016 154.477 193.028 129.024 192.922 106.044C192.816 83.0649 184.622 66.8318 171.451 59.1931C158.281 51.5547 140.168 52.5303 120.267 63.894L120.267 63.895L117.811 65.3062C116.23 64.6186 114.596 64.0161 112.963 63.4141L112.962 63.4138C110.789 62.6389 108.599 61.9243 106.32 61.3091L120.317 53.313Z" fill="#FF834E" stroke="black" stroke-width="0.2"/>
<path d="M110.159 257.694C112.637 257.695 115.115 258.205 117.079 259.22L117.465 259.43C119.494 260.595 120.491 262.104 120.492 263.592L120.496 268.13L120.496 268.131C120.506 269.607 119.544 271.101 117.556 272.249L82.232 292.66C80.2353 293.816 77.6021 294.397 74.9591 294.397C72.4814 294.398 70.0042 293.888 68.0426 292.874L67.6572 292.665C65.6553 291.521 64.6674 290.032 64.6393 288.562L64.6466 288.268C64.6466 288.267 64.6464 288.266 64.6465 288.265L64.6285 288.264L64.6221 283.946C64.6209 282.474 65.5855 280.985 67.5692 279.838L102.674 259.554L102.673 259.555L102.893 259.428C104.885 258.274 107.517 257.694 110.159 257.694Z" fill="#F7E0BE" stroke="black" stroke-width="0.2"/>
<path d="M110.165 262.245C112.788 262.245 115.411 262.818 117.425 263.956L117.47 263.982C119.487 265.137 120.482 266.638 120.497 268.117C120.512 269.597 119.547 271.096 117.554 272.25L82.2305 292.662C80.235 293.817 77.6035 294.398 74.961 294.399C72.3186 294.399 69.6763 293.818 67.6596 292.664C65.6398 291.508 64.6427 290.007 64.6279 288.527C64.6141 287.139 65.4631 285.734 67.2139 284.611L67.5758 284.39L102.899 263.978C104.892 262.824 107.523 262.244 110.165 262.245Z" fill="#F7E0BE" stroke="black" stroke-width="0.2"/>
<path d="M102.75 263.836L67.4761 284.218C65.9698 285.088 65.0151 286.168 64.6273 287.311L64.6224 283.945C64.6212 282.474 65.5857 280.985 67.5692 279.839L102.744 259.512L102.75 263.836Z" fill="#F7E0BE" stroke="black" stroke-width="0.2"/>
<path d="M117.613 259.519C119.542 260.669 120.488 262.141 120.491 263.593L120.496 266.959C120.102 265.808 119.136 264.718 117.618 263.838L117.613 259.519Z" fill="#F7E0BE" stroke="black" stroke-width="0.2"/>
<path d="M110.159 257.692C112.779 257.693 115.4 258.265 117.413 259.401L117.42 263.727C115.384 262.606 112.769 262.046 110.164 262.046C107.561 262.046 104.959 262.603 102.948 263.722L102.942 259.397C104.929 258.262 107.538 257.692 110.159 257.692Z" fill="#F7E0BE" stroke="black" stroke-width="0.2"/>
</svg>
