<svg width="232" height="212" viewBox="0 0 232 212" fill="none" xmlns="http://www.w3.org/2000/svg">
<path d="M-45.9132 189.471L153.842 35.1401L247.837 107.346L38.0251 284.9L-45.9132 189.471Z" fill="#A1D0E6" stroke="black" stroke-width="0.25" stroke-miterlimit="10"/>
<path d="M-40.9078 189.953L153.854 39.4795L242.35 107.473L38.3813 280.09L-40.9078 189.953Z" fill="#17235D" stroke="black" stroke-width="0.25" stroke-miterlimit="10"/>
<path d="M-50 178.818L149.755 24.4758L243.761 96.6821L33.9383 274.247L-50 178.818Z" fill="#F0DEC0" stroke="black" stroke-width="0.25" stroke-miterlimit="10"/>
<path d="M-44.9833 179.3L149.767 28.8267L238.274 96.8199L34.2944 269.438L-44.9833 179.3Z" fill="#EFBB50" stroke="black" stroke-width="0.25" stroke-miterlimit="10"/>
<path d="M-8.99512 112.811C-8.99512 112.811 -6.5959 94.6271 42.4447 106.049L12.4372 131.706L-8.98364 123.131V112.811H-8.99512Z" fill="#CE643A" stroke="black" stroke-width="0.25" stroke-miterlimit="10"/>
<path d="M150.146 190.343L181.106 160.026C190.347 164.778 197.82 172.286 202.676 183.903C202.676 183.903 189.785 202.592 150.146 190.343Z" fill="#CE643A" stroke="black" stroke-width="0.25" stroke-miterlimit="10"/>
<path d="M251.82 61.9334L192.746 124.922L156.907 163.125L63.7853 262.412L-30.5649 177.268L150.146 1L251.82 61.9334Z" fill="#A1D0E6" stroke="black" stroke-width="0.25" stroke-miterlimit="10"/>
<path d="M-25.5371 177.165L150.651 5.31641L246.379 62.6911L63.5785 257.591L-25.5371 177.165Z" fill="#17235D" stroke="black" stroke-width="0.25" stroke-miterlimit="10"/>
<path d="M105.226 155.274C125.603 155.274 142.121 140.256 142.121 121.73C142.121 103.205 125.603 88.1873 105.226 88.1873C84.8496 88.1873 68.3311 103.205 68.3311 121.73C68.3311 140.256 84.8496 155.274 105.226 155.274Z" fill="#3F76B7" stroke="black" stroke-width="0.29" stroke-miterlimit="10"/>
<path opacity="0.13" d="M192.746 124.922L156.907 163.126C145.657 157.363 131.503 152.025 113.813 148.133L108.004 153.288L72.4866 112.685L124.122 90.7703L128.954 97.8531C128.954 97.8531 167.376 105.315 192.746 124.922Z" fill="black" stroke="black" stroke-width="0.25" stroke-miterlimit="10"/>
<path opacity="0.13" d="M31.0915 146.767C0.751104 136.114 -8.99502 121.053 -8.99502 121.053L-16.0549 168.073C-16.0549 168.073 -0.856032 194.201 19.1528 198.081L23.0214 205.186L77.8821 188.403L36.8887 142.899L31.08 146.767H31.0915Z" fill="black" stroke="black" stroke-width="0.25" stroke-miterlimit="10"/>
<path d="M77.8936 97.8529L129.517 75.9385L134.35 83.0328C134.35 83.0328 202.343 96.2458 217.163 133.623L202.665 183.892C202.665 183.892 186.547 148.122 119.208 133.302L113.411 138.456L77.8936 97.8529Z" fill="#E78052" stroke="black" stroke-width="0.25" stroke-miterlimit="10"/>
<path d="M31.0916 138.525C0.751221 127.872 -8.9949 112.811 -8.9949 112.811L-18.6033 165.64C-18.6033 165.64 -0.855915 185.97 19.1529 189.85L23.0215 196.956L77.8822 180.173L36.8888 134.668L31.0801 138.536L31.0916 138.525Z" fill="#E78052" stroke="black" stroke-width="0.25" stroke-miterlimit="10"/>
<path d="M156.23 25.9795C157.125 26.4731 157.63 27.0012 157.734 27.5637C157.837 28.1377 157.584 28.7117 156.976 29.3086C156.448 29.8137 155.851 30.1351 155.197 30.2614C155.093 30.2844 154.99 30.2958 154.887 30.3073C154.106 30.3877 153.28 30.181 152.396 29.6989L144.085 25.1415C143.212 24.6479 142.707 24.1313 142.604 23.5688C142.5 23.0063 142.741 22.4324 143.361 21.8354C143.901 21.3188 144.498 20.9859 145.152 20.8711C145.244 20.8482 145.347 20.8367 145.439 20.8367C146.22 20.7563 147.046 20.963 147.919 21.4566L156.23 26.014V25.9795ZM155.679 28.5854C155.897 28.3788 155.966 28.1721 155.874 27.977C155.782 27.7818 155.541 27.5752 155.116 27.3341L146.403 22.5471C145.99 22.3176 145.646 22.2028 145.37 22.2028C145.301 22.2028 145.233 22.2028 145.175 22.2142C144.98 22.2487 144.796 22.352 144.636 22.5012C144.417 22.7079 144.349 22.9145 144.44 23.0982C144.532 23.2933 144.762 23.4999 145.175 23.7295L153.888 28.5165C154.301 28.7461 154.646 28.8609 154.933 28.8724C155.013 28.8724 155.082 28.8724 155.151 28.8494C155.346 28.815 155.518 28.7231 155.679 28.5739" fill="#E1E1E1"/>
<path d="M151.684 30.3534C152.579 30.847 153.084 31.375 153.188 31.9375C153.302 32.5 153.05 33.0855 152.43 33.6709C151.891 34.1875 151.294 34.4975 150.639 34.6237C150.547 34.6467 150.444 34.6582 150.341 34.6697C149.549 34.75 148.722 34.5434 147.838 34.0612L139.539 29.4924C138.655 29.0103 138.161 28.4822 138.058 27.9197C137.943 27.3457 138.195 26.7717 138.815 26.1863C139.355 25.6697 139.952 25.3483 140.606 25.222C140.698 25.199 140.801 25.1876 140.893 25.1761C141.674 25.0957 142.5 25.3024 143.384 25.7845L151.684 30.3534ZM151.156 32.9592C151.374 32.7526 151.431 32.5574 151.351 32.3623C151.271 32.1671 151.018 31.949 150.593 31.7194L141.88 26.9325C141.479 26.7029 141.134 26.5881 140.847 26.5881C140.778 26.5881 140.709 26.5881 140.652 26.5995C140.457 26.634 140.285 26.7258 140.112 26.8865C139.894 27.0932 139.837 27.2883 139.906 27.4835C139.998 27.6786 140.239 27.8853 140.652 28.1148L149.365 32.9018C149.778 33.1314 150.123 33.2462 150.41 33.2577C150.479 33.2577 150.559 33.2577 150.628 33.2462C150.823 33.2118 150.995 33.1084 151.156 32.9592Z" fill="#E1E1E1"/>
<path d="M160.764 21.5943C161.66 22.0879 162.165 22.616 162.268 23.1785C162.383 23.741 162.13 24.315 161.51 24.9119C160.971 25.4285 160.374 25.7499 159.708 25.8762C159.605 25.8991 159.513 25.9106 159.41 25.9221C158.629 25.991 157.802 25.7843 156.919 25.3022L148.619 20.7448C147.735 20.2627 147.241 19.7346 147.127 19.1721C147.012 18.6096 147.276 18.0242 147.896 17.4387C148.435 16.9107 149.032 16.5892 149.698 16.4744C149.79 16.463 149.87 16.44 149.962 16.44C150.743 16.3596 151.569 16.5663 152.453 17.0484L160.753 21.6058L160.764 21.5943ZM160.225 24.2002C160.431 23.9935 160.5 23.7869 160.408 23.6032C160.328 23.4081 160.075 23.2014 159.651 22.9719L150.938 18.1734C150.524 17.9438 150.18 17.829 149.905 17.829C149.836 17.829 149.767 17.829 149.698 17.8405C149.503 17.8749 149.331 17.9783 149.17 18.1275C148.952 18.3341 148.894 18.5408 148.975 18.7359C149.055 18.9196 149.308 19.1262 149.721 19.3558L158.434 24.1542C158.847 24.3838 159.192 24.4986 159.478 24.4986C159.547 24.4986 159.628 24.4986 159.697 24.4872C159.892 24.4527 160.064 24.3609 160.225 24.2116" fill="#E1E1E1"/>
<path d="M135.75 29.5725L147.528 36.047L148.206 35.3812L149.491 36.0814L146.805 38.6758L145.52 37.964L146.208 37.2868L136.852 32.1554L136.324 32.672L135.303 32.121C135.624 31.811 135.705 31.547 135.578 31.3059C135.441 31.0648 135.142 30.8238 134.683 30.5712L135.728 29.5725H135.75Z" fill="#E1E1E1"/>
<path d="M132.995 32.2358L146.059 39.4105L144.463 40.9258L134.097 37.2065L132.571 36.644L132.536 36.7129L133.948 37.3787L143.293 42.0738L141.984 43.3365L128.932 36.1504L130.504 34.6236L140.641 38.2396L142.145 38.8021L142.202 38.7447L140.767 38.0674L131.687 33.4871L132.995 32.2358Z" fill="#E1E1E1"/>
</svg>
