<svg width="568" height="535" viewBox="0 0 568 535" fill="none" xmlns="http://www.w3.org/2000/svg">
<g clip-path="url(#clip0_109_8666)">
<path d="M567.847 285.111C567.842 285.225 567.836 285.345 567.82 285.46C567.809 285.563 567.798 285.662 567.782 285.765C567.765 285.88 567.749 285.994 567.727 286.114C567.711 286.218 567.683 286.316 567.661 286.419C567.634 286.534 567.607 286.643 567.579 286.758C567.552 286.861 567.519 286.959 567.492 287.063C567.459 287.177 567.421 287.287 567.383 287.396C567.35 287.494 567.312 287.592 567.268 287.696C567.219 287.81 567.17 287.93 567.12 288.045C567.077 288.143 567.033 288.241 566.984 288.339C566.929 288.454 566.869 288.573 566.803 288.688C566.754 288.781 566.7 288.873 566.645 288.966C566.563 289.102 566.481 289.239 566.388 289.375C566.333 289.457 566.284 289.539 566.23 289.62C566.126 289.773 566.016 289.92 565.902 290.068C565.853 290.133 565.809 290.198 565.754 290.264C565.568 290.498 565.366 290.733 565.153 290.962C565.098 291.022 565.038 291.076 564.984 291.136C564.814 291.311 564.639 291.485 564.459 291.66C564.377 291.736 564.295 291.818 564.208 291.894C564.098 291.993 563.984 292.091 563.874 292.189C563.77 292.276 563.667 292.363 563.557 292.451C563.437 292.549 563.317 292.642 563.191 292.734C563.076 292.821 562.967 292.909 562.847 292.99C562.721 293.083 562.585 293.176 562.453 293.269C562.333 293.35 562.208 293.438 562.087 293.519C561.951 293.607 561.809 293.699 561.667 293.787C561.492 293.896 561.317 294.005 561.131 294.114L212.189 496.463C211.845 496.664 211.484 496.855 211.124 497.041C211.02 497.095 210.916 497.144 210.807 497.199C210.523 497.341 210.238 497.472 209.949 497.602C209.85 497.646 209.752 497.69 209.654 497.733C209.277 497.897 208.889 498.055 208.501 498.202C208.429 498.23 208.358 498.251 208.287 498.279C207.96 498.399 207.621 498.519 207.282 498.628C207.145 498.671 207.003 498.72 206.861 498.764C206.675 498.824 206.484 498.878 206.298 498.933C206.14 498.982 205.981 499.026 205.817 499.069C205.626 499.124 205.435 499.173 205.238 499.222C205.074 499.266 204.916 499.304 204.752 499.347C204.555 499.397 204.358 499.44 204.161 499.484C203.997 499.522 203.834 499.555 203.67 499.593C203.467 499.636 203.265 499.675 203.063 499.713C202.905 499.74 202.752 499.773 202.593 499.8C202.161 499.876 201.724 499.947 201.281 500.007C201.216 500.018 201.15 500.024 201.085 500.035C200.702 500.084 200.32 500.133 199.937 500.171C199.79 500.187 199.642 500.198 199.494 500.214C199.249 500.236 198.997 500.258 198.751 500.274C198.593 500.285 198.44 500.296 198.281 500.307C198.019 500.324 197.762 500.334 197.5 500.345C197.352 500.351 197.21 500.362 197.063 500.362C196.839 500.367 196.609 500.373 196.385 500.373C196.226 500.373 196.068 500.378 195.91 500.378C195.669 500.378 195.423 500.378 195.183 500.373C195.041 500.373 194.899 500.373 194.762 500.367C194.538 500.362 194.314 500.351 194.09 500.34C193.937 500.334 193.789 500.329 193.636 500.324C193.39 500.313 193.144 500.291 192.898 500.274C192.773 500.264 192.642 500.258 192.516 500.247C192.21 500.22 191.909 500.193 191.609 500.16C191.538 500.154 191.472 500.149 191.401 500.138C191.029 500.094 190.663 500.051 190.292 499.996C190.232 499.985 190.166 499.975 190.106 499.969C189.794 499.925 189.483 499.876 189.171 499.822C189.04 499.8 188.909 499.773 188.772 499.745C188.537 499.702 188.297 499.658 188.062 499.609C187.936 499.582 187.816 499.555 187.69 499.527C187.428 499.473 187.166 499.413 186.909 499.353C186.767 499.32 186.625 499.282 186.483 499.244C186.248 499.184 186.013 499.124 185.778 499.058C185.647 499.02 185.515 498.982 185.384 498.944C185.013 498.835 184.646 498.72 184.286 498.6C184.226 498.579 184.16 498.562 184.095 498.54C183.679 498.399 183.275 498.251 182.87 498.093C182.783 498.06 182.701 498.022 182.614 497.99C182.089 497.782 181.575 497.559 181.078 497.324C181.029 497.303 180.98 497.275 180.93 497.253C180.406 497.003 179.898 496.735 179.406 496.452L7.03886 397.145C5.89671 396.485 4.89664 395.776 4.04413 395.029C3.61787 394.653 3.2244 394.271 2.86918 393.879C2.33363 393.29 1.88004 392.684 1.50844 392.068C1.13683 391.452 0.841723 390.819 0.628594 390.181C0.557551 389.969 0.497438 389.756 0.442789 389.543C0.284309 388.9 0.202336 388.256 0.207801 387.608H0.202336L0.136758 409.834C0.125828 413.286 2.41014 416.738 6.97328 419.372L179.351 518.679C179.843 518.962 180.351 519.224 180.876 519.48C180.925 519.502 180.974 519.529 181.023 519.551C181.521 519.786 182.034 520.009 182.559 520.217C182.603 520.233 182.646 520.255 182.696 520.277C182.734 520.293 182.777 520.304 182.816 520.32C183.22 520.478 183.625 520.625 184.04 520.767C184.1 520.789 184.166 520.805 184.231 520.827C184.592 520.947 184.958 521.062 185.33 521.171C185.39 521.187 185.45 521.209 185.51 521.225C185.581 521.247 185.652 521.264 185.723 521.28C185.958 521.345 186.193 521.405 186.428 521.465C186.57 521.503 186.712 521.536 186.854 521.574C187.111 521.634 187.373 521.694 187.636 521.749C187.734 521.771 187.827 521.792 187.925 521.814C187.953 521.82 187.98 521.825 188.007 521.831C188.242 521.88 188.477 521.923 188.718 521.967C188.849 521.989 188.98 522.016 189.117 522.043C189.428 522.098 189.734 522.147 190.051 522.191C190.111 522.201 190.171 522.212 190.226 522.218C190.226 522.218 190.232 522.218 190.237 522.218C190.603 522.272 190.975 522.316 191.346 522.36C191.417 522.365 191.483 522.37 191.554 522.381C191.855 522.414 192.161 522.447 192.461 522.469C192.467 522.469 192.472 522.469 192.478 522.469C192.598 522.48 192.718 522.485 192.838 522.496C193.084 522.512 193.33 522.534 193.576 522.545C193.729 522.556 193.877 522.556 194.03 522.561C194.254 522.572 194.478 522.583 194.702 522.589C194.718 522.589 194.735 522.589 194.756 522.589C194.882 522.589 195.002 522.589 195.128 522.589C195.368 522.589 195.614 522.594 195.855 522.594C196.013 522.594 196.172 522.594 196.33 522.589C196.554 522.589 196.784 522.583 197.008 522.578C197.052 522.578 197.09 522.578 197.134 522.578C197.237 522.578 197.341 522.567 197.451 522.561C197.713 522.55 197.97 522.54 198.232 522.523C198.391 522.512 198.544 522.501 198.702 522.49C198.953 522.474 199.199 522.452 199.445 522.43C199.533 522.425 199.62 522.42 199.708 522.409C199.768 522.403 199.828 522.392 199.888 522.387C200.27 522.349 200.653 522.3 201.036 522.251C201.101 522.24 201.167 522.234 201.232 522.223C201.669 522.163 202.107 522.092 202.544 522.016C202.582 522.011 202.626 522.005 202.664 521.994C202.779 521.972 202.894 521.951 203.008 521.929C203.211 521.891 203.413 521.852 203.615 521.809C203.779 521.776 203.943 521.738 204.107 521.7C204.304 521.656 204.5 521.613 204.697 521.563C204.861 521.525 205.025 521.482 205.183 521.438C205.375 521.389 205.571 521.34 205.763 521.285C205.921 521.242 206.085 521.193 206.244 521.149C206.435 521.094 206.621 521.034 206.806 520.98C206.888 520.953 206.97 520.931 207.052 520.904C207.112 520.887 207.167 520.86 207.227 520.844C207.566 520.729 207.899 520.615 208.233 520.495C208.304 520.467 208.375 520.446 208.446 520.418C208.839 520.271 209.222 520.113 209.599 519.949C209.697 519.906 209.796 519.862 209.894 519.818C210.184 519.688 210.473 519.551 210.752 519.415C210.856 519.36 210.965 519.311 211.069 519.257C211.43 519.071 211.79 518.88 212.135 518.679L561.076 316.33C561.169 316.275 561.268 316.221 561.36 316.161C561.448 316.106 561.53 316.052 561.612 316.003C561.754 315.915 561.896 315.828 562.033 315.735C562.158 315.654 562.279 315.572 562.404 315.485C562.535 315.392 562.667 315.305 562.798 315.212C562.912 315.125 563.027 315.043 563.142 314.956C563.268 314.863 563.388 314.765 563.503 314.672C563.612 314.585 563.716 314.498 563.82 314.405C563.934 314.307 564.044 314.214 564.153 314.116C564.197 314.078 564.246 314.034 564.29 313.996C564.328 313.958 564.366 313.92 564.404 313.881C564.585 313.707 564.76 313.538 564.929 313.358C564.984 313.298 565.044 313.243 565.098 313.183C565.312 312.954 565.514 312.72 565.7 312.485C565.705 312.474 565.716 312.464 565.727 312.453C565.771 312.398 565.809 312.344 565.847 312.289C565.962 312.142 566.071 311.995 566.175 311.842C566.23 311.76 566.284 311.678 566.333 311.597C566.421 311.46 566.508 311.324 566.59 311.188C566.612 311.149 566.64 311.111 566.661 311.079C566.694 311.024 566.716 310.964 566.749 310.909C566.809 310.795 566.869 310.68 566.929 310.56C566.978 310.462 567.022 310.364 567.066 310.266C567.12 310.151 567.17 310.032 567.213 309.917C567.235 309.862 567.257 309.813 567.279 309.759C567.295 309.71 567.312 309.666 567.328 309.617C567.366 309.508 567.405 309.393 567.437 309.284C567.47 309.181 567.497 309.083 567.525 308.979C567.558 308.865 567.579 308.755 567.607 308.641C567.618 308.581 567.64 308.521 567.65 308.461C567.661 308.417 567.661 308.379 567.672 308.336C567.694 308.221 567.711 308.107 567.727 307.987C567.743 307.883 567.754 307.785 567.765 307.681C567.776 307.567 567.782 307.447 567.793 307.332C567.793 307.267 567.804 307.196 567.809 307.13C567.809 307.065 567.809 306.994 567.809 306.929L567.875 284.702C567.875 284.838 567.864 284.974 567.858 285.111H567.847Z" fill="#3F76B7" stroke="black" stroke-width="0.282864" stroke-miterlimit="10"/>
<path d="M561.13 294.103L212.189 496.451C203.166 501.681 188.493 501.686 179.416 496.451L7.03849 397.145C-2.03862 391.915 -2.08234 383.435 6.93466 378.2L355.876 175.857C364.899 170.628 379.566 170.628 388.643 175.857L561.021 275.164C570.104 280.393 570.147 288.873 561.13 294.103Z" fill="white" stroke="black" stroke-width="0.282864" stroke-miterlimit="10"/>
<path d="M559.655 284.674C559.529 285.007 558.873 285.95 557.01 287.03L556.736 287.188L384.545 187.99C381.43 186.196 376.943 185.166 372.238 185.166C367.532 185.166 363.079 186.191 359.996 187.979L11.3227 390.17L11.1369 390.061C9.18592 388.938 8.53014 387.934 8.40991 387.634C8.53014 387.307 9.19139 386.353 11.0549 385.273L359.996 182.93C363.079 181.141 367.543 180.116 372.238 180.116C376.932 180.116 381.43 181.147 384.545 182.941L556.922 282.248C558.873 283.371 559.534 284.369 559.655 284.674Z" fill="#A1D0E6" stroke="black" stroke-width="0.282864" stroke-miterlimit="10"/>
<path d="M556.736 287.188L208.068 489.379C204.98 491.167 200.515 492.198 195.816 492.198C191.116 492.198 186.635 491.167 183.52 489.368L11.3223 390.17L359.996 187.979C363.078 186.191 367.543 185.165 372.237 185.165C376.932 185.165 381.429 186.196 384.544 187.99L556.736 287.188Z" fill="white" stroke="black" stroke-width="0.282864" stroke-miterlimit="10"/>
<path d="M477.244 247.843V251.099C477.244 252.478 476.337 253.858 474.523 254.91L472.244 256.23C468.599 258.346 462.67 258.34 458.997 256.23L417.869 232.536C416.027 231.473 415.104 230.082 415.104 228.692V225.436C415.104 225.987 415.246 226.538 415.535 227.067C415.978 227.874 416.754 228.637 417.869 229.281L458.997 252.974C462.67 255.09 468.599 255.09 472.244 252.98L474.523 251.655C475.616 251.022 476.381 250.27 476.813 249.473C477.102 248.945 477.244 248.399 477.244 247.848V247.843Z" fill="#A1D0E6" stroke="black" stroke-width="0.282864" stroke-miterlimit="10"/>
<path d="M477.244 247.843C477.244 248.394 477.102 248.939 476.813 249.468C476.381 250.264 475.616 251.017 474.523 251.649L472.244 252.974C468.599 255.085 462.67 255.085 458.997 252.969L417.869 229.275C416.754 228.632 415.978 227.868 415.535 227.061C415.246 226.532 415.104 225.981 415.104 225.431C415.104 224.051 416.011 222.671 417.825 221.619L420.104 220.299C423.749 218.183 429.678 218.183 433.351 220.299L474.479 243.993C476.321 245.056 477.244 246.447 477.244 247.843Z" fill="white" stroke="black" stroke-width="0.282864" stroke-miterlimit="10"/>
<path d="M451.986 9.84863L452.499 90.5221L430.121 103.588L425.049 106.636L424.525 134.016L421.005 136.11L397.496 122.516L159.228 259.918L158.709 179.244L451.986 9.84863Z" fill="#17235D" stroke="black" stroke-width="0.282864" stroke-miterlimit="10"/>
<path d="M159.228 259.917L142.517 250.227L141.998 169.554L158.709 179.244L159.228 259.917Z" fill="white" stroke="black" stroke-width="0.282864" stroke-miterlimit="10"/>
<path d="M158.71 179.244L141.998 169.554L435.275 0.158203L451.986 9.84839L158.71 179.244Z" fill="white" stroke="black" stroke-width="0.282864" stroke-miterlimit="10"/>
<path d="M136.21 427.71L119.504 418.02L118.826 391.333L135.538 401.023L136.21 427.71Z" fill="#E78052" stroke="black" stroke-width="0.282864" stroke-miterlimit="10"/>
<path d="M400.179 167.291L400.693 247.964L163.201 384.952L139.724 425.758L136.21 427.71L135.538 401.023L107.422 417.355L106.902 336.687L400.179 167.291Z" fill="#EFBB50" stroke="black" stroke-width="0.282864" stroke-miterlimit="10"/>
<path d="M107.422 417.354L90.7106 407.664L90.1914 326.996L106.903 336.686L107.422 417.354Z" fill="#E78052" stroke="black" stroke-width="0.282864" stroke-miterlimit="10"/>
<path d="M106.903 336.686L90.1914 326.996L383.468 157.601L400.18 167.291L106.903 336.686Z" fill="#E78052" stroke="black" stroke-width="0.282864" stroke-miterlimit="10"/>
<path d="M377.609 200.947L377.659 218.016L119.024 367.017L118.975 349.954L377.609 200.947Z" fill="#F3E1C2" stroke="black" stroke-width="0.282864" stroke-miterlimit="10"/>
<path d="M285.324 279.451L285.373 296.519L122.237 390.504L122.188 373.436L285.324 279.451Z" fill="#F3E1C2" stroke="black" stroke-width="0.282864" stroke-miterlimit="10"/>
<path d="M437.734 36.4595L437.778 53.5223L179.143 202.529L179.094 185.466L437.734 36.4595Z" fill="white" stroke="black" stroke-width="0.282864" stroke-miterlimit="10"/>
<path d="M437.559 63.6758L437.608 80.744L274.471 174.729L274.422 157.66L437.559 63.6758Z" fill="white" stroke="black" stroke-width="0.282864" stroke-miterlimit="10"/>
<path d="M115.85 184.97C130.086 206.663 124.315 240.854 102.958 261.341C81.6016 281.829 52.7472 280.852 38.5058 259.16C24.2699 237.467 30.0353 203.276 51.3974 182.789C72.754 162.302 101.608 163.278 115.85 184.97Z" fill="#0D67AA" fill-opacity="0.6" stroke="black" stroke-width="0.175375" stroke-miterlimit="10"/>
<path d="M49.7963 258.724C48.4793 257.36 47.2552 255.823 46.1622 254.159C43.3751 249.911 41.4788 244.954 40.5334 239.42C39.5825 233.89 39.6153 228.039 40.6318 222.04C42.7412 209.536 48.8181 197.932 57.7422 189.371C72.9673 174.767 92.6571 173.099 104.56 185.406C105.877 186.77 107.101 188.307 108.194 189.971C110.981 194.219 112.877 199.176 113.822 204.71C114.773 210.24 114.741 216.091 113.724 222.09C111.615 234.594 105.538 246.198 96.6137 254.759C81.3886 269.363 61.6987 271.031 49.7963 258.724Z" fill="white" stroke="black" stroke-width="0.175375" stroke-miterlimit="10"/>
<path d="M111.626 267.547C111.845 267.356 112.058 267.159 112.277 266.963C112.326 266.914 112.381 266.87 112.43 266.821C112.463 266.794 112.495 266.761 112.523 266.734C112.807 266.472 113.091 266.205 113.375 265.933C113.709 265.616 114.036 265.294 114.359 264.967C114.446 264.88 114.534 264.787 114.621 264.7C114.856 264.46 115.091 264.226 115.321 263.98C115.446 263.849 115.561 263.719 115.687 263.593C115.873 263.391 116.064 263.195 116.25 262.993C116.25 262.993 116.255 262.982 116.261 262.982C116.583 262.633 116.9 262.279 117.212 261.924C117.294 261.832 117.375 261.734 117.457 261.641C117.687 261.379 117.917 261.112 118.135 260.845C118.146 260.828 118.162 260.812 118.179 260.796C118.261 260.698 118.337 260.599 118.419 260.501C118.638 260.239 118.851 259.978 119.064 259.711C119.179 259.563 119.294 259.416 119.408 259.274C119.594 259.04 119.78 258.8 119.966 258.56C120.01 258.505 120.053 258.451 120.097 258.396C120.277 258.162 120.452 257.927 120.627 257.693C120.649 257.66 120.676 257.627 120.698 257.595C120.928 257.289 121.152 256.978 121.37 256.668C121.409 256.613 121.447 256.559 121.485 256.504C121.671 256.242 121.851 255.986 122.032 255.724C122.07 255.664 122.114 255.604 122.152 255.544C122.212 255.457 122.272 255.364 122.332 255.277C122.518 255.004 122.698 254.732 122.879 254.454C122.928 254.377 122.977 254.306 123.026 254.23C123.245 253.892 123.458 253.554 123.671 253.216C123.72 253.14 123.764 253.063 123.813 252.987C123.911 252.829 124.01 252.671 124.108 252.512C124.168 252.409 124.228 252.311 124.289 252.207C124.37 252.065 124.458 251.923 124.54 251.782C124.677 251.547 124.813 251.313 124.95 251.078C125.026 250.942 125.103 250.806 125.185 250.675C125.332 250.407 125.48 250.146 125.627 249.879C125.682 249.775 125.742 249.671 125.797 249.568C125.994 249.208 126.185 248.842 126.376 248.477C126.382 248.466 126.387 248.455 126.392 248.444C126.409 248.406 126.431 248.373 126.447 248.335C126.617 248.014 126.78 247.686 126.939 247.359C126.988 247.266 127.032 247.168 127.081 247.076C127.256 246.716 127.431 246.356 127.6 245.99C127.6 245.99 127.6 245.99 127.6 245.985C127.77 245.625 127.934 245.26 128.098 244.894C128.141 244.802 128.185 244.704 128.223 244.611C128.371 244.278 128.518 243.946 128.655 243.607C128.671 243.569 128.688 243.537 128.704 243.498C128.857 243.133 129.01 242.768 129.158 242.397C129.196 242.304 129.234 242.206 129.272 242.113C129.316 241.999 129.365 241.884 129.409 241.764C129.447 241.666 129.48 241.568 129.518 241.47C129.639 241.154 129.759 240.843 129.874 240.526C129.934 240.357 129.999 240.194 130.059 240.025C130.185 239.676 130.305 239.327 130.426 238.978C130.469 238.852 130.513 238.721 130.557 238.596C130.715 238.122 130.874 237.642 131.021 237.162C131.049 237.064 131.081 236.971 131.109 236.873C131.229 236.491 131.344 236.104 131.453 235.717C131.502 235.553 131.546 235.39 131.59 235.226C131.682 234.904 131.77 234.577 131.852 234.255C131.896 234.081 131.945 233.906 131.989 233.732C132.076 233.399 132.152 233.067 132.234 232.739C132.273 232.581 132.311 232.423 132.349 232.27C132.453 231.818 132.557 231.371 132.65 230.918C132.655 230.885 132.666 230.847 132.672 230.814C132.775 230.329 132.868 229.844 132.961 229.358C132.967 229.32 132.978 229.282 132.983 229.244C133.043 228.922 133.098 228.595 133.153 228.273C133.163 228.202 133.174 228.131 133.185 228.061C133.24 227.739 133.289 227.412 133.338 227.09C133.355 226.992 133.366 226.894 133.382 226.801C133.437 226.419 133.491 226.038 133.541 225.661C133.546 225.612 133.551 225.558 133.557 225.509C133.601 225.17 133.639 224.832 133.677 224.494C133.688 224.396 133.699 224.293 133.71 224.194C133.748 223.813 133.786 223.431 133.825 223.049C133.825 223.027 133.825 223.006 133.825 222.984C133.847 222.717 133.868 222.449 133.89 222.182C133.896 222.1 133.901 222.024 133.907 221.942C133.918 221.773 133.929 221.604 133.939 221.435C133.956 221.195 133.967 220.95 133.983 220.71C133.994 220.541 134 220.366 134.005 220.197C134.016 219.957 134.021 219.717 134.032 219.472C134.032 219.303 134.043 219.134 134.049 218.965C134.054 218.719 134.06 218.474 134.06 218.229C134.06 218.065 134.06 217.901 134.06 217.743C134.06 217.689 134.06 217.634 134.06 217.58C134.06 217.258 134.06 216.942 134.054 216.62C134.054 216.582 134.054 216.549 134.054 216.511C134.049 216.162 134.038 215.818 134.027 215.475C134.027 215.366 134.016 215.251 134.016 215.142C134.005 214.842 133.989 214.548 133.972 214.248C133.972 214.161 133.961 214.068 133.956 213.981C133.956 213.942 133.956 213.904 133.95 213.866C133.929 213.539 133.907 213.212 133.879 212.885C133.874 212.803 133.868 212.726 133.857 212.645C133.83 212.307 133.797 211.963 133.765 211.625C133.765 211.581 133.759 211.538 133.754 211.499C133.726 211.216 133.694 210.932 133.661 210.649C133.655 210.594 133.644 210.54 133.639 210.485C133.601 210.163 133.557 209.836 133.513 209.515C133.497 209.384 133.48 209.247 133.459 209.116C133.393 208.664 133.322 208.211 133.245 207.764C133.245 207.753 133.245 207.748 133.245 207.737C133.224 207.617 133.202 207.502 133.18 207.388C133.125 207.093 133.076 206.793 133.016 206.499C132.983 206.335 132.95 206.177 132.918 206.014C132.863 205.757 132.814 205.496 132.754 205.239C132.748 205.207 132.743 205.174 132.732 205.141C132.699 204.983 132.655 204.83 132.622 204.672C132.573 204.454 132.524 204.236 132.469 204.018C132.42 203.827 132.371 203.636 132.322 203.451C132.267 203.238 132.213 203.02 132.152 202.807C132.142 202.764 132.131 202.725 132.12 202.682C132.076 202.524 132.027 202.36 131.983 202.202C131.928 202.011 131.874 201.82 131.819 201.629C131.759 201.428 131.693 201.226 131.633 201.024C131.573 200.833 131.519 200.648 131.453 200.457C131.442 200.419 131.431 200.381 131.42 200.342C131.36 200.162 131.294 199.982 131.234 199.803C131.18 199.644 131.125 199.481 131.07 199.323C130.988 199.094 130.906 198.865 130.819 198.641C130.764 198.494 130.71 198.347 130.655 198.199C130.65 198.183 130.644 198.161 130.633 198.145C130.54 197.894 130.436 197.649 130.338 197.403C130.294 197.3 130.256 197.196 130.212 197.092C130.065 196.732 129.912 196.367 129.753 196.013C129.753 196.013 129.753 196.007 129.753 196.002C129.721 195.931 129.688 195.865 129.66 195.795C129.529 195.505 129.398 195.216 129.262 194.927C129.201 194.802 129.136 194.677 129.076 194.546C128.983 194.349 128.884 194.153 128.786 193.957C128.77 193.93 128.753 193.897 128.742 193.87C128.671 193.722 128.595 193.581 128.518 193.433C128.414 193.226 128.305 193.024 128.196 192.823C128.114 192.675 128.032 192.523 127.95 192.375C127.868 192.234 127.791 192.086 127.71 191.945C127.682 191.896 127.649 191.846 127.622 191.792C127.535 191.639 127.442 191.487 127.354 191.334C127.245 191.148 127.13 190.958 127.021 190.772C126.928 190.619 126.83 190.467 126.737 190.314C126.666 190.2 126.595 190.085 126.524 189.971C126.442 189.84 126.354 189.709 126.267 189.578C126.108 189.338 125.95 189.098 125.786 188.864C125.737 188.793 125.688 188.722 125.638 188.651C125.518 188.482 125.398 188.313 125.278 188.144C125.245 188.1 125.218 188.057 125.185 188.013C125.168 187.991 125.152 187.969 125.136 187.947C124.933 187.669 124.726 187.391 124.518 187.119C124.48 187.07 124.442 187.02 124.403 186.966C124.185 186.682 123.966 186.404 123.742 186.132C123.742 186.132 123.731 186.121 123.731 186.115C123.594 185.946 123.458 185.783 123.321 185.619C123.272 185.564 123.228 185.51 123.179 185.45C123.081 185.335 122.988 185.226 122.89 185.117C122.835 185.052 122.775 184.986 122.72 184.926C122.633 184.828 122.54 184.725 122.452 184.627C122.392 184.561 122.332 184.496 122.272 184.425C122.223 184.37 122.168 184.31 122.119 184.256C122.086 184.218 122.053 184.185 122.015 184.147C121.944 184.07 121.868 183.989 121.797 183.912C121.715 183.825 121.633 183.743 121.551 183.656C121.474 183.58 121.403 183.503 121.327 183.427C121.245 183.345 121.163 183.263 121.081 183.176C121.004 183.1 120.928 183.023 120.851 182.952C120.769 182.871 120.687 182.789 120.6 182.712C120.523 182.636 120.447 182.565 120.37 182.494C120.332 182.456 120.294 182.418 120.255 182.385C120.212 182.347 120.174 182.309 120.13 182.271C120.037 182.184 119.944 182.096 119.846 182.009C119.769 181.938 119.693 181.867 119.611 181.796C119.518 181.709 119.419 181.627 119.326 181.546C119.25 181.475 119.168 181.409 119.091 181.338C118.993 181.256 118.895 181.175 118.802 181.093C118.725 181.027 118.643 180.962 118.567 180.897C118.468 180.815 118.37 180.733 118.266 180.651C118.212 180.608 118.157 180.558 118.097 180.515C118.075 180.499 118.059 180.482 118.037 180.466C117.856 180.324 117.682 180.182 117.501 180.046C117.485 180.03 117.463 180.019 117.447 180.002C117.25 179.85 117.048 179.702 116.845 179.555C116.785 179.511 116.725 179.468 116.66 179.424C116.518 179.321 116.375 179.217 116.233 179.119C116.162 179.07 116.091 179.021 116.015 178.966C115.878 178.868 115.736 178.775 115.594 178.683C115.55 178.65 115.507 178.623 115.457 178.59C115.435 178.579 115.419 178.563 115.397 178.552C115.14 178.383 114.884 178.219 114.627 178.056C114.577 178.023 114.523 177.99 114.474 177.963C114.222 177.81 113.976 177.657 113.725 177.51C113.703 177.499 113.681 177.483 113.654 177.472C113.386 177.319 113.118 177.167 112.851 177.019C112.79 176.987 112.736 176.954 112.676 176.927C112.408 176.785 112.14 176.643 111.867 176.507C111.856 176.507 111.845 176.496 111.834 176.49C111.801 176.474 111.769 176.458 111.73 176.441C111.528 176.338 111.326 176.24 111.118 176.141C111.053 176.109 110.987 176.076 110.916 176.049C110.67 175.934 110.424 175.82 110.173 175.711L99.7568 171.119C100.003 171.228 100.254 171.343 100.5 171.457C100.566 171.49 100.637 171.523 100.702 171.555C100.904 171.654 101.112 171.752 101.314 171.855C101.358 171.877 101.402 171.899 101.445 171.921C101.719 172.057 101.986 172.199 102.254 172.341C102.314 172.373 102.369 172.406 102.429 172.433C102.697 172.581 102.965 172.728 103.232 172.886C103.254 172.897 103.276 172.913 103.304 172.924C103.555 173.071 103.806 173.224 104.052 173.377C104.101 173.409 104.156 173.442 104.205 173.469C104.462 173.633 104.719 173.797 104.976 173.966C105.041 174.009 105.101 174.053 105.167 174.097C105.309 174.189 105.446 174.287 105.588 174.38C105.659 174.429 105.73 174.478 105.806 174.533C105.948 174.631 106.091 174.735 106.233 174.838C106.293 174.882 106.353 174.925 106.418 174.969C106.621 175.116 106.817 175.264 107.02 175.416C107.036 175.427 107.052 175.443 107.069 175.454C107.249 175.596 107.429 175.732 107.61 175.88C107.686 175.94 107.763 176 107.834 176.065C107.932 176.147 108.036 176.229 108.134 176.311C108.211 176.376 108.293 176.441 108.369 176.507C108.468 176.589 108.566 176.67 108.665 176.758C108.741 176.823 108.823 176.894 108.9 176.965C108.992 177.047 109.091 177.134 109.184 177.216C109.26 177.287 109.342 177.358 109.419 177.428C109.512 177.516 109.604 177.603 109.703 177.685C109.785 177.761 109.861 177.832 109.943 177.908C110.02 177.979 110.096 178.056 110.173 178.126C110.255 178.208 110.337 178.29 110.424 178.366C110.501 178.443 110.577 178.514 110.654 178.59C110.736 178.672 110.818 178.754 110.9 178.841C110.976 178.917 111.047 178.993 111.124 179.07C111.206 179.152 111.288 179.239 111.364 179.321C111.441 179.397 111.512 179.479 111.588 179.555C111.676 179.648 111.758 179.735 111.84 179.828C111.9 179.893 111.96 179.959 112.025 180.03C112.113 180.128 112.206 180.226 112.293 180.329C112.348 180.395 112.408 180.46 112.463 180.52C112.561 180.629 112.654 180.744 112.752 180.853C112.801 180.907 112.851 180.967 112.894 181.022C113.031 181.186 113.168 181.349 113.304 181.518C113.304 181.518 113.315 181.529 113.315 181.535C113.539 181.807 113.758 182.085 113.976 182.369C114.015 182.418 114.053 182.467 114.091 182.522C114.299 182.794 114.506 183.072 114.709 183.35C114.758 183.416 114.802 183.481 114.851 183.547C114.971 183.716 115.091 183.885 115.211 184.054C115.261 184.125 115.31 184.196 115.359 184.267C115.523 184.501 115.681 184.741 115.84 184.981C115.998 185.226 116.151 185.472 116.31 185.717C116.403 185.87 116.501 186.023 116.594 186.175C116.709 186.361 116.818 186.546 116.927 186.737C117.015 186.89 117.108 187.042 117.195 187.195C117.304 187.391 117.414 187.582 117.523 187.778C117.605 187.926 117.687 188.073 117.769 188.226C117.878 188.427 117.988 188.635 118.091 188.842C118.168 188.984 118.244 189.131 118.315 189.273C118.43 189.496 118.54 189.725 118.649 189.949C118.709 190.074 118.774 190.2 118.835 190.33C118.971 190.619 119.102 190.909 119.234 191.203C119.266 191.268 119.294 191.339 119.326 191.405C119.485 191.765 119.643 192.13 119.791 192.495C119.835 192.599 119.873 192.697 119.911 192.801C120.02 193.068 120.124 193.335 120.228 193.602C120.283 193.75 120.337 193.897 120.392 194.044C120.474 194.273 120.561 194.497 120.643 194.726C120.698 194.884 120.753 195.047 120.807 195.206C120.884 195.424 120.955 195.642 121.026 195.86C121.086 196.045 121.146 196.236 121.206 196.422C121.272 196.623 121.332 196.825 121.392 197.027C121.447 197.218 121.501 197.409 121.556 197.599C121.616 197.801 121.671 198.003 121.726 198.205C121.786 198.417 121.84 198.636 121.895 198.848C121.944 199.039 121.993 199.225 122.042 199.415C122.097 199.634 122.146 199.852 122.195 200.07C122.239 200.261 122.283 200.446 122.327 200.637C122.381 200.893 122.436 201.149 122.491 201.406C122.523 201.569 122.562 201.733 122.594 201.897C122.655 202.191 122.704 202.485 122.758 202.78C122.78 202.905 122.808 203.031 122.829 203.162C122.906 203.609 122.977 204.061 123.043 204.514C123.064 204.645 123.081 204.776 123.097 204.907C123.141 205.228 123.185 205.556 123.223 205.877C123.267 206.215 123.305 206.554 123.338 206.892C123.338 206.935 123.343 206.979 123.349 207.022C123.381 207.361 123.414 207.699 123.441 208.042C123.447 208.124 123.452 208.2 123.463 208.282C123.491 208.648 123.518 209.013 123.54 209.378C123.54 209.465 123.551 209.558 123.556 209.645C123.573 209.945 123.589 210.24 123.6 210.54C123.6 210.649 123.611 210.763 123.611 210.872C123.622 211.216 123.633 211.565 123.638 211.908C123.638 211.947 123.638 211.979 123.638 212.018C123.644 212.394 123.644 212.765 123.644 213.141C123.644 213.304 123.644 213.463 123.644 213.626C123.644 213.872 123.638 214.117 123.633 214.368C123.633 214.537 123.622 214.706 123.616 214.875C123.611 215.115 123.6 215.355 123.589 215.6C123.584 215.769 123.573 215.944 123.567 216.113C123.556 216.353 123.54 216.598 123.523 216.838C123.513 217.007 123.502 217.176 123.491 217.345C123.469 217.694 123.441 218.043 123.409 218.387C123.409 218.409 123.409 218.425 123.409 218.447C123.376 218.828 123.338 219.21 123.294 219.597C123.283 219.696 123.272 219.794 123.261 219.897C123.223 220.235 123.185 220.573 123.141 220.912C123.135 220.961 123.13 221.015 123.125 221.064C123.075 221.446 123.021 221.828 122.966 222.209C122.95 222.308 122.939 222.4 122.922 222.498C122.873 222.82 122.824 223.147 122.769 223.469C122.758 223.54 122.747 223.611 122.737 223.682C122.676 224.047 122.611 224.407 122.54 224.772C122.447 225.258 122.354 225.743 122.25 226.228C122.245 226.261 122.234 226.299 122.228 226.332C122.135 226.785 122.032 227.232 121.928 227.679C121.889 227.837 121.851 227.995 121.813 228.153C121.731 228.486 121.654 228.813 121.567 229.146C121.523 229.32 121.474 229.495 121.43 229.669C121.343 229.991 121.256 230.318 121.168 230.64C121.124 230.804 121.075 230.967 121.031 231.136C120.922 231.518 120.807 231.905 120.687 232.287C120.66 232.385 120.627 232.483 120.6 232.581C120.452 233.061 120.294 233.536 120.135 234.01C120.092 234.141 120.048 234.266 120.004 234.397C119.884 234.746 119.764 235.095 119.638 235.444C119.578 235.613 119.518 235.777 119.452 235.946C119.337 236.262 119.217 236.573 119.097 236.889C119.015 237.102 118.933 237.315 118.851 237.527C118.813 237.62 118.774 237.718 118.736 237.811C118.589 238.176 118.436 238.547 118.283 238.912C118.266 238.95 118.25 238.983 118.239 239.021C118.097 239.354 117.949 239.692 117.802 240.025C117.758 240.123 117.714 240.216 117.676 240.314C117.512 240.679 117.348 241.039 117.179 241.404C117.009 241.77 116.834 242.13 116.66 242.49C116.616 242.582 116.567 242.68 116.523 242.773C116.359 243.1 116.195 243.427 116.031 243.749C116.015 243.787 115.993 243.82 115.976 243.858C115.78 244.235 115.583 244.605 115.381 244.982C115.326 245.085 115.266 245.189 115.211 245.292C115.064 245.56 114.916 245.827 114.769 246.089C114.692 246.225 114.616 246.361 114.534 246.492C114.397 246.727 114.266 246.961 114.124 247.196C114.042 247.337 113.954 247.479 113.873 247.621C113.714 247.883 113.556 248.144 113.397 248.401C113.348 248.477 113.304 248.553 113.255 248.63C113.042 248.968 112.829 249.306 112.61 249.644C112.561 249.72 112.512 249.791 112.463 249.868C112.282 250.14 112.102 250.418 111.916 250.691C111.856 250.778 111.796 250.871 111.736 250.958C111.517 251.28 111.293 251.602 111.069 251.918C111.031 251.973 110.993 252.027 110.954 252.082C110.73 252.392 110.506 252.703 110.282 253.014C110.26 253.047 110.233 253.08 110.211 253.112C109.992 253.407 109.774 253.696 109.555 253.985C109.375 254.225 109.189 254.459 108.998 254.699C108.883 254.846 108.768 254.994 108.648 255.141C108.435 255.408 108.222 255.67 108.003 255.931C107.91 256.046 107.817 256.161 107.719 256.275C107.495 256.542 107.266 256.804 107.041 257.071C106.959 257.164 106.878 257.262 106.796 257.355C106.484 257.709 106.167 258.064 105.845 258.413C105.653 258.62 105.457 258.827 105.26 259.034C105.14 259.16 105.025 259.291 104.905 259.416C104.664 259.667 104.418 259.918 104.172 260.163C104.096 260.239 104.019 260.321 103.943 260.398C103.615 260.725 103.287 261.047 102.954 261.363C102.67 261.635 102.385 261.897 102.101 262.164C102.019 262.241 101.932 262.317 101.85 262.393C101.637 262.59 101.418 262.786 101.2 262.977C101.118 263.048 101.036 263.124 100.954 263.195C100.664 263.451 100.374 263.702 100.085 263.948C100.057 263.969 100.036 263.991 100.008 264.013C99.7459 264.237 99.4781 264.455 99.2103 264.673C99.1229 264.744 99.0355 264.815 98.9426 264.886C98.724 265.06 98.5108 265.235 98.2922 265.404C98.2103 265.469 98.1228 265.534 98.0409 265.6C97.7458 265.829 97.4561 266.052 97.161 266.271C97.1337 266.292 97.1064 266.309 97.0845 266.331C96.8113 266.532 96.5435 266.729 96.2702 266.92C96.1828 266.985 96.0899 267.045 96.0025 267.11C95.7729 267.269 95.5489 267.427 95.3194 267.585C95.2374 267.639 95.1554 267.699 95.068 267.754C94.7674 267.956 94.4614 268.157 94.1608 268.354C94.1226 268.381 94.0843 268.403 94.0461 268.43C93.7728 268.605 93.4996 268.779 93.2263 268.948C93.1334 269.003 93.0405 269.063 92.9531 269.117C92.7072 269.27 92.4612 269.417 92.2099 269.559C92.1388 269.602 92.0678 269.641 91.9967 269.684C91.6798 269.87 91.3628 270.05 91.0459 270.224C90.9693 270.268 90.8983 270.306 90.8218 270.344C90.5649 270.486 90.3081 270.622 90.0512 270.759C89.9638 270.802 89.8818 270.851 89.7944 270.895C89.4556 271.069 89.1222 271.238 88.7834 271.407C88.7342 271.435 88.685 271.457 88.6304 271.478C88.3298 271.626 88.0347 271.762 87.7341 271.904C87.6522 271.942 87.5702 271.98 87.4828 272.018C87.133 272.176 86.7778 272.334 86.4281 272.487C86.3734 272.509 86.3133 272.536 86.2586 272.558C85.9417 272.694 85.6247 272.82 85.3078 272.951C85.2367 272.978 85.1657 273.011 85.0946 273.038C84.7176 273.185 84.3405 273.327 83.9579 273.469C83.8814 273.496 83.8049 273.523 83.7284 273.551C83.3404 273.687 82.9524 273.823 82.5644 273.949C82.3567 274.014 82.1545 274.079 81.9469 274.145C81.9032 274.161 81.854 274.172 81.8103 274.189C81.5534 274.265 81.302 274.341 81.0452 274.418C80.9687 274.439 80.8976 274.461 80.8211 274.483C80.6408 274.532 80.4604 274.587 80.2801 274.636C80.1817 274.663 80.0834 274.685 79.985 274.712C79.8265 274.756 79.6735 274.794 79.515 274.832C79.3128 274.881 79.1106 274.93 78.903 274.979C78.8319 274.996 78.7609 275.012 78.6898 275.028C78.4166 275.094 78.1433 275.154 77.8646 275.208C77.7991 275.225 77.7335 275.236 77.6679 275.246C77.4602 275.29 77.2526 275.334 77.0449 275.372C76.9411 275.394 76.8427 275.41 76.7389 275.426C76.564 275.459 76.3946 275.492 76.2197 275.519C76.1377 275.535 76.0503 275.546 75.9683 275.563C75.7169 275.606 75.471 275.645 75.2196 275.677C75.1267 275.688 75.0338 275.704 74.9409 275.715C74.6349 275.759 74.3289 275.797 74.0283 275.835C74.0119 275.835 73.9955 275.835 73.9791 275.841C73.6567 275.879 73.3397 275.912 73.0228 275.939C72.9299 275.95 72.8424 275.955 72.7495 275.961C72.5036 275.983 72.2577 275.999 72.0118 276.015C71.9298 276.021 71.8478 276.026 71.7659 276.032C71.4325 276.053 71.1046 276.07 70.7713 276.081C70.7057 276.081 70.6401 276.081 70.5745 276.081C70.2958 276.092 70.0171 276.097 69.7439 276.097C69.6564 276.097 69.5745 276.097 69.487 276.097C69.1591 276.097 68.8258 276.097 68.4979 276.086C68.4542 276.086 68.4159 276.086 68.3722 276.086C68.0771 276.081 67.7875 276.07 67.4978 276.054C67.4104 276.054 67.3229 276.043 67.2355 276.043C66.9076 276.026 66.5797 276.004 66.2518 275.977C65.9239 275.95 65.5961 275.917 65.2736 275.884C65.1862 275.874 65.0987 275.863 65.0168 275.857C64.7271 275.824 64.443 275.786 64.1588 275.748C64.1151 275.743 64.0714 275.737 64.0331 275.732C63.7107 275.688 63.3937 275.634 63.0713 275.579C62.9893 275.563 62.9073 275.552 62.8254 275.535C62.5576 275.486 62.2898 275.437 62.0275 275.388C61.9619 275.377 61.9018 275.366 61.8362 275.35C61.5193 275.285 61.2078 275.219 60.8963 275.143C60.8198 275.126 60.7487 275.105 60.6722 275.088C60.4154 275.028 60.1531 274.963 59.8962 274.892C59.8252 274.87 59.7487 274.854 59.6776 274.832C59.3661 274.75 59.0601 274.663 58.7486 274.57C58.6885 274.554 58.6284 274.532 58.5683 274.516C58.3114 274.439 58.0491 274.358 57.7922 274.27C57.7157 274.243 57.6338 274.221 57.5573 274.194C57.2512 274.09 56.9452 273.987 56.6446 273.872C56.6064 273.856 56.5681 273.845 56.5299 273.829C56.2621 273.73 55.9943 273.627 55.7265 273.518C55.6446 273.485 55.5681 273.452 55.4861 273.42C55.1855 273.294 54.8849 273.169 54.5898 273.038L65.0058 277.629C65.3009 277.76 65.6015 277.886 65.9021 278.011C65.9841 278.044 66.0606 278.077 66.1425 278.109C66.4103 278.218 66.6781 278.317 66.9459 278.42C66.9841 278.437 67.0224 278.447 67.0606 278.464C67.3612 278.573 67.6672 278.682 67.9733 278.786C68.0498 278.813 68.1317 278.84 68.2082 278.862C68.4651 278.944 68.7219 279.025 68.9788 279.107C69.0389 279.124 69.099 279.145 69.1591 279.162C69.4652 279.254 69.7767 279.342 70.0882 279.424C70.1592 279.445 70.2357 279.462 70.3122 279.484C70.5691 279.549 70.8259 279.614 71.0828 279.674C71.1593 279.691 71.2303 279.713 71.3068 279.729C71.6183 279.8 71.9353 279.871 72.2468 279.936C72.3123 279.947 72.3725 279.958 72.438 279.974C72.7058 280.029 72.9681 280.078 73.2359 280.122C73.3179 280.138 73.3999 280.149 73.4818 280.165C73.7988 280.22 74.1212 280.269 74.4436 280.318C74.4874 280.323 74.5311 280.329 74.5693 280.334C74.8535 280.372 75.1431 280.411 75.4273 280.443C75.5148 280.454 75.6022 280.465 75.6842 280.471C76.0121 280.503 76.3345 280.536 76.6624 280.563C76.6624 280.563 76.6624 280.563 76.6678 280.563C76.9957 280.59 77.3236 280.612 77.6515 280.629C77.7389 280.629 77.8264 280.64 77.9138 280.64C78.2035 280.656 78.4986 280.667 78.7882 280.672C78.8319 280.672 78.8756 280.672 78.9139 280.672C79.2418 280.678 79.5697 280.683 79.903 280.683C79.9905 280.683 80.0724 280.683 80.1599 280.683C80.4386 280.683 80.7118 280.678 80.9905 280.667C81.0561 280.667 81.1217 280.667 81.1873 280.661C81.5152 280.65 81.8485 280.634 82.1819 280.612C82.2092 280.612 82.2365 280.612 82.2638 280.612C82.3185 280.612 82.3786 280.601 82.4332 280.601C82.6792 280.585 82.9251 280.569 83.171 280.547C83.2639 280.541 83.3513 280.531 83.4442 280.525C83.7612 280.498 84.0836 280.465 84.4006 280.427C84.417 280.427 84.4334 280.427 84.4498 280.421C84.7558 280.383 85.0564 280.345 85.3624 280.301C85.4553 280.291 85.5482 280.274 85.6411 280.263C85.8925 280.225 86.1384 280.187 86.3898 280.149C86.4444 280.138 86.4991 280.132 86.5592 280.122C86.5865 280.122 86.6139 280.111 86.6466 280.105C86.8215 280.078 86.9909 280.045 87.1658 280.012C87.2696 279.996 87.368 279.974 87.4718 279.958C87.6795 279.92 87.8872 279.876 88.0948 279.832C88.1604 279.822 88.226 279.805 88.2916 279.794C88.5648 279.734 88.8381 279.674 89.1168 279.614C89.1878 279.598 89.2589 279.582 89.3299 279.565C89.5321 279.516 89.7343 279.467 89.942 279.418C89.9583 279.418 89.9802 279.407 89.9966 279.407C90.1332 279.374 90.2698 279.336 90.4065 279.298C90.5048 279.271 90.6032 279.249 90.7016 279.222C90.8819 279.173 91.0622 279.124 91.2426 279.069C91.3191 279.047 91.3956 279.025 91.4666 279.004C91.7235 278.927 91.9749 278.851 92.2317 278.775C92.2809 278.758 92.3246 278.742 92.3738 278.731C92.5705 278.671 92.7727 278.606 92.9695 278.54C92.9749 278.54 92.9804 278.54 92.9913 278.535C93.3793 278.409 93.7673 278.273 94.1553 278.137C94.2319 278.109 94.3084 278.082 94.3849 278.055C94.762 277.918 95.1445 277.777 95.5216 277.624C95.5489 277.613 95.5707 277.608 95.5981 277.597C95.6473 277.58 95.691 277.559 95.7402 277.537C96.0571 277.411 96.3741 277.28 96.691 277.144C96.7457 277.122 96.8058 277.095 96.8605 277.073C97.2157 276.921 97.5654 276.768 97.9152 276.604C97.948 276.588 97.9862 276.572 98.019 276.561C98.0682 276.539 98.1174 276.517 98.1666 276.49C98.4671 276.353 98.7622 276.212 99.0628 276.064C99.112 276.043 99.1611 276.015 99.2103 275.994C99.5492 275.83 99.8825 275.655 100.221 275.481C100.254 275.465 100.292 275.448 100.325 275.426C100.38 275.399 100.429 275.372 100.484 275.345C100.74 275.208 100.997 275.072 101.254 274.93C101.331 274.887 101.402 274.848 101.478 274.81C101.795 274.636 102.112 274.456 102.429 274.27C102.446 274.259 102.467 274.249 102.484 274.238C102.533 274.205 102.588 274.178 102.637 274.145C102.883 273.998 103.134 273.85 103.38 273.703C103.473 273.649 103.566 273.589 103.653 273.534C103.926 273.365 104.2 273.191 104.473 273.016C104.506 272.994 104.533 272.978 104.566 272.956C104.571 272.956 104.582 272.945 104.588 272.94C104.894 272.743 105.194 272.542 105.495 272.34C105.577 272.285 105.664 272.225 105.746 272.171C105.976 272.013 106.205 271.855 106.429 271.696C106.484 271.658 106.539 271.626 106.588 271.587C106.626 271.56 106.659 271.533 106.697 271.511C106.97 271.315 107.244 271.118 107.511 270.917C107.539 270.9 107.561 270.878 107.588 270.862C107.883 270.644 108.178 270.42 108.468 270.191C108.495 270.17 108.528 270.148 108.555 270.126C108.61 270.082 108.665 270.039 108.719 269.995C108.938 269.826 109.156 269.652 109.369 269.477C109.457 269.406 109.544 269.335 109.637 269.264C109.905 269.046 110.167 268.828 110.435 268.605C110.457 268.588 110.479 268.566 110.501 268.55C110.501 268.55 110.506 268.545 110.512 268.539C110.801 268.294 111.091 268.043 111.381 267.787C111.463 267.716 111.544 267.639 111.626 267.568V267.547Z" fill="#0D67AA" stroke="black" stroke-width="0.175375" stroke-miterlimit="10"/>
<mask id="mask0_109_8666" style="mask-type:luminance" maskUnits="userSpaceOnUse" x="8" y="180" width="552" height="313">
<path d="M195.816 492.197C191.116 492.197 186.63 491.166 183.515 489.372L11.1371 390.06C9.18616 388.936 8.53038 387.933 8.41016 387.633C8.53038 387.306 9.18616 386.357 11.0551 385.272L359.991 182.929C363.079 181.14 367.538 180.115 372.238 180.115C376.938 180.115 381.424 181.145 384.545 182.939L556.922 282.246C558.873 283.37 559.535 284.367 559.655 284.673C559.529 285 558.873 285.949 557.015 287.029L208.074 489.377C204.986 491.166 200.521 492.197 195.822 492.197H195.816Z" fill="white"/>
</mask>
<g mask="url(#mask0_109_8666)">
<path d="M451.986 284.697L452.499 365.365L430.121 378.431L425.049 381.484L424.525 408.859L421.005 410.958L397.496 397.358L159.228 534.761L158.709 454.093L451.986 284.697Z" fill="#A1D0E6" stroke="black" stroke-width="0.282864" stroke-miterlimit="10"/>
<path d="M159.229 534.76L142.517 525.07L141.998 444.402L158.71 454.092L159.229 534.76Z" fill="#0D67AA" stroke="black" stroke-width="0.282864" stroke-miterlimit="10"/>
<path d="M158.71 454.092L141.998 444.402L435.275 275.006L451.986 284.697L158.71 454.092Z" fill="#0D67AA" stroke="black" stroke-width="0.282864" stroke-miterlimit="10"/>
<path d="M437.734 311.307L437.778 328.37L179.143 477.376L179.094 460.308L437.734 311.307Z" fill="white" stroke="black" stroke-width="0.282864" stroke-miterlimit="10"/>
<path d="M437.559 338.523L437.608 355.592L274.471 449.576L274.422 432.508L437.559 338.523Z" fill="white" stroke="black" stroke-width="0.282864" stroke-miterlimit="10"/>
<path d="M467.255 333.966C451.543 339.517 431.066 330.721 421.53 314.318C411.989 297.921 416.994 280.127 432.706 274.576C448.417 269.025 468.894 277.821 478.43 294.224C487.972 310.621 482.966 328.415 467.255 333.966Z" fill="#3F76B7" stroke="black" stroke-width="0.113145" stroke-miterlimit="10"/>
<path d="M431.259 281.665C432.313 281.054 433.455 280.525 434.663 280.1C437.74 279.015 441.123 278.59 444.724 278.846C448.32 279.097 451.97 280.007 455.561 281.551C463.048 284.768 469.365 290.314 473.354 297.163C480.158 308.854 478.202 321.347 468.704 326.877C467.649 327.488 466.507 328.017 465.299 328.442C462.222 329.527 458.84 329.952 455.238 329.696C451.642 329.445 447.992 328.535 444.401 326.991C436.915 323.774 430.592 318.228 426.608 311.379C419.804 299.688 421.761 287.195 431.259 281.665Z" fill="white" stroke="black" stroke-width="0.113145" stroke-miterlimit="10"/>
<path d="M416.334 318.768C416.421 318.931 416.509 319.095 416.602 319.258C416.623 319.297 416.645 319.335 416.667 319.378C416.678 319.4 416.695 319.427 416.711 319.449C416.831 319.667 416.957 319.885 417.083 320.098C417.23 320.354 417.383 320.605 417.536 320.856C417.58 320.922 417.624 320.992 417.662 321.058C417.777 321.238 417.886 321.423 418.001 321.603C418.061 321.701 418.126 321.794 418.186 321.887C418.285 322.034 418.378 322.181 418.476 322.328C418.476 322.328 418.476 322.334 418.482 322.339C418.651 322.59 418.826 322.841 419.001 323.092C419.044 323.157 419.094 323.223 419.143 323.288C419.274 323.468 419.405 323.654 419.536 323.834C419.542 323.844 419.553 323.855 419.558 323.866C419.607 323.932 419.656 323.997 419.706 324.063C419.837 324.237 419.968 324.412 420.099 324.586C420.17 324.679 420.247 324.771 420.318 324.87C420.438 325.022 420.558 325.175 420.678 325.322C420.706 325.355 420.733 325.393 420.76 325.426C420.881 325.573 421.001 325.715 421.121 325.862C421.137 325.884 421.154 325.9 421.17 325.922C421.329 326.107 421.487 326.298 421.646 326.484C421.673 326.516 421.7 326.549 421.728 326.582C421.864 326.735 421.995 326.887 422.132 327.04C422.165 327.073 422.192 327.111 422.225 327.144C422.269 327.193 422.318 327.247 422.367 327.296C422.509 327.454 422.651 327.607 422.799 327.76C422.837 327.803 422.875 327.842 422.914 327.885C423.088 328.071 423.269 328.256 423.449 328.441C423.487 328.485 423.531 328.523 423.569 328.567C423.651 328.654 423.739 328.736 423.821 328.823C423.875 328.878 423.93 328.927 423.985 328.981C424.061 329.058 424.138 329.129 424.209 329.205C424.334 329.325 424.46 329.445 424.586 329.565C424.657 329.636 424.733 329.701 424.804 329.772C424.946 329.903 425.089 330.039 425.236 330.17C425.291 330.219 425.351 330.274 425.405 330.323C425.602 330.497 425.799 330.672 425.996 330.846C426.001 330.846 426.007 330.857 426.012 330.863C426.034 330.879 426.05 330.895 426.072 330.912C426.247 331.064 426.427 331.217 426.608 331.364C426.657 331.408 426.712 331.452 426.761 331.495C426.957 331.659 427.16 331.822 427.356 331.986C427.559 332.144 427.755 332.302 427.963 332.46C428.018 332.504 428.067 332.542 428.122 332.58C428.307 332.722 428.493 332.864 428.679 333.006C428.701 333.022 428.717 333.038 428.739 333.049C428.941 333.202 429.149 333.349 429.357 333.496C429.411 333.535 429.466 333.573 429.521 333.611C429.586 333.655 429.652 333.704 429.717 333.747C429.772 333.785 429.827 333.824 429.881 333.862C430.062 333.987 430.236 334.107 430.417 334.227C430.51 334.293 430.608 334.353 430.701 334.418C430.898 334.549 431.1 334.68 431.302 334.805C431.373 334.854 431.45 334.898 431.521 334.947C431.794 335.121 432.067 335.291 432.346 335.454C432.401 335.487 432.455 335.52 432.515 335.552C432.739 335.683 432.958 335.814 433.182 335.939C433.275 335.994 433.373 336.049 433.466 336.103C433.652 336.207 433.843 336.316 434.034 336.414C434.138 336.468 434.237 336.523 434.341 336.577C434.532 336.681 434.729 336.779 434.925 336.883C435.018 336.932 435.111 336.976 435.204 337.025C435.472 337.161 435.734 337.292 436.002 337.417C436.024 337.428 436.04 337.439 436.062 337.445C436.352 337.581 436.641 337.717 436.931 337.848C436.953 337.859 436.975 337.87 437.002 337.881C437.193 337.968 437.39 338.05 437.581 338.137C437.625 338.153 437.669 338.175 437.707 338.192C437.898 338.273 438.095 338.355 438.292 338.437C438.352 338.459 438.406 338.486 438.466 338.508C438.696 338.601 438.926 338.693 439.155 338.781C439.188 338.791 439.215 338.802 439.248 338.813C439.45 338.89 439.658 338.966 439.86 339.042C439.92 339.064 439.98 339.086 440.04 339.108C440.275 339.19 440.505 339.271 440.74 339.353C440.751 339.353 440.767 339.364 440.778 339.364C440.942 339.419 441.106 339.473 441.27 339.528C441.319 339.544 441.368 339.56 441.417 339.571C441.521 339.604 441.625 339.637 441.729 339.669C441.877 339.713 442.024 339.762 442.177 339.806C442.281 339.838 442.39 339.866 442.494 339.898C442.642 339.942 442.795 339.986 442.942 340.024C443.046 340.051 443.15 340.084 443.259 340.111C443.412 340.155 443.565 340.193 443.718 340.231C443.822 340.258 443.92 340.286 444.024 340.307C444.057 340.318 444.09 340.324 444.128 340.335C444.33 340.384 444.527 340.433 444.729 340.476C444.751 340.476 444.773 340.487 444.8 340.493C445.019 340.542 445.237 340.591 445.451 340.635C445.522 340.651 445.593 340.662 445.664 340.678C445.849 340.716 446.041 340.755 446.227 340.787C446.281 340.798 446.341 340.809 446.396 340.82C446.418 340.82 446.445 340.831 446.467 340.831C446.675 340.869 446.882 340.902 447.09 340.935C447.139 340.945 447.194 340.951 447.243 340.956C447.462 340.989 447.675 341.022 447.893 341.054C447.921 341.054 447.948 341.06 447.975 341.065C448.156 341.093 448.341 341.114 448.522 341.136C448.555 341.136 448.593 341.142 448.626 341.147C448.833 341.174 449.041 341.196 449.249 341.218C449.336 341.229 449.418 341.234 449.505 341.245C449.801 341.273 450.09 341.3 450.385 341.316C450.391 341.316 450.396 341.316 450.402 341.316C450.478 341.316 450.555 341.327 450.631 341.327C450.822 341.338 451.019 341.349 451.21 341.36C451.314 341.36 451.424 341.365 451.527 341.371C451.697 341.376 451.866 341.382 452.036 341.387C452.058 341.387 452.079 341.387 452.101 341.387C452.205 341.387 452.309 341.387 452.413 341.387C452.555 341.387 452.702 341.387 452.845 341.387C452.97 341.387 453.096 341.387 453.222 341.387C453.364 341.387 453.506 341.387 453.648 341.382C453.675 341.382 453.702 341.382 453.73 341.382C453.839 341.382 453.943 341.371 454.052 341.371C454.178 341.371 454.309 341.36 454.435 341.354C454.571 341.349 454.703 341.338 454.839 341.327C454.965 341.322 455.091 341.311 455.222 341.3C455.249 341.3 455.271 341.3 455.298 341.3C455.418 341.289 455.544 341.278 455.664 341.267C455.774 341.256 455.883 341.251 455.992 341.24C456.145 341.224 456.304 341.207 456.457 341.191C456.555 341.18 456.659 341.169 456.757 341.158C456.768 341.158 456.785 341.158 456.796 341.158C456.965 341.136 457.134 341.114 457.304 341.087C457.375 341.076 457.446 341.071 457.517 341.06C457.768 341.022 458.014 340.984 458.26 340.94C458.26 340.94 458.266 340.94 458.271 340.94C458.32 340.929 458.364 340.924 458.413 340.913C458.615 340.875 458.818 340.836 459.014 340.798C459.102 340.782 459.189 340.76 459.282 340.744C459.419 340.716 459.555 340.684 459.697 340.656C459.719 340.656 459.736 340.645 459.758 340.64C459.861 340.618 459.96 340.591 460.064 340.564C460.206 340.531 460.353 340.493 460.495 340.455C460.599 340.427 460.708 340.4 460.812 340.367C460.916 340.34 461.02 340.313 461.118 340.286C461.157 340.275 461.189 340.264 461.228 340.253C461.337 340.22 461.446 340.187 461.555 340.155C461.687 340.117 461.823 340.073 461.954 340.029C462.064 339.997 462.173 339.958 462.282 339.92C462.364 339.893 462.446 339.866 462.528 339.838C462.621 339.806 462.719 339.773 462.812 339.74C462.987 339.68 463.162 339.615 463.332 339.549C463.381 339.528 463.435 339.511 463.485 339.489C463.61 339.44 463.736 339.391 463.856 339.342C463.889 339.331 463.922 339.32 463.949 339.304C463.965 339.299 463.982 339.288 463.998 339.282C464.206 339.2 464.408 339.113 464.61 339.026C464.649 339.01 464.687 338.993 464.725 338.977C464.933 338.884 465.14 338.791 465.348 338.693C465.348 338.693 465.354 338.693 465.359 338.693C465.485 338.633 465.61 338.573 465.731 338.513C465.774 338.492 465.813 338.47 465.856 338.448C465.938 338.404 466.026 338.361 466.108 338.317C466.157 338.29 466.206 338.268 466.255 338.241C466.332 338.203 466.408 338.159 466.485 338.121C466.534 338.093 466.589 338.066 466.638 338.039C466.682 338.017 466.725 337.99 466.769 337.968C466.796 337.952 466.824 337.935 466.851 337.919C466.911 337.886 466.971 337.853 467.031 337.815C467.097 337.777 467.162 337.739 467.228 337.701C467.288 337.668 467.348 337.63 467.408 337.597C467.474 337.559 467.539 337.521 467.6 337.483C467.66 337.445 467.714 337.412 467.774 337.374C467.84 337.335 467.9 337.297 467.966 337.254C468.026 337.215 468.081 337.183 468.141 337.145C468.168 337.128 468.201 337.106 468.228 337.09C468.261 337.068 468.288 337.052 468.315 337.03C468.387 336.986 468.452 336.937 468.518 336.894C468.572 336.856 468.627 336.817 468.687 336.779C468.753 336.736 468.824 336.687 468.889 336.637C468.944 336.599 468.999 336.561 469.053 336.523C469.119 336.474 469.184 336.43 469.25 336.381C469.305 336.343 469.354 336.305 469.408 336.267C469.474 336.218 469.54 336.168 469.605 336.119C469.643 336.092 469.682 336.065 469.714 336.038C469.725 336.027 469.742 336.016 469.753 336.005C469.868 335.918 469.982 335.825 470.097 335.738C470.108 335.727 470.119 335.721 470.13 335.71C470.256 335.612 470.376 335.509 470.501 335.405C470.54 335.372 470.578 335.345 470.611 335.312C470.698 335.241 470.78 335.165 470.868 335.094C470.911 335.056 470.955 335.018 470.993 334.98C471.075 334.909 471.157 334.838 471.234 334.762C471.261 334.74 471.283 334.718 471.31 334.691C471.321 334.68 471.332 334.669 471.343 334.658C471.485 334.527 471.627 334.391 471.769 334.254C471.797 334.227 471.824 334.2 471.851 334.173C471.982 334.042 472.119 333.911 472.245 333.775C472.256 333.764 472.267 333.753 472.283 333.736C472.42 333.595 472.556 333.453 472.687 333.306C472.715 333.273 472.742 333.24 472.775 333.213C472.906 333.066 473.037 332.924 473.163 332.777C473.163 332.771 473.174 332.766 473.179 332.76C473.196 332.744 473.212 332.722 473.228 332.706C473.321 332.597 473.414 332.482 473.507 332.373C473.534 332.335 473.567 332.302 473.595 332.264C473.704 332.128 473.813 331.991 473.917 331.855L478.371 326.075C478.267 326.211 478.158 326.347 478.048 326.484C478.021 326.522 477.988 326.56 477.955 326.593C477.863 326.707 477.77 326.816 477.677 326.925C477.655 326.947 477.639 326.975 477.617 326.996C477.491 327.144 477.36 327.291 477.229 327.433C477.201 327.465 477.174 327.498 477.141 327.525C477.01 327.673 476.873 327.814 476.737 327.956C476.726 327.967 476.715 327.978 476.699 327.994C476.567 328.131 476.436 328.261 476.305 328.392C476.278 328.42 476.25 328.447 476.223 328.474C476.081 328.61 475.939 328.747 475.797 328.878C475.759 328.91 475.726 328.943 475.688 328.976C475.606 329.047 475.529 329.123 475.447 329.194C475.403 329.232 475.365 329.27 475.321 329.308C475.234 329.385 475.152 329.456 475.065 329.527C475.026 329.559 474.994 329.592 474.955 329.619C474.835 329.723 474.709 329.821 474.584 329.925C474.573 329.936 474.562 329.941 474.551 329.952C474.436 330.045 474.321 330.132 474.207 330.225C474.157 330.263 474.108 330.301 474.059 330.339C473.993 330.388 473.928 330.437 473.862 330.486C473.808 330.524 473.758 330.563 473.704 330.601C473.638 330.65 473.573 330.699 473.502 330.743C473.447 330.781 473.392 330.819 473.338 330.857C473.272 330.906 473.201 330.95 473.135 330.999C473.081 331.037 473.026 331.075 472.966 331.113C472.9 331.157 472.829 331.206 472.764 331.25C472.704 331.288 472.644 331.326 472.589 331.364C472.534 331.402 472.474 331.435 472.414 331.473C472.354 331.512 472.288 331.55 472.223 331.593C472.163 331.632 472.108 331.664 472.048 331.702C471.982 331.741 471.922 331.779 471.857 331.817C471.797 331.85 471.736 331.888 471.676 331.921C471.611 331.959 471.545 331.997 471.48 332.035C471.42 332.068 471.359 332.106 471.299 332.139C471.228 332.177 471.157 332.215 471.092 332.253C471.042 332.28 470.988 332.308 470.939 332.335C470.862 332.373 470.786 332.417 470.709 332.455C470.66 332.482 470.611 332.504 470.562 332.531C470.48 332.575 470.392 332.619 470.31 332.657C470.266 332.679 470.223 332.7 470.184 332.722C470.059 332.782 469.939 332.842 469.813 332.902C469.813 332.902 469.807 332.902 469.802 332.908C469.6 333.006 469.392 333.098 469.179 333.191C469.141 333.207 469.102 333.224 469.064 333.24C468.862 333.327 468.66 333.415 468.452 333.496C468.403 333.518 468.354 333.535 468.305 333.556C468.179 333.606 468.059 333.655 467.933 333.704C467.884 333.725 467.829 333.742 467.78 333.764C467.611 333.829 467.436 333.895 467.261 333.955C467.086 334.014 466.906 334.074 466.731 334.134C466.621 334.173 466.512 334.205 466.403 334.244C466.272 334.287 466.135 334.325 466.004 334.369C465.895 334.402 465.785 334.434 465.676 334.467C465.539 334.505 465.397 334.543 465.261 334.582C465.157 334.609 465.047 334.642 464.944 334.669C464.802 334.707 464.654 334.74 464.512 334.778C464.408 334.8 464.31 334.827 464.206 334.849C464.047 334.887 463.889 334.92 463.73 334.952C463.643 334.969 463.556 334.991 463.463 335.007C463.261 335.045 463.058 335.083 462.856 335.121C462.807 335.132 462.763 335.138 462.714 335.149C462.463 335.192 462.211 335.236 461.96 335.274C461.889 335.285 461.818 335.291 461.752 335.301C461.572 335.329 461.386 335.356 461.206 335.378C461.107 335.389 461.004 335.4 460.905 335.411C460.752 335.427 460.599 335.449 460.441 335.46C460.331 335.47 460.222 335.481 460.118 335.487C459.971 335.498 459.823 335.514 459.676 335.525C459.55 335.536 459.424 335.541 459.298 335.552C459.162 335.563 459.031 335.569 458.894 335.58C458.768 335.585 458.637 335.59 458.512 335.596C458.375 335.596 458.244 335.607 458.107 335.612C457.965 335.612 457.823 335.612 457.681 335.618C457.555 335.618 457.43 335.618 457.304 335.618C457.162 335.618 457.014 335.618 456.872 335.618C456.746 335.618 456.621 335.618 456.495 335.618C456.326 335.618 456.156 335.607 455.992 335.601C455.883 335.601 455.779 335.596 455.67 335.59C455.479 335.58 455.282 335.569 455.091 335.558C455.009 335.558 454.927 335.547 454.845 335.541C454.555 335.52 454.26 335.498 453.965 335.47C453.877 335.465 453.795 335.454 453.708 335.443C453.5 335.421 453.293 335.4 453.079 335.372C452.861 335.345 452.642 335.318 452.429 335.291C452.402 335.291 452.375 335.285 452.347 335.28C452.129 335.247 451.915 335.214 451.697 335.181C451.648 335.176 451.593 335.165 451.544 335.16C451.314 335.121 451.079 335.083 450.85 335.04C450.795 335.029 450.735 335.018 450.68 335.007C450.495 334.974 450.303 334.936 450.118 334.898C450.046 334.882 449.975 334.871 449.91 334.854C449.691 334.811 449.473 334.762 449.26 334.712C449.238 334.712 449.216 334.702 449.189 334.696C448.954 334.642 448.719 334.587 448.489 334.527C448.391 334.5 448.287 334.478 448.188 334.451C448.035 334.413 447.882 334.374 447.729 334.331C447.626 334.304 447.522 334.276 447.412 334.244C447.265 334.2 447.112 334.162 446.964 334.118C446.86 334.085 446.751 334.058 446.647 334.025C446.5 333.982 446.347 333.938 446.199 333.889C446.095 333.856 445.992 333.824 445.888 333.791C445.675 333.72 445.461 333.655 445.248 333.584C445.237 333.584 445.226 333.578 445.21 333.573C444.975 333.491 444.746 333.409 444.511 333.327C444.451 333.306 444.39 333.284 444.33 333.262C444.123 333.186 443.92 333.109 443.713 333.033C443.68 333.022 443.653 333.011 443.62 333C443.39 332.913 443.161 332.82 442.931 332.728C442.871 332.706 442.816 332.679 442.756 332.657C442.56 332.575 442.368 332.493 442.172 332.411C442.128 332.395 442.09 332.373 442.046 332.357C441.827 332.264 441.614 332.166 441.396 332.068C441.106 331.937 440.816 331.806 440.532 331.67C440.51 331.659 440.488 331.648 440.472 331.637C440.204 331.512 439.942 331.381 439.674 331.244C439.581 331.195 439.488 331.152 439.395 331.103C439.199 331.004 439.007 330.901 438.811 330.797C438.707 330.743 438.609 330.688 438.505 330.634C438.313 330.53 438.128 330.426 437.936 330.323C437.838 330.268 437.745 330.214 437.647 330.159C437.423 330.034 437.204 329.903 436.98 329.772C436.925 329.739 436.865 329.707 436.811 329.674C436.537 329.51 436.259 329.341 435.985 329.167C435.914 329.118 435.838 329.074 435.767 329.025C435.565 328.899 435.368 328.769 435.171 328.638C435.078 328.572 434.98 328.512 434.887 328.447C434.707 328.327 434.532 328.207 434.351 328.082C434.231 328 434.111 327.912 433.991 327.831C433.936 327.792 433.881 327.754 433.832 327.716C433.625 327.569 433.417 327.422 433.215 327.269C433.193 327.253 433.176 327.236 433.155 327.225C432.969 327.084 432.783 326.947 432.597 326.8C432.543 326.762 432.493 326.718 432.439 326.675C432.237 326.516 432.034 326.358 431.832 326.2C431.63 326.037 431.433 325.878 431.236 325.709C431.187 325.666 431.133 325.622 431.083 325.579C430.903 325.426 430.723 325.279 430.548 325.12C430.526 325.104 430.51 325.088 430.488 325.071C430.286 324.891 430.078 324.711 429.876 324.532C429.821 324.482 429.761 324.428 429.706 324.379C429.564 324.248 429.417 324.117 429.275 323.981C429.204 323.91 429.127 323.844 429.056 323.774C428.93 323.654 428.805 323.534 428.679 323.414C428.602 323.343 428.526 323.266 428.455 323.19C428.313 323.054 428.176 322.917 428.04 322.776C428.001 322.732 427.958 322.694 427.919 322.65C427.739 322.465 427.559 322.279 427.384 322.094C427.346 322.05 427.307 322.012 427.269 321.969C427.127 321.816 426.979 321.658 426.837 321.505C426.788 321.456 426.744 321.401 426.695 321.352C426.526 321.167 426.362 320.982 426.198 320.791C426.171 320.758 426.143 320.725 426.116 320.693C425.957 320.507 425.793 320.322 425.64 320.131C425.624 320.109 425.608 320.093 425.591 320.071C425.444 319.891 425.296 319.711 425.149 319.531C425.028 319.378 424.908 319.231 424.788 319.078C424.711 318.986 424.64 318.893 424.564 318.795C424.433 318.62 424.302 318.446 424.17 318.271C424.116 318.195 424.056 318.119 424.001 318.042C423.87 317.862 423.739 317.682 423.608 317.497C423.558 317.432 423.515 317.366 423.465 317.301C423.291 317.05 423.116 316.799 422.946 316.548C422.842 316.395 422.744 316.243 422.646 316.09C422.586 315.997 422.526 315.905 422.465 315.812C422.345 315.621 422.225 315.436 422.11 315.245C422.072 315.185 422.034 315.125 422.001 315.065C421.848 314.814 421.695 314.558 421.547 314.301C421.422 314.083 421.296 313.865 421.176 313.653C421.143 313.587 421.105 313.527 421.072 313.462C420.984 313.298 420.892 313.135 420.804 312.971C420.771 312.911 420.739 312.846 420.706 312.786C420.591 312.567 420.476 312.349 420.367 312.131C420.356 312.109 420.35 312.093 420.34 312.071C420.241 311.875 420.143 311.673 420.05 311.477C420.017 311.411 419.99 311.346 419.957 311.28C419.881 311.117 419.804 310.959 419.733 310.795C419.706 310.735 419.678 310.67 419.646 310.61C419.547 310.392 419.454 310.179 419.361 309.961C419.356 309.939 419.345 309.923 419.34 309.901C419.258 309.704 419.176 309.503 419.094 309.306C419.066 309.241 419.044 309.176 419.017 309.11C418.951 308.947 418.886 308.777 418.826 308.614C418.804 308.554 418.782 308.494 418.755 308.434C418.673 308.216 418.596 307.998 418.52 307.78C418.509 307.752 418.503 307.725 418.492 307.698C418.427 307.501 418.361 307.305 418.296 307.109C418.274 307.043 418.252 306.978 418.23 306.913C418.175 306.738 418.121 306.558 418.066 306.384C418.05 306.334 418.033 306.285 418.022 306.231C417.957 306.007 417.891 305.778 417.831 305.555C417.815 305.5 417.804 305.451 417.787 305.397C417.738 305.217 417.689 305.037 417.645 304.857C417.629 304.797 417.613 304.737 417.602 304.677C417.542 304.442 417.487 304.208 417.438 303.973C417.432 303.941 417.421 303.902 417.416 303.87C417.372 303.662 417.328 303.455 417.285 303.248C417.274 303.188 417.263 303.134 417.252 303.074C417.203 302.828 417.159 302.588 417.121 302.343C417.115 302.305 417.11 302.266 417.104 302.223C417.072 302.005 417.039 301.787 417.006 301.574C417.001 301.525 416.99 301.476 416.984 301.427C416.951 301.17 416.919 300.914 416.891 300.658C416.886 300.609 416.88 300.554 416.875 300.505C416.848 300.243 416.82 299.982 416.804 299.72C416.793 299.584 416.782 299.442 416.777 299.305C416.777 299.273 416.776 299.245 416.771 299.213C416.76 299.044 416.749 298.875 416.744 298.7C416.744 298.651 416.744 298.602 416.744 298.553C416.744 298.433 416.733 298.313 416.733 298.193C416.733 298.128 416.733 298.062 416.733 297.997C416.733 297.893 416.733 297.789 416.733 297.686C416.733 297.55 416.733 297.419 416.733 297.282C416.733 297.233 416.733 297.19 416.733 297.141C416.733 296.961 416.738 296.781 416.744 296.601C416.744 296.557 416.744 296.513 416.744 296.47C416.744 296.333 416.755 296.197 416.76 296.061C416.76 295.995 416.766 295.93 416.771 295.864C416.776 295.75 416.782 295.641 416.793 295.526C416.793 295.472 416.804 295.417 416.804 295.363C416.815 295.199 416.831 295.041 416.848 294.877C416.853 294.817 416.858 294.757 416.864 294.698C416.886 294.501 416.908 294.305 416.93 294.114C416.93 294.103 416.93 294.092 416.93 294.081C416.957 293.88 416.984 293.672 417.011 293.471C417.022 293.411 417.028 293.356 417.039 293.296C417.061 293.138 417.088 292.985 417.115 292.827C417.126 292.773 417.132 292.723 417.143 292.669C417.181 292.462 417.219 292.249 417.263 292.042C417.274 292.004 417.279 291.96 417.29 291.922C417.328 291.747 417.367 291.573 417.405 291.404C417.416 291.349 417.432 291.3 417.443 291.246C417.492 291.038 417.547 290.837 417.602 290.635C417.607 290.608 417.618 290.58 417.624 290.559C417.673 290.379 417.722 290.199 417.777 290.019C417.793 289.964 417.809 289.91 417.826 289.861C417.886 289.659 417.951 289.457 418.017 289.261C418.083 289.059 418.154 288.863 418.225 288.666C418.241 288.612 418.263 288.563 418.285 288.508C418.35 288.334 418.416 288.165 418.482 287.99C418.492 287.963 418.503 287.941 418.509 287.914C418.585 287.723 418.667 287.532 418.749 287.341C418.771 287.292 418.793 287.243 418.815 287.194C418.886 287.036 418.957 286.878 419.028 286.72C419.044 286.681 419.061 286.643 419.083 286.605C419.17 286.42 419.263 286.234 419.356 286.049C419.378 286.005 419.4 285.962 419.421 285.918C419.498 285.765 419.58 285.618 419.662 285.465C419.684 285.422 419.706 285.378 419.733 285.34C419.831 285.16 419.935 284.98 420.039 284.806C420.061 284.773 420.083 284.735 420.099 284.702C420.187 284.555 420.279 284.408 420.372 284.26C420.4 284.217 420.427 284.173 420.454 284.124C420.564 283.949 420.678 283.775 420.793 283.606C420.81 283.584 420.826 283.562 420.837 283.54C420.941 283.388 421.045 283.235 421.154 283.088C421.187 283.044 421.219 283.001 421.252 282.952C421.372 282.782 421.498 282.613 421.624 282.45L417.17 288.23C417.044 288.394 416.919 288.563 416.798 288.732C416.766 288.775 416.733 288.819 416.7 288.868C416.591 289.015 416.487 289.168 416.383 289.321C416.367 289.343 416.35 289.364 416.339 289.386C416.225 289.555 416.11 289.73 416 289.904C415.973 289.948 415.946 289.997 415.913 290.041C415.82 290.188 415.733 290.335 415.645 290.482C415.623 290.515 415.602 290.553 415.585 290.586C415.481 290.766 415.377 290.94 415.279 291.12C415.257 291.164 415.23 291.208 415.208 291.251C415.126 291.398 415.05 291.551 414.968 291.704C414.946 291.747 414.924 291.791 414.902 291.835C414.809 292.02 414.716 292.205 414.629 292.391C414.612 292.429 414.596 292.467 414.574 292.505C414.503 292.664 414.427 292.822 414.361 292.98C414.339 293.029 414.317 293.078 414.295 293.127C414.213 293.318 414.131 293.509 414.055 293.7C414.044 293.727 414.033 293.749 414.022 293.776C413.957 293.945 413.886 294.119 413.825 294.294C413.804 294.349 413.787 294.398 413.765 294.452C413.694 294.648 413.623 294.85 413.558 295.047C413.492 295.243 413.427 295.445 413.366 295.646C413.35 295.701 413.334 295.755 413.317 295.81C413.263 295.99 413.213 296.17 413.164 296.35C413.159 296.377 413.148 296.404 413.142 296.426C413.088 296.628 413.039 296.835 412.984 297.037C412.973 297.091 412.957 297.141 412.946 297.195C412.907 297.37 412.864 297.539 412.831 297.713C412.82 297.757 412.814 297.795 412.804 297.839C412.76 298.046 412.722 298.253 412.683 298.46C412.683 298.477 412.678 298.493 412.672 298.509C412.667 298.547 412.661 298.58 412.656 298.618C412.629 298.771 412.601 298.929 412.579 299.082C412.569 299.142 412.563 299.196 412.552 299.256C412.519 299.458 412.492 299.66 412.47 299.867C412.47 299.878 412.47 299.889 412.47 299.9C412.448 300.096 412.426 300.287 412.405 300.483C412.399 300.543 412.394 300.603 412.388 300.663C412.372 300.821 412.361 300.985 412.344 301.149C412.344 301.187 412.339 301.219 412.334 301.258C412.334 301.274 412.334 301.296 412.334 301.312C412.328 301.427 412.317 301.536 412.312 301.65C412.312 301.716 412.301 301.781 412.301 301.847C412.295 301.983 412.29 302.119 412.284 302.256C412.284 302.299 412.284 302.343 412.284 302.386C412.279 302.566 412.273 302.746 412.273 302.926C412.273 302.975 412.273 303.019 412.273 303.068C412.273 303.204 412.273 303.335 412.273 303.472C412.273 303.482 412.273 303.493 412.273 303.504C412.273 303.597 412.273 303.684 412.273 303.777C412.273 303.842 412.273 303.908 412.273 303.973C412.273 304.093 412.279 304.213 412.284 304.333C412.284 304.382 412.284 304.431 412.284 304.486C412.29 304.655 412.301 304.824 412.312 304.998C412.312 305.031 412.312 305.064 412.317 305.091C412.328 305.222 412.334 305.358 412.344 305.489V305.5C412.366 305.762 412.388 306.024 412.416 306.285C412.416 306.334 412.426 306.389 412.432 306.438C412.459 306.694 412.492 306.951 412.525 307.207C412.525 307.223 412.525 307.24 412.53 307.256C412.53 307.289 412.541 307.321 412.547 307.354C412.579 307.572 412.612 307.785 412.645 308.003C412.651 308.041 412.656 308.079 412.661 308.123C412.7 308.363 412.743 308.608 412.793 308.854C412.793 308.876 412.804 308.903 412.804 308.925C412.809 308.957 412.82 308.99 412.825 309.023C412.864 309.23 412.907 309.437 412.957 309.645C412.962 309.677 412.973 309.715 412.978 309.748C413.033 309.983 413.088 310.217 413.142 310.452C413.148 310.473 413.153 310.501 413.159 310.522C413.17 310.561 413.181 310.593 413.186 310.632C413.23 310.811 413.279 310.991 413.328 311.171C413.345 311.226 413.355 311.275 413.372 311.33C413.432 311.553 413.498 311.777 413.563 312.006C413.563 312.017 413.569 312.033 413.574 312.044C413.585 312.082 413.596 312.115 413.607 312.153C413.662 312.327 413.716 312.507 413.771 312.682C413.793 312.747 413.815 312.813 413.836 312.878C413.902 313.075 413.968 313.271 414.033 313.467C414.039 313.489 414.05 313.511 414.055 313.533C414.055 313.533 414.055 313.543 414.06 313.549C414.137 313.767 414.219 313.985 414.295 314.203C414.317 314.263 414.339 314.323 414.366 314.383C414.427 314.547 414.492 314.716 414.558 314.88C414.574 314.918 414.585 314.956 414.601 314.994C414.612 315.021 414.623 315.049 414.634 315.07C414.716 315.272 414.798 315.468 414.88 315.67C414.886 315.687 414.897 315.708 414.902 315.725C414.995 315.943 415.088 316.161 415.186 316.374C415.197 316.395 415.203 316.417 415.214 316.439C415.23 316.477 415.252 316.521 415.268 316.559C415.339 316.723 415.416 316.881 415.492 317.044C415.525 317.11 415.552 317.175 415.585 317.241C415.678 317.437 415.776 317.639 415.875 317.835C415.88 317.851 415.891 317.868 415.897 317.884C415.897 317.884 415.897 317.89 415.897 317.895C416.006 318.113 416.121 318.331 416.235 318.549C416.268 318.609 416.301 318.675 416.334 318.735V318.768Z" fill="#A1D0E6" stroke="black" stroke-width="0.113145" stroke-miterlimit="10"/>
</g>
</g>
<defs>
<clipPath id="clip0_109_8666">
<rect width="568" height="535" fill="white"/>
</clipPath>
</defs>
</svg>
