<svg width="227" height="237" viewBox="0 0 227 237" fill="none" xmlns="http://www.w3.org/2000/svg">
<path d="M138.83 46.2717L264.106 203.208L126.267 269.989L0.991211 113.046L138.83 46.2717Z" fill="#A1D0E6" stroke="black" stroke-width="0.25" stroke-miterlimit="10"/>
<path d="M264.106 203.208L263.974 205.218L126.136 271.999L126.267 269.989L264.106 203.208Z" fill="#0D67AA" stroke="black" stroke-width="0.25" stroke-miterlimit="10"/>
<path d="M126.267 269.99L126.136 272L0.859863 115.063L0.991207 113.046L126.267 269.99Z" fill="#0D67AA" stroke="black" stroke-width="0.25" stroke-miterlimit="10"/>
<path opacity="0.26" d="M40.4733 93.9165L29.25 99.6716L142.028 262.35L40.4733 93.9165Z" fill="black"/>
<path d="M56.1095 124.715C57.6922 126.653 58.4672 128.414 58.4278 129.997C58.3949 131.587 57.4952 132.901 55.7352 133.952L39.1728 143.826C37.4456 144.858 35.725 145.134 34.0175 144.641C32.1918 144.089 30.5304 142.854 28.9477 140.916C27.365 138.984 26.59 137.224 26.6097 135.647C26.636 134.07 27.5291 132.756 29.2892 131.705L45.8516 121.831C47.605 120.786 49.3453 120.51 51.0594 120.997C52.8719 121.548 54.5334 122.777 56.1161 124.715H56.1095ZM54.1919 128.052C54.3167 127.527 54.1 126.922 53.5418 126.239C53.0624 125.654 52.5698 125.287 52.051 125.142C51.9656 125.116 51.8803 125.103 51.7949 125.089C51.1842 124.997 50.4618 125.201 49.6146 125.7L32.2378 136.067C31.4169 136.554 30.9572 137.059 30.8456 137.578C30.7405 138.097 30.9572 138.702 31.5089 139.379C31.9883 139.963 32.4874 140.331 33.0062 140.482C33.0916 140.509 33.1704 140.522 33.2557 140.535C33.8665 140.627 34.5823 140.43 35.3966 139.944L52.78 129.577C53.6009 129.09 54.0671 128.578 54.1854 128.052" fill="#FDFDFD"/>
<path d="M44.4133 110.366C45.996 112.304 46.7643 114.065 46.7315 115.648C46.6921 117.232 45.799 118.546 44.0324 119.603L27.4765 129.478C25.7362 130.516 24.0156 130.785 22.3016 130.292C20.489 129.747 18.8275 128.512 17.2514 126.574C15.6687 124.636 14.8872 122.882 14.9135 121.305C14.9398 119.728 15.8263 118.414 17.5863 117.363L34.1488 107.489C35.9022 106.444 37.6359 106.162 39.3434 106.654C41.1691 107.206 42.8306 108.435 44.4133 110.373V110.366ZM42.4891 113.71C42.6073 113.178 42.3972 112.58 41.8389 111.897C41.3595 111.306 40.8539 110.938 40.3351 110.793C40.2563 110.767 40.1774 110.754 40.0921 110.741C39.4813 110.649 38.7524 110.853 37.9118 111.358L20.5284 121.719C19.7075 122.205 19.2478 122.717 19.1427 123.236C19.0311 123.755 19.2478 124.353 19.806 125.036C20.2854 125.621 20.7845 125.989 21.3034 126.134C21.3822 126.153 21.461 126.173 21.5463 126.186C22.1637 126.278 22.8729 126.081 23.6938 125.588L41.0706 115.228C41.8915 114.742 42.3643 114.236 42.4825 113.704" fill="#FDFDFD"/>
<path d="M67.8188 139.063C69.4015 141.001 70.1764 142.768 70.137 144.345C70.1042 145.928 69.2045 147.242 67.4379 148.293L50.8754 158.167C49.1417 159.205 47.4145 159.475 45.7071 158.982C43.8945 158.437 42.233 157.202 40.6503 155.263C39.0676 153.325 38.2861 151.571 38.3124 149.995C38.3387 148.418 39.2252 147.104 40.9918 146.059L57.5477 136.179C59.3011 135.134 61.0414 134.851 62.7423 135.344C64.5746 135.896 66.2295 137.125 67.8122 139.063H67.8188ZM65.8946 142.407C66.0128 141.881 65.8026 141.277 65.2444 140.593C64.765 140.002 64.2659 139.641 63.7406 139.49C63.6617 139.463 63.5764 139.45 63.4976 139.437C62.8868 139.345 62.1579 139.549 61.3173 140.055L43.9405 150.415C43.1196 150.901 42.6599 151.414 42.5482 151.933C42.4432 152.452 42.6599 153.049 43.2181 153.733C43.6975 154.317 44.1966 154.685 44.722 154.836C44.8008 154.856 44.8796 154.876 44.965 154.889C45.5757 154.981 46.285 154.784 47.1059 154.291L64.4892 143.931C65.3035 143.438 65.7764 142.932 65.8946 142.407Z" fill="#FDFDFD"/>
<path d="M74.1034 147.781L81.0252 156.263L78.4575 157.794L76.6843 155.619L58.0335 166.735L59.4192 168.43L57.4096 169.626C56.7398 168.804 56.0896 168.299 55.4526 168.121C55.3147 168.082 55.1768 168.056 55.0389 168.049C54.2836 167.996 53.4365 168.246 52.5236 168.791L49.8376 165.493L73.3219 151.493L71.5422 149.312L74.11 147.781H74.1034Z" fill="#FDFDFD"/>
<path d="M82.9954 158.686L87.0671 163.679L72.3434 178.586L70.1434 180.767L70.3339 180.938L72.8163 179.092L90.1208 167.411L93.4766 171.53L67.4246 187.067L63.353 182.074L77.676 167.483L79.8432 165.328L79.679 165.131L77.1638 166.997L60.3058 178.343L56.95 174.224L82.9954 158.686Z" fill="#FDFDFD"/>
<path d="M98.081 222.584L98.4028 222.978L97.1616 223.721L98.7443 225.659L99.9855 224.916L100.307 225.31L97.6213 226.913L97.2995 226.519L98.475 225.823L96.8923 223.878L95.7168 224.581L95.395 224.187L98.081 222.584Z" fill="#FDFDFD"/>
<path d="M100.879 226.486C100.879 226.486 100.898 226.486 100.911 226.5C101.089 226.552 101.273 226.651 101.463 226.789C101.653 226.927 101.844 227.117 102.041 227.354C102.245 227.603 102.396 227.84 102.488 228.07C102.586 228.306 102.632 228.523 102.625 228.72C102.625 228.924 102.56 229.108 102.448 229.285C102.33 229.456 102.172 229.607 101.962 229.732C101.745 229.863 101.516 229.949 101.279 229.975C101.049 230.008 100.813 230.001 100.576 229.936C100.557 229.936 100.537 229.922 100.511 229.916C100.301 229.857 100.09 229.752 99.8869 229.614C99.6636 229.463 99.46 229.272 99.2696 229.036C99.1185 228.852 99.0003 228.674 98.915 228.497C98.8296 228.319 98.777 228.149 98.7573 227.998C98.7442 227.84 98.7573 227.695 98.8164 227.57C98.8755 227.446 98.9675 227.341 99.0923 227.262L99.4732 227.603C99.3155 227.682 99.2302 227.794 99.1973 227.932C99.1711 228.07 99.1842 228.221 99.2433 228.385C99.309 228.549 99.4009 228.714 99.5388 228.878C99.6636 229.029 99.8015 229.16 99.9591 229.265C100.11 229.371 100.261 229.443 100.432 229.495C100.445 229.495 100.452 229.495 100.465 229.502C100.642 229.555 100.826 229.561 101.016 229.541C101.207 229.515 101.404 229.436 101.607 229.318C101.864 229.167 102.028 228.996 102.113 228.806C102.192 228.615 102.199 228.411 102.126 228.188C102.054 227.965 101.923 227.735 101.732 227.498C101.548 227.268 101.371 227.104 101.194 227.005C101.108 226.953 101.016 226.914 100.931 226.894C100.846 226.874 100.76 226.854 100.675 226.861C100.504 226.861 100.333 226.9 100.169 226.979L99.9263 226.592C100.064 226.513 100.222 226.467 100.386 226.447C100.537 226.427 100.701 226.447 100.865 226.493L100.879 226.486Z" fill="#FDFDFD"/>
<path d="M103.657 229.415L105.371 231.524L105.594 231.793L102.908 233.396L102.777 233.239L100.971 231.025L101.24 230.86L102.856 232.844L103.769 232.299L102.35 230.565L102.613 230.407L104.031 232.141L105.01 231.563L103.388 229.573L103.657 229.415Z" fill="#FDFDFD"/>
<path d="M108.05 234.803L108.372 235.197L105.686 236.8L104.747 235.651C104.603 235.473 104.484 235.309 104.386 235.151C104.287 234.994 104.215 234.842 104.163 234.704C104.117 234.573 104.09 234.442 104.09 234.323C104.09 234.212 104.117 234.107 104.163 234.021C104.209 233.929 104.281 233.85 104.386 233.791C104.478 233.732 104.576 233.699 104.695 233.693C104.806 233.686 104.924 233.693 105.036 233.732C105.154 233.772 105.272 233.831 105.397 233.916C105.522 234.002 105.653 234.113 105.785 234.245L105.824 234.212C105.752 234.1 105.693 233.982 105.653 233.87C105.62 233.758 105.607 233.64 105.627 233.529C105.647 233.41 105.699 233.292 105.791 233.167L106.225 232.569L106.566 232.99L106.152 233.515C106.067 233.614 106.028 233.726 106.021 233.85C106.021 233.975 106.047 234.107 106.106 234.245C106.172 234.383 106.271 234.534 106.389 234.691L106.993 235.434L108.037 234.81L108.05 234.803ZM105.627 236.248L106.743 235.578L106.152 234.856C105.877 234.514 105.62 234.284 105.391 234.172C105.338 234.146 105.286 234.126 105.233 234.107C105.062 234.061 104.905 234.08 104.76 234.166C104.57 234.277 104.497 234.442 104.543 234.665C104.589 234.888 104.747 235.164 105.029 235.513L105.627 236.248Z" fill="#FDFDFD"/>
<path d="M86.8183 208.774L88.4338 210.758L88.7556 211.152L86.0631 212.748L85.7478 212.361L84.1257 210.377L84.395 210.212L86.0171 212.203L86.9299 211.658L85.5114 209.923L85.7741 209.766L87.186 211.5L88.1646 210.915L86.5425 208.931L86.8183 208.774Z" fill="#FDFDFD"/>
<path d="M89.452 212.006L89.7409 212.36L88.8872 212.669L88.9463 212.741C89.1696 212.682 89.3732 212.656 89.5702 212.682C89.6293 212.689 89.6884 212.702 89.7409 212.722C89.8789 212.761 90.0102 212.82 90.1415 212.912C90.3254 213.037 90.5093 213.208 90.6866 213.425C90.923 213.714 91.0741 213.996 91.1595 214.285C91.2383 214.568 91.2251 214.837 91.1266 215.08C91.0216 215.323 90.818 215.547 90.5027 215.731C90.286 215.862 90.0627 215.941 89.8329 215.98C89.603 216.02 89.3798 216 89.1433 215.941C89.1236 215.941 89.1039 215.928 89.0842 215.921C88.8806 215.862 88.6705 215.763 88.4735 215.619C88.2502 215.461 88.04 215.264 87.8299 215.001C87.6723 214.817 87.5541 214.633 87.4687 214.463C87.3833 214.292 87.3308 214.128 87.3045 213.963C87.2848 213.812 87.298 213.661 87.3439 213.53C87.3899 213.398 87.4753 213.287 87.5869 213.182L87.9809 213.517C87.8299 213.628 87.7511 213.753 87.7314 213.911C87.7183 214.062 87.7445 214.22 87.8168 214.384C87.889 214.548 87.9875 214.699 88.1057 214.85C88.2896 215.074 88.4866 215.251 88.7033 215.376C88.8084 215.435 88.92 215.488 89.0317 215.52C89.1433 215.553 89.2681 215.573 89.3995 215.573C89.649 215.573 89.8986 215.494 90.1678 215.336C90.378 215.212 90.529 215.074 90.6209 214.929C90.7129 214.785 90.7589 214.633 90.7654 214.482C90.7654 214.331 90.7326 214.174 90.6604 214.022C90.5881 213.865 90.4896 213.714 90.378 213.576C90.2138 213.379 90.0496 213.228 89.8789 213.116C89.7738 213.05 89.6687 213.004 89.5571 212.971C89.4848 212.952 89.406 212.939 89.3272 212.925C89.1368 212.906 88.9398 212.945 88.7362 213.024L89.4257 213.865L89.1696 214.016L88.1648 212.781L88.5392 212.557L89.4586 212.012L89.452 212.006Z" fill="#FDFDFD"/>
<path d="M94.1937 217.813L94.5155 218.207L91.8295 219.81L90.8904 218.66C90.7459 218.483 90.6342 218.319 90.5292 218.161C90.4372 218.003 90.365 217.852 90.3059 217.714C90.2599 217.576 90.2336 217.451 90.2336 217.333C90.2336 217.221 90.2599 217.116 90.3059 217.024C90.3584 216.939 90.4307 216.86 90.5292 216.801C90.6211 216.742 90.7262 216.709 90.8313 216.696C90.9429 216.696 91.0611 216.702 91.1727 216.742C91.291 216.781 91.4157 216.84 91.5405 216.919C91.6653 217.005 91.7901 217.116 91.9214 217.248L91.9674 217.221C91.8951 217.103 91.8295 216.985 91.7966 216.873C91.7572 216.762 91.7441 216.65 91.7638 216.532C91.7835 216.413 91.836 216.295 91.928 216.164L92.3614 215.566L92.7029 215.986L92.2892 216.512C92.2104 216.617 92.1644 216.729 92.1644 216.847C92.1578 216.972 92.1907 217.103 92.2498 217.248C92.3154 217.386 92.4074 217.537 92.5322 217.695L93.1298 218.43L94.174 217.8L94.1937 217.813ZM91.7769 219.265L92.8868 218.595L92.2957 217.865C92.0199 217.524 91.7704 217.3 91.5339 217.182C91.4814 217.156 91.4354 217.136 91.3829 217.123C91.2122 217.07 91.048 217.09 90.9035 217.175C90.7196 217.287 90.6474 217.458 90.6868 217.681C90.7328 217.898 90.8904 218.181 91.1793 218.529L91.7769 219.265Z" fill="#FDFDFD"/>
<path d="M97.1945 221.499L97.5491 221.933L93.8452 222.288L93.3789 221.709L95.0601 218.865L95.4016 219.285L95.001 219.936L96.3538 221.591L97.2076 221.493L97.1945 221.499ZM93.8911 221.874L96.0058 221.637L94.8368 220.205L93.8452 221.821L93.8911 221.874Z" fill="#FDFDFD"/>
<path d="M165.25 25.9138L278.862 214.339L144.971 263.934L31.3647 75.5084L165.25 25.9138Z" fill="#FDA813" stroke="black" stroke-width="0.25" stroke-miterlimit="10"/>
<path d="M278.862 214.338L277.857 215.974L143.972 265.569L144.97 263.933L278.862 214.338Z" fill="#FF834E" stroke="black" stroke-width="0.25" stroke-miterlimit="10"/>
<path d="M144.971 263.934L143.972 265.569L30.3601 77.1442L31.3649 75.5083L144.971 263.934Z" fill="#FF834E" stroke="black" stroke-width="0.25" stroke-miterlimit="10"/>
<path d="M218.851 0.206299L281.312 223.346L159.924 255.885L97.4631 32.746L218.851 0.206299Z" fill="#17235D" stroke="black" stroke-width="0.25" stroke-miterlimit="10"/>
<path d="M281.311 223.346L279.289 223.95L157.901 256.49L159.923 255.886L281.311 223.346Z" fill="#7C705F" stroke="black" stroke-width="0.25" stroke-miterlimit="10"/>
<path d="M159.924 255.886L157.901 256.49L95.4407 33.3507L97.4634 32.7463L159.924 255.886Z" fill="#0D67AA" stroke="black" stroke-width="0.25" stroke-miterlimit="10"/>
<path d="M163.871 232.037L164.245 233.39L167.332 232.582L167.47 233.081L164.383 233.89L164.764 235.236L164.409 235.328L164.035 233.981L163.93 233.6L163.516 232.122L163.871 232.037Z" fill="#FAFAFA"/>
<path d="M168.75 237.687L168.888 238.173L165.454 239.073L165.053 237.627C164.994 237.411 164.954 237.214 164.928 237.016C164.908 236.826 164.902 236.655 164.922 236.498C164.935 236.34 164.974 236.208 165.027 236.09C165.079 235.979 165.151 235.88 165.243 235.795C165.335 235.716 165.447 235.657 165.572 235.624C165.657 235.597 165.749 235.591 165.834 235.597C165.867 235.597 165.894 235.597 165.926 235.611C166.038 235.637 166.15 235.676 166.248 235.749C166.347 235.814 166.445 235.913 166.524 236.031C166.609 236.156 166.688 236.3 166.754 236.478L166.806 236.465C166.787 236.327 166.78 236.189 166.8 236.064C166.813 235.939 166.852 235.821 166.931 235.703C167.003 235.584 167.115 235.479 167.259 235.374L167.969 234.881L168.12 235.407L167.463 235.827C167.338 235.913 167.24 236.011 167.181 236.136C167.122 236.268 167.089 236.406 167.082 236.57C167.082 236.741 167.108 236.911 167.161 237.108L167.417 238.041L168.757 237.693L168.75 237.687ZM165.657 238.495L167.082 238.127L166.826 237.214C166.708 236.787 166.563 236.484 166.386 236.3C166.268 236.176 166.13 236.11 165.979 236.103C165.907 236.103 165.834 236.103 165.756 236.13C165.513 236.195 165.362 236.346 165.302 236.583C165.243 236.819 165.276 237.154 165.394 237.582L165.651 238.501" fill="#FAFAFA"/>
<path d="M163.805 219.916L164.494 222.406L164.632 222.899L161.198 223.799L161.145 223.595L160.37 220.816L160.712 220.724L161.408 223.214L162.57 222.905L161.966 220.731L162.301 220.645L162.905 222.82L164.153 222.491L163.463 220.008L163.805 219.916Z" fill="#FAFAFA"/>
<path d="M164.967 224.101L165.099 224.58L162.045 225.336L162.058 225.382L165.539 226.157L165.69 226.689L163.076 229.048L163.083 229.094L166.13 228.266L166.261 228.746L162.826 229.646L162.61 228.857L165.237 226.525L165.223 226.499L161.749 225.75L161.533 224.994L164.967 224.101Z" fill="#FAFAFA"/>
<path d="M166.596 229.941L166.74 230.447L163.299 231.347L163.161 230.841L166.596 229.941Z" fill="#FAFAFA"/>
<path d="M159.089 206.087C159.122 206.087 159.155 206.087 159.194 206.1C159.365 206.127 159.529 206.192 159.68 206.297C159.838 206.409 159.976 206.554 160.101 206.751C160.226 206.948 160.331 207.197 160.416 207.493C160.501 207.808 160.541 208.091 160.534 208.354C160.534 208.616 160.469 208.853 160.37 209.057C160.265 209.26 160.12 209.444 159.923 209.589C159.733 209.733 159.497 209.838 159.227 209.911C158.984 209.976 158.748 210.003 158.518 209.983C158.492 209.983 158.459 209.983 158.433 209.976C158.183 209.944 157.953 209.865 157.75 209.74C157.546 209.609 157.362 209.444 157.211 209.221C157.054 209.004 156.942 208.748 156.857 208.459C156.791 208.222 156.758 208.006 156.758 207.802C156.758 207.598 156.784 207.408 156.837 207.25C156.896 207.079 156.981 206.941 157.093 206.83C157.205 206.718 157.349 206.632 157.513 206.586L157.73 207.04C157.54 207.079 157.402 207.165 157.31 207.303C157.218 207.434 157.159 207.592 157.146 207.782C157.132 207.966 157.152 208.163 157.211 208.367C157.264 208.551 157.343 208.722 157.454 208.879C157.559 209.037 157.691 209.168 157.848 209.273C157.999 209.372 158.183 209.438 158.387 209.464C158.413 209.464 158.439 209.464 158.466 209.471C158.649 209.484 158.86 209.464 159.083 209.405C159.405 209.326 159.654 209.188 159.825 209.017C159.996 208.846 160.094 208.636 160.127 208.387C160.16 208.137 160.127 207.861 160.055 207.565C159.976 207.283 159.871 207.059 159.74 206.908C159.615 206.764 159.464 206.659 159.293 206.613C159.227 206.593 159.155 206.58 159.076 206.573C158.965 206.567 158.853 206.573 158.735 206.6L158.676 206.127C158.814 206.094 158.958 206.087 159.096 206.094L159.089 206.087Z" fill="#FAFAFA"/>
<path d="M161.066 210.068L161.756 212.558L161.894 213.051L158.459 213.951L158.407 213.747L157.632 210.968L157.973 210.876L158.663 213.366L159.832 213.058L159.228 210.883L159.556 210.798L160.167 212.972L161.415 212.65L160.725 210.16L161.066 210.068Z" fill="#FAFAFA"/>
<path d="M162.945 216.828L163.083 217.321L159.648 218.221L159.247 216.769C159.188 216.552 159.149 216.355 159.129 216.158C159.103 215.974 159.103 215.797 159.116 215.646C159.136 215.488 159.169 215.35 159.221 215.232C159.274 215.12 159.346 215.022 159.438 214.943C159.53 214.864 159.641 214.798 159.766 214.772C159.858 214.746 159.95 214.739 160.035 214.746C160.062 214.746 160.095 214.746 160.121 214.759C160.232 214.785 160.344 214.824 160.443 214.897C160.541 214.969 160.64 215.061 160.718 215.179C160.804 215.304 160.883 215.449 160.948 215.626L161.001 215.613C160.981 215.475 160.975 215.337 160.994 215.212C161.007 215.087 161.053 214.969 161.126 214.851C161.198 214.739 161.309 214.627 161.454 214.522L162.163 214.03L162.314 214.562L161.651 214.976C161.526 215.061 161.434 215.16 161.375 215.284C161.316 215.416 161.283 215.554 161.277 215.725C161.277 215.889 161.296 216.066 161.349 216.263L161.612 217.19L162.945 216.841V216.828ZM159.845 217.636L161.27 217.262L161.014 216.349C160.896 215.922 160.751 215.619 160.574 215.435C160.456 215.311 160.318 215.245 160.167 215.238C160.095 215.238 160.022 215.238 159.944 215.265C159.701 215.33 159.549 215.481 159.49 215.718C159.431 215.954 159.464 216.29 159.582 216.723L159.838 217.643" fill="#FAFAFA"/>
<path d="M158.676 201.495L158.814 201.987L157.224 202.401L157.907 204.839L159.49 204.425L159.628 204.917L156.193 205.817L156.056 205.318L157.559 204.924L156.883 202.487L155.379 202.881L155.241 202.388L158.676 201.495Z" fill="#FAFAFA"/>
<path d="M158.301 200.134L158.453 200.673L154.584 200.009L154.387 199.293L157.389 196.836L157.54 197.362L156.837 197.92L157.415 200.003L158.315 200.141L158.301 200.134ZM154.821 199.589L157.041 199.937L156.541 198.137L154.795 199.523L154.821 199.595" fill="#FAFAFA"/>
<path d="M154.985 188.211L155.11 188.658L154.105 188.743L154.138 188.835C154.21 188.835 154.276 188.835 154.342 188.835C154.506 188.848 154.65 188.881 154.788 188.94C154.979 189.026 155.13 189.157 155.261 189.334C155.386 189.518 155.491 189.742 155.563 190.011C155.662 190.379 155.688 190.714 155.636 191.029C155.583 191.345 155.445 191.614 155.228 191.837C155.012 192.061 154.703 192.225 154.302 192.33C154.046 192.396 153.797 192.422 153.567 192.409C153.554 192.409 153.534 192.409 153.521 192.409C153.278 192.383 153.055 192.304 152.851 192.179C152.647 192.054 152.477 191.883 152.326 191.66C152.175 191.437 152.056 191.167 151.964 190.852C151.899 190.615 151.866 190.392 151.859 190.195C151.853 189.991 151.873 189.807 151.925 189.637C151.978 189.466 152.056 189.321 152.161 189.196C152.273 189.072 152.411 188.98 152.569 188.907L152.805 189.354C152.608 189.426 152.464 189.538 152.378 189.689C152.293 189.84 152.247 190.011 152.247 190.202C152.247 190.386 152.267 190.569 152.319 190.767C152.398 191.042 152.516 191.279 152.674 191.469C152.831 191.66 153.035 191.791 153.278 191.857C153.357 191.883 153.436 191.897 153.527 191.903C153.718 191.916 153.928 191.89 154.164 191.831C154.434 191.765 154.644 191.667 154.808 191.542C154.966 191.417 155.084 191.279 155.156 191.121C155.228 190.964 155.268 190.799 155.268 190.615C155.268 190.438 155.241 190.254 155.196 190.077C155.13 189.827 155.031 189.623 154.907 189.466C154.782 189.308 154.631 189.19 154.447 189.124C154.348 189.085 154.237 189.058 154.112 189.052C154.013 189.045 153.915 189.052 153.81 189.058L154.105 190.116L153.777 190.202L153.344 188.645L153.823 188.52L154.998 188.211H154.985Z" fill="#FAFAFA"/>
<path d="M157.014 195.509L157.152 196.002L153.718 196.902L153.317 195.457C153.258 195.24 153.219 195.036 153.192 194.846C153.173 194.655 153.166 194.478 153.186 194.327C153.199 194.169 153.238 194.038 153.291 193.92C153.343 193.801 153.416 193.703 153.508 193.624C153.599 193.545 153.711 193.486 153.836 193.453C153.928 193.427 154.02 193.42 154.105 193.427C154.131 193.427 154.164 193.427 154.191 193.44C154.302 193.466 154.414 193.512 154.512 193.578C154.611 193.65 154.709 193.742 154.788 193.867C154.873 193.992 154.952 194.136 155.018 194.314L155.071 194.294C155.051 194.156 155.044 194.018 155.064 193.893C155.084 193.768 155.116 193.65 155.195 193.532C155.268 193.42 155.379 193.309 155.524 193.203L156.233 192.711L156.384 193.243L155.721 193.663C155.596 193.742 155.504 193.847 155.438 193.972C155.379 194.097 155.346 194.241 155.34 194.406C155.34 194.57 155.366 194.747 155.419 194.944L155.675 195.871L157.014 195.523V195.509ZM153.915 196.324L155.34 195.95L155.084 195.036C154.965 194.609 154.821 194.307 154.644 194.13C154.525 194.005 154.388 193.933 154.236 193.926C154.164 193.926 154.092 193.926 154.02 193.952C153.777 194.018 153.626 194.169 153.567 194.406C153.508 194.642 153.54 194.984 153.659 195.411L153.915 196.331" fill="#FAFAFA"/>
<path d="M153.856 184.164L154.631 186.943L154.683 187.14L151.249 188.04L151.111 187.547L150.421 185.057L150.763 184.965L151.452 187.462L152.621 187.153L152.017 184.972L152.345 184.886L152.956 187.067L154.204 186.745L153.514 184.256L153.856 184.164Z" fill="#FAFAFA"/>
<path opacity="0.26" d="M100.117 50.0442L89.0837 54.1305L157.901 256.49L100.117 50.0442Z" fill="black"/>
<path d="M157.902 88.635L160.863 99.2779L157.58 100.132L156.818 97.399L132.999 103.614L133.59 105.749L131.022 106.419C130.674 105.164 130.129 104.402 129.393 104.139C129.131 104.048 128.842 103.988 128.52 103.962C127.942 103.923 127.279 104.002 126.53 104.199L125.374 100.066L155.386 92.2352L154.625 89.4956L157.908 88.6416L157.902 88.635Z" fill="#FAFAFA"/>
<path d="M161.71 102.326L163.457 108.587L141.786 119.795L138.561 121.418L138.679 121.648L142.015 120.452L164.758 113.271L166.196 118.442L132.907 127.133L131.16 120.866L152.28 109.868L155.458 108.265L155.393 108.022L152.004 109.231L129.866 116.188L128.421 111.018L161.71 102.326Z" fill="#FAFAFA"/>
<path d="M155.688 77.9269C156.365 80.3577 156.319 82.3877 155.544 84.0039C154.769 85.62 153.258 86.7172 151.006 87.3084L129.84 92.8335C128.835 93.0963 127.902 93.2014 127.049 93.1357C125.991 93.0635 125.052 92.7416 124.231 92.1766C122.734 91.1517 121.65 89.4239 120.974 86.9865C120.298 84.5557 120.337 82.5323 121.092 80.9161C121.854 79.3065 123.358 78.2028 125.61 77.6181L146.77 72.093C147.801 71.8237 148.747 71.7186 149.62 71.7777C150.677 71.8499 151.617 72.1719 152.437 72.7369C153.928 73.7617 155.012 75.4896 155.695 77.9203L155.688 77.9269ZM152.208 80.8241C152.575 80.3117 152.641 79.635 152.405 78.781C152.168 77.9335 151.768 77.3751 151.196 77.1057C150.979 77.0006 150.717 76.9415 150.421 76.9218C149.955 76.8889 149.39 76.9612 148.727 77.132L126.523 82.933C125.479 83.2089 124.776 83.5966 124.422 84.1024C124.074 84.6017 124.008 85.285 124.251 86.1325C124.487 86.9865 124.888 87.5384 125.459 87.8143C125.683 87.9194 125.939 87.9785 126.234 87.9982C126.694 88.0311 127.239 87.9654 127.876 87.7946L150.086 81.9936C151.131 81.7176 151.833 81.33 152.208 80.8176" fill="#FAFAFA"/>
<path d="M145.66 41.9111C146.337 44.3419 146.291 46.3653 145.516 47.9815C144.747 49.6042 143.23 50.7013 140.978 51.2926L119.818 56.8177C118.807 57.0805 117.874 57.179 117.021 57.1199C115.963 57.0476 115.024 56.7257 114.203 56.1607C112.713 55.1358 111.622 53.408 110.946 50.9707C110.27 48.5399 110.309 46.5164 111.071 44.9068C111.826 43.2973 113.33 42.1936 115.582 41.6089L136.742 36.0838C137.773 35.8144 138.725 35.7093 139.592 35.7684C140.649 35.8407 141.582 36.156 142.403 36.721C143.9 37.7525 144.984 39.4737 145.66 41.9111ZM142.186 44.8083C142.554 44.2959 142.613 43.6192 142.377 42.7651C142.14 41.9111 141.74 41.3592 141.168 41.0833C140.951 40.9847 140.695 40.919 140.406 40.8993C139.94 40.8665 139.369 40.9388 138.705 41.1096L116.495 46.904C115.451 47.18 114.748 47.5676 114.394 48.0669C114.046 48.5727 113.987 49.2494 114.223 50.1035C114.459 50.951 114.86 51.5094 115.431 51.7787C115.655 51.8839 115.917 51.9496 116.213 51.9693C116.673 52.0021 117.211 51.9298 117.848 51.7656L140.058 45.9646C141.103 45.6886 141.812 45.301 142.18 44.7886" fill="#FAFAFA"/>
<path d="M150.671 59.9184C151.348 62.3492 151.302 64.3726 150.527 65.9953C149.752 67.6115 148.241 68.7086 145.989 69.2999L124.823 74.825C123.818 75.0878 122.885 75.1929 122.032 75.1272C120.974 75.055 120.035 74.733 119.214 74.168C117.724 73.1366 116.633 71.4153 115.957 68.978C115.281 66.5472 115.32 64.5237 116.082 62.9142C116.837 61.3046 118.341 60.2009 120.593 59.6162L141.753 54.0911C142.784 53.8217 143.736 53.7166 144.603 53.7757C145.66 53.848 146.593 54.1699 147.414 54.7283C148.905 55.7598 149.995 57.481 150.671 59.9184ZM147.191 62.8156C147.558 62.3032 147.624 61.6265 147.388 60.7724C147.151 59.9184 146.751 59.3665 146.179 59.0972C145.962 58.9921 145.7 58.9329 145.404 58.9067C144.938 58.8738 144.373 58.9461 143.71 59.1169L121.506 64.9179C120.462 65.1938 119.759 65.5815 119.405 66.0808C119.057 66.5866 118.998 67.2633 119.234 68.1174C119.47 68.9714 119.871 69.5233 120.442 69.7926C120.666 69.8977 120.928 69.9634 121.224 69.9832C121.684 70.016 122.222 69.9437 122.859 69.7795L145.069 63.9785C146.113 63.7025 146.816 63.3149 147.184 62.8025" fill="#FAFAFA"/>
<path d="M103.663 114.834L109.166 124.34L106.27 125.635L104.858 123.191L83.8296 132.566L84.9329 134.464L82.6672 135.476C82.0631 134.445 81.4195 133.827 80.7234 133.63C80.6643 133.61 80.6052 133.597 80.5395 133.59C79.7711 133.459 78.878 133.617 77.8404 134.077L75.6995 130.384L102.178 118.572L100.766 116.128L103.663 114.834Z" fill="white"/>
<path d="M80.244 72.9985C81.5049 75.1665 81.9646 77.0717 81.6428 78.6944C81.321 80.3171 80.1586 81.5785 78.1753 82.4588L59.5048 90.7958C57.8171 91.5447 56.2475 91.7155 54.7896 91.3016C54.5269 91.2294 54.2642 91.1374 54.0081 91.0191C52.3335 90.2833 50.869 88.8314 49.6146 86.6569C48.3537 84.4889 47.8809 82.5902 48.1961 80.9675C48.5114 79.3514 49.6606 78.0966 51.6439 77.2031L70.3144 68.8727C72.0219 68.1106 73.6111 67.9398 75.0822 68.3537C75.3449 68.426 75.601 68.518 75.8506 68.6297C77.5186 69.3655 78.9897 70.8174 80.244 72.9919V72.9985ZM77.6828 76.2242C77.8995 75.6921 77.7944 75.0482 77.3544 74.2862C76.921 73.5372 76.4088 73.0773 75.8111 72.9131C75.1807 72.7423 74.4058 72.8737 73.4535 73.2941L53.857 82.0318C52.9311 82.4391 52.3663 82.9121 52.1627 83.4377C51.9526 83.9633 52.0708 84.6006 52.5108 85.3692C52.9442 86.1182 53.4564 86.578 54.0475 86.7423C54.6845 86.9197 55.4463 86.7883 56.3723 86.381L75.9688 77.6433C76.8947 77.2294 77.4661 76.7564 77.6828 76.2242Z" fill="white"/>
<path d="M98.8551 105.157C100.116 107.331 100.576 109.23 100.254 110.853C99.9321 112.482 98.7697 113.737 96.7864 114.624L78.1159 122.954C76.4282 123.703 74.8586 123.874 73.4007 123.46C73.138 123.388 72.8753 123.289 72.6258 123.177C70.9511 122.448 69.4867 120.99 68.2323 118.822C66.9714 116.647 66.4986 114.749 66.8138 113.126C67.129 111.51 68.2783 110.255 70.2616 109.368L88.9321 101.038C90.6461 100.276 92.2354 100.098 93.6999 100.512C93.9626 100.584 94.2187 100.676 94.4682 100.788C96.1429 101.524 97.6073 102.976 98.8617 105.15L98.8551 105.157ZM96.2939 108.382C96.5172 107.857 96.4055 107.207 95.9655 106.451C95.5321 105.702 95.0199 105.242 94.4223 105.071C93.7918 104.901 93.0169 105.032 92.0646 105.452L72.4682 114.19C71.5422 114.604 70.984 115.07 70.7738 115.596C70.5637 116.122 70.6819 116.765 71.1219 117.527C71.5619 118.283 72.0741 118.743 72.6783 118.914C73.2956 119.078 74.0574 118.953 74.9834 118.539L94.5799 109.802C95.5058 109.394 96.0772 108.915 96.3005 108.382" fill="white"/>
<path d="M110.742 127.061L113.98 132.651L96.255 146.362L93.615 148.366L93.7792 148.563L96.649 146.947L116.403 136.836L119.069 141.455L89.7009 154.561L86.4633 148.964L103.709 135.522L106.309 133.538L106.185 133.328L103.275 134.964L84.04 144.779L81.3672 140.16L110.742 127.061Z" fill="white"/>
<path d="M89.5499 89.0751C90.8108 91.2497 91.2705 93.1483 90.9487 94.7776C90.6269 96.4003 89.4645 97.6617 87.4812 98.542L68.8107 106.872C67.123 107.628 65.5468 107.792 64.0889 107.378C63.8262 107.306 63.5701 107.214 63.3206 107.102C61.6459 106.367 60.1814 104.908 58.9271 102.74C57.6662 100.565 57.1934 98.6734 57.502 97.0441C57.8172 95.428 58.9665 94.1732 60.9498 93.2863L79.6203 84.9559C81.3343 84.1873 82.9236 84.0164 84.3881 84.4303C84.6442 84.5026 84.9003 84.5946 85.1499 84.7063C86.8245 85.4421 88.289 86.9005 89.5499 89.0685V89.0751ZM86.9887 92.3074C87.2054 91.7752 87.0938 91.1248 86.6603 90.3693C86.2203 89.6138 85.7081 89.1539 85.1039 88.9831C84.4866 88.8189 83.7117 88.9503 82.7594 89.3707L63.1629 98.115C62.237 98.5223 61.6722 98.9953 61.4686 99.5143C61.2585 100.04 61.3767 100.684 61.8167 101.446C62.2567 102.201 62.7689 102.661 63.3665 102.825C63.9904 102.99 64.7522 102.871 65.6782 102.458L85.2747 93.7133C86.2006 93.306 86.772 92.833 86.9953 92.3008" fill="white"/>
<path d="M141.378 235.388L141.64 235.834L138.606 237.188L138.344 236.741L141.378 235.388Z" fill="white"/>
<path d="M136.196 226.433L137.634 228.916L137.733 229.094L134.705 230.447L134.449 230.007L133.162 227.78L133.471 227.649L134.751 229.869L135.782 229.416L134.659 227.471L134.955 227.34L136.078 229.284L137.181 228.792L135.894 226.565L136.196 226.433Z" fill="white"/>
<path d="M138.357 230.166L138.607 230.593L135.901 231.755L135.921 231.795L139.421 232.005L139.697 232.478L137.812 235.073L137.832 235.113L140.511 233.884L140.761 234.318L137.727 235.664L137.319 234.968L139.224 232.399L139.198 232.366L135.717 232.196L135.323 231.519L138.357 230.166Z" fill="white"/>
<path d="M117.716 194.498L119.036 196.791L119.259 197.165L116.225 198.518L115.969 198.078L114.682 195.851L114.991 195.72L116.271 197.94L117.302 197.48L116.179 195.542L116.475 195.411L117.598 197.349L118.701 196.863L117.414 194.636L117.716 194.498Z" fill="white"/>
<path d="M119.811 198.124L120.041 198.518L119.115 198.748L119.161 198.827C119.391 198.788 119.608 198.788 119.805 198.84C119.824 198.84 119.838 198.847 119.851 198.853C120.028 198.906 120.192 198.998 120.343 199.129C120.507 199.281 120.665 199.478 120.809 199.721C121 200.043 121.105 200.351 121.131 200.654C121.158 200.956 121.098 201.225 120.954 201.468C120.803 201.711 120.553 201.908 120.205 202.066C119.956 202.178 119.719 202.237 119.483 202.25C119.292 202.257 119.115 202.237 118.938 202.184C118.885 202.171 118.839 202.151 118.787 202.138C118.564 202.053 118.353 201.915 118.156 201.731C117.959 201.547 117.775 201.311 117.618 201.028C117.493 200.818 117.408 200.621 117.349 200.43C117.289 200.24 117.263 200.062 117.27 199.898C117.276 199.734 117.316 199.589 117.381 199.451C117.447 199.313 117.559 199.208 117.697 199.116L118.032 199.497C117.861 199.596 117.756 199.721 117.71 199.878C117.664 200.029 117.664 200.194 117.71 200.371C117.749 200.548 117.821 200.713 117.92 200.89C118.064 201.14 118.235 201.343 118.432 201.495C118.57 201.6 118.721 201.678 118.879 201.724C118.951 201.744 119.023 201.757 119.102 201.764C119.352 201.79 119.627 201.744 119.929 201.606C120.166 201.501 120.343 201.383 120.461 201.238C120.58 201.1 120.658 200.949 120.685 200.792C120.718 200.634 120.711 200.476 120.665 200.312C120.619 200.141 120.547 199.977 120.455 199.819C120.324 199.596 120.186 199.425 120.021 199.294C119.89 199.182 119.746 199.11 119.588 199.064C119.555 199.057 119.529 199.051 119.496 199.044C119.306 199.005 119.095 199.018 118.879 199.077L119.424 200.023L119.128 200.154L118.327 198.768L118.754 198.584L119.792 198.118L119.811 198.124Z" fill="white"/>
<path d="M123.581 204.642L123.837 205.082L120.803 206.435L120.054 205.141C119.943 204.944 119.851 204.767 119.778 204.589C119.706 204.412 119.66 204.254 119.64 204.103C119.614 203.959 119.614 203.821 119.634 203.709C119.66 203.591 119.7 203.485 119.765 203.4C119.831 203.315 119.923 203.242 120.035 203.196C120.146 203.15 120.251 203.124 120.363 203.131C120.435 203.131 120.507 203.144 120.586 203.164C120.626 203.177 120.665 203.19 120.711 203.21C120.823 203.262 120.941 203.334 121.052 203.439C121.164 203.538 121.276 203.669 121.381 203.821L121.433 203.801C121.381 203.669 121.341 203.545 121.322 203.426C121.302 203.308 121.309 203.19 121.355 203.072C121.394 202.953 121.466 202.835 121.584 202.71L122.136 202.145L122.412 202.612L121.893 203.104C121.795 203.203 121.735 203.308 121.703 203.433C121.67 203.558 121.683 203.696 121.716 203.853C121.755 204.004 121.821 204.169 121.926 204.34L122.405 205.167L123.587 204.642H123.581ZM120.849 205.857L122.11 205.299L121.643 204.484C121.42 204.103 121.203 203.84 120.993 203.696C120.921 203.643 120.842 203.61 120.77 203.591C120.632 203.551 120.494 203.564 120.35 203.623C120.133 203.715 120.035 203.88 120.041 204.116C120.041 204.346 120.159 204.655 120.383 205.042L120.855 205.857" fill="white"/>
<path d="M125.971 208.767L126.253 209.246L122.411 209.207L122.037 208.563L124.27 205.817L124.539 206.283L124.014 206.914L125.091 208.773H125.977L125.971 208.767ZM122.536 208.78H124.73L123.797 207.164L122.497 208.721L122.536 208.78Z" fill="white"/>
<path d="M126.674 209.982L126.923 210.422L125.524 211.046L126.785 213.214L128.184 212.59L128.447 213.037L125.406 214.384L125.157 213.943L126.477 213.352L125.222 211.178L123.896 211.775L123.64 211.329L126.674 209.982Z" fill="white"/>
<path d="M128.664 214.253C128.723 214.272 128.782 214.292 128.841 214.318C129.012 214.391 129.183 214.515 129.353 214.68C129.517 214.837 129.682 215.054 129.833 215.323C129.997 215.599 130.102 215.862 130.168 216.112C130.22 216.361 130.227 216.585 130.187 216.802C130.141 217.012 130.049 217.196 129.898 217.36C129.754 217.518 129.557 217.656 129.32 217.761C129.071 217.872 128.828 217.932 128.585 217.945C128.394 217.945 128.211 217.925 128.027 217.879C127.974 217.866 127.928 217.846 127.876 217.826C127.646 217.735 127.436 217.603 127.232 217.426C127.035 217.242 126.858 217.025 126.707 216.762C126.588 216.559 126.497 216.361 126.444 216.171C126.391 215.98 126.365 215.803 126.378 215.632C126.391 215.475 126.437 215.323 126.51 215.205C126.589 215.087 126.7 214.988 126.845 214.916L127.173 215.31C127.002 215.376 126.891 215.475 126.838 215.619C126.786 215.757 126.772 215.915 126.805 216.092C126.838 216.263 126.91 216.447 127.015 216.631C127.114 216.802 127.232 216.946 127.37 217.078C127.514 217.209 127.672 217.314 127.836 217.38C127.882 217.399 127.922 217.413 127.968 217.426C128.099 217.465 128.243 217.478 128.394 217.478C128.598 217.478 128.815 217.419 129.038 217.321C129.327 217.189 129.531 217.038 129.649 216.848C129.767 216.657 129.806 216.447 129.774 216.21C129.741 215.974 129.655 215.718 129.498 215.455C129.353 215.199 129.202 215.015 129.038 214.89C128.92 214.804 128.802 214.739 128.677 214.706C128.631 214.693 128.585 214.686 128.539 214.68C128.362 214.653 128.184 214.68 128 214.745L127.823 214.318C127.981 214.253 128.145 214.22 128.309 214.22C128.421 214.22 128.532 214.233 128.651 214.266L128.664 214.253Z" fill="white"/>
<path d="M131.107 217.636L132.545 220.119L132.65 220.297L129.616 221.65L129.36 221.216L128.073 218.989L128.375 218.858L129.669 221.079L130.693 220.619L129.57 218.674L129.859 218.543L130.989 220.487L132.092 219.995L130.805 217.774L131.107 217.636Z" fill="white"/>
<path d="M134.601 223.674L134.857 224.114L131.823 225.468L131.074 224.18C130.962 223.983 130.87 223.799 130.798 223.628C130.733 223.457 130.687 223.293 130.66 223.142C130.634 222.998 130.634 222.86 130.66 222.748C130.68 222.63 130.719 222.531 130.792 222.439C130.857 222.347 130.949 222.281 131.061 222.229C131.166 222.183 131.278 222.157 131.389 222.163C131.455 222.163 131.527 222.176 131.593 222.196C131.639 222.209 131.685 222.222 131.724 222.249C131.836 222.295 131.954 222.373 132.066 222.472C132.184 222.577 132.289 222.702 132.401 222.853L132.447 222.833C132.394 222.702 132.355 222.584 132.335 222.459C132.315 222.341 132.335 222.229 132.368 222.111C132.407 221.986 132.486 221.874 132.604 221.749L133.149 221.184L133.425 221.657L132.906 222.143C132.808 222.235 132.742 222.347 132.716 222.472C132.69 222.603 132.696 222.735 132.736 222.892C132.768 223.044 132.841 223.208 132.939 223.379L133.419 224.206L134.601 223.681V223.674ZM131.869 224.89L133.13 224.331L132.657 223.517C132.433 223.136 132.217 222.873 132.007 222.735C131.928 222.682 131.856 222.643 131.777 222.623C131.639 222.584 131.501 222.597 131.37 222.656C131.159 222.754 131.048 222.919 131.054 223.149C131.054 223.379 131.173 223.687 131.396 224.075L131.869 224.896" fill="white"/>
</svg>
