<svg width="41" height="41" viewBox="0 0 41 41" fill="none" xmlns="http://www.w3.org/2000/svg">
<g clip-path="url(#clip0_109_8783)">
<path d="M20.3171 37.0932C18.3473 37.0932 16.3967 36.7052 14.5768 35.9514C12.757 35.1976 11.1034 34.0927 9.71049 32.6998C8.31761 31.3069 7.21272 29.6534 6.4589 27.8335C5.70508 26.0136 5.31709 24.063 5.31709 22.0932C5.31709 20.1234 5.70508 18.1728 6.4589 16.353C7.21272 14.5331 8.31761 12.8795 9.71049 11.4866C11.1034 10.0937 12.757 8.98884 14.5768 8.23502C16.3967 7.4812 18.3473 7.09322 20.3171 7.09322C24.2953 7.09322 28.1106 8.67357 30.9237 11.4866C33.7367 14.2997 35.3171 18.115 35.3171 22.0932C35.3171 26.0715 33.7367 29.8868 30.9237 32.6998C28.1106 35.5129 24.2953 37.0932 20.3171 37.0932ZM21.9838 22.0932V13.7599H18.6504V25.4265H26.9838V22.0932H21.9838ZM3.22876 10.8965L9.12043 5.00488L11.4788 7.36155L5.58376 13.2549L3.22876 10.8965ZM31.5121 5.00488L37.4054 10.8965L35.0488 13.2549L29.1554 7.36155L31.5138 5.00488H31.5121Z" fill="#17235D"/>
</g>
<defs>
<clipPath id="clip0_109_8783">
<rect width="40" height="40" fill="white" transform="translate(0.316895 0.426758)"/>
</clipPath>
</defs>
</svg>
