<svg width="520" height="119" viewBox="0 0 520 119" fill="none" xmlns="http://www.w3.org/2000/svg">
<path d="M519.21 0.223011L518.197 88.7868L160.594 89.4112L130.542 118.792L126.122 118.645L125.829 89.0164L0.512695 88.619L1.52133 0.046875L519.21 0.223011Z" fill="#17235D"/>
<path d="M83.336 54.1441C82.1093 54.1441 80.9227 53.9974 79.776 53.7041C78.6293 53.4107 77.5893 52.9574 76.656 52.3441C75.7227 51.7307 74.976 50.9441 74.416 49.9841C73.856 48.9974 73.5627 47.8241 73.536 46.4641H76.896C76.896 46.5441 76.9227 46.7574 76.976 47.1041C77.0293 47.4507 77.1627 47.8507 77.376 48.3041C77.616 48.7574 77.9627 49.1974 78.416 49.6241C78.896 50.0507 79.5493 50.4107 80.376 50.7041C81.2293 50.9707 82.296 51.1041 83.576 51.1041C84.5627 51.1041 85.3893 50.9974 86.056 50.7841C86.7227 50.5707 87.256 50.2907 87.656 49.9441C88.056 49.5974 88.336 49.2374 88.496 48.8641C88.6827 48.4907 88.776 48.1574 88.776 47.8641C88.776 47.0374 88.5093 46.3707 87.976 45.8641C87.4693 45.3574 86.776 44.9574 85.896 44.6641C85.016 44.3441 84.0427 44.0641 82.976 43.8241C81.936 43.5574 80.896 43.2774 79.856 42.9841C78.816 42.6641 77.856 42.2507 76.976 41.7441C76.1227 41.2374 75.456 40.5841 74.976 39.7841C74.496 38.9574 74.2827 37.9041 74.336 36.6241C74.416 35.3974 74.8427 34.3441 75.616 33.4641C76.3893 32.5841 77.4427 31.9174 78.776 31.4641C80.136 30.9841 81.6827 30.7441 83.416 30.7441C84.9893 30.7441 86.4293 31.0241 87.736 31.5841C89.0693 32.1441 90.136 32.9841 90.936 34.1041C91.7627 35.1974 92.1627 36.5974 92.136 38.3041H88.896C88.9227 37.3707 88.736 36.6241 88.336 36.0641C87.936 35.4774 87.416 35.0241 86.776 34.7041C86.1627 34.3841 85.5227 34.1707 84.856 34.0641C84.1893 33.9307 83.5893 33.8641 83.056 33.8641C81.5627 33.8641 80.3227 34.1441 79.336 34.7041C78.376 35.2374 77.8827 35.9974 77.856 36.9841C77.8293 37.8374 78.0827 38.5174 78.616 39.0241C79.1493 39.5307 79.856 39.9307 80.736 40.2241C81.616 40.5174 82.5893 40.7841 83.656 41.0241C84.7227 41.2641 85.776 41.5307 86.816 41.8241C87.856 42.1174 88.8027 42.5174 89.656 43.0241C90.536 43.5041 91.216 44.1574 91.696 44.9841C92.2027 45.8107 92.4294 46.8774 92.376 48.1841C92.3227 49.4374 91.896 50.5041 91.096 51.3841C90.296 52.2641 89.2293 52.9441 87.896 53.4241C86.5627 53.9041 85.0427 54.1441 83.336 54.1441ZM101.458 54.0641C99.6176 54.0641 98.1109 53.6641 96.9376 52.8641C95.7642 52.0374 94.8976 50.9841 94.3376 49.7041C93.7776 48.3974 93.4976 47.0507 93.4976 45.6641C93.4709 44.0907 93.7642 42.6641 94.3776 41.3841C95.0176 40.1041 95.9242 39.0907 97.0976 38.3441C98.2976 37.5974 99.7242 37.2241 101.378 37.2241C102.818 37.2241 104.098 37.5441 105.218 38.1841C106.338 38.7974 107.231 39.6774 107.898 40.8241C108.564 41.9441 108.924 43.2774 108.978 44.8241C109.004 44.9041 109.018 45.0641 109.018 45.3041C109.018 45.5174 109.018 45.7041 109.018 45.8641H96.6576C96.6576 47.5707 97.0709 48.9041 97.8976 49.8641C98.7509 50.7974 99.9242 51.2641 101.418 51.2641C102.538 51.2641 103.484 50.9841 104.258 50.4241C105.058 49.8374 105.551 49.0641 105.738 48.1041H108.978C108.818 49.2241 108.418 50.2374 107.778 51.1441C107.138 52.0507 106.284 52.7707 105.218 53.3041C104.151 53.8107 102.898 54.0641 101.458 54.0641ZM96.7776 44.2241H105.658C105.631 43.9307 105.551 43.5441 105.418 43.0641C105.311 42.5841 105.098 42.1174 104.778 41.6641C104.458 41.1841 104.018 40.7841 103.458 40.4641C102.898 40.1441 102.178 39.9841 101.298 39.9841C100.498 39.9841 99.8176 40.1174 99.2576 40.3841C98.6976 40.6507 98.2442 41.0107 97.8976 41.4641C97.5509 41.8907 97.2842 42.3574 97.0976 42.8641C96.9376 43.3441 96.8309 43.7974 96.7776 44.2241ZM118.299 54.0641C116.779 54.0641 115.405 53.7441 114.179 53.1041C112.952 52.4641 111.979 51.5307 111.259 50.3041C110.539 49.0774 110.179 47.5841 110.179 45.8241C110.232 44.0641 110.605 42.5441 111.299 41.2641C112.019 39.9841 112.992 38.9974 114.219 38.3041C115.445 37.6107 116.832 37.2641 118.379 37.2641C119.925 37.2641 121.245 37.5574 122.339 38.1441C123.459 38.7307 124.339 39.4907 124.979 40.4241C125.619 41.3574 126.005 42.3707 126.139 43.4641H123.059C122.845 42.4241 122.339 41.6107 121.539 41.0241C120.739 40.4374 119.725 40.1441 118.499 40.1441C117.432 40.1441 116.525 40.3841 115.779 40.8641C115.032 41.3174 114.459 41.9574 114.059 42.7841C113.659 43.5841 113.445 44.5174 113.419 45.5841C113.419 47.2641 113.859 48.6107 114.739 49.6241C115.619 50.6374 116.859 51.1441 118.459 51.1441C119.605 51.1441 120.605 50.8507 121.459 50.2641C122.312 49.6774 122.845 48.8241 123.059 47.7041H126.139C126.005 48.8241 125.605 49.8641 124.939 50.8241C124.299 51.7841 123.419 52.5707 122.299 53.1841C121.179 53.7707 119.845 54.0641 118.299 54.0641ZM133.336 54.0641C132.243 54.0641 131.323 53.8907 130.576 53.5441C129.856 53.1974 129.27 52.7307 128.816 52.1441C128.39 51.5574 128.07 50.9041 127.856 50.1841C127.643 49.4641 127.496 48.7174 127.416 47.9441C127.336 47.1707 127.296 46.4241 127.296 45.7041V37.3041H130.576V45.7041C130.576 46.6641 130.67 47.5574 130.856 48.3841C131.043 49.1841 131.43 49.8374 132.016 50.3441C132.603 50.8507 133.47 51.1041 134.616 51.1041C135.736 51.1041 136.603 50.8507 137.216 50.3441C137.83 49.8107 138.256 49.1441 138.496 48.3441C138.763 47.5441 138.91 46.7174 138.936 45.8641V37.3041H142.376V53.6641H139.536L138.976 50.2641H138.896C138.816 50.5307 138.656 50.8774 138.416 51.3041C138.176 51.7041 137.843 52.1174 137.416 52.5441C136.99 52.9707 136.43 53.3307 135.736 53.6241C135.07 53.9174 134.27 54.0641 133.336 54.0641ZM144.261 53.6641V37.3041H147.341L147.621 42.0241L147.581 45.5441V53.6641H144.261ZM147.581 46.3041L147.461 42.7041C147.488 42.1174 147.621 41.5174 147.861 40.9041C148.101 40.2641 148.461 39.6774 148.941 39.1441C149.448 38.5841 150.088 38.1441 150.861 37.8241C151.661 37.4774 152.621 37.3041 153.741 37.3041H154.421V40.9841H153.701C152.501 40.9841 151.501 41.1041 150.701 41.3441C149.901 41.5574 149.275 41.8907 148.821 42.3441C148.368 42.7974 148.048 43.3574 147.861 44.0241C147.675 44.6907 147.581 45.4507 147.581 46.3041ZM162.519 54.0641C160.679 54.0641 159.172 53.6641 157.999 52.8641C156.825 52.0374 155.959 50.9841 155.399 49.7041C154.839 48.3974 154.559 47.0507 154.559 45.6641C154.532 44.0907 154.825 42.6641 155.439 41.3841C156.079 40.1041 156.985 39.0907 158.159 38.3441C159.359 37.5974 160.785 37.2241 162.439 37.2241C163.879 37.2241 165.159 37.5441 166.279 38.1841C167.399 38.7974 168.292 39.6774 168.959 40.8241C169.625 41.9441 169.985 43.2774 170.039 44.8241C170.065 44.9041 170.079 45.0641 170.079 45.3041C170.079 45.5174 170.079 45.7041 170.079 45.8641H157.719C157.719 47.5707 158.132 48.9041 158.959 49.8641C159.812 50.7974 160.985 51.2641 162.479 51.2641C163.599 51.2641 164.545 50.9841 165.319 50.4241C166.119 49.8374 166.612 49.0641 166.799 48.1041H170.039C169.879 49.2241 169.479 50.2374 168.839 51.1441C168.199 52.0507 167.345 52.7707 166.279 53.3041C165.212 53.8107 163.959 54.0641 162.519 54.0641ZM157.839 44.2241H166.719C166.692 43.9307 166.612 43.5441 166.479 43.0641C166.372 42.5841 166.159 42.1174 165.839 41.6641C165.519 41.1841 165.079 40.7841 164.519 40.4641C163.959 40.1441 163.239 39.9841 162.359 39.9841C161.559 39.9841 160.879 40.1174 160.319 40.3841C159.759 40.6507 159.305 41.0107 158.959 41.4641C158.612 41.8907 158.345 42.3574 158.159 42.8641C157.999 43.3441 157.892 43.7974 157.839 44.2241ZM184.861 54.0241C183.368 54.0241 182.141 53.6641 181.181 52.9441C180.248 52.2241 179.555 51.2374 179.101 49.9841C178.675 48.7307 178.461 47.2907 178.461 45.6641C178.461 43.9841 178.688 42.5174 179.141 41.2641C179.595 39.9841 180.288 38.9841 181.221 38.2641C182.181 37.5441 183.395 37.1841 184.861 37.1841C185.768 37.1841 186.541 37.3174 187.181 37.5841C187.821 37.8241 188.355 38.1307 188.781 38.5041C189.208 38.8774 189.555 39.2641 189.821 39.6641C190.088 40.0374 190.275 40.3707 190.381 40.6641H190.461V37.3041H193.861V53.6641H191.021L190.461 50.7441H190.381C190.275 51.0374 190.088 51.3707 189.821 51.7441C189.555 52.1174 189.195 52.4774 188.741 52.8241C188.315 53.1707 187.781 53.4507 187.141 53.6641C186.501 53.9041 185.741 54.0241 184.861 54.0241ZM186.181 51.1841C187.248 51.1841 188.088 50.9574 188.701 50.5041C189.315 50.0241 189.755 49.3707 190.021 48.5441C190.288 47.7174 190.421 46.7707 190.421 45.7041C190.421 44.5574 190.275 43.5707 189.981 42.7441C189.715 41.9174 189.275 41.2907 188.661 40.8641C188.048 40.4107 187.221 40.1841 186.181 40.1841C185.088 40.1841 184.208 40.4374 183.541 40.9441C182.901 41.4241 182.435 42.0774 182.141 42.9041C181.875 43.7307 181.741 44.6507 181.741 45.6641C181.741 46.7041 181.875 47.6507 182.141 48.5041C182.435 49.3307 182.901 49.9841 183.541 50.4641C184.208 50.9441 185.088 51.1841 186.181 51.1841ZM195.199 53.6641V37.3041H198.039L198.599 41.1041H198.679C198.705 40.9974 198.812 40.7441 198.999 40.3441C199.185 39.9441 199.492 39.5174 199.919 39.0641C200.345 38.5841 200.919 38.1707 201.639 37.8241C202.359 37.4774 203.265 37.3041 204.359 37.3041C205.505 37.3041 206.439 37.4907 207.159 37.8641C207.905 38.2107 208.492 38.6907 208.919 39.3041C209.372 39.8907 209.692 40.5574 209.879 41.3041C210.065 42.0241 210.185 42.7707 210.239 43.5441C210.292 44.2907 210.319 44.9974 210.319 45.6641V53.6641H207.079V45.6241C207.079 44.6107 206.972 43.7041 206.759 42.9041C206.545 42.0774 206.159 41.4374 205.599 40.9841C205.039 40.5041 204.199 40.2641 203.079 40.2641C201.959 40.2641 201.065 40.5307 200.399 41.0641C199.759 41.5974 199.292 42.2907 198.999 43.1441C198.732 43.9707 198.599 44.8774 198.599 45.8641V53.6641H195.199ZM219.041 54.0641C217.441 54.0641 216.121 53.7041 215.081 52.9841C214.067 52.2641 213.307 51.2774 212.801 50.0241C212.321 48.7707 212.081 47.3441 212.081 45.7441C212.081 44.0641 212.334 42.5974 212.841 41.3441C213.347 40.0641 214.107 39.0774 215.121 38.3841C216.161 37.6641 217.467 37.3041 219.041 37.3041C220.107 37.3041 221.001 37.4774 221.721 37.8241C222.467 38.1707 223.054 38.5841 223.481 39.0641C223.907 39.5441 224.214 39.9841 224.401 40.3841C224.614 40.7841 224.734 41.0374 224.761 41.1441H224.841V31.1441H228.281V53.6641H225.401L224.881 50.3841H224.801C224.747 50.4907 224.614 50.7441 224.401 51.1441C224.187 51.5174 223.854 51.9307 223.401 52.3841C222.947 52.8374 222.361 53.2374 221.641 53.5841C220.921 53.9041 220.054 54.0641 219.041 54.0641ZM220.001 51.1841C221.041 51.1841 221.921 50.9574 222.641 50.5041C223.361 50.0507 223.894 49.4107 224.241 48.5841C224.614 47.7574 224.801 46.7974 224.801 45.7041C224.801 44.6374 224.627 43.6907 224.281 42.8641C223.934 42.0374 223.414 41.4107 222.721 40.9841C222.054 40.5307 221.201 40.3041 220.161 40.3041C218.987 40.3041 218.041 40.5574 217.321 41.0641C216.627 41.5707 216.121 42.2374 215.801 43.0641C215.507 43.8907 215.361 44.7707 215.361 45.7041C215.361 46.6374 215.494 47.5307 215.761 48.3841C216.054 49.2107 216.534 49.8907 217.201 50.4241C217.894 50.9307 218.827 51.1841 220.001 51.1841ZM246.746 31.8641V53.6641H243.426V31.8641H246.746ZM236.466 34.0241V31.1441H253.666V34.0241H236.466ZM252.125 53.6641V37.3041H255.205L255.485 42.0241L255.445 45.5441V53.6641H252.125ZM255.445 46.3041L255.325 42.7041C255.352 42.1174 255.485 41.5174 255.725 40.9041C255.965 40.2641 256.325 39.6774 256.805 39.1441C257.312 38.5841 257.952 38.1441 258.725 37.8241C259.525 37.4774 260.485 37.3041 261.605 37.3041H262.285V40.9841H261.565C260.365 40.9841 259.365 41.1041 258.565 41.3441C257.765 41.5574 257.139 41.8907 256.685 42.3441C256.232 42.7974 255.912 43.3574 255.725 44.0241C255.539 44.6907 255.445 45.4507 255.445 46.3041ZM268.938 54.0641C267.845 54.0641 266.925 53.8907 266.178 53.5441C265.458 53.1974 264.871 52.7307 264.418 52.1441C263.991 51.5574 263.671 50.9041 263.458 50.1841C263.245 49.4641 263.098 48.7174 263.018 47.9441C262.938 47.1707 262.898 46.4241 262.898 45.7041V37.3041H266.178V45.7041C266.178 46.6641 266.271 47.5574 266.458 48.3841C266.645 49.1841 267.031 49.8374 267.618 50.3441C268.205 50.8507 269.071 51.1041 270.218 51.1041C271.338 51.1041 272.205 50.8507 272.818 50.3441C273.431 49.8107 273.858 49.1441 274.098 48.3441C274.365 47.5441 274.511 46.7174 274.538 45.8641V37.3041H277.978V53.6641H275.138L274.578 50.2641H274.498C274.418 50.5307 274.258 50.8774 274.018 51.3041C273.778 51.7041 273.445 52.1174 273.018 52.5441C272.591 52.9707 272.031 53.3307 271.338 53.6241C270.671 53.9174 269.871 54.0641 268.938 54.0641ZM286.423 54.0641C285.676 54.0641 284.943 53.9574 284.223 53.7441C283.53 53.5574 282.876 53.2774 282.263 52.9041C281.676 52.5307 281.143 52.1041 280.663 51.6241C280.21 51.1441 279.85 50.6241 279.583 50.0641C279.343 49.4774 279.223 48.8641 279.223 48.2241H282.343C282.343 48.2507 282.356 48.4374 282.383 48.7841C282.436 49.1307 282.583 49.5307 282.823 49.9841C283.063 50.4107 283.45 50.7841 283.983 51.1041C284.543 51.4241 285.33 51.5841 286.343 51.5841C287.116 51.5841 287.77 51.4907 288.303 51.3041C288.863 51.1174 289.29 50.8641 289.583 50.5441C289.876 50.1974 290.01 49.7841 289.983 49.3041C289.983 48.6374 289.73 48.1174 289.223 47.7441C288.716 47.3707 288.063 47.0774 287.263 46.8641C286.463 46.6241 285.623 46.3974 284.743 46.1841C283.863 45.9707 283.023 45.6907 282.223 45.3441C281.423 44.9707 280.77 44.4774 280.263 43.8641C279.783 43.2241 279.556 42.3707 279.583 41.3041C279.583 39.8641 280.183 38.7574 281.383 37.9841C282.61 37.1841 284.156 36.7841 286.023 36.7841C286.93 36.7841 287.81 36.8907 288.663 37.1041C289.516 37.3174 290.276 37.6507 290.943 38.1041C291.636 38.5574 292.183 39.1574 292.583 39.9041C293.01 40.6507 293.21 41.5707 293.183 42.6641H290.103C290.13 41.9707 290.01 41.4107 289.743 40.9841C289.503 40.5574 289.17 40.2374 288.743 40.0241C288.316 39.7841 287.863 39.6241 287.383 39.5441C286.93 39.4374 286.49 39.3841 286.063 39.3841C284.996 39.3841 284.156 39.5841 283.543 39.9841C282.93 40.3574 282.623 40.8641 282.623 41.5041C282.623 42.1707 282.876 42.6907 283.383 43.0641C283.89 43.4374 284.543 43.7307 285.343 43.9441C286.143 44.1574 286.996 44.3707 287.903 44.5841C288.81 44.7974 289.663 45.0907 290.463 45.4641C291.263 45.8107 291.916 46.3041 292.423 46.9441C292.93 47.5841 293.183 48.4374 293.183 49.5041C293.183 50.5441 292.89 51.3974 292.303 52.0641C291.743 52.7307 290.956 53.2374 289.943 53.5841C288.93 53.9041 287.756 54.0641 286.423 54.0641ZM299.07 53.6641C297.95 53.6641 297.123 53.3707 296.59 52.7841C296.057 52.1974 295.79 51.3041 295.79 50.1041V39.3041H298.95V51.0241H302.75V53.6641H299.07ZM293.27 39.7041V37.3041C293.883 37.3041 294.377 37.2641 294.75 37.1841C295.15 37.1041 295.443 36.9441 295.63 36.7041C295.843 36.4374 295.99 36.0241 296.07 35.4641C296.15 34.8774 296.19 34.0907 296.19 33.1041H298.95V37.3041H302.71V39.7041H293.27ZM311.52 54.0641C309.68 54.0641 308.173 53.6641 307 52.8641C305.827 52.0374 304.96 50.9841 304.4 49.7041C303.84 48.3974 303.56 47.0507 303.56 45.6641C303.533 44.0907 303.827 42.6641 304.44 41.3841C305.08 40.1041 305.987 39.0907 307.16 38.3441C308.36 37.5974 309.787 37.2241 311.44 37.2241C312.88 37.2241 314.16 37.5441 315.28 38.1841C316.4 38.7974 317.293 39.6774 317.96 40.8241C318.627 41.9441 318.987 43.2774 319.04 44.8241C319.067 44.9041 319.08 45.0641 319.08 45.3041C319.08 45.5174 319.08 45.7041 319.08 45.8641H306.72C306.72 47.5707 307.133 48.9041 307.96 49.8641C308.813 50.7974 309.987 51.2641 311.48 51.2641C312.6 51.2641 313.547 50.9841 314.32 50.4241C315.12 49.8374 315.613 49.0641 315.8 48.1041H319.04C318.88 49.2241 318.48 50.2374 317.84 51.1441C317.2 52.0507 316.347 52.7707 315.28 53.3041C314.213 53.8107 312.96 54.0641 311.52 54.0641ZM306.84 44.2241H315.72C315.693 43.9307 315.613 43.5441 315.48 43.0641C315.373 42.5841 315.16 42.1174 314.84 41.6641C314.52 41.1841 314.08 40.7841 313.52 40.4641C312.96 40.1441 312.24 39.9841 311.36 39.9841C310.56 39.9841 309.88 40.1174 309.32 40.3841C308.76 40.6507 308.307 41.0107 307.96 41.4641C307.613 41.8907 307.347 42.3574 307.16 42.8641C307 43.3441 306.893 43.7974 306.84 44.2241ZM327.881 54.0641C326.281 54.0641 324.961 53.7041 323.921 52.9841C322.908 52.2641 322.148 51.2774 321.641 50.0241C321.161 48.7707 320.921 47.3441 320.921 45.7441C320.921 44.0641 321.175 42.5974 321.681 41.3441C322.188 40.0641 322.948 39.0774 323.961 38.3841C325.001 37.6641 326.308 37.3041 327.881 37.3041C328.948 37.3041 329.841 37.4774 330.561 37.8241C331.308 38.1707 331.895 38.5841 332.321 39.0641C332.748 39.5441 333.055 39.9841 333.241 40.3841C333.455 40.7841 333.575 41.0374 333.601 41.1441H333.681V31.1441H337.121V53.6641H334.241L333.721 50.3841H333.641C333.588 50.4907 333.455 50.7441 333.241 51.1441C333.028 51.5174 332.695 51.9307 332.241 52.3841C331.788 52.8374 331.201 53.2374 330.481 53.5841C329.761 53.9041 328.895 54.0641 327.881 54.0641ZM328.841 51.1841C329.881 51.1841 330.761 50.9574 331.481 50.5041C332.201 50.0507 332.735 49.4107 333.081 48.5841C333.455 47.7574 333.641 46.7974 333.641 45.7041C333.641 44.6374 333.468 43.6907 333.121 42.8641C332.775 42.0374 332.255 41.4107 331.561 40.9841C330.895 40.5307 330.041 40.3041 329.001 40.3041C327.828 40.3041 326.881 40.5574 326.161 41.0641C325.468 41.5707 324.961 42.2374 324.641 43.0641C324.348 43.8907 324.201 44.7707 324.201 45.7041C324.201 46.6374 324.335 47.5307 324.601 48.3841C324.895 49.2107 325.375 49.8907 326.041 50.4241C326.735 50.9307 327.668 51.1841 328.841 51.1841ZM347.107 53.6641V31.1441H362.707V34.0241H350.387V40.8641H359.987V43.6241H350.387V50.9441H363.107V53.6641H347.107ZM372.116 54.0641C370.596 54.0641 369.223 53.7441 367.996 53.1041C366.769 52.4641 365.796 51.5307 365.076 50.3041C364.356 49.0774 363.996 47.5841 363.996 45.8241C364.049 44.0641 364.423 42.5441 365.116 41.2641C365.836 39.9841 366.809 38.9974 368.036 38.3041C369.263 37.6107 370.649 37.2641 372.196 37.2641C373.743 37.2641 375.063 37.5574 376.156 38.1441C377.276 38.7307 378.156 39.4907 378.796 40.4241C379.436 41.3574 379.823 42.3707 379.956 43.4641H376.876C376.663 42.4241 376.156 41.6107 375.356 41.0241C374.556 40.4374 373.543 40.1441 372.316 40.1441C371.249 40.1441 370.343 40.3841 369.596 40.8641C368.849 41.3174 368.276 41.9574 367.876 42.7841C367.476 43.5841 367.263 44.5174 367.236 45.5841C367.236 47.2641 367.676 48.6107 368.556 49.6241C369.436 50.6374 370.676 51.1441 372.276 51.1441C373.423 51.1441 374.423 50.8507 375.276 50.2641C376.129 49.6774 376.663 48.8241 376.876 47.7041H379.956C379.823 48.8241 379.423 49.8641 378.756 50.8241C378.116 51.7841 377.236 52.5707 376.116 53.1841C374.996 53.7707 373.663 54.0641 372.116 54.0641ZM388.794 54.0641C387.034 54.0641 385.554 53.7041 384.354 52.9841C383.154 52.2641 382.247 51.2774 381.634 50.0241C381.047 48.7441 380.754 47.3041 380.754 45.7041C380.754 44.0507 381.047 42.5974 381.634 41.3441C382.247 40.0641 383.154 39.0641 384.354 38.3441C385.554 37.6241 387.047 37.2641 388.834 37.2641C391.447 37.2641 393.434 38.0374 394.794 39.5841C396.154 41.1307 396.834 43.1707 396.834 45.7041C396.834 47.2774 396.54 48.7041 395.954 49.9841C395.394 51.2374 394.514 52.2374 393.314 52.9841C392.14 53.7041 390.634 54.0641 388.794 54.0641ZM388.794 51.2241C390.1 51.2241 391.1 50.9441 391.794 50.3841C392.487 49.8241 392.954 49.1174 393.194 48.2641C393.46 47.3841 393.594 46.4907 393.594 45.5841C393.594 44.6774 393.46 43.7974 393.194 42.9441C392.954 42.0641 392.487 41.3441 391.794 40.7841C391.1 40.1974 390.1 39.9041 388.794 39.9041C387.54 39.9041 386.554 40.1974 385.834 40.7841C385.14 41.3441 384.66 42.0641 384.394 42.9441C384.127 43.7974 383.994 44.6774 383.994 45.5841C383.994 46.4907 384.127 47.3841 384.394 48.2641C384.66 49.1174 385.14 49.8241 385.834 50.3841C386.554 50.9441 387.54 51.2241 388.794 51.2241ZM405.107 54.0641C404.361 54.0641 403.627 53.9574 402.907 53.7441C402.214 53.5574 401.561 53.2774 400.947 52.9041C400.361 52.5307 399.827 52.1041 399.347 51.6241C398.894 51.1441 398.534 50.6241 398.267 50.0641C398.027 49.4774 397.907 48.8641 397.907 48.2241H401.027C401.027 48.2507 401.041 48.4374 401.067 48.7841C401.121 49.1307 401.267 49.5307 401.507 49.9841C401.747 50.4107 402.134 50.7841 402.667 51.1041C403.227 51.4241 404.014 51.5841 405.027 51.5841C405.801 51.5841 406.454 51.4907 406.987 51.3041C407.547 51.1174 407.974 50.8641 408.267 50.5441C408.561 50.1974 408.694 49.7841 408.667 49.3041C408.667 48.6374 408.414 48.1174 407.907 47.7441C407.401 47.3707 406.747 47.0774 405.947 46.8641C405.147 46.6241 404.307 46.3974 403.427 46.1841C402.547 45.9707 401.707 45.6907 400.907 45.3441C400.107 44.9707 399.454 44.4774 398.947 43.8641C398.467 43.2241 398.241 42.3707 398.267 41.3041C398.267 39.8641 398.867 38.7574 400.067 37.9841C401.294 37.1841 402.841 36.7841 404.707 36.7841C405.614 36.7841 406.494 36.8907 407.347 37.1041C408.201 37.3174 408.961 37.6507 409.627 38.1041C410.321 38.5574 410.867 39.1574 411.267 39.9041C411.694 40.6507 411.894 41.5707 411.867 42.6641H408.787C408.814 41.9707 408.694 41.4107 408.427 40.9841C408.187 40.5574 407.854 40.2374 407.427 40.0241C407.001 39.7841 406.547 39.6241 406.067 39.5441C405.614 39.4374 405.174 39.3841 404.747 39.3841C403.681 39.3841 402.841 39.5841 402.227 39.9841C401.614 40.3574 401.307 40.8641 401.307 41.5041C401.307 42.1707 401.561 42.6907 402.067 43.0641C402.574 43.4374 403.227 43.7307 404.027 43.9441C404.827 44.1574 405.681 44.3707 406.587 44.5841C407.494 44.7974 408.347 45.0907 409.147 45.4641C409.947 45.8107 410.601 46.3041 411.107 46.9441C411.614 47.5841 411.867 48.4374 411.867 49.5041C411.867 50.5441 411.574 51.3974 410.987 52.0641C410.427 52.7307 409.641 53.2374 408.627 53.5841C407.614 53.9041 406.441 54.0641 405.107 54.0641ZM411.434 61.1041V58.5041H413.794C414.168 58.5041 414.501 58.4507 414.794 58.3441C415.088 58.2641 415.368 58.0507 415.634 57.7041C415.928 57.3574 416.234 56.8241 416.554 56.1041L417.954 53.0241L411.554 37.3041H414.994L419.594 49.5841L424.514 37.3041H427.994L419.594 56.4641C419.141 57.4774 418.728 58.2907 418.354 58.9041C418.008 59.5174 417.634 59.9841 417.234 60.3041C416.861 60.6241 416.421 60.8374 415.914 60.9441C415.434 61.0507 414.861 61.1041 414.194 61.1041H411.434ZM435.149 54.0641C434.403 54.0641 433.669 53.9574 432.949 53.7441C432.256 53.5574 431.603 53.2774 430.989 52.9041C430.403 52.5307 429.869 52.1041 429.389 51.6241C428.936 51.1441 428.576 50.6241 428.309 50.0641C428.069 49.4774 427.949 48.8641 427.949 48.2241H431.069C431.069 48.2507 431.083 48.4374 431.109 48.7841C431.163 49.1307 431.309 49.5307 431.549 49.9841C431.789 50.4107 432.176 50.7841 432.709 51.1041C433.269 51.4241 434.056 51.5841 435.069 51.5841C435.843 51.5841 436.496 51.4907 437.029 51.3041C437.589 51.1174 438.016 50.8641 438.309 50.5441C438.603 50.1974 438.736 49.7841 438.709 49.3041C438.709 48.6374 438.456 48.1174 437.949 47.7441C437.443 47.3707 436.789 47.0774 435.989 46.8641C435.189 46.6241 434.349 46.3974 433.469 46.1841C432.589 45.9707 431.749 45.6907 430.949 45.3441C430.149 44.9707 429.496 44.4774 428.989 43.8641C428.509 43.2241 428.283 42.3707 428.309 41.3041C428.309 39.8641 428.909 38.7574 430.109 37.9841C431.336 37.1841 432.883 36.7841 434.749 36.7841C435.656 36.7841 436.536 36.8907 437.389 37.1041C438.243 37.3174 439.003 37.6507 439.669 38.1041C440.363 38.5574 440.909 39.1574 441.309 39.9041C441.736 40.6507 441.936 41.5707 441.909 42.6641H438.829C438.856 41.9707 438.736 41.4107 438.469 40.9841C438.229 40.5574 437.896 40.2374 437.469 40.0241C437.043 39.7841 436.589 39.6241 436.109 39.5441C435.656 39.4374 435.216 39.3841 434.789 39.3841C433.723 39.3841 432.883 39.5841 432.269 39.9841C431.656 40.3574 431.349 40.8641 431.349 41.5041C431.349 42.1707 431.603 42.6907 432.109 43.0641C432.616 43.4374 433.269 43.7307 434.069 43.9441C434.869 44.1574 435.723 44.3707 436.629 44.5841C437.536 44.7974 438.389 45.0907 439.189 45.4641C439.989 45.8107 440.643 46.3041 441.149 46.9441C441.656 47.5841 441.909 48.4374 441.909 49.5041C441.909 50.5441 441.616 51.3974 441.029 52.0641C440.469 52.7307 439.683 53.2374 438.669 53.5841C437.656 53.9041 436.483 54.0641 435.149 54.0641ZM447.797 53.6641C446.677 53.6641 445.85 53.3707 445.317 52.7841C444.783 52.1974 444.517 51.3041 444.517 50.1041V39.3041H447.677V51.0241H451.477V53.6641H447.797ZM441.997 39.7041V37.3041C442.61 37.3041 443.103 37.2641 443.477 37.1841C443.877 37.1041 444.17 36.9441 444.357 36.7041C444.57 36.4374 444.717 36.0241 444.797 35.4641C444.877 34.8774 444.917 34.0907 444.917 33.1041H447.677V37.3041H451.437V39.7041H441.997ZM460.247 54.0641C458.407 54.0641 456.9 53.6641 455.727 52.8641C454.553 52.0374 453.687 50.9841 453.127 49.7041C452.567 48.3974 452.287 47.0507 452.287 45.6641C452.26 44.0907 452.553 42.6641 453.167 41.3841C453.807 40.1041 454.713 39.0907 455.887 38.3441C457.087 37.5974 458.513 37.2241 460.167 37.2241C461.607 37.2241 462.887 37.5441 464.007 38.1841C465.127 38.7974 466.02 39.6774 466.687 40.8241C467.353 41.9441 467.713 43.2774 467.767 44.8241C467.793 44.9041 467.807 45.0641 467.807 45.3041C467.807 45.5174 467.807 45.7041 467.807 45.8641H455.447C455.447 47.5707 455.86 48.9041 456.687 49.8641C457.54 50.7974 458.713 51.2641 460.207 51.2641C461.327 51.2641 462.273 50.9841 463.047 50.4241C463.847 49.8374 464.34 49.0641 464.527 48.1041H467.767C467.607 49.2241 467.207 50.2374 466.567 51.1441C465.927 52.0507 465.073 52.7707 464.007 53.3041C462.94 53.8107 461.687 54.0641 460.247 54.0641ZM455.567 44.2241H464.447C464.42 43.9307 464.34 43.5441 464.207 43.0641C464.1 42.5841 463.887 42.1174 463.567 41.6641C463.247 41.1841 462.807 40.7841 462.247 40.4641C461.687 40.1441 460.967 39.9841 460.087 39.9841C459.287 39.9841 458.607 40.1174 458.047 40.3841C457.487 40.6507 457.033 41.0107 456.687 41.4641C456.34 41.8907 456.073 42.3574 455.887 42.8641C455.727 43.3441 455.62 43.7974 455.567 44.2241ZM469.408 53.6641V37.3041H472.528L472.648 41.1041H472.728C472.755 40.9441 472.861 40.6641 473.048 40.2641C473.235 39.8641 473.515 39.4374 473.888 38.9841C474.288 38.5307 474.795 38.1441 475.408 37.8241C476.048 37.4774 476.848 37.3041 477.808 37.3041C478.741 37.3041 479.515 37.4907 480.128 37.8641C480.741 38.2107 481.221 38.6774 481.568 39.2641C481.941 39.8241 482.208 40.4374 482.368 41.1041H482.448C482.501 40.9441 482.635 40.6641 482.848 40.2641C483.061 39.8641 483.368 39.4374 483.768 38.9841C484.195 38.5041 484.741 38.1041 485.408 37.7841C486.075 37.4641 486.888 37.3041 487.848 37.3041C488.888 37.3041 489.741 37.5174 490.408 37.9441C491.101 38.3707 491.648 38.9307 492.048 39.6241C492.448 40.2907 492.741 41.0107 492.928 41.7841C493.115 42.5307 493.235 43.2507 493.288 43.9441C493.341 44.6374 493.368 45.2107 493.368 45.6641V53.6641H490.128V45.6241C490.128 45.1974 490.101 44.6907 490.048 44.1041C490.021 43.4907 489.901 42.8907 489.688 42.3041C489.501 41.7174 489.181 41.2374 488.728 40.8641C488.275 40.4641 487.635 40.2641 486.808 40.2641C485.848 40.2641 485.088 40.5307 484.528 41.0641C483.968 41.5974 483.568 42.2907 483.328 43.1441C483.115 43.9974 483.008 44.9041 483.008 45.8641V53.6641H479.768V45.6241C479.768 45.1974 479.741 44.6907 479.688 44.1041C479.661 43.4907 479.541 42.8907 479.328 42.3041C479.141 41.7174 478.821 41.2374 478.368 40.8641C477.915 40.4641 477.275 40.2641 476.448 40.2641C475.488 40.2641 474.728 40.5307 474.168 41.0641C473.608 41.5974 473.208 42.2907 472.968 43.1441C472.755 43.9974 472.648 44.9041 472.648 45.8641V53.6641H469.408Z" fill="white"/>
<path d="M53.4528 39.9418V34.7567C53.4528 27.8122 47.8047 22.1641 40.8602 22.1641C33.9158 22.1641 28.2677 27.8122 28.2677 34.7567V39.9418H25.3047V62.1641H56.4158V39.9418H53.4528ZM32.7121 34.7567C32.7121 30.263 36.3666 26.6085 40.8602 26.6085C45.3539 26.6085 49.0084 30.263 49.0084 34.7567V39.9418H32.7121V34.7567ZM45.3047 51.3423H43.0825V55.4974H38.638V51.3423H36.4158V46.8979H45.3047V51.3423Z" fill="white"/>
</svg>
