<svg width="304" height="119" viewBox="0 0 304 119" fill="none" xmlns="http://www.w3.org/2000/svg">
<path d="M303.785 0.22512L302.772 88.789L70.1695 89.4132L40.1177 118.794L35.6973 118.647L35.4047 89.0184L0.0883789 88.6211L1.097 0.0488281L303.785 0.22512Z" fill="#0D67AA"/>
<path d="M74.647 55.1999V34.1199H77.927V55.1999H74.647ZM71.567 55.9199V53.0399H80.967V55.9199H71.567ZM71.567 36.2799V33.3999H80.967V36.2799H71.567ZM83.5411 55.9199V39.5599H86.3811L86.9411 43.3599H87.0211C87.0478 43.2533 87.1544 42.9999 87.3411 42.5999C87.5278 42.1999 87.8344 41.7733 88.2611 41.3199C88.6878 40.8399 89.2611 40.4266 89.9811 40.0799C90.7011 39.7333 91.6078 39.5599 92.7011 39.5599C93.8478 39.5599 94.7811 39.7466 95.5011 40.1199C96.2478 40.4666 96.8344 40.9466 97.2611 41.5599C97.7144 42.1466 98.0344 42.8133 98.2211 43.5599C98.4078 44.2799 98.5278 45.0266 98.5811 45.7999C98.6344 46.5466 98.6611 47.2533 98.6611 47.9199V55.9199H95.4211V47.8799C95.4211 46.8666 95.3144 45.9599 95.1011 45.1599C94.8878 44.3333 94.5011 43.6933 93.9411 43.2399C93.3811 42.7599 92.5411 42.5199 91.4211 42.5199C90.3011 42.5199 89.4078 42.7866 88.7411 43.3199C88.1011 43.8533 87.6344 44.5466 87.3411 45.3999C87.0744 46.2266 86.9411 47.1333 86.9411 48.1199V55.9199H83.5411ZM107.023 56.3199C106.277 56.3199 105.543 56.2133 104.823 55.9999C104.13 55.8133 103.477 55.5333 102.863 55.1599C102.277 54.7866 101.743 54.3599 101.263 53.8799C100.81 53.3999 100.45 52.8799 100.183 52.3199C99.9433 51.7333 99.8233 51.1199 99.8233 50.4799H102.943C102.943 50.5066 102.957 50.6933 102.983 51.0399C103.037 51.3866 103.183 51.7866 103.423 52.2399C103.663 52.6666 104.05 53.0399 104.583 53.3599C105.143 53.6799 105.93 53.8399 106.943 53.8399C107.717 53.8399 108.37 53.7466 108.903 53.5599C109.463 53.3733 109.89 53.1199 110.183 52.7999C110.477 52.4533 110.61 52.0399 110.583 51.5599C110.583 50.8933 110.33 50.3733 109.823 49.9999C109.317 49.6266 108.663 49.3333 107.863 49.1199C107.063 48.8799 106.223 48.6533 105.343 48.4399C104.463 48.2266 103.623 47.9466 102.823 47.5999C102.023 47.2266 101.37 46.7333 100.863 46.1199C100.383 45.4799 100.157 44.6266 100.183 43.5599C100.183 42.1199 100.783 41.0133 101.983 40.2399C103.21 39.4399 104.757 39.0399 106.623 39.0399C107.53 39.0399 108.41 39.1466 109.263 39.3599C110.117 39.5733 110.877 39.9066 111.543 40.3599C112.237 40.8133 112.783 41.4133 113.183 42.1599C113.61 42.9066 113.81 43.8266 113.783 44.9199H110.703C110.73 44.2266 110.61 43.6666 110.343 43.2399C110.103 42.8133 109.77 42.4933 109.343 42.2799C108.917 42.0399 108.463 41.8799 107.983 41.7999C107.53 41.6933 107.09 41.6399 106.663 41.6399C105.597 41.6399 104.757 41.8399 104.143 42.2399C103.53 42.6133 103.223 43.1199 103.223 43.7599C103.223 44.4266 103.477 44.9466 103.983 45.3199C104.49 45.6933 105.143 45.9866 105.943 46.1999C106.743 46.4133 107.597 46.6266 108.503 46.8399C109.41 47.0533 110.263 47.3466 111.063 47.7199C111.863 48.0666 112.517 48.5599 113.023 49.1999C113.53 49.8399 113.783 50.6933 113.783 51.7599C113.783 52.7999 113.49 53.6533 112.903 54.3199C112.343 54.9866 111.557 55.4933 110.543 55.8399C109.53 56.1599 108.357 56.3199 107.023 56.3199ZM119.67 55.9199C118.55 55.9199 117.724 55.6266 117.19 55.0399C116.657 54.4533 116.39 53.5599 116.39 52.3599V41.5599H119.55V53.2799H123.35V55.9199H119.67ZM113.87 41.9599V39.5599C114.484 39.5599 114.977 39.5199 115.35 39.4399C115.75 39.3599 116.044 39.1999 116.23 38.9599C116.444 38.6933 116.59 38.2799 116.67 37.7199C116.75 37.1333 116.79 36.3466 116.79 35.3599H119.55V39.5599H123.31V41.9599H113.87ZM130.671 56.2799C129.178 56.2799 127.951 55.9199 126.991 55.1999C126.058 54.4799 125.364 53.4933 124.911 52.2399C124.484 50.9866 124.271 49.5466 124.271 47.9199C124.271 46.2399 124.498 44.7733 124.951 43.5199C125.404 42.2399 126.098 41.2399 127.031 40.5199C127.991 39.7999 129.204 39.4399 130.671 39.4399C131.578 39.4399 132.351 39.5733 132.991 39.8399C133.631 40.0799 134.164 40.3866 134.591 40.7599C135.018 41.1333 135.364 41.5199 135.631 41.9199C135.898 42.2933 136.084 42.6266 136.191 42.9199H136.271V39.5599H139.671V55.9199H136.831L136.271 52.9999H136.191C136.084 53.2933 135.898 53.6266 135.631 53.9999C135.364 54.3733 135.004 54.7333 134.551 55.0799C134.124 55.4266 133.591 55.7066 132.951 55.9199C132.311 56.1599 131.551 56.2799 130.671 56.2799ZM131.991 53.4399C133.058 53.4399 133.898 53.2133 134.511 52.7599C135.124 52.2799 135.564 51.6266 135.831 50.7999C136.098 49.9733 136.231 49.0266 136.231 47.9599C136.231 46.8133 136.084 45.8266 135.791 44.9999C135.524 44.1733 135.084 43.5466 134.471 43.1199C133.858 42.6666 133.031 42.4399 131.991 42.4399C130.898 42.4399 130.018 42.6933 129.351 43.1999C128.711 43.6799 128.244 44.3333 127.951 45.1599C127.684 45.9866 127.551 46.9066 127.551 47.9199C127.551 48.9599 127.684 49.9066 127.951 50.7599C128.244 51.5866 128.711 52.2399 129.351 52.7199C130.018 53.1999 130.898 53.4399 131.991 53.4399ZM141.008 55.9199V39.5599H143.848L144.408 43.3599H144.488C144.515 43.2533 144.622 42.9999 144.808 42.5999C144.995 42.1999 145.302 41.7733 145.728 41.3199C146.155 40.8399 146.728 40.4266 147.448 40.0799C148.168 39.7333 149.075 39.5599 150.168 39.5599C151.315 39.5599 152.248 39.7466 152.968 40.1199C153.715 40.4666 154.302 40.9466 154.728 41.5599C155.182 42.1466 155.502 42.8133 155.688 43.5599C155.875 44.2799 155.995 45.0266 156.048 45.7999C156.102 46.5466 156.128 47.2533 156.128 47.9199V55.9199H152.888V47.8799C152.888 46.8666 152.782 45.9599 152.568 45.1599C152.355 44.3333 151.968 43.6933 151.408 43.2399C150.848 42.7599 150.008 42.5199 148.888 42.5199C147.768 42.5199 146.875 42.7866 146.208 43.3199C145.568 43.8533 145.102 44.5466 144.808 45.3999C144.542 46.2266 144.408 47.1333 144.408 48.1199V55.9199H141.008ZM162.37 55.9199C161.25 55.9199 160.424 55.6266 159.89 55.0399C159.357 54.4533 159.09 53.5599 159.09 52.3599V41.5599H162.25V53.2799H166.05V55.9199H162.37ZM156.57 41.9599V39.5599C157.184 39.5599 157.677 39.5199 158.05 39.4399C158.45 39.3599 158.744 39.1999 158.93 38.9599C159.144 38.6933 159.29 38.2799 159.37 37.7199C159.45 37.1333 159.49 36.3466 159.49 35.3599H162.25V39.5599H166.01V41.9599H156.57ZM174.433 55.9199L181.993 33.3999H187.473L195.193 55.9199H191.633L184.793 34.7999L177.953 55.9199H174.433ZM179.033 49.1999L179.153 46.5599H190.353L190.513 49.1999H179.033ZM203.421 56.3199C201.901 56.3199 200.528 55.9999 199.301 55.3599C198.074 54.7199 197.101 53.7866 196.381 52.5599C195.661 51.3333 195.301 49.8399 195.301 48.0799C195.354 46.3199 195.728 44.7999 196.421 43.5199C197.141 42.2399 198.114 41.2533 199.341 40.5599C200.568 39.8666 201.954 39.5199 203.501 39.5199C205.048 39.5199 206.368 39.8133 207.461 40.3999C208.581 40.9866 209.461 41.7466 210.101 42.6799C210.741 43.6133 211.128 44.6266 211.261 45.7199H208.181C207.968 44.6799 207.461 43.8666 206.661 43.2799C205.861 42.6933 204.848 42.3999 203.621 42.3999C202.554 42.3999 201.648 42.6399 200.901 43.1199C200.154 43.5733 199.581 44.2133 199.181 45.0399C198.781 45.8399 198.568 46.7733 198.541 47.8399C198.541 49.5199 198.981 50.8666 199.861 51.8799C200.741 52.8933 201.981 53.3999 203.581 53.3999C204.728 53.3999 205.728 53.1066 206.581 52.5199C207.434 51.9333 207.968 51.0799 208.181 49.9599H211.261C211.128 51.0799 210.728 52.1199 210.061 53.0799C209.421 54.0399 208.541 54.8266 207.421 55.4399C206.301 56.0266 204.968 56.3199 203.421 56.3199ZM220.259 56.3199C218.739 56.3199 217.365 55.9999 216.139 55.3599C214.912 54.7199 213.939 53.7866 213.219 52.5599C212.499 51.3333 212.139 49.8399 212.139 48.0799C212.192 46.3199 212.565 44.7999 213.259 43.5199C213.979 42.2399 214.952 41.2533 216.179 40.5599C217.405 39.8666 218.792 39.5199 220.339 39.5199C221.885 39.5199 223.205 39.8133 224.299 40.3999C225.419 40.9866 226.299 41.7466 226.939 42.6799C227.579 43.6133 227.965 44.6266 228.099 45.7199H225.019C224.805 44.6799 224.299 43.8666 223.499 43.2799C222.699 42.6933 221.685 42.3999 220.459 42.3999C219.392 42.3999 218.485 42.6399 217.739 43.1199C216.992 43.5733 216.419 44.2133 216.019 45.0399C215.619 45.8399 215.405 46.7733 215.379 47.8399C215.379 49.5199 215.819 50.8666 216.699 51.8799C217.579 52.8933 218.819 53.3999 220.419 53.3999C221.565 53.3999 222.565 53.1066 223.419 52.5199C224.272 51.9333 224.805 51.0799 225.019 49.9599H228.099C227.965 51.0799 227.565 52.1199 226.899 53.0799C226.259 54.0399 225.379 54.8266 224.259 55.4399C223.139 56.0266 221.805 56.3199 220.259 56.3199ZM236.936 56.3199C235.096 56.3199 233.589 55.9199 232.416 55.1199C231.243 54.2933 230.376 53.2399 229.816 51.9599C229.256 50.6533 228.976 49.3066 228.976 47.9199C228.949 46.3466 229.243 44.9199 229.856 43.6399C230.496 42.3599 231.403 41.3466 232.576 40.5999C233.776 39.8533 235.203 39.4799 236.856 39.4799C238.296 39.4799 239.576 39.7999 240.696 40.4399C241.816 41.0533 242.709 41.9333 243.376 43.0799C244.043 44.1999 244.403 45.5333 244.456 47.0799C244.483 47.1599 244.496 47.3199 244.496 47.5599C244.496 47.7733 244.496 47.9599 244.496 48.1199H232.136C232.136 49.8266 232.549 51.1599 233.376 52.1199C234.229 53.0533 235.403 53.5199 236.896 53.5199C238.016 53.5199 238.963 53.2399 239.736 52.6799C240.536 52.0933 241.029 51.3199 241.216 50.3599H244.456C244.296 51.4799 243.896 52.4933 243.256 53.3999C242.616 54.3066 241.763 55.0266 240.696 55.5599C239.629 56.0666 238.376 56.3199 236.936 56.3199ZM232.256 46.4799H241.136C241.109 46.1866 241.029 45.7999 240.896 45.3199C240.789 44.8399 240.576 44.3733 240.256 43.9199C239.936 43.4399 239.496 43.0399 238.936 42.7199C238.376 42.3999 237.656 42.2399 236.776 42.2399C235.976 42.2399 235.296 42.3733 234.736 42.6399C234.176 42.9066 233.723 43.2666 233.376 43.7199C233.029 44.1466 232.763 44.6133 232.576 45.1199C232.416 45.5999 232.309 46.0533 232.256 46.4799ZM252.937 56.3199C252.191 56.3199 251.457 56.2133 250.737 55.9999C250.044 55.8133 249.391 55.5333 248.777 55.1599C248.191 54.7866 247.657 54.3599 247.177 53.8799C246.724 53.3999 246.364 52.8799 246.097 52.3199C245.857 51.7333 245.737 51.1199 245.737 50.4799H248.857C248.857 50.5066 248.871 50.6933 248.897 51.0399C248.951 51.3866 249.097 51.7866 249.337 52.2399C249.577 52.6666 249.964 53.0399 250.497 53.3599C251.057 53.6799 251.844 53.8399 252.857 53.8399C253.631 53.8399 254.284 53.7466 254.817 53.5599C255.377 53.3733 255.804 53.1199 256.097 52.7999C256.391 52.4533 256.524 52.0399 256.497 51.5599C256.497 50.8933 256.244 50.3733 255.737 49.9999C255.231 49.6266 254.577 49.3333 253.777 49.1199C252.977 48.8799 252.137 48.6533 251.257 48.4399C250.377 48.2266 249.537 47.9466 248.737 47.5999C247.937 47.2266 247.284 46.7333 246.777 46.1199C246.297 45.4799 246.071 44.6266 246.097 43.5599C246.097 42.1199 246.697 41.0133 247.897 40.2399C249.124 39.4399 250.671 39.0399 252.537 39.0399C253.444 39.0399 254.324 39.1466 255.177 39.3599C256.031 39.5733 256.791 39.9066 257.457 40.3599C258.151 40.8133 258.697 41.4133 259.097 42.1599C259.524 42.9066 259.724 43.8266 259.697 44.9199H256.617C256.644 44.2266 256.524 43.6666 256.257 43.2399C256.017 42.8133 255.684 42.4933 255.257 42.2799C254.831 42.0399 254.377 41.8799 253.897 41.7999C253.444 41.6933 253.004 41.6399 252.577 41.6399C251.511 41.6399 250.671 41.8399 250.057 42.2399C249.444 42.6133 249.137 43.1199 249.137 43.7599C249.137 44.4266 249.391 44.9466 249.897 45.3199C250.404 45.6933 251.057 45.9866 251.857 46.1999C252.657 46.4133 253.511 46.6266 254.417 46.8399C255.324 47.0533 256.177 47.3466 256.977 47.7199C257.777 48.0666 258.431 48.5599 258.937 49.1999C259.444 49.8399 259.697 50.6933 259.697 51.7599C259.697 52.7999 259.404 53.6533 258.817 54.3199C258.257 54.9866 257.471 55.4933 256.457 55.8399C255.444 56.1599 254.271 56.3199 252.937 56.3199ZM267.392 56.3199C266.645 56.3199 265.912 56.2133 265.192 55.9999C264.499 55.8133 263.845 55.5333 263.232 55.1599C262.645 54.7866 262.112 54.3599 261.632 53.8799C261.179 53.3999 260.819 52.8799 260.552 52.3199C260.312 51.7333 260.192 51.1199 260.192 50.4799H263.312C263.312 50.5066 263.325 50.6933 263.352 51.0399C263.405 51.3866 263.552 51.7866 263.792 52.2399C264.032 52.6666 264.419 53.0399 264.952 53.3599C265.512 53.6799 266.299 53.8399 267.312 53.8399C268.085 53.8399 268.739 53.7466 269.272 53.5599C269.832 53.3733 270.259 53.1199 270.552 52.7999C270.845 52.4533 270.979 52.0399 270.952 51.5599C270.952 50.8933 270.699 50.3733 270.192 49.9999C269.685 49.6266 269.032 49.3333 268.232 49.1199C267.432 48.8799 266.592 48.6533 265.712 48.4399C264.832 48.2266 263.992 47.9466 263.192 47.5999C262.392 47.2266 261.739 46.7333 261.232 46.1199C260.752 45.4799 260.525 44.6266 260.552 43.5599C260.552 42.1199 261.152 41.0133 262.352 40.2399C263.579 39.4399 265.125 39.0399 266.992 39.0399C267.899 39.0399 268.779 39.1466 269.632 39.3599C270.485 39.5733 271.245 39.9066 271.912 40.3599C272.605 40.8133 273.152 41.4133 273.552 42.1599C273.979 42.9066 274.179 43.8266 274.152 44.9199H271.072C271.099 44.2266 270.979 43.6666 270.712 43.2399C270.472 42.8133 270.139 42.4933 269.712 42.2799C269.285 42.0399 268.832 41.8799 268.352 41.7999C267.899 41.6933 267.459 41.6399 267.032 41.6399C265.965 41.6399 265.125 41.8399 264.512 42.2399C263.899 42.6133 263.592 43.1199 263.592 43.7599C263.592 44.4266 263.845 44.9466 264.352 45.3199C264.859 45.6933 265.512 45.9866 266.312 46.1999C267.112 46.4133 267.965 46.6266 268.872 46.8399C269.779 47.0533 270.632 47.3466 271.432 47.7199C272.232 48.0666 272.885 48.5599 273.392 49.1999C273.899 49.8399 274.152 50.6933 274.152 51.7599C274.152 52.7999 273.859 53.6533 273.272 54.3199C272.712 54.9866 271.925 55.4933 270.912 55.8399C269.899 56.1599 268.725 56.3199 267.392 56.3199Z" fill="white"/>
<path d="M53.0271 42.1977V37.0125C53.0271 30.0681 47.3789 24.4199 40.4345 24.4199C33.49 24.4199 27.8419 30.0681 27.8419 37.0125H32.2863C32.2863 32.5189 35.9408 28.8644 40.4345 28.8644C44.9281 28.8644 48.5826 32.5189 48.5826 37.0125V42.1977H24.8789V64.4199H55.99V42.1977H53.0271ZM44.8789 53.5982H42.6567V57.7533H38.2122V53.5982H35.99V49.1537H44.8789V53.5982Z" fill="white"/>
</svg>
