<svg width="240" height="120" viewBox="0 0 240 120" fill="none" xmlns="http://www.w3.org/2000/svg">
<path d="M239.841 0.448022L238.828 89.0113L70.2256 89.6358L40.1739 119.017L35.7535 118.869L35.4609 89.2411L0.144531 88.8437L1.15315 0.271484L239.841 0.448022Z" fill="#FF834E"/>
<path d="M76.627 56.6206C75.4004 56.6206 74.2137 56.474 73.067 56.1806C71.9204 55.8873 70.8804 55.434 69.947 54.8206C69.0137 54.2073 68.267 53.4206 67.707 52.4606C67.147 51.474 66.8537 50.3006 66.827 48.9406H70.187C70.187 49.0206 70.2137 49.234 70.267 49.5806C70.3204 49.9273 70.4537 50.3273 70.667 50.7806C70.907 51.234 71.2537 51.674 71.707 52.1006C72.187 52.5273 72.8404 52.8873 73.667 53.1806C74.5204 53.4473 75.587 53.5806 76.867 53.5806C77.8537 53.5806 78.6804 53.474 79.347 53.2606C80.0137 53.0473 80.547 52.7673 80.947 52.4206C81.347 52.074 81.627 51.714 81.787 51.3406C81.9737 50.9673 82.067 50.634 82.067 50.3406C82.067 49.514 81.8004 48.8473 81.267 48.3406C80.7604 47.834 80.067 47.434 79.187 47.1406C78.307 46.8206 77.3337 46.5406 76.267 46.3006C75.227 46.034 74.187 45.754 73.147 45.4606C72.107 45.1406 71.147 44.7273 70.267 44.2206C69.4137 43.714 68.747 43.0606 68.267 42.2606C67.787 41.434 67.5737 40.3806 67.627 39.1006C67.707 37.874 68.1337 36.8206 68.907 35.9406C69.6804 35.0606 70.7337 34.394 72.067 33.9406C73.427 33.4606 74.9737 33.2206 76.707 33.2206C78.2804 33.2206 79.7204 33.5006 81.027 34.0606C82.3604 34.6206 83.427 35.4606 84.227 36.5806C85.0537 37.674 85.4537 39.074 85.427 40.7806H82.187C82.2137 39.8473 82.027 39.1006 81.627 38.5406C81.227 37.954 80.707 37.5006 80.067 37.1806C79.4537 36.8606 78.8137 36.6473 78.147 36.5406C77.4804 36.4073 76.8804 36.3406 76.347 36.3406C74.8537 36.3406 73.6137 36.6206 72.627 37.1806C71.667 37.714 71.1737 38.474 71.147 39.4606C71.1204 40.314 71.3737 40.994 71.907 41.5006C72.4404 42.0073 73.147 42.4073 74.027 42.7006C74.907 42.994 75.8804 43.2606 76.947 43.5006C78.0137 43.7406 79.067 44.0073 80.107 44.3006C81.147 44.594 82.0937 44.994 82.947 45.5006C83.827 45.9806 84.507 46.634 84.987 47.4606C85.4937 48.2873 85.7204 49.354 85.667 50.6606C85.6137 51.914 85.187 52.9806 84.387 53.8606C83.587 54.7406 82.5204 55.4206 81.187 55.9006C79.8537 56.3806 78.3337 56.6206 76.627 56.6206ZM93.1086 56.5406C92.0153 56.5406 91.0953 56.3673 90.3486 56.0206C89.6286 55.674 89.0419 55.2073 88.5886 54.6206C88.1619 54.034 87.8419 53.3806 87.6286 52.6606C87.4153 51.9406 87.2686 51.194 87.1886 50.4206C87.1086 49.6473 87.0686 48.9006 87.0686 48.1806V39.7806H90.3486V48.1806C90.3486 49.1406 90.4419 50.034 90.6286 50.8606C90.8153 51.6606 91.2019 52.314 91.7886 52.8206C92.3753 53.3273 93.2419 53.5806 94.3886 53.5806C95.5086 53.5806 96.3753 53.3273 96.9886 52.8206C97.6019 52.2873 98.0286 51.6206 98.2686 50.8206C98.5353 50.0206 98.6819 49.194 98.7086 48.3406V39.7806H102.149V56.1406H99.3086L98.7486 52.7406H98.6686C98.5886 53.0073 98.4286 53.354 98.1886 53.7806C97.9486 54.1806 97.6153 54.594 97.1886 55.0206C96.7619 55.4473 96.2019 55.8073 95.5086 56.1006C94.8419 56.394 94.0419 56.5406 93.1086 56.5406ZM113.394 56.5406C112.354 56.5406 111.487 56.3806 110.794 56.0606C110.1 55.714 109.527 55.314 109.074 54.8606C108.647 54.4073 108.327 53.994 108.114 53.6206C107.9 53.2206 107.767 52.9673 107.714 52.8606H107.634V63.1406H104.234V39.7806H107.114L107.674 43.6206H107.754C107.78 43.514 107.887 43.2606 108.074 42.8606C108.26 42.4606 108.567 42.0206 108.994 41.5406C109.42 41.0606 109.98 40.6473 110.674 40.3006C111.394 39.954 112.287 39.7806 113.354 39.7806C114.98 39.7806 116.3 40.1406 117.314 40.8606C118.354 41.5806 119.127 42.5806 119.634 43.8606C120.14 45.114 120.394 46.5673 120.394 48.2206C120.394 49.874 120.127 51.3273 119.594 52.5806C119.087 53.834 118.314 54.8073 117.274 55.5006C116.26 56.194 114.967 56.5406 113.394 56.5406ZM112.514 53.6606C113.687 53.6606 114.607 53.4073 115.274 52.9006C115.967 52.3673 116.447 51.6873 116.714 50.8606C117.007 50.0073 117.154 49.114 117.154 48.1806C117.154 47.2473 116.994 46.3673 116.674 45.5406C116.38 44.714 115.874 44.0473 115.154 43.5406C114.46 43.034 113.527 42.7806 112.354 42.7806C111.34 42.7806 110.487 43.0073 109.794 43.4606C109.1 43.8873 108.58 44.514 108.234 45.3406C107.887 46.1673 107.714 47.114 107.714 48.1806C107.714 49.274 107.887 50.234 108.234 51.0606C108.607 51.8873 109.154 52.5273 109.874 52.9806C110.594 53.434 111.474 53.6606 112.514 53.6606ZM129.049 56.5406C127.209 56.5406 125.702 56.1406 124.529 55.3406C123.355 54.514 122.489 53.4606 121.929 52.1806C121.369 50.874 121.089 49.5273 121.089 48.1406C121.062 46.5673 121.355 45.1406 121.969 43.8606C122.609 42.5806 123.515 41.5673 124.689 40.8206C125.889 40.074 127.315 39.7006 128.969 39.7006C130.409 39.7006 131.689 40.0206 132.809 40.6606C133.929 41.274 134.822 42.154 135.489 43.3006C136.155 44.4206 136.515 45.754 136.569 47.3006C136.595 47.3806 136.609 47.5406 136.609 47.7806C136.609 47.994 136.609 48.1806 136.609 48.3406H124.249C124.249 50.0473 124.662 51.3806 125.489 52.3406C126.342 53.274 127.515 53.7406 129.009 53.7406C130.129 53.7406 131.075 53.4606 131.849 52.9006C132.649 52.314 133.142 51.5406 133.329 50.5806H136.569C136.409 51.7006 136.009 52.714 135.369 53.6206C134.729 54.5273 133.875 55.2473 132.809 55.7806C131.742 56.2873 130.489 56.5406 129.049 56.5406ZM124.369 46.7006H133.249C133.222 46.4073 133.142 46.0206 133.009 45.5406C132.902 45.0606 132.689 44.594 132.369 44.1406C132.049 43.6606 131.609 43.2606 131.049 42.9406C130.489 42.6206 129.769 42.4606 128.889 42.4606C128.089 42.4606 127.409 42.594 126.849 42.8606C126.289 43.1273 125.835 43.4873 125.489 43.9406C125.142 44.3673 124.875 44.834 124.689 45.3406C124.529 45.8206 124.422 46.274 124.369 46.7006ZM138.49 56.1406V39.7806H141.57L141.85 44.5006L141.81 48.0206V56.1406H138.49ZM141.81 48.7806L141.69 45.1806C141.717 44.594 141.85 43.994 142.09 43.3806C142.33 42.7406 142.69 42.154 143.17 41.6206C143.677 41.0606 144.317 40.6206 145.09 40.3006C145.89 39.954 146.85 39.7806 147.97 39.7806H148.65V43.4606H147.93C146.73 43.4606 145.73 43.5806 144.93 43.8206C144.13 44.034 143.503 44.3673 143.05 44.8206C142.597 45.274 142.277 45.834 142.09 46.5006C141.903 47.1673 141.81 47.9273 141.81 48.7806ZM161.404 56.1406H158.124V33.6206H173.924V36.5006H161.404V42.8606H171.124V45.6206H161.404V56.1406ZM180.066 56.5006C178.573 56.5006 177.346 56.1406 176.386 55.4206C175.453 54.7006 174.76 53.714 174.306 52.4606C173.88 51.2073 173.666 49.7673 173.666 48.1406C173.666 46.4606 173.893 44.994 174.346 43.7406C174.8 42.4606 175.493 41.4606 176.426 40.7406C177.386 40.0206 178.6 39.6606 180.066 39.6606C180.973 39.6606 181.746 39.794 182.386 40.0606C183.026 40.3006 183.56 40.6073 183.986 40.9806C184.413 41.354 184.76 41.7406 185.026 42.1406C185.293 42.514 185.48 42.8473 185.586 43.1406H185.666V39.7806H189.066V56.1406H186.226L185.666 53.2206H185.586C185.48 53.514 185.293 53.8473 185.026 54.2206C184.76 54.594 184.4 54.954 183.946 55.3006C183.52 55.6473 182.986 55.9273 182.346 56.1406C181.706 56.3806 180.946 56.5006 180.066 56.5006ZM181.386 53.6606C182.453 53.6606 183.293 53.434 183.906 52.9806C184.52 52.5006 184.96 51.8473 185.226 51.0206C185.493 50.194 185.626 49.2473 185.626 48.1806C185.626 47.034 185.48 46.0473 185.186 45.2206C184.92 44.394 184.48 43.7673 183.866 43.3406C183.253 42.8873 182.426 42.6606 181.386 42.6606C180.293 42.6606 179.413 42.914 178.746 43.4206C178.106 43.9006 177.64 44.554 177.346 45.3806C177.08 46.2073 176.946 47.1273 176.946 48.1406C176.946 49.1806 177.08 50.1273 177.346 50.9806C177.64 51.8073 178.106 52.4606 178.746 52.9406C179.413 53.4206 180.293 53.6606 181.386 53.6606ZM197.244 56.5406C196.497 56.5406 195.764 56.434 195.044 56.2206C194.35 56.034 193.697 55.754 193.084 55.3806C192.497 55.0073 191.964 54.5806 191.484 54.1006C191.03 53.6206 190.67 53.1006 190.404 52.5406C190.164 51.954 190.044 51.3406 190.044 50.7006H193.164C193.164 50.7273 193.177 50.914 193.204 51.2606C193.257 51.6073 193.404 52.0073 193.644 52.4606C193.884 52.8873 194.27 53.2606 194.804 53.5806C195.364 53.9006 196.15 54.0606 197.164 54.0606C197.937 54.0606 198.59 53.9673 199.124 53.7806C199.684 53.594 200.11 53.3406 200.404 53.0206C200.697 52.674 200.83 52.2606 200.804 51.7806C200.804 51.114 200.55 50.594 200.044 50.2206C199.537 49.8473 198.884 49.554 198.084 49.3406C197.284 49.1006 196.444 48.874 195.564 48.6606C194.684 48.4473 193.844 48.1673 193.044 47.8206C192.244 47.4473 191.59 46.954 191.084 46.3406C190.604 45.7006 190.377 44.8473 190.404 43.7806C190.404 42.3406 191.004 41.234 192.204 40.4606C193.43 39.6606 194.977 39.2606 196.844 39.2606C197.75 39.2606 198.63 39.3673 199.484 39.5806C200.337 39.794 201.097 40.1273 201.764 40.5806C202.457 41.034 203.004 41.634 203.404 42.3806C203.83 43.1273 204.03 44.0473 204.004 45.1406H200.924C200.95 44.4473 200.83 43.8873 200.564 43.4606C200.324 43.034 199.99 42.714 199.564 42.5006C199.137 42.2606 198.684 42.1006 198.204 42.0206C197.75 41.914 197.31 41.8606 196.884 41.8606C195.817 41.8606 194.977 42.0606 194.364 42.4606C193.75 42.834 193.444 43.3406 193.444 43.9806C193.444 44.6473 193.697 45.1673 194.204 45.5406C194.71 45.914 195.364 46.2073 196.164 46.4206C196.964 46.634 197.817 46.8473 198.724 47.0606C199.63 47.274 200.484 47.5673 201.284 47.9406C202.084 48.2873 202.737 48.7806 203.244 49.4206C203.75 50.0606 204.004 50.914 204.004 51.9806C204.004 53.0206 203.71 53.874 203.124 54.5406C202.564 55.2073 201.777 55.714 200.764 56.0606C199.75 56.3806 198.577 56.5406 197.244 56.5406ZM209.891 56.1406C208.771 56.1406 207.944 55.8473 207.411 55.2606C206.877 54.674 206.611 53.7806 206.611 52.5806V41.7806H209.771V53.5006H213.571V56.1406H209.891ZM204.091 42.1806V39.7806C204.704 39.7806 205.197 39.7406 205.571 39.6606C205.971 39.5806 206.264 39.4206 206.451 39.1806C206.664 38.914 206.811 38.5006 206.891 37.9406C206.971 37.354 207.011 36.5673 207.011 35.5806H209.771V39.7806H213.531V42.1806H204.091Z" fill="white"/>
<path d="M49.705 40.5143H38.084V24.6406L24.2734 48.7669H35.8945V64.6406L49.705 40.5143Z" fill="white"/>
</svg>
