<svg width="309" height="120" viewBox="0 0 309 120" fill="none" xmlns="http://www.w3.org/2000/svg">
<path d="M308.428 0.947644L307.415 89.5117L70.8118 90.1358L40.7601 119.517L36.3397 119.369L36.047 89.7411L0.730713 89.3437L1.73933 0.771484L308.428 0.947644Z" fill="#A1D0E6"/>
<path d="M87.6233 56.6426L95.1833 34.1226H100.663L108.383 56.6426H104.823L97.9833 35.5226L91.1433 56.6426H87.6233ZM92.2233 49.9226L92.3433 47.2826H103.543L103.703 49.9226H92.2233ZM119.513 40.2826H122.793V40.8826L116.913 56.6426H112.233L106.313 40.9226V40.2826H109.553L114.593 53.8826H114.673L119.513 40.2826ZM129.301 57.0026C127.807 57.0026 126.581 56.6426 125.621 55.9226C124.687 55.2026 123.994 54.2159 123.541 52.9626C123.114 51.7092 122.901 50.2692 122.901 48.6426C122.901 46.9626 123.127 45.4959 123.581 44.2426C124.034 42.9626 124.727 41.9626 125.661 41.2426C126.621 40.5226 127.834 40.1626 129.301 40.1626C130.207 40.1626 130.981 40.2959 131.621 40.5626C132.261 40.8026 132.794 41.1092 133.221 41.4826C133.647 41.8559 133.994 42.2426 134.261 42.6426C134.527 43.0159 134.714 43.3492 134.821 43.6426H134.901V40.2826H138.301V56.6426H135.461L134.901 53.7226H134.821C134.714 54.0159 134.527 54.3492 134.261 54.7226C133.994 55.0959 133.634 55.4559 133.181 55.8026C132.754 56.1492 132.221 56.4292 131.581 56.6426C130.941 56.8826 130.181 57.0026 129.301 57.0026ZM130.621 54.1626C131.687 54.1626 132.527 53.9359 133.141 53.4826C133.754 53.0026 134.194 52.3492 134.461 51.5226C134.727 50.6959 134.861 49.7492 134.861 48.6826C134.861 47.5359 134.714 46.5492 134.421 45.7226C134.154 44.8959 133.714 44.2692 133.101 43.8426C132.487 43.3892 131.661 43.1626 130.621 43.1626C129.527 43.1626 128.647 43.4159 127.981 43.9226C127.341 44.4026 126.874 45.0559 126.581 45.8826C126.314 46.7092 126.181 47.6292 126.181 48.6426C126.181 49.6826 126.314 50.6292 126.581 51.4826C126.874 52.3092 127.341 52.9626 127.981 53.4426C128.647 53.9226 129.527 54.1626 130.621 54.1626ZM140.158 56.6426V40.2826H143.478V56.6426H140.158ZM141.838 38.0026C141.065 38.0026 140.531 37.8026 140.238 37.4026C139.971 37.0026 139.838 36.5359 139.838 36.0026C139.838 35.4959 139.971 35.0559 140.238 34.6826C140.531 34.2826 141.065 34.0826 141.838 34.0826C142.611 34.0826 143.118 34.2826 143.358 34.6826C143.625 35.0559 143.758 35.4959 143.758 36.0026C143.758 36.5359 143.625 37.0026 143.358 37.4026C143.118 37.8026 142.611 38.0026 141.838 38.0026ZM145.862 56.6426V34.1226H149.142V56.6426H145.862ZM156.727 57.0026C155.234 57.0026 154.007 56.6426 153.047 55.9226C152.114 55.2026 151.421 54.2159 150.967 52.9626C150.541 51.7092 150.327 50.2692 150.327 48.6426C150.327 46.9626 150.554 45.4959 151.007 44.2426C151.461 42.9626 152.154 41.9626 153.087 41.2426C154.047 40.5226 155.261 40.1626 156.727 40.1626C157.634 40.1626 158.407 40.2959 159.047 40.5626C159.687 40.8026 160.221 41.1092 160.647 41.4826C161.074 41.8559 161.421 42.2426 161.687 42.6426C161.954 43.0159 162.141 43.3492 162.247 43.6426H162.327V40.2826H165.727V56.6426H162.887L162.327 53.7226H162.247C162.141 54.0159 161.954 54.3492 161.687 54.7226C161.421 55.0959 161.061 55.4559 160.607 55.8026C160.181 56.1492 159.647 56.4292 159.007 56.6426C158.367 56.8826 157.607 57.0026 156.727 57.0026ZM158.047 54.1626C159.114 54.1626 159.954 53.9359 160.567 53.4826C161.181 53.0026 161.621 52.3492 161.887 51.5226C162.154 50.6959 162.287 49.7492 162.287 48.6826C162.287 47.5359 162.141 46.5492 161.847 45.7226C161.581 44.8959 161.141 44.2692 160.527 43.8426C159.914 43.3892 159.087 43.1626 158.047 43.1626C156.954 43.1626 156.074 43.4159 155.407 43.9226C154.767 44.4026 154.301 45.0559 154.007 45.8826C153.741 46.7092 153.607 47.6292 153.607 48.6426C153.607 49.6826 153.741 50.6292 154.007 51.4826C154.301 52.3092 154.767 52.9626 155.407 53.4426C156.074 53.9226 156.954 54.1626 158.047 54.1626ZM176.585 57.0426C175.571 57.0426 174.705 56.8826 173.985 56.5626C173.265 56.2159 172.678 55.8159 172.225 55.3626C171.771 54.9092 171.438 54.4959 171.225 54.1226C171.011 53.7226 170.878 53.4692 170.825 53.3626H170.745L170.225 56.6426H167.345V34.1226H170.785V44.1226H170.865C170.891 44.0159 170.998 43.7626 171.185 43.3626C171.398 42.9626 171.718 42.5226 172.145 42.0426C172.571 41.5626 173.145 41.1492 173.865 40.8026C174.611 40.4559 175.518 40.2826 176.585 40.2826C178.185 40.2826 179.491 40.6426 180.505 41.3626C181.518 42.0559 182.278 43.0426 182.785 44.3226C183.291 45.5759 183.545 47.0426 183.545 48.7226C183.545 50.3492 183.291 51.7892 182.785 53.0426C182.305 54.2959 181.545 55.2826 180.505 56.0026C179.491 56.6959 178.185 57.0426 176.585 57.0426ZM175.625 54.1626C176.798 54.1626 177.718 53.9092 178.385 53.4026C179.078 52.8692 179.558 52.1892 179.825 51.3626C180.118 50.5092 180.265 49.6159 180.265 48.6826C180.265 47.7492 180.105 46.8692 179.785 46.0426C179.491 45.2159 178.985 44.5492 178.265 44.0426C177.571 43.5359 176.638 43.2826 175.465 43.2826C174.451 43.2826 173.598 43.5092 172.905 43.9626C172.211 44.3892 171.691 45.0159 171.345 45.8426C170.998 46.6692 170.825 47.6159 170.825 48.6826C170.825 49.7759 170.998 50.7359 171.345 51.5626C171.718 52.3892 172.265 53.0292 172.985 53.4826C173.705 53.9359 174.585 54.1626 175.625 54.1626ZM185.359 56.6426V34.1226H188.639V56.6426H185.359ZM198.064 57.0426C196.224 57.0426 194.718 56.6426 193.544 55.8426C192.371 55.0159 191.504 53.9626 190.944 52.6826C190.384 51.3759 190.104 50.0292 190.104 48.6426C190.078 47.0692 190.371 45.6426 190.984 44.3626C191.624 43.0826 192.531 42.0692 193.704 41.3226C194.904 40.5759 196.331 40.2026 197.984 40.2026C199.424 40.2026 200.704 40.5226 201.824 41.1626C202.944 41.7759 203.838 42.6559 204.504 43.8026C205.171 44.9226 205.531 46.2559 205.584 47.8026C205.611 47.8826 205.624 48.0426 205.624 48.2826C205.624 48.4959 205.624 48.6826 205.624 48.8426H193.264C193.264 50.5492 193.678 51.8826 194.504 52.8426C195.358 53.7759 196.531 54.2426 198.024 54.2426C199.144 54.2426 200.091 53.9626 200.864 53.4026C201.664 52.8159 202.158 52.0426 202.344 51.0826H205.584C205.424 52.2026 205.024 53.2159 204.384 54.1226C203.744 55.0292 202.891 55.7492 201.824 56.2826C200.758 56.7892 199.504 57.0426 198.064 57.0426ZM193.384 47.2026H202.264C202.238 46.9092 202.158 46.5226 202.024 46.0426C201.918 45.5626 201.704 45.0959 201.384 44.6426C201.064 44.1626 200.624 43.7626 200.064 43.4426C199.504 43.1226 198.784 42.9626 197.904 42.9626C197.104 42.9626 196.424 43.0959 195.864 43.3626C195.304 43.6292 194.851 43.9892 194.504 44.4426C194.158 44.8692 193.891 45.3359 193.704 45.8426C193.544 46.3226 193.438 46.7759 193.384 47.2026ZM214.807 56.6426V53.8826C214.834 53.8559 215.087 53.6959 215.567 53.4026C216.074 53.1092 216.727 52.7092 217.527 52.2026C218.327 51.6959 219.194 51.1092 220.127 50.4426C221.087 49.7492 222.034 49.0159 222.967 48.2426C223.9 47.4692 224.74 46.6692 225.487 45.8426C226.26 44.9892 226.86 44.1492 227.287 43.3226C227.927 42.0159 228.127 40.8692 227.887 39.8826C227.647 38.8959 227.1 38.1226 226.247 37.5626C225.42 36.9759 224.394 36.6826 223.167 36.6826C221.674 36.7092 220.46 37.2026 219.527 38.1626C218.62 39.0959 218.247 40.5359 218.407 42.4826L215.327 42.0826C215.22 40.3759 215.5 38.9092 216.167 37.6826C216.834 36.4559 217.807 35.5226 219.087 34.8826C220.367 34.2426 221.847 33.9226 223.527 33.9226C224.967 33.9226 226.247 34.1892 227.367 34.7226C228.514 35.2292 229.42 35.9359 230.087 36.8426C230.754 37.7492 231.127 38.8026 231.207 40.0026C231.287 41.1759 231.007 42.4159 230.367 43.7226C229.86 44.6826 229.154 45.6426 228.247 46.6026C227.367 47.5626 226.394 48.4559 225.327 49.2826C224.26 50.1092 223.22 50.8426 222.207 51.4826C221.22 52.1226 220.367 52.6426 219.647 53.0426C218.927 53.4426 218.46 53.6826 218.247 53.7626H231.647V56.6426H214.807ZM232.961 52.0426V49.1626C234.268 48.5759 235.468 47.7226 236.561 46.6026C237.681 45.4826 238.641 44.2159 239.441 42.8026C240.241 41.3626 240.855 39.8959 241.281 38.4026C241.735 36.9092 241.961 35.4826 241.961 34.1226H245.521C245.521 35.9359 245.135 37.7759 244.361 39.6426C243.588 41.5092 242.521 43.2692 241.161 44.9226C239.801 46.5759 238.215 47.9892 236.401 49.1626H250.881V52.0426H232.961ZM244.601 56.6426V45.4026H247.921V56.6426H244.601ZM251.671 56.6426L261.831 34.1226H265.031L254.871 56.6426H251.671ZM268.672 56.6426C268.672 53.5492 269.112 50.7759 269.992 48.3226C270.899 45.8426 272.125 43.6559 273.672 41.7626C275.245 39.8692 277.032 38.2826 279.032 37.0026H265.712V34.1226H282.232V36.9226C281.592 37.3492 280.832 37.9092 279.952 38.6026C279.099 39.2692 278.205 40.1226 277.272 41.1626C276.339 42.2026 275.472 43.4559 274.672 44.9226C273.872 46.3626 273.219 48.0559 272.712 50.0026C272.232 51.9226 271.992 54.1359 271.992 56.6426H268.672Z" fill="black"/>
<path d="M45.5753 59.9842L44.1939 58.6625C43.6157 58.7222 43.0237 58.7543 42.4317 58.7543C33.5698 58.7543 26.3784 51.563 26.3784 42.7149C26.3784 33.8668 33.5698 26.6616 42.4317 26.6616C51.2798 26.6616 58.4849 33.8714 58.4849 42.7149C58.4849 45.886 57.5441 48.9654 55.7818 51.6088L58.9117 48.814C59.623 46.8727 60.0039 44.8213 60.0039 42.7149C60.0039 33.0178 52.115 25.1426 42.4317 25.1426C32.7345 25.1426 24.8594 33.0178 24.8594 42.7149C24.8594 52.3936 32.7345 60.2734 42.4317 60.2734C43.5101 60.2688 44.5565 60.1816 45.5753 59.9842Z" fill="black"/>
<path d="M70.4307 49.695L65.8919 44.6101L53.8451 55.3857C53.5422 55.6427 53.0879 55.6427 52.8125 55.3719L48.2279 50.9708L43.4963 55.8859L46.2866 58.5706L46.3325 58.6028L53.1476 65.1425L70.4307 49.695Z" fill="black"/>
<path d="M42.4271 30.3376C42.8447 30.3376 43.1843 29.998 43.1843 29.5803V27.4601C43.1843 27.0425 42.8447 26.7029 42.4271 26.7029C42.0095 26.7029 41.6698 27.0425 41.6698 27.4601V29.5803C41.6653 29.998 42.0049 30.3376 42.4271 30.3376Z" fill="black"/>
<path d="M27.1769 41.9531C26.7593 41.9531 26.4197 42.2927 26.4197 42.7104C26.4197 43.128 26.7593 43.4676 27.1769 43.4676H29.2971C29.7148 43.4676 30.0544 43.128 30.0544 42.7104C30.0544 42.2927 29.7148 41.9531 29.2971 41.9531H27.1769Z" fill="black"/>
<path d="M58.4436 42.7104C58.4436 42.2927 58.104 41.9531 57.6864 41.9531H55.5616C55.1439 41.9531 54.8043 42.2927 54.8043 42.7104C54.8043 43.128 55.1439 43.4676 55.5616 43.4676H57.6864C58.104 43.4676 58.4436 43.128 58.4436 42.7104Z" fill="black"/>
<path d="M38.6226 47.7357C38.7603 47.8412 38.9255 47.8871 39.077 47.8871C39.3064 47.8871 39.5313 47.7953 39.6828 47.598L41.9131 44.6379C42.0783 44.6838 42.2481 44.7159 42.4271 44.7159C43.5194 44.7159 44.4143 43.8073 44.4143 42.715C44.4143 41.8798 43.9003 41.1684 43.1844 40.8656V33.3529C43.1844 32.9261 42.8356 32.5957 42.4271 32.5957C42.0003 32.5957 41.6699 32.9307 41.6699 33.3529V40.8656C40.9402 41.1684 40.4262 41.8844 40.4262 42.715C40.4262 43.0776 40.5318 43.4126 40.7153 43.7155L38.4712 46.6756C38.228 47.0106 38.2922 47.4924 38.6226 47.7357Z" fill="black"/>
</svg>
