<svg width="244" height="166" viewBox="0 0 244 166" fill="none" xmlns="http://www.w3.org/2000/svg">
<path d="M243.085 115.934H127.066L126.158 113.422L121.486 100.564H221.203L218.934 94.3344L213.355 78.9641L207.775 63.5938L203.719 52.4145H188.295L182.716 37.0347H214.452L220.031 52.4145L224.088 63.5938L229.667 78.9641L235.246 94.3344L237.506 100.564L243.085 115.934Z" fill="#17235D"/>
<path d="M135.971 131.302L134.307 135.882L132.491 140.879L124.567 162.707L123.432 165.826H109.39L108.264 162.716L100.33 140.879L96.86 131.302L85.7015 100.562L83.4414 94.332H99.7442L102.004 100.562L113.163 131.302L116.416 140.253L116.189 140.879H116.643L116.416 140.253L119.659 131.302H135.971Z" fill="#17235D"/>
<path d="M181.609 78.9662H77.8636L75.2914 71.8737L72.2843 63.5959H143.415H144.238H159.727L155.67 52.4166L151.982 42.2614L150.091 37.0368L142.299 15.5695H21.882L29.674 37.0368L35.2627 52.4166L39.3195 63.5959L44.8987 78.9662L50.478 94.3365L52.738 100.566L58.3173 115.937L58.809 117.283L59.2913 115.937L64.8705 100.566L67.1401 94.3365H83.4428L81.1827 100.566L75.6035 115.937L70.0243 131.307L66.9604 139.746L66.5443 140.884H51.0643L50.6482 139.746L47.5843 131.307L42.0051 115.937L36.4258 100.566L34.1658 94.3365L28.5865 78.9662L23.0073 63.5959L18.9505 52.4166L13.3713 37.0368L5.57925 15.5695L0 0.199219H153.023L158.602 15.5695L160.134 19.7985L166.394 37.0368L168.295 42.2709L171.973 52.4166L176.03 63.5959H176.039L181.609 78.9662Z" fill="#17235D"/>
<path d="M62.6484 37.0449H133.911L139.358 52.4152H68.2277L62.6484 37.0449Z" fill="#17235D"/>
</svg>
