<svg width="103" height="99" viewBox="0 0 103 99" fill="none" xmlns="http://www.w3.org/2000/svg">
<g clip-path="url(#clip0_109_8749)">
<path d="M78.3865 9.90886L95.5873 57.6686L62.9143 70.3261L52.6418 92.1005L50.2372 92.9019L44.144 77.0512L25.0674 83.8868L7.86658 36.1271L78.3865 9.90886Z" fill="#FDA813"/>
<path d="M30.4921 47.7154L28.8255 43.0831C28.527 42.2375 28.1943 41.6985 27.8507 41.4584C27.5072 41.2183 27.1111 41.1819 26.6751 41.3399C26.2048 41.504 25.9164 41.7952 25.8005 42.201C25.6847 42.6068 25.7814 43.2333 26.0799 44.0789L27.1294 47.0058C27.5095 48.0527 28.1495 48.9267 29.0509 49.6167C29.9631 50.3083 30.9505 50.9443 32.0038 51.5122C32.7305 51.8758 33.4539 52.2612 34.1835 52.681C34.913 53.1007 35.6017 53.57 36.2699 54.103C36.938 54.6361 37.548 55.2607 38.1014 55.966C38.6548 56.6713 39.1093 57.5177 39.4632 58.5162L40.4018 61.1373C41.1759 63.2889 41.2326 65.0893 40.5626 66.526C39.8926 67.9628 38.6443 69.0134 36.8066 69.6761C34.9689 70.3389 33.3436 70.3207 31.9274 69.6435C30.5112 68.9663 29.4185 67.5355 28.6275 65.3481L27.1671 61.2806L31.5831 59.6975L33.2497 64.3298C33.5668 65.2004 33.9088 65.7519 34.2649 65.9828C34.6319 66.2152 35.0514 66.244 35.5577 66.063C36.0171 65.8973 36.3164 65.6077 36.4557 65.1942C36.5825 64.7901 36.4999 64.1434 36.1828 63.2728L35.1333 60.3458C34.9303 59.7592 34.6271 59.2468 34.2252 58.7978C33.8343 58.3503 33.3747 57.9149 32.8541 57.515C32.3226 57.1135 31.7645 56.7414 31.1687 56.3972C30.573 56.0529 29.9505 55.7381 29.3156 55.4326C28.6904 55.0617 28.0542 54.6893 27.3994 54.2917C26.743 53.9051 26.14 53.4596 25.5575 52.9504C24.9844 52.4537 24.4568 51.8747 23.9968 51.2166C23.5367 50.5585 23.138 49.7871 22.804 48.8806L21.8499 46.2127C21.0759 44.0612 21.0176 42.2717 21.6734 40.8551C22.3293 39.4385 23.5651 38.3972 25.3777 37.753C27.1904 37.1088 28.7829 37.122 30.1866 37.8086C31.5793 38.4935 32.6737 39.9133 33.4477 42.0648L34.9098 46.1214L30.4938 47.7045L30.4921 47.7154Z" fill="white"/>
<path d="M42.8681 36.2801L38.9818 37.6746L42.5691 47.6334L46.196 46.3341L47.4841 49.9086L43.8572 51.2079L47.4138 61.0731L51.7001 59.5376L52.9866 63.1229L44.2843 66.2416L33.2793 35.6723L41.5925 32.6964L42.8806 36.2708L42.8681 36.2801Z" fill="white"/>
<path d="M66.8457 58.164L61.5108 60.0785L50.9671 41.0753L49.3078 38.1248L49.0843 38.2031L50.4842 41.2487L58.7559 61.0617L54.3399 62.6449L43.335 32.0756L48.6698 30.1611L58.9766 48.5059L60.5874 51.4826L60.7955 51.3576L59.4424 48.2966L51.4247 29.1779L55.8407 27.5948L66.8457 58.164Z" fill="white"/>
<path d="M69.8939 26.5932L66.4905 27.8143L76.2073 54.8091L71.7913 56.3922L62.0745 29.3974L58.707 30.6016L57.4189 27.0271L68.6183 23.0095L69.9048 26.5948L69.8939 26.5932Z" fill="white"/>
</g>
<defs>
<clipPath id="clip0_109_8749">
<rect width="89.9303" height="86.2218" fill="white" transform="translate(13.1807 0.250488) rotate(8.42546)"/>
</clipPath>
</defs>
</svg>
