<svg width="545" height="337" viewBox="0 0 545 337" fill="none" xmlns="http://www.w3.org/2000/svg">
<path d="M268.381 89.5697L511.407 394.016L244.009 523.566L0.983643 219.107L268.381 89.5697Z" fill="#A1D0E6" stroke="black" stroke-width="0.25" stroke-miterlimit="10"/>
<path d="M244.009 523.567L243.755 527.467L0.72876 223.021L0.983557 219.108L244.009 523.567Z" fill="#0D67AA" stroke="black" stroke-width="0.25" stroke-miterlimit="10"/>
<path opacity="0.26" d="M77.5762 181.997L55.8037 193.162L274.586 508.747L77.5762 181.997Z" fill="black"/>
<path d="M107.909 241.744C110.979 245.504 112.483 248.92 112.406 251.991C112.343 255.075 110.597 257.624 107.183 259.663L75.053 278.819C71.7024 280.82 68.3646 281.355 65.0522 280.399C61.5105 279.328 58.2873 276.932 55.217 273.173C52.1467 269.426 50.6434 266.01 50.6816 262.952C50.7326 259.893 52.4652 257.344 55.8795 255.305L88.0094 236.149C91.411 234.123 94.7871 233.588 98.1122 234.531C101.628 235.601 104.852 237.985 107.922 241.744H107.909ZM104.189 248.219C104.431 247.199 104.011 246.027 102.928 244.701C101.998 243.567 101.042 242.853 100.036 242.573C99.8703 242.522 99.7047 242.496 99.539 242.471C98.3542 242.292 96.9528 242.687 95.3094 243.656L61.5997 263.767C60.0072 264.71 59.1154 265.692 58.8988 266.698C58.695 267.705 59.1154 268.878 60.1856 270.191C61.1156 271.325 62.0838 272.039 63.0903 272.332C63.2559 272.383 63.4088 272.408 63.5744 272.434C64.7592 272.612 66.1478 272.23 67.7276 271.287L101.45 251.175C103.042 250.232 103.947 249.238 104.176 248.219" fill="#FDFDFD"/>
<path d="M85.2192 213.909C88.2895 217.669 89.7801 221.084 89.7164 224.156C89.64 227.227 87.9074 229.776 84.4803 231.828L52.3631 250.983C48.987 252.997 45.6492 253.52 42.3241 252.564C38.8079 251.506 35.5847 249.11 32.5271 245.35C29.4568 241.591 27.9408 238.188 27.9917 235.129C28.0427 232.07 29.7626 229.521 33.1769 227.482L65.3068 208.327C68.7084 206.3 72.0717 205.752 75.3841 206.708C78.9257 207.779 82.1489 210.162 85.2192 213.922V213.909ZM81.4865 220.396C81.7158 219.364 81.3081 218.204 80.2252 216.878C79.2952 215.731 78.3142 215.018 77.3078 214.737C77.1549 214.686 77.002 214.661 76.8364 214.635C75.6516 214.457 74.2375 214.852 72.6068 215.833L38.8843 235.932C37.2918 236.875 36.4 237.869 36.1962 238.876C35.9796 239.883 36.4 241.042 37.4829 242.368C38.4129 243.502 39.3812 244.216 40.3876 244.496C40.5405 244.535 40.6934 244.573 40.859 244.598C42.0565 244.777 43.4325 244.394 45.0249 243.438L78.7346 223.34C80.3271 222.397 81.2444 221.416 81.4737 220.383" fill="#FDFDFD"/>
<path d="M130.624 269.578C133.695 273.338 135.198 276.766 135.121 279.825C135.058 282.896 133.312 285.445 129.885 287.484L97.7554 306.64C94.3921 308.653 91.0415 309.176 87.7291 308.22C84.2129 307.162 80.9898 304.766 77.9195 301.006C74.8491 297.247 73.3331 293.844 73.3841 290.785C73.435 287.726 75.1549 285.177 78.5819 283.151L110.699 263.983C114.101 261.957 117.477 261.409 120.776 262.364C124.331 263.435 127.541 265.818 130.612 269.578H130.624ZM126.892 276.065C127.121 275.045 126.713 273.873 125.63 272.547C124.7 271.4 123.732 270.699 122.713 270.406C122.56 270.355 122.394 270.33 122.241 270.304C121.057 270.126 119.643 270.521 118.012 271.502L84.3021 291.601C82.7096 292.544 81.8179 293.538 81.6013 294.545C81.3974 295.552 81.8178 296.711 82.9007 298.037C83.8307 299.171 84.799 299.885 85.8182 300.178C85.971 300.216 86.1239 300.255 86.2895 300.28C87.4744 300.458 88.8503 300.076 90.4427 299.12L124.165 279.022C125.745 278.066 126.662 277.085 126.892 276.065Z" fill="#FDFDFD"/>
<path d="M142.816 286.492L156.244 302.945L151.263 305.915L147.823 301.696L111.642 323.26L114.33 326.548L110.431 328.868C109.132 327.275 107.871 326.293 106.635 325.949C106.367 325.873 106.1 325.822 105.832 325.809C104.367 325.707 102.724 326.192 100.953 327.249L95.7422 320.851L141.3 293.692L137.847 289.461L142.829 286.492H142.816Z" fill="#FDFDFD"/>
<path d="M160.066 307.646L167.965 317.332L139.402 346.25L135.134 350.482L135.503 350.813L140.319 347.232L173.889 324.571L180.399 332.562L129.86 362.704L121.961 353.018L149.747 324.712L153.951 320.531L153.632 320.149L148.753 323.769L116.05 345.779L109.54 337.788L160.066 307.646Z" fill="#FDFDFD"/>
<path d="M319.634 50.0768L540.034 415.608L280.293 511.818L59.906 146.287L319.634 50.0768Z" fill="#FDA813" stroke="black" stroke-width="0.25" stroke-miterlimit="10"/>
<path d="M280.293 511.818L278.357 514.992L57.957 149.46L59.9062 146.287L280.293 511.818Z" fill="#FF834E" stroke="black" stroke-width="0.25" stroke-miterlimit="10"/>
<path d="M423.616 0.206299L544.785 433.081L309.301 496.206L188.132 63.3309L423.616 0.206299Z" fill="#17235D" stroke="black" stroke-width="0.25" stroke-miterlimit="10"/>
<path d="M309.302 496.206L305.378 497.379L184.209 64.5042L188.133 63.3317L309.302 496.206Z" fill="#0D67AA" stroke="black" stroke-width="0.25" stroke-miterlimit="10"/>
<path opacity="0.26" d="M193.28 96.8885L171.877 104.816L305.378 497.379L193.28 96.8885Z" fill="black"/>
<path d="M305.378 171.751L311.124 192.398L304.754 194.054L303.276 188.753L257.069 200.809L258.215 204.951L253.234 206.251C252.559 203.817 251.502 202.339 250.075 201.829C249.565 201.65 249.004 201.536 248.38 201.485C247.259 201.408 245.972 201.561 244.52 201.943L242.278 193.927L300.499 178.735L299.021 173.421L305.391 171.764L305.378 171.751Z" fill="#FAFAFA"/>
<path d="M312.767 198.312L316.156 210.457L274.115 232.2L267.859 235.348L268.089 235.794L274.561 233.474L318.679 219.544L321.469 229.574L256.89 246.436L253.501 234.277L294.473 212.942L300.639 209.833L300.512 209.361L293.938 211.706L250.992 225.203L248.189 215.173L312.767 198.312Z" fill="#FAFAFA"/>
<path d="M301.085 150.978C302.397 155.694 302.308 159.632 300.804 162.767C299.301 165.902 296.371 168.031 292.001 169.178L250.941 179.896C248.991 180.406 247.182 180.61 245.526 180.482C243.475 180.342 241.653 179.718 240.061 178.622C237.156 176.633 235.054 173.282 233.742 168.553C232.43 163.838 232.506 159.912 233.971 156.777C235.449 153.655 238.366 151.514 242.736 150.379L283.784 139.661C285.784 139.138 287.619 138.935 289.313 139.049C291.364 139.189 293.186 139.814 294.778 140.91C297.67 142.898 299.773 146.25 301.097 150.966L301.085 150.978ZM294.333 156.599C295.046 155.605 295.173 154.292 294.715 152.635C294.256 150.991 293.479 149.908 292.371 149.385C291.95 149.181 291.441 149.067 290.867 149.028C289.963 148.965 288.867 149.105 287.58 149.436L244.507 160.69C242.481 161.225 241.118 161.977 240.43 162.958C239.755 163.927 239.628 165.252 240.099 166.897C240.558 168.553 241.335 169.624 242.443 170.159C242.876 170.363 243.373 170.478 243.946 170.516C244.838 170.58 245.896 170.452 247.131 170.121L290.218 158.867C292.243 158.332 293.606 157.58 294.333 156.586" fill="#FAFAFA"/>
<path d="M281.631 81.1104C282.943 85.8259 282.854 89.7513 281.351 92.8865C279.86 96.0345 276.917 98.1628 272.547 99.3099L231.5 110.028C229.538 110.538 227.729 110.729 226.072 110.614C224.021 110.474 222.199 109.85 220.607 108.754C217.715 106.766 215.6 103.414 214.288 98.6854C212.976 93.9698 213.052 90.0444 214.53 86.922C215.995 83.7995 218.913 81.6584 223.282 80.5241L264.33 69.8058C266.33 69.2833 268.178 69.0794 269.859 69.1941C271.91 69.3342 273.72 69.946 275.312 71.042C278.217 73.043 280.319 76.3821 281.631 81.1104ZM274.892 86.7308C275.605 85.7367 275.72 84.424 275.261 82.7672C274.802 81.1104 274.025 80.0398 272.917 79.5045C272.496 79.3134 272 79.1859 271.439 79.1477C270.535 79.084 269.426 79.2242 268.139 79.5555L225.053 90.7964C223.028 91.3317 221.664 92.0836 220.976 93.0522C220.301 94.0335 220.187 95.3462 220.645 97.0031C221.104 98.6471 221.881 99.7304 222.989 100.253C223.423 100.457 223.932 100.584 224.505 100.623C225.397 100.686 226.442 100.546 227.678 100.227L270.764 88.9739C272.79 88.4386 274.165 87.6867 274.879 86.6926" fill="#FAFAFA"/>
<path d="M291.352 116.043C292.664 120.759 292.575 124.684 291.072 127.832C289.568 130.967 286.638 133.096 282.268 134.243L241.208 144.961C239.259 145.471 237.45 145.675 235.793 145.547C233.742 145.407 231.92 144.783 230.328 143.687C227.436 141.686 225.321 138.347 224.009 133.618C222.697 128.903 222.773 124.977 224.251 121.855C225.716 118.732 228.634 116.591 233.003 115.457L274.051 104.739C276.051 104.216 277.899 104.012 279.58 104.127C281.631 104.267 283.44 104.892 285.033 105.975C287.925 107.976 290.04 111.315 291.352 116.043ZM284.6 121.664C285.313 120.67 285.441 119.357 284.982 117.7C284.523 116.043 283.746 114.973 282.638 114.45C282.217 114.246 281.708 114.132 281.135 114.081C280.23 114.017 279.134 114.157 277.848 114.488L234.774 125.742C232.749 126.277 231.385 127.029 230.697 127.998C230.022 128.979 229.908 130.292 230.366 131.949C230.825 133.605 231.602 134.676 232.71 135.199C233.143 135.402 233.653 135.53 234.226 135.568C235.118 135.632 236.163 135.492 237.399 135.173L280.485 123.919C282.51 123.384 283.874 122.632 284.587 121.638" fill="#FAFAFA"/>
<path d="M200.159 222.576L210.835 241.017L205.216 243.528L202.477 238.787L161.684 256.974L163.825 260.657L159.429 262.619C158.257 260.619 157.009 259.421 155.658 259.038C155.544 259 155.429 258.974 155.302 258.962C153.811 258.707 152.078 259.013 150.066 259.905L145.912 252.742L197.28 229.827L194.54 225.086L200.159 222.576Z" fill="white"/>
<path d="M154.728 141.418C157.174 145.624 158.066 149.32 157.442 152.468C156.818 155.616 154.563 158.063 150.715 159.77L114.496 175.943C111.222 177.396 108.177 177.728 105.349 176.925C104.839 176.785 104.329 176.606 103.833 176.377C100.584 174.949 97.7429 172.133 95.3095 167.914C92.8635 163.708 91.9462 160.025 92.5577 156.877C93.1692 153.742 95.3987 151.308 99.2462 149.575L135.466 133.414C138.778 131.936 141.861 131.604 144.715 132.407C145.224 132.548 145.721 132.726 146.205 132.943C149.441 134.37 152.295 137.187 154.728 141.405V141.418ZM149.76 147.676C150.18 146.643 149.976 145.394 149.123 143.916C148.282 142.463 147.288 141.571 146.129 141.252C144.906 140.921 143.403 141.176 141.555 141.991L103.539 158.942C101.743 159.732 100.648 160.65 100.253 161.669C99.8449 162.689 100.074 163.925 100.928 165.416C101.769 166.869 102.762 167.761 103.909 168.08C105.145 168.424 106.623 168.169 108.419 167.379L146.435 150.428C148.231 149.626 149.339 148.708 149.76 147.676Z" fill="white"/>
<path d="M190.833 203.803C193.279 208.021 194.17 211.705 193.546 214.853C192.922 218.013 190.667 220.448 186.819 222.168L150.6 238.328C147.326 239.781 144.281 240.113 141.453 239.31C140.943 239.17 140.434 238.978 139.949 238.762C136.701 237.347 133.86 234.518 131.426 230.312C128.98 226.093 128.063 222.41 128.675 219.262C129.286 216.127 131.516 213.693 135.363 211.972L171.583 195.812C174.908 194.334 177.991 193.99 180.832 194.792C181.341 194.933 181.838 195.111 182.322 195.328C185.571 196.755 188.412 199.572 190.845 203.79L190.833 203.803ZM185.864 210.061C186.297 209.041 186.081 207.779 185.227 206.314C184.386 204.861 183.392 203.969 182.233 203.637C181.01 203.306 179.507 203.561 177.659 204.376L139.644 221.327C137.847 222.13 136.764 223.035 136.357 224.054C135.949 225.074 136.178 226.323 137.032 227.801C137.886 229.267 138.879 230.159 140.051 230.49C141.249 230.809 142.727 230.567 144.523 229.764L182.539 212.813C184.335 212.023 185.444 211.093 185.877 210.061" fill="white"/>
<path d="M213.893 246.295L220.173 257.14L185.789 283.739L180.667 287.626L180.986 288.008L186.553 284.873L224.874 265.259L230.047 274.218L173.074 299.644L166.793 288.785L200.248 262.71L205.293 258.861L205.051 258.453L199.407 261.626L162.092 280.667L156.907 271.708L213.893 246.295Z" fill="white"/>
<path d="M172.781 172.605C175.227 176.824 176.119 180.507 175.495 183.668C174.871 186.816 172.616 189.263 168.768 190.97L132.549 207.131C129.275 208.596 126.217 208.915 123.389 208.112C122.879 207.972 122.382 207.793 121.898 207.577C118.649 206.149 115.808 203.32 113.375 199.114C110.929 194.896 110.012 191.225 110.611 188.065C111.222 184.929 113.452 182.495 117.299 180.775L153.519 164.614C156.844 163.123 159.927 162.792 162.768 163.595C163.265 163.735 163.761 163.913 164.245 164.13C167.494 165.557 170.335 168.387 172.781 172.592V172.605ZM167.813 178.876C168.233 177.843 168.016 176.582 167.176 175.116C166.322 173.65 165.328 172.758 164.156 172.427C162.959 172.108 161.455 172.363 159.608 173.179L121.592 190.142C119.796 190.932 118.7 191.85 118.306 192.857C117.898 193.876 118.127 195.125 118.981 196.604C119.834 198.069 120.828 198.961 121.987 199.28C123.198 199.599 124.675 199.369 126.472 198.566L164.488 181.603C166.284 180.813 167.392 179.895 167.825 178.863" fill="white"/>
</svg>
