<svg width="40" height="41" viewBox="0 0 40 41" fill="none" xmlns="http://www.w3.org/2000/svg">
<path d="M28.3333 27.0649H31.6667V7.0649H15V10.3982H28.3333V27.0649ZM28.3333 30.3982V35.3982C28.3333 36.3182 27.5833 37.0649 26.655 37.0649H6.67833C6.45854 37.0662 6.24066 37.0241 6.0372 36.9409C5.83375 36.8578 5.64872 36.7353 5.49276 36.5804C5.33681 36.4255 5.21299 36.2414 5.12842 36.0385C5.04386 35.8356 5.00022 35.618 5 35.3982L5.005 12.0649C5.005 11.1449 5.755 10.3982 6.68333 10.3982H11.6667V5.39823C11.6667 4.95621 11.8423 4.53228 12.1548 4.21972C12.4674 3.90716 12.8913 3.73157 13.3333 3.73157H33.3333C33.7754 3.73157 34.1993 3.90716 34.5118 4.21972C34.8244 4.53228 35 4.95621 35 5.39823V28.7316C35 29.1736 34.8244 29.5975 34.5118 29.9101C34.1993 30.2226 33.7754 30.3982 33.3333 30.3982H28.3333ZM11.6667 27.0649V30.3982H15V32.0649H18.3333V30.3982H19.1667C20.2717 30.3982 21.3315 29.9592 22.1129 29.1778C22.8943 28.3964 23.3333 27.3366 23.3333 26.2316C23.3333 25.1265 22.8943 24.0667 22.1129 23.2853C21.3315 22.5039 20.2717 22.0649 19.1667 22.0649H14.1667C13.9457 22.0649 13.7337 21.9771 13.5774 21.8208C13.4211 21.6645 13.3333 21.4526 13.3333 21.2316C13.3333 21.0106 13.4211 20.7986 13.5774 20.6423C13.7337 20.486 13.9457 20.3982 14.1667 20.3982H21.6667V17.0649H18.3333V15.3982H15V17.0649H14.1667C13.0616 17.0649 12.0018 17.5039 11.2204 18.2853C10.439 19.0667 10 20.1265 10 21.2316C10 22.3366 10.439 23.3964 11.2204 24.1778C12.0018 24.9592 13.0616 25.3982 14.1667 25.3982H19.1667C19.3877 25.3982 19.5996 25.486 19.7559 25.6423C19.9122 25.7986 20 26.0106 20 26.2316C20 26.4526 19.9122 26.6645 19.7559 26.8208C19.5996 26.9771 19.3877 27.0649 19.1667 27.0649H11.6667Z" fill="#17235D"/>
</svg>
