<svg width="242" height="231" viewBox="0 0 242 231" fill="none" xmlns="http://www.w3.org/2000/svg">
<path d="M37.6349 152.576C67.3802 187.36 128.137 194.399 173.346 168.297C218.554 142.196 231.091 92.8368 201.348 58.0438C171.603 23.2601 110.849 16.2113 65.6378 42.3224C20.4294 68.4243 7.89227 117.783 37.6349 152.576Z" fill="#F7E0BE" stroke="black" stroke-width="0.175375" stroke-miterlimit="10"/>
<path d="M195.057 76.9528C193.396 74.0513 191.393 71.2214 189.113 68.5519C183.288 61.7415 175.823 56.0914 166.912 51.7678C158.013 47.4376 148.085 44.6156 137.424 43.3874C115.205 40.8112 92.5593 45.3984 73.6676 56.305C41.4419 74.9139 28.9318 107.447 43.927 133.663C45.5887 136.564 47.5916 139.394 49.8715 142.064C55.6968 148.874 63.161 154.524 72.0721 158.848C80.9712 163.178 90.8991 166 101.56 167.228C123.779 169.804 146.425 165.217 165.317 154.311C197.542 135.702 210.053 103.168 195.057 76.9528Z" fill="white" stroke="black" stroke-width="0.175375" stroke-miterlimit="10"/>
<path d="M179.595 186.033C179.165 186.309 178.727 186.574 178.287 186.848C178.18 186.907 178.079 186.978 177.972 187.037C177.909 187.079 177.838 187.119 177.778 187.152C177.195 187.504 176.603 187.854 176.001 188.201C175.301 188.611 174.595 189.008 173.882 189.393C173.691 189.498 173.491 189.601 173.301 189.706C172.779 189.986 172.266 190.269 171.737 190.537C171.454 190.686 171.176 190.816 170.901 190.967C170.468 191.182 170.042 191.41 169.608 191.625C169.608 191.625 169.587 191.629 169.585 191.638C168.835 192.013 168.078 192.376 167.325 192.729C167.127 192.822 166.921 192.913 166.724 193.006C166.167 193.266 165.602 193.524 165.042 193.762C165.009 193.773 164.973 193.793 164.937 193.812C164.73 193.903 164.526 193.984 164.32 194.075C163.769 194.316 163.221 194.549 162.663 194.778C162.357 194.9 162.052 195.022 161.755 195.147C161.266 195.346 160.769 195.543 160.271 195.74C160.157 195.787 160.043 195.834 159.929 195.882C159.443 196.072 158.96 196.253 158.477 196.434C158.411 196.455 158.342 196.485 158.276 196.506C157.645 196.744 157.009 196.971 156.375 197.188C156.263 197.226 156.152 197.264 156.041 197.302C155.506 197.488 154.983 197.668 154.451 197.845C154.331 197.88 154.208 197.924 154.087 197.96C153.91 198.019 153.723 198.075 153.546 198.134C152.993 198.315 152.442 198.486 151.882 198.655C151.729 198.7 151.585 198.749 151.431 198.795C150.751 198.999 150.073 199.193 149.396 199.388C149.242 199.434 149.091 199.47 148.938 199.516C148.622 199.605 148.305 199.694 147.989 199.783C147.784 199.834 147.588 199.887 147.383 199.938C147.103 200.007 146.82 200.086 146.539 200.155C146.075 200.271 145.61 200.387 145.146 200.503C144.877 200.566 144.609 200.628 144.347 200.703C143.822 200.821 143.306 200.942 142.78 201.061C142.578 201.103 142.373 201.154 142.17 201.195C141.464 201.351 140.751 201.496 140.038 201.64C140.017 201.644 139.996 201.648 139.975 201.652C139.902 201.661 139.836 201.682 139.763 201.691C139.135 201.819 138.5 201.936 137.868 202.044C137.686 202.081 137.499 202.107 137.317 202.145C136.622 202.264 135.926 202.383 135.224 202.491C135.224 202.491 135.224 202.491 135.215 202.488C134.522 202.598 133.822 202.696 133.123 202.794C132.944 202.823 132.756 202.848 132.58 202.868C131.944 202.954 131.308 203.04 130.668 203.105C130.596 203.114 130.532 203.126 130.459 203.135C129.765 203.215 129.071 203.294 128.37 203.362C128.195 203.381 128.009 203.397 127.834 203.417C127.618 203.434 127.4 203.461 127.175 203.476C126.99 203.493 126.808 203.5 126.623 203.517C126.028 203.565 125.442 203.616 124.85 203.655C124.534 203.673 124.225 203.704 123.909 203.723C123.256 203.764 122.605 203.796 121.955 203.828C121.721 203.84 121.478 203.85 121.244 203.862C120.362 203.897 119.471 203.93 118.586 203.944C118.406 203.942 118.233 203.952 118.053 203.95C117.348 203.966 116.635 203.97 115.926 203.965C115.624 203.967 115.326 203.961 115.027 203.955C114.436 203.954 113.839 203.941 113.254 203.922C112.937 203.91 112.617 203.907 112.3 203.896C111.693 203.88 111.092 203.846 110.498 203.824C110.211 203.811 109.924 203.798 109.647 203.788C108.829 203.741 108.021 203.697 107.208 203.632C107.15 203.625 107.08 203.625 107.022 203.618C106.149 203.555 105.281 203.474 104.413 203.393C104.346 203.383 104.276 203.383 104.208 203.373C103.634 203.317 103.053 203.248 102.481 203.183C102.355 203.166 102.23 203.15 102.104 203.134C101.532 203.068 100.954 202.991 100.385 202.916C100.21 202.895 100.039 202.865 99.8737 202.848C99.2002 202.752 98.5267 202.657 97.8651 202.555C97.7793 202.541 97.6843 202.523 97.5984 202.508C97.0042 202.416 96.4127 202.314 95.8211 202.213C95.6495 202.183 95.4686 202.151 95.297 202.121C94.6315 201.998 93.9661 201.875 93.3006 201.752C93.2637 201.742 93.2267 201.731 93.1898 201.72C92.7264 201.626 92.263 201.531 91.7996 201.437C91.6584 201.406 91.5264 201.378 91.3851 201.347C91.0934 201.282 90.8017 201.217 90.5099 201.153C90.0954 201.063 89.6743 200.96 89.2598 200.87C88.9681 200.806 88.6698 200.729 88.3807 200.655C87.9689 200.556 87.5598 200.447 87.1387 200.345C86.8524 200.262 86.5607 200.197 86.2716 200.123C85.8532 200.012 85.4349 199.9 85.0192 199.78C84.742 199.699 84.4649 199.619 84.197 199.541C84.1046 199.514 84.0123 199.487 83.9199 199.46C83.3749 199.302 82.8391 199.147 82.2968 198.979C82.2321 198.96 82.1767 198.944 82.1121 198.926C81.5236 198.745 80.947 198.557 80.3704 198.37C80.1856 198.316 79.997 198.241 79.8123 198.188C79.3096 198.022 78.8188 197.849 78.3188 197.674C78.171 197.631 78.0194 197.567 77.8743 197.514C77.8096 197.496 77.7449 197.477 77.683 197.449C77.1395 197.251 76.596 197.053 76.0552 196.846C75.9193 196.796 75.7927 196.75 75.6595 196.691C75.1002 196.478 74.5343 196.254 73.9777 196.032C73.9038 196.01 73.8326 195.98 73.7707 195.952C73.3038 195.766 72.8395 195.571 72.3753 195.376C72.2856 195.34 72.1986 195.295 72.1089 195.258C71.5827 195.035 71.05 194.8 70.5265 194.568C70.3128 194.476 70.09 194.381 69.879 194.28C69.1446 193.946 68.4128 193.603 67.693 193.254C67.6745 193.248 67.6652 193.246 67.6468 193.24C67.4543 193.144 67.2711 193.051 67.0878 192.958C66.6159 192.72 66.132 192.489 65.6627 192.243C65.4017 192.107 65.15 191.973 64.889 191.837C64.4817 191.619 64.0625 191.407 63.6579 191.179C63.6052 191.154 63.5524 191.128 63.5024 191.094C63.2506 190.96 63.0135 190.811 62.7617 190.678C62.4164 190.487 62.0711 190.297 61.7285 190.097C61.4293 189.92 61.1302 189.742 60.8403 189.568C60.5069 189.371 60.1643 189.171 59.8336 188.964C59.7651 188.924 59.7058 188.887 59.6373 188.847C59.3909 188.695 59.138 188.532 58.8916 188.38C58.5952 188.193 58.2987 188.007 58.0023 187.82C57.6901 187.619 57.3805 187.409 57.0683 187.208C56.7746 187.012 56.4874 186.829 56.1963 186.624C56.137 186.586 56.0778 186.549 56.0185 186.512C55.7432 186.321 55.4706 186.122 55.1953 185.932C54.9543 185.761 54.7041 185.588 54.463 185.418C54.1154 185.166 53.7677 184.915 53.432 184.657C53.2095 184.492 52.9869 184.327 52.7644 184.162C52.7394 184.144 52.7051 184.124 52.6828 184.098C52.3035 183.817 51.9389 183.521 51.5716 183.233C51.4176 183.108 51.2609 182.993 51.1069 182.868C50.5698 182.441 50.0261 182.002 49.5037 181.559C49.5037 181.559 49.4944 181.556 49.4852 181.554C49.3812 181.463 49.2865 181.375 49.1798 181.294C48.7547 180.93 48.3297 180.566 47.9073 180.192C47.7244 180.029 47.5442 179.856 47.352 179.69C47.0652 179.436 46.781 179.172 46.4968 178.909C46.4587 178.868 46.4113 178.824 46.3705 178.792C46.1561 178.6 45.9535 178.4 45.7417 178.198C45.4418 177.92 45.1537 177.636 44.8657 177.352C44.6566 177.14 44.4383 176.926 44.2292 176.715C44.0293 176.507 43.8175 176.305 43.6177 176.096C43.548 176.026 43.481 175.946 43.402 175.873C43.1864 175.65 42.9734 175.417 42.7578 175.194C42.4974 174.918 42.2306 174.629 41.9703 174.353C41.7573 174.12 41.547 173.879 41.3341 173.646C41.175 173.47 41.016 173.293 40.8569 173.116C40.6755 172.913 40.4968 172.701 40.3181 172.488C39.9896 172.102 39.6611 171.715 39.3446 171.322C39.2487 171.204 39.1528 171.086 39.0569 170.968C38.8296 170.681 38.6024 170.394 38.3752 170.107C38.3174 170.03 38.2569 169.962 38.1992 169.885C38.1703 169.847 38.1414 169.808 38.1125 169.77C37.7408 169.291 37.3719 168.802 37.0121 168.316C36.9478 168.227 36.8834 168.138 36.8099 168.047C36.437 167.537 36.0734 167.03 35.7218 166.516C35.7218 166.516 35.7087 166.492 35.6994 166.49C35.4802 166.175 35.2703 165.863 35.0604 165.551C34.9922 165.441 34.9213 165.34 34.8439 165.228C34.6983 165.005 34.5592 164.794 34.4229 164.573C34.3389 164.449 34.2576 164.315 34.1829 164.192C34.0596 163.996 33.9298 163.788 33.8065 163.591C33.7252 163.457 33.6439 163.323 33.5534 163.187C33.4852 163.077 33.4105 162.954 33.3423 162.844C33.2938 162.77 33.2545 162.698 33.2086 162.615C33.1142 162.457 33.0133 162.287 32.9189 162.129C32.8114 161.947 32.7132 161.768 32.6057 161.587C32.514 161.419 32.4196 161.262 32.3279 161.094C32.2297 160.915 32.1314 160.736 32.0239 160.554C31.9322 160.387 31.8405 160.22 31.7581 160.056C31.6598 159.877 31.5616 159.697 31.4753 159.512C31.3836 159.345 31.3011 159.18 31.2187 159.016C31.1728 158.932 31.1269 158.849 31.0903 158.768C31.0472 158.675 31.0013 158.591 30.9582 158.498C30.8561 158.298 30.7539 158.098 30.6545 157.888C30.5721 157.724 30.4896 157.559 30.4098 157.386C30.3077 157.185 30.2176 156.979 30.1247 156.781C30.0422 156.616 29.9717 156.445 29.8892 156.281C29.799 156.074 29.7088 155.867 29.616 155.67C29.5428 155.508 29.4722 155.337 29.399 155.175C29.3088 154.968 29.2186 154.761 29.1311 154.545C29.0841 154.431 29.0278 154.314 28.9835 154.191C28.9665 154.146 28.9469 154.11 28.9299 154.065C28.7785 153.69 28.6243 153.324 28.4821 152.951C28.4624 152.916 28.4547 152.873 28.435 152.837C28.2731 152.429 28.1231 152.014 27.9732 151.599C27.9288 151.476 27.8845 151.353 27.8429 151.22C27.7372 150.928 27.6316 150.637 27.5352 150.348C27.487 150.203 27.4388 150.059 27.3841 149.902C27.285 149.623 27.1978 149.336 27.1107 149.05C27.0767 148.96 27.052 148.873 27.0208 148.773C27.0131 148.731 26.9934 148.695 26.9857 148.653C26.8257 148.134 26.6749 147.619 26.5241 147.103C26.4928 147.004 26.4643 146.895 26.4423 146.798C26.3073 146.298 26.1695 145.806 26.0438 145.308C26.036 145.265 26.0191 145.22 26.0141 145.168C25.8871 144.64 25.7601 144.111 25.6424 143.585C25.6166 143.467 25.588 143.358 25.5714 143.243C25.4629 142.72 25.3544 142.197 25.2579 141.667C25.2632 141.648 25.2501 141.624 25.2463 141.603C25.2347 141.539 25.2231 141.476 25.2142 141.403C25.1381 141.01 25.0713 140.619 25.0072 140.219C24.984 140.092 24.9608 139.964 24.9496 139.831C24.8765 139.358 24.8035 138.885 24.7424 138.405L22.087 118.503C22.1509 118.973 22.2212 119.455 22.2943 119.928C22.3175 120.055 22.3379 120.192 22.3611 120.319C22.4279 120.71 22.4921 121.11 22.5681 121.503C22.5836 121.588 22.599 121.673 22.6145 121.757C22.711 122.287 22.8195 122.811 22.928 123.334C22.9539 123.452 22.9824 123.561 22.999 123.676C23.1167 124.202 23.2345 124.728 23.3707 125.259C23.3784 125.302 23.3953 125.347 23.4004 125.398C23.5262 125.897 23.6612 126.398 23.7989 126.889C23.8301 126.989 23.8587 127.097 23.8807 127.194C24.0315 127.71 24.1823 128.225 24.3423 128.743C24.384 128.876 24.4283 128.999 24.47 129.132C24.5571 129.418 24.6562 129.698 24.7434 129.984C24.7916 130.129 24.8398 130.273 24.8945 130.429C24.9909 130.718 25.0965 131.01 25.2022 131.302C25.2465 131.425 25.2908 131.548 25.3325 131.681C25.4824 132.096 25.6351 132.501 25.7943 132.919C25.8047 132.952 25.8244 132.988 25.8348 133.021C25.9863 133.396 26.1285 133.769 26.2892 134.147C26.3532 134.306 26.4172 134.465 26.4931 134.618C26.5833 134.824 26.6708 135.04 26.761 135.247C26.8342 135.409 26.9047 135.58 26.978 135.742C27.0681 135.949 27.1583 136.156 27.2578 136.365C27.331 136.527 27.4107 136.701 27.4932 136.865C27.5861 137.063 27.6855 137.272 27.7784 137.47C27.8608 137.634 27.9406 137.808 28.0231 137.973C28.1252 138.173 28.2273 138.373 28.3175 138.58C28.4065 138.756 28.4889 138.921 28.578 139.097C28.6604 139.262 28.7521 139.429 28.8346 139.593C28.9328 139.772 29.0311 139.952 29.1174 140.137C29.2091 140.304 29.2915 140.469 29.3832 140.636C29.4815 140.815 29.5797 140.994 29.6872 141.176C29.7789 141.343 29.8733 141.501 29.965 141.668C30.0633 141.847 30.1707 142.029 30.2717 142.199C30.3634 142.366 30.467 142.527 30.5587 142.694C30.6727 142.887 30.7802 143.069 30.8969 143.254C30.9782 143.388 31.0595 143.522 31.1473 143.668C31.2706 143.864 31.3912 144.07 31.5237 144.269C31.6077 144.393 31.689 144.527 31.7637 144.65C31.9001 144.87 32.0484 145.084 32.1847 145.304C32.2529 145.414 32.3303 145.527 32.4012 145.628C32.6111 145.939 32.8211 146.251 33.0402 146.566C33.0402 146.566 33.0533 146.59 33.0626 146.593C33.4143 147.106 33.7779 147.613 34.1507 148.123C34.215 148.212 34.2794 148.301 34.3529 148.392C34.7127 148.878 35.0817 149.367 35.4533 149.846C35.54 149.962 35.6293 150.068 35.716 150.183C35.9432 150.47 36.1704 150.757 36.3977 151.044C36.4936 151.162 36.5895 151.28 36.6854 151.398C37.002 151.791 37.3305 152.178 37.659 152.564C37.9967 152.953 38.3372 153.333 38.6749 153.723C38.8879 153.955 39.0981 154.197 39.3111 154.429C39.5687 154.715 39.829 154.991 40.0986 155.27C40.3142 155.493 40.5272 155.726 40.7428 155.949C41.0216 156.231 41.2912 156.51 41.57 156.791C41.7791 157.003 41.9882 157.214 42.2065 157.428C42.4946 157.712 42.7918 157.999 43.0918 158.277C43.2943 158.476 43.5061 158.678 43.7113 158.869C44.0336 159.173 44.3679 159.471 44.6928 159.766C44.8757 159.929 45.056 160.102 45.2481 160.268C45.6705 160.642 46.0956 161.006 46.5299 161.373C46.6246 161.461 46.7313 161.542 46.826 161.63C47.3577 162.075 47.8987 162.523 48.445 162.953C48.599 163.078 48.7465 163.191 48.9032 163.307C49.3021 163.623 49.7036 163.931 50.1052 164.238C50.3278 164.403 50.5503 164.568 50.7728 164.733C51.1205 164.984 51.4562 165.243 51.8039 165.494C52.0449 165.664 52.2951 165.837 52.5361 166.008C52.868 166.245 53.2026 166.472 53.5371 166.7C53.8216 166.893 54.1154 167.089 54.3999 167.282C54.7094 167.492 55.0216 167.693 55.3339 167.894C55.6303 168.08 55.9267 168.267 56.2232 168.453C56.5354 168.654 56.8503 168.846 57.1652 169.038C57.4959 169.244 57.8385 169.444 58.1719 169.641C58.471 169.819 58.7609 169.993 59.0601 170.17C59.4027 170.37 59.748 170.561 60.0933 170.751C60.3951 170.919 60.6877 171.084 60.9895 171.252C61.3968 171.471 61.804 171.69 62.2113 171.908C62.4723 172.044 62.7306 172.19 62.9916 172.326C63.4609 172.572 63.9355 172.8 64.4075 173.038C64.6092 173.136 64.8082 173.244 65.0192 173.346C65.739 173.695 66.4708 174.038 67.2052 174.372C67.4162 174.473 67.6298 174.565 67.8435 174.658C68.367 174.89 68.8997 175.125 69.4259 175.348C69.9771 175.588 70.531 175.819 71.0876 176.041C71.1615 176.063 71.2328 176.093 71.304 176.124C71.8606 176.346 72.4172 176.568 72.9857 176.783C73.1215 176.832 73.2482 176.879 73.3814 176.938C73.9868 177.164 74.5923 177.39 75.2005 177.607C75.3483 177.649 75.4999 177.714 75.645 177.766C76.145 177.941 76.6358 178.114 77.1385 178.28C77.3232 178.333 77.5118 178.408 77.6966 178.462C78.2732 178.649 78.859 178.839 79.4383 179.018C79.5029 179.036 79.5583 179.052 79.623 179.071C80.2577 179.265 80.8858 179.448 81.5232 179.633C81.8004 179.713 82.0683 179.791 82.3454 179.872C82.7611 179.992 83.1794 180.104 83.607 180.218C83.8934 180.301 84.1851 180.366 84.4742 180.439C84.8833 180.548 85.2951 180.648 85.7162 180.75C86.0053 180.824 86.3062 180.891 86.5953 180.965C87.0071 181.064 87.4309 181.157 87.8454 181.248C88.1371 181.312 88.4288 181.377 88.7206 181.441C89.3225 181.576 89.9272 181.701 90.5252 181.815C90.5622 181.826 90.5899 181.834 90.6268 181.844C91.2896 181.976 91.955 182.099 92.6324 182.216C92.8041 182.246 92.9757 182.275 93.1566 182.308C93.7481 182.409 94.3396 182.511 94.9339 182.603C95.0197 182.618 95.1148 182.635 95.2006 182.65C95.8714 182.755 96.5449 182.85 97.2184 182.945C97.3927 182.965 97.5551 182.993 97.7295 183.013C98.2987 183.088 98.8771 183.166 99.449 183.231C99.5745 183.248 99.6999 183.264 99.8254 183.28C100.474 183.358 101.116 183.424 101.77 183.483C102.637 183.565 103.505 183.646 104.378 183.709C104.437 183.716 104.507 183.716 104.565 183.723C105.377 183.788 106.186 183.832 106.994 183.876C107.281 183.889 107.568 183.902 107.854 183.915C108.458 183.94 109.05 183.971 109.656 183.986C109.974 183.998 110.293 184.001 110.61 184.012C111.198 184.023 111.796 184.035 112.384 184.045C112.682 184.052 112.984 184.049 113.292 184.058C113.992 184.061 114.704 184.057 115.41 184.041C115.59 184.043 115.772 184.035 115.952 184.037C116.837 184.023 117.719 183.988 118.6 183.953C118.844 183.943 119.078 183.931 119.321 183.921C119.971 183.889 120.621 183.857 121.274 183.816C121.59 183.797 121.897 183.776 122.216 183.748C122.808 183.709 123.394 183.658 123.988 183.61C124.389 183.576 124.79 183.542 125.19 183.508C125.366 183.488 125.551 183.472 125.727 183.453C126.418 183.382 127.122 183.305 127.816 183.226C127.889 183.217 127.952 183.205 128.022 183.206C128.656 183.128 129.301 183.045 129.937 182.958C130.125 182.933 130.303 182.904 130.488 182.888C131.188 182.79 131.878 182.689 132.58 182.582C133.283 182.474 133.978 182.355 134.674 182.236C134.853 182.207 135.043 182.172 135.222 182.144C135.856 182.027 136.491 181.91 137.117 181.791C137.19 181.782 137.256 181.761 137.329 181.752C138.063 181.604 138.788 181.453 139.524 181.295C139.727 181.254 139.932 181.203 140.134 181.161C140.659 181.043 141.185 180.924 141.701 180.803C141.969 180.74 142.238 180.678 142.5 180.603C142.964 180.487 143.426 180.38 143.893 180.255C144.173 180.186 144.457 180.107 144.737 180.038C145.258 179.898 145.78 179.759 146.292 179.616C146.445 179.571 146.596 179.534 146.75 179.488C147.427 179.294 148.105 179.099 148.785 178.895C148.939 178.849 149.083 178.801 149.236 178.755C149.787 178.583 150.347 178.415 150.9 178.234C151.077 178.175 151.264 178.119 151.441 178.06C152.094 177.848 152.749 177.627 153.395 177.403C153.506 177.365 153.617 177.327 153.729 177.289C154.365 177.062 155.002 176.835 155.639 176.609C155.705 176.588 155.774 176.557 155.84 176.536C156.446 176.311 157.043 176.083 157.64 175.855C158.136 175.667 158.624 175.468 159.125 175.262C159.431 175.14 159.736 175.018 160.045 174.886C160.602 174.657 161.151 174.425 161.702 174.183C161.941 174.082 162.181 173.981 162.423 173.871C162.986 173.622 163.542 173.362 164.105 173.114C164.303 173.021 164.509 172.93 164.706 172.837C165.46 172.484 166.216 172.121 166.966 171.747C167.411 171.524 167.859 171.293 168.307 171.062C168.578 170.92 168.857 170.79 169.128 170.648C169.671 170.364 170.217 170.071 170.754 169.775C170.921 169.683 171.097 169.593 171.264 169.501C171.979 169.107 172.686 168.71 173.385 168.3C173.987 167.953 174.57 167.6 175.163 167.25C175.332 167.149 175.505 167.039 175.674 166.937C176.112 166.673 176.552 166.399 176.982 166.123C177.143 166.019 177.312 165.917 177.473 165.813C178.049 165.449 178.617 165.081 179.175 164.711C179.225 164.676 179.273 164.65 179.323 164.614C179.831 164.28 180.332 163.933 180.834 163.587C180.997 163.474 181.16 163.36 181.326 163.238C181.729 162.953 182.129 162.678 182.523 162.391C182.674 162.284 182.828 162.169 182.979 162.062C183.512 161.675 184.033 161.294 184.548 160.901C184.598 160.866 184.64 160.827 184.687 160.801C185.163 160.438 185.628 160.08 186.085 159.711C186.239 159.596 186.386 159.468 186.54 159.352C186.921 159.041 187.299 158.739 187.68 158.428C187.813 158.316 187.955 158.206 188.09 158.085C188.58 157.675 189.072 157.256 189.552 156.843C189.617 156.792 189.673 156.738 189.738 156.687C190.168 156.31 190.598 155.933 191.019 155.553C191.157 155.422 191.304 155.294 191.439 155.173C191.819 154.832 192.189 154.487 192.553 154.131C192.662 154.032 192.762 153.931 192.87 153.832C193.34 153.386 193.801 152.938 194.253 152.487C194.364 152.379 194.464 152.277 194.566 152.166C194.933 151.801 195.29 151.433 195.647 151.065C195.764 150.938 195.887 150.823 196.004 150.697C196.466 150.208 196.917 149.727 197.37 149.236C197.44 149.166 197.501 149.094 197.565 149.012C197.962 148.575 198.338 148.142 198.726 147.703C198.831 147.583 198.936 147.463 199.044 147.333C199.484 146.819 199.927 146.295 200.357 145.777C200.421 145.695 200.497 145.607 200.561 145.525C200.947 145.055 201.316 144.58 201.693 144.107C201.774 144 201.865 143.896 201.946 143.789C202.381 143.223 202.806 142.654 203.235 142.076C203.319 141.959 203.402 141.843 203.486 141.727C203.908 141.137 204.33 140.547 204.733 139.951C204.946 139.631 205.156 139.321 205.369 139.001C205.418 138.935 205.461 138.858 205.51 138.792C205.766 138.394 206.019 138.006 206.275 137.608C206.349 137.489 206.421 137.38 206.496 137.261C206.667 136.979 206.848 136.701 207.02 136.419C207.115 136.266 207.2 136.11 207.295 135.957C207.447 135.71 207.587 135.47 207.729 135.22C207.912 134.902 208.094 134.583 208.28 134.255C208.342 134.143 208.405 134.031 208.468 133.919C208.713 133.488 208.949 133.055 209.178 132.609C209.238 132.506 209.289 132.4 209.34 132.295C209.516 131.964 209.692 131.634 209.858 131.301C209.946 131.136 210.023 130.977 210.101 130.809C210.243 130.529 210.382 130.258 210.514 129.976C210.582 129.845 210.643 129.702 210.711 129.571C210.909 129.167 211.094 128.769 211.273 128.359C211.338 128.207 211.411 128.058 211.475 127.906C211.7 127.409 211.915 126.909 212.127 126.419C212.135 126.391 212.143 126.363 212.161 126.338C212.384 125.811 212.595 125.29 212.797 124.767C212.861 124.615 212.914 124.469 212.969 124.314C213.126 123.909 213.275 123.5 213.424 123.092C213.473 122.955 213.523 122.819 213.572 122.683C213.773 122.129 213.962 121.582 214.145 121.022C214.177 120.911 214.209 120.8 214.241 120.689C214.397 120.222 214.543 119.753 214.678 119.29C214.721 119.142 214.761 119.003 214.804 118.855C214.965 118.299 215.129 117.735 215.272 117.174C215.294 117.1 215.312 117.035 215.334 116.961C215.47 116.458 215.594 115.962 215.708 115.464C215.751 115.316 215.776 115.162 215.819 115.014C215.952 114.451 216.077 113.884 216.192 113.316C216.307 112.747 216.413 112.175 216.516 111.613C216.54 111.459 216.565 111.306 216.596 111.164C216.683 110.658 216.758 110.158 216.833 109.657C216.846 109.581 216.858 109.504 216.867 109.436C216.952 108.869 217.016 108.305 217.082 107.732C217.094 107.585 217.116 107.441 217.129 107.294C217.177 106.816 217.226 106.338 217.272 105.87C217.286 105.754 217.297 105.646 217.301 105.527C217.346 104.958 217.389 104.398 217.412 103.833C217.422 103.695 217.42 103.564 217.43 103.427C217.455 102.962 217.473 102.486 217.479 102.016C217.477 101.885 217.487 101.747 217.485 101.616C217.5 101.048 217.503 100.487 217.499 99.9133C217.501 99.8035 217.493 99.6909 217.495 99.581C217.492 99.1084 217.482 98.6238 217.461 98.1458C217.452 98.0028 217.456 97.8532 217.447 97.7102C217.422 97.1408 217.397 96.5715 217.351 96.006C217.342 95.9331 217.342 95.863 217.334 95.7901C217.299 95.2882 217.255 94.7837 217.202 94.2764C217.187 94.1215 217.169 93.9758 217.154 93.8208C217.089 93.25 217.025 92.6792 216.948 92.1149L219.604 112.017C219.68 112.582 219.745 113.153 219.809 113.723C219.825 113.878 219.842 114.024 219.857 114.179C219.911 114.686 219.945 115.188 219.989 115.693C219.998 115.766 219.997 115.836 220.006 115.909C220.043 116.471 220.078 117.043 220.103 117.613C220.111 117.756 220.117 117.908 220.116 118.048C220.129 118.524 220.141 118.999 220.153 119.474C220.151 119.584 220.159 119.697 220.157 119.807C220.163 120.371 220.158 120.941 220.143 121.509C220.145 121.64 220.135 121.778 220.135 121.918C220.119 122.385 220.104 122.853 220.079 123.317C220.069 123.455 220.071 123.586 220.061 123.724C220.028 124.286 219.992 124.858 219.95 125.418C219.936 125.534 219.925 125.642 219.921 125.761C219.881 126.241 219.835 126.71 219.778 127.185C219.765 127.332 219.743 127.476 219.731 127.623C219.667 128.186 219.592 128.757 219.516 129.327C219.504 129.404 219.492 129.481 219.482 129.548C219.407 130.048 219.329 130.558 219.245 131.055C219.22 131.209 219.196 131.362 219.165 131.504C219.059 132.075 218.956 132.637 218.841 133.206C218.841 133.206 218.841 133.206 218.838 133.215C218.723 133.784 218.599 134.35 218.465 134.914C218.422 135.062 218.398 135.216 218.355 135.364C218.24 135.862 218.113 136.368 217.98 136.861C217.958 136.935 217.937 137.009 217.918 137.074C217.766 137.632 217.614 138.19 217.45 138.755C217.407 138.903 217.367 139.042 217.324 139.19C217.187 139.662 217.043 140.122 216.888 140.589C216.855 140.7 216.823 140.811 216.782 140.92C216.602 141.47 216.41 142.026 216.209 142.58C216.196 142.627 216.182 142.673 216.169 142.719C216.142 142.812 216.094 142.908 216.067 143.001C215.919 143.409 215.77 143.818 215.612 144.224C215.557 144.378 215.496 144.521 215.441 144.676C215.239 145.199 215.025 145.729 214.804 146.248C214.796 146.275 214.788 146.303 214.771 146.328C214.555 146.828 214.343 147.318 214.119 147.815C214.054 147.967 213.981 148.116 213.917 148.268C213.729 148.676 213.543 149.073 213.355 149.48C213.309 149.568 213.273 149.658 213.225 149.754C213.212 149.8 213.18 149.841 213.154 149.894C213.022 150.177 212.883 150.448 212.742 150.728C212.663 150.896 212.578 151.052 212.499 151.22C212.332 151.553 212.156 151.883 211.98 152.213C211.93 152.319 211.87 152.422 211.819 152.528C211.583 152.961 211.347 153.394 211.108 153.837C211.046 153.949 210.983 154.062 210.92 154.174C210.738 154.492 210.555 154.811 210.37 155.138C210.362 155.166 210.333 155.198 210.324 155.226C210.202 155.441 210.07 155.654 209.938 155.866C209.844 156.019 209.758 156.175 209.664 156.329C209.492 156.61 209.32 156.891 209.139 157.17C209.064 157.289 208.99 157.408 208.918 157.517C208.662 157.915 208.409 158.303 208.154 158.701C208.102 158.776 208.053 158.842 208.01 158.92C207.812 159.224 207.601 159.534 207.394 159.835C207.391 159.844 207.388 159.854 207.374 159.869C206.97 160.465 206.549 161.055 206.127 161.645C206.043 161.762 205.959 161.878 205.875 161.994C205.459 162.566 205.031 163.144 204.587 163.708C204.555 163.749 204.535 163.783 204.503 163.824C204.451 163.899 204.392 163.963 204.331 164.035C203.963 164.51 203.585 164.983 203.199 165.453C203.135 165.535 203.059 165.623 202.995 165.705C202.562 166.232 202.131 166.749 201.682 167.261C201.638 167.308 201.592 167.365 201.557 167.415C201.496 167.488 201.435 167.561 201.364 167.63C200.986 168.073 200.6 168.503 200.203 168.939C200.142 169.012 200.072 169.082 200.01 169.155C199.567 169.648 199.107 170.127 198.645 170.615C198.601 170.663 198.555 170.719 198.502 170.764C198.428 170.843 198.358 170.913 198.285 170.992C197.928 171.36 197.571 171.728 197.204 172.094C197.093 172.202 196.993 172.304 196.891 172.414C196.439 172.865 195.978 173.314 195.508 173.76C195.482 173.782 195.453 173.814 195.426 173.836C195.347 173.903 195.273 173.982 195.194 174.05C194.824 174.394 194.45 174.747 194.08 175.091C193.942 175.222 193.795 175.35 193.659 175.471C193.239 175.851 192.809 176.228 192.379 176.605C192.326 176.65 192.284 176.688 192.231 176.733C192.229 176.742 192.205 176.755 192.193 176.762C191.71 177.184 191.22 177.594 190.731 178.004C190.598 178.116 190.453 178.234 190.321 178.346C189.94 178.657 189.559 178.968 189.181 179.27C189.089 179.344 189.007 179.42 188.918 179.485C188.853 179.536 188.791 179.578 188.735 179.633C188.268 179.999 187.801 180.365 187.328 180.72C187.287 180.758 187.239 180.784 187.198 180.822C186.683 181.215 186.159 181.605 185.629 181.983C185.579 182.018 185.526 182.063 185.475 182.099C185.374 182.17 185.274 182.241 185.173 182.312C184.779 182.599 184.376 182.884 183.975 183.159C183.812 183.272 183.649 183.386 183.483 183.508C182.982 183.854 182.484 184.192 181.973 184.535C181.935 184.564 181.887 184.59 181.849 184.619C181.849 184.619 181.837 184.626 181.825 184.633C181.267 185.003 180.699 185.37 180.123 185.734C179.962 185.838 179.793 185.94 179.632 186.044L179.595 186.033Z" fill="#FDA813" stroke="black" stroke-width="0.175375" stroke-miterlimit="10"/>
</svg>
