<svg width="169" height="120" viewBox="0 0 169 120" fill="none" xmlns="http://www.w3.org/2000/svg">
<g clip-path="url(#clip0_109_8630)">
<path d="M168.785 59.2052L143.38 119.947L48.6973 81.8598L19.8596 93.6929L16.8646 92.3541L24.9302 71.8564L0.785156 61.6968L26.1905 0.947266L168.785 59.2052Z" fill="#A1D0E6"/>
<path d="M45.5021 25.8554L41.1802 24.0407L26.828 58.3647L21.2384 56.0071L35.5905 21.683L31.3279 19.8906L33.2331 15.3388L47.4073 21.3037L45.5021 25.8554Z" fill="white"/>
<path d="M50.0977 59.54C48.9635 62.2398 47.466 64.0099 45.6053 64.8355C43.7371 65.6611 41.6466 65.5867 39.3188 64.6049C36.954 63.6083 35.4194 62.158 34.7003 60.2391C33.9812 58.3277 34.1888 56.0146 35.3156 53.3148L45.4644 29.0388C46.5764 26.3688 48.0665 24.6284 49.9346 23.8028C51.7954 22.9773 53.9156 23.0591 56.273 24.0557C58.6304 25.0523 60.1724 26.4952 60.8766 28.3769C61.5809 30.266 61.3733 32.5568 60.2465 35.264L50.0977 59.54ZM55.4353 29.8123C55.3167 29.2619 54.946 28.8529 54.3159 28.5926C53.6858 28.3248 53.1446 28.3546 52.6924 28.6595C52.2327 28.9719 51.7954 29.6413 51.358 30.6751L40.6013 56.394C40.1639 57.4278 39.9934 58.231 40.0898 58.7888C40.1862 59.3466 40.542 59.7631 41.1647 60.0234C41.7948 60.2838 42.3434 60.2614 42.8253 59.9416C43.3071 59.6218 43.7668 58.945 44.1967 57.9038L54.9534 32.1849C55.3834 31.1511 55.5465 30.3553 55.4279 29.8049L55.4353 29.8123Z" fill="white"/>
<path d="M73.5018 51.6861C72.3231 54.5049 70.7292 56.3345 68.7276 57.1898C66.7186 58.0451 64.5169 57.9633 62.115 56.9593L60.6768 56.3568L54.8944 70.1906L49.3048 67.8329L65.5622 28.9496L72.5381 31.8875C74.977 32.9138 76.5931 34.4311 77.4012 36.4466C78.2092 38.4622 78.0239 40.8794 76.8452 43.6908L73.5018 51.6861ZM72.0859 37.8003C71.8931 37.2201 71.4112 36.7665 70.6329 36.4392L69.2466 35.8591L62.582 51.7976L63.9683 52.3778C64.7393 52.705 65.4065 52.7199 65.9625 52.4373C66.5185 52.1472 67.0152 51.4853 67.4451 50.444L71.7152 40.2249C72.1452 39.1911 72.2712 38.3804 72.0784 37.8003H72.0859Z" fill="white"/>
<path d="M91.2349 45.1036L86.305 43.0286L81.0119 55.6946L85.6082 57.6284L83.703 62.1801L79.1067 60.2464L73.8581 72.8009L79.2846 75.0842L77.3794 79.636L66.3633 75.0024L82.6206 36.1191L93.1401 40.5445L91.2349 45.0962V45.1036Z" fill="white"/>
<path d="M97.3433 78.4459C96.2017 81.1829 94.6375 82.9382 92.6729 83.6968C90.701 84.4554 88.5215 84.3364 86.1196 83.3249L79.0918 80.3648L95.3491 41.4816L102.325 44.4194C104.764 45.4458 106.402 46.9109 107.262 48.8149C108.115 50.7189 107.959 53.0618 106.803 55.8359L97.3507 78.4459H97.3433ZM101.873 50.3396C101.68 49.7595 101.198 49.3058 100.42 48.9786L99.0336 48.3984L86.5866 78.1708L87.9729 78.7509C88.7513 79.0781 89.4111 79.093 89.9671 78.8104C90.5231 78.5203 91.0198 77.8584 91.4498 76.8246L101.51 52.7717C101.94 51.7379 102.066 50.9272 101.873 50.3471V50.3396Z" fill="white"/>
<path d="M122.793 90.1379C121.63 92.9121 120.088 94.6822 118.168 95.4408C116.248 96.1994 114.12 96.0879 111.792 95.1061C109.464 94.1244 107.893 92.6741 107.077 90.7329C106.254 88.7991 106.425 86.4637 107.567 83.7193L120.762 52.1694L126.352 54.5271L112.852 86.7984C112.422 87.8322 112.267 88.6429 112.393 89.2156C112.519 89.7957 112.934 90.2271 113.638 90.5246C114.335 90.8221 114.95 90.8147 115.469 90.5097C115.988 90.2048 116.462 89.5354 116.892 88.4942L130.392 56.2229L135.982 58.5731L122.786 90.123L122.793 90.1379Z" fill="white"/>
<path d="M146.137 82.2617C144.958 85.0805 143.364 86.9102 141.363 87.7655C139.354 88.6208 137.152 88.539 134.757 87.5349L133.319 86.9325L127.537 100.766L121.947 98.416L138.205 59.5327L145.181 62.4705C147.619 63.4969 149.236 65.0142 150.044 67.0297C150.852 69.0453 150.666 71.4625 149.488 74.2738L146.144 82.2692L146.137 82.2617ZM144.721 68.3759C144.528 67.7958 144.046 67.3421 143.268 67.0148L141.882 66.4347L135.217 82.3733L136.603 82.9534C137.382 83.2807 138.042 83.2955 138.598 83.0129C139.154 82.7228 139.65 82.0609 140.08 81.0197L144.35 70.8005C144.78 69.7667 144.906 68.956 144.713 68.3759H144.721Z" fill="white"/>
</g>
<defs>
<clipPath id="clip0_109_8630">
<rect width="168" height="119" fill="white" transform="translate(0.785156 0.947266)"/>
</clipPath>
</defs>
</svg>
