<svg width="90" height="90" viewBox="0 0 90 90" fill="none" xmlns="http://www.w3.org/2000/svg">
<g clip-path="url(#clip0_109_8646)">
<path d="M76.6014 31.3822L68.8327 67.0577L44.0864 62.2854L29.5063 71.6285L27.7348 71.1979L30.0788 59.2108L15.8423 56.0865L23.6111 20.411L76.6014 31.3822Z" fill="#E78052"/>
<path d="M32.9694 36.1181L33.7239 32.6586C33.8651 32.0292 33.8684 31.5736 33.7508 31.296C33.6332 31.0184 33.4057 30.8449 33.0797 30.7746C32.7304 30.6949 32.4434 30.7621 32.2177 30.9651C31.992 31.1681 31.8116 31.5868 31.6703 32.2162L31.1914 34.4008C31.023 35.184 31.079 35.961 31.3646 36.7259C31.6562 37.496 32.0148 38.2609 32.4397 39.0094C32.7435 39.5086 33.0371 40.0199 33.3212 40.5545C33.6054 41.089 33.8457 41.6381 34.0492 42.2183C34.2526 42.7984 34.3856 43.4121 34.4534 44.0533C34.5211 44.6946 34.4746 45.384 34.3087 46.1277L33.879 48.0836C33.5286 49.6904 32.8751 50.8092 31.9179 51.4287C30.9606 52.0481 29.7984 52.2113 28.4254 51.9129C27.0523 51.6145 26.0689 50.9824 25.4647 50.0286C24.8605 49.0747 24.7414 47.7854 25.0952 46.1502L25.7596 43.1136L29.0555 43.8364L28.3009 47.2959C28.1615 47.9476 28.1591 48.4144 28.2879 48.6911C28.4227 48.973 28.6673 49.1508 29.045 49.234C29.3883 49.3086 29.6813 49.2465 29.9242 49.0478C30.1559 48.8499 30.3527 48.4243 30.4922 47.7726L30.9711 45.588C31.0715 45.153 31.0826 44.7249 31.0093 44.2977C30.9421 43.8757 30.8284 43.4348 30.664 42.9922C30.4935 42.5444 30.2956 42.1044 30.0641 41.667C29.8326 41.2295 29.5737 40.7999 29.3035 40.3711C29.0642 39.9062 28.8189 39.4361 28.5718 38.9437C28.3196 38.4572 28.1224 37.9553 27.962 37.4225C27.8026 36.9008 27.7024 36.3464 27.6735 35.7696C27.6446 35.1928 27.6964 34.5704 27.8393 33.8903L28.2774 31.9C28.6279 30.2932 29.2762 29.1805 30.2171 28.5679C31.1581 27.9553 32.3091 27.793 33.6598 28.0931C35.0105 28.3932 35.9758 29.0099 36.5688 29.9646C37.1558 30.9141 37.2801 32.1975 36.9296 33.8043L36.2704 36.8349L32.9745 36.1121L32.9694 36.1181Z" fill="white"/>
<path d="M44.8808 33.8795L41.9798 33.2441L40.3602 40.6834L43.0668 41.2776L42.4858 43.9479L39.7792 43.3537L38.1767 50.7242L41.3753 51.4264L40.7892 54.1028L34.2947 52.6778L39.27 29.845L45.4729 31.2083L44.8919 33.8786L44.8808 33.8795Z" fill="white"/>
<path d="M51.1291 56.377L47.1467 55.505L47.9834 39.8963L48.0997 37.4644L47.9337 37.4266L47.6229 39.8174L45.0923 55.0514L41.7964 54.3287L46.7717 31.4959L50.7541 32.3678L50.0246 47.4848L49.8687 49.9142L50.0433 49.9175L50.3884 47.5353L52.8086 32.8214L56.1044 33.5442L51.1291 56.377Z" fill="white"/>
<path d="M65.0518 38.3039L62.5113 37.7475L58.1169 57.9099L54.8211 57.1871L59.2154 37.0247L56.7033 36.4717L57.2843 33.8013L65.6439 35.6327L65.0578 38.3091L65.0518 38.3039Z" fill="white"/>
</g>
<defs>
<clipPath id="clip0_109_8646">
<rect width="64.6832" height="62.0158" fill="white" transform="translate(40.5586 0.580078) rotate(40.5172)"/>
</clipPath>
</defs>
</svg>
