<svg width="209" height="211" viewBox="0 0 209 211" fill="none" xmlns="http://www.w3.org/2000/svg">
<path d="M34.235 92.942C38.2224 128.501 74.4502 159.713 115.157 162.657C155.864 165.601 185.632 139.161 181.651 103.597C177.663 68.0379 141.441 36.8211 100.729 33.8819C60.022 30.9379 30.2534 57.3778 34.235 92.942Z" fill="#F7E0BE" stroke="black" stroke-width="0.175375" stroke-miterlimit="10"/>
<path d="M169.284 113.073C169.481 110.466 169.427 107.756 169.123 105.029C168.341 98.0657 165.99 91.1346 162.12 84.4271C158.261 77.7206 153.075 71.5386 146.715 66.0664C133.467 54.6509 116.8 47.6836 99.7902 46.4529C70.7723 44.3561 48.403 59.9201 46.6048 83.4634C46.4071 86.07 46.4616 88.78 46.7658 91.5077C47.5473 98.4706 49.8986 105.402 53.7681 112.109C57.6269 118.816 62.8132 124.998 69.1732 130.47C82.421 141.885 99.088 148.853 116.098 150.083C145.116 152.18 167.485 136.616 169.284 113.073Z" fill="white" stroke="black" stroke-width="0.175375" stroke-miterlimit="10"/>
<path d="M111.419 176.876C111.019 176.866 110.62 176.846 110.215 176.83C110.12 176.821 110.023 176.823 109.928 176.814C109.869 176.814 109.806 176.808 109.753 176.803C109.221 176.775 108.684 176.742 108.142 176.703C107.51 176.66 106.878 176.608 106.248 176.544C106.078 176.529 105.904 176.507 105.734 176.492C105.274 176.444 104.818 176.402 104.358 176.343C104.109 176.315 103.872 176.277 103.629 176.255C103.254 176.204 102.878 176.164 102.503 176.114C102.503 176.114 102.488 176.107 102.482 176.112C101.832 176.025 101.184 175.928 100.541 175.826C100.372 175.8 100.199 175.768 100.03 175.741C99.5563 175.666 99.0774 175.584 98.6101 175.493C98.5841 175.485 98.5523 175.482 98.5205 175.479C98.3471 175.447 98.1795 175.41 98.006 175.378C97.5436 175.293 97.0869 175.203 96.6254 175.107C96.374 175.052 96.1225 174.996 95.8759 174.947C95.4722 174.862 95.0637 174.77 94.6553 174.679C94.5608 174.66 94.4664 174.641 94.372 174.621C93.9742 174.531 93.5821 174.436 93.19 174.341C93.138 174.326 93.0802 174.315 93.0282 174.3C92.5157 174.177 92.0042 174.045 91.4985 173.907C91.4099 173.883 91.3213 173.859 91.2327 173.835C90.805 173.72 90.3879 173.607 89.9661 173.488C89.8726 173.458 89.7734 173.433 89.68 173.403C89.5394 173.363 89.394 173.318 89.2533 173.278C88.8161 173.152 88.3846 173.022 87.9483 172.885C87.8289 172.847 87.7143 172.815 87.5949 172.778C87.0652 172.611 86.5413 172.44 86.0174 172.269C85.898 172.231 85.7843 172.189 85.6649 172.151C85.4213 172.07 85.1776 171.988 84.934 171.907C84.779 171.85 84.6287 171.799 84.4737 171.742C84.2619 171.663 84.0442 171.59 83.8324 171.512C83.4809 171.383 83.1295 171.254 82.778 171.126C82.5768 171.048 82.3755 170.971 82.1733 170.904C81.7814 170.751 81.3944 170.603 81.0025 170.449C80.8533 170.387 80.6982 170.33 80.549 170.268C80.0233 170.059 79.4986 169.84 78.9739 169.62C78.9585 169.614 78.9431 169.607 78.9277 169.6C78.8767 169.574 78.8247 169.559 78.7737 169.532C78.3106 169.34 77.8485 169.137 77.3923 168.929C77.2584 168.874 77.1256 168.809 76.9918 168.754C76.4893 168.525 75.9868 168.297 75.4853 168.059C75.4853 168.059 75.4853 168.059 75.4805 168.053C74.9838 167.82 74.4881 167.577 73.9924 167.333C73.8644 167.273 73.7316 167.207 73.6094 167.143C73.1599 166.92 72.7104 166.696 72.2677 166.458C72.2167 166.432 72.1705 166.411 72.1195 166.385C71.6354 166.132 71.1513 165.879 70.6682 165.615C70.546 165.551 70.419 165.48 70.2968 165.415C70.1495 165.332 69.9965 165.254 69.8445 165.165C69.7175 165.095 69.5962 165.019 69.4692 164.949C69.0631 164.719 68.6619 164.495 68.2616 164.26C68.049 164.134 67.8353 164.018 67.6227 163.891C67.182 163.632 66.7471 163.367 66.3122 163.102C66.1554 163.008 65.9938 162.907 65.837 162.813C65.2511 162.449 64.6603 162.079 64.0812 161.699C63.9658 161.619 63.8494 161.55 63.734 161.47C63.2703 161.17 62.8076 160.86 62.3507 160.546C62.1545 160.415 61.964 160.28 61.7736 160.145C61.3917 159.885 61.0108 159.615 60.6406 159.345C60.4405 159.199 60.2347 159.057 60.0347 158.91C59.649 158.634 59.2749 158.348 58.8998 158.073C58.72 157.939 58.5402 157.805 58.3652 157.676C57.8565 157.287 57.3525 156.904 56.8555 156.505C56.8209 156.476 56.7756 156.445 56.741 156.415C56.2035 155.991 55.6776 155.558 55.1517 155.124C55.1123 155.089 55.0671 155.058 55.0277 155.022C54.6806 154.733 54.3346 154.434 53.9933 154.141C53.9193 154.075 53.8453 154.01 53.7713 153.944C53.43 153.651 53.0897 153.347 52.7543 153.048C52.6504 152.959 52.5524 152.864 52.4534 152.78C52.0593 152.423 51.6653 152.066 51.2818 151.71C51.2328 151.663 51.179 151.609 51.13 151.562C50.7859 151.242 50.4476 150.917 50.1093 150.591C50.0113 150.497 49.9085 150.396 49.8105 150.302C49.4338 149.93 49.0571 149.559 48.6805 149.187C48.6613 149.164 48.6421 149.141 48.6228 149.118C48.3644 148.854 48.1059 148.589 47.8475 148.325C47.7697 148.243 47.6967 148.167 47.6188 148.085C47.4584 147.915 47.298 147.745 47.1376 147.575C46.9089 147.335 46.6813 147.084 46.4526 146.844C46.2922 146.674 46.1327 146.494 45.9781 146.319C45.7553 146.074 45.5382 145.824 45.3106 145.573C45.1618 145.394 45.0013 145.224 44.8467 145.049C44.6249 144.794 44.403 144.538 44.187 144.277C44.0429 144.104 43.8989 143.93 43.7597 143.762C43.7116 143.704 43.6636 143.647 43.6156 143.589C43.3324 143.247 43.0539 142.911 42.7765 142.565C42.7428 142.525 42.714 142.49 42.6804 142.449C42.379 142.074 42.0881 141.7 41.7973 141.325C41.7012 141.21 41.612 141.079 41.516 140.963C41.2635 140.635 41.0217 140.308 40.775 139.975C40.6982 139.882 40.6282 139.774 40.5572 139.677C40.5236 139.636 40.49 139.596 40.4622 139.551C40.1973 139.184 39.9325 138.817 39.6734 138.446C39.6072 138.354 39.5458 138.269 39.4854 138.172C39.2167 137.789 38.949 137.396 38.6862 137.008C38.6478 136.962 38.6152 136.911 38.5874 136.865C38.3667 136.54 38.1519 136.21 37.937 135.88C37.8948 135.818 37.8584 135.75 37.8162 135.688C37.5735 135.312 37.3319 134.927 37.095 134.547C36.9972 134.393 36.8946 134.234 36.8026 134.076C36.4737 133.538 36.1506 132.995 35.8381 132.453C35.8285 132.441 35.8238 132.435 35.8142 132.424C35.7317 132.277 35.6541 132.136 35.5765 131.996C35.3752 131.635 35.1634 131.273 34.968 130.908C34.8587 130.705 34.7543 130.509 34.6451 130.306C34.4774 129.986 34.2992 129.665 34.1374 129.34C34.1144 129.3 34.0913 129.261 34.0741 129.216C33.9697 129.02 33.8817 128.819 33.7773 128.622C33.6374 128.347 33.4976 128.073 33.3636 127.793C33.2478 127.547 33.1319 127.301 33.0209 127.061C32.8917 126.787 32.7576 126.508 32.6342 126.229C32.6074 126.173 32.5854 126.123 32.5586 126.067C32.4658 125.861 32.3739 125.644 32.2811 125.437C32.1711 125.187 32.0611 124.936 31.951 124.685C31.8372 124.418 31.7292 124.146 31.6154 123.879C31.5111 123.624 31.4059 123.379 31.3075 123.118C31.2855 123.068 31.2635 123.018 31.2415 122.968C31.1468 122.724 31.058 122.475 30.9634 122.231C30.8822 122.015 30.7961 121.794 30.7149 121.578C30.6003 121.262 30.4856 120.947 30.3816 120.633C30.31 120.428 30.2384 120.224 30.1668 120.02C30.1582 119.997 30.1448 119.969 30.142 119.942C30.0197 119.594 29.9139 119.242 29.8023 118.895C29.7575 118.747 29.7068 118.603 29.662 118.455C29.5018 117.943 29.3426 117.42 29.1987 116.905C29.1987 116.905 29.1939 116.899 29.1891 116.893C29.1615 116.789 29.1387 116.691 29.1053 116.591C28.99 116.169 28.8748 115.747 28.7654 115.32C28.7187 115.134 28.6779 114.943 28.6265 114.751C28.5523 114.461 28.4839 114.166 28.4154 113.871C28.4088 113.827 28.3974 113.778 28.385 113.74C28.3308 113.521 28.2872 113.303 28.2388 113.079C28.1666 112.768 28.105 112.458 28.0433 112.147C28.0007 111.919 27.9533 111.684 27.9107 111.456C27.8729 111.233 27.8244 111.01 27.7866 110.787C27.7724 110.711 27.764 110.63 27.745 110.548C27.7034 110.309 27.6676 110.065 27.626 109.826C27.5788 109.533 27.5325 109.229 27.4853 108.936C27.4495 108.692 27.4195 108.444 27.3837 108.2C27.3583 108.016 27.3329 107.832 27.3074 107.648C27.2792 107.437 27.2568 107.221 27.2344 107.005C27.1914 106.61 27.1484 106.216 27.1159 105.823C27.1057 105.704 27.0955 105.586 27.0853 105.467C27.0641 105.182 27.0429 104.897 27.0217 104.612C27.0181 104.536 27.0087 104.466 27.0051 104.391C27.0033 104.353 27.0015 104.316 26.9997 104.278C26.9694 103.805 26.945 103.327 26.9254 102.855C26.9228 102.769 26.9202 102.683 26.9128 102.591C26.8952 102.098 26.8823 101.61 26.8801 101.124C26.8801 101.124 26.8821 101.102 26.8773 101.097C26.8735 100.797 26.8745 100.503 26.8755 100.209C26.8797 100.108 26.8781 100.012 26.8775 99.9046C26.8811 99.6964 26.8837 99.4988 26.8921 99.2965C26.8925 99.1789 26.8987 99.0565 26.9038 98.9447C26.9102 98.7636 26.9176 98.5718 26.924 98.3906C26.9302 98.2683 26.9364 98.1459 26.9378 98.0177C26.942 97.9165 26.9472 97.8047 26.9514 97.7035C26.9526 97.6342 26.9586 97.5706 26.9656 97.4964C26.9738 97.3528 26.983 97.1986 26.9912 97.055C27.0014 96.8902 27.0164 96.7312 27.0266 96.5664C27.0406 96.418 27.0488 96.2745 27.0628 96.1261C27.0778 95.9671 27.0928 95.8081 27.103 95.6433C27.117 95.4949 27.131 95.3465 27.1497 95.2039C27.1647 95.0449 27.1797 94.8859 27.2053 94.7279C27.2193 94.5795 27.2381 94.4369 27.2569 94.2943C27.2639 94.2201 27.2709 94.1459 27.2827 94.0775C27.2955 93.9985 27.3025 93.9243 27.3153 93.8453C27.3371 93.6709 27.3589 93.4965 27.3865 93.3172C27.4053 93.1746 27.4241 93.032 27.4487 92.8846C27.4705 92.7102 27.5029 92.5368 27.5295 92.3682C27.5483 92.2256 27.5777 92.0839 27.5965 91.9413C27.6289 91.7679 27.6613 91.5945 27.6879 91.4258C27.7115 91.289 27.7409 91.1474 27.7645 91.0106C27.7969 90.8372 27.8293 90.6637 27.8675 90.4855C27.8871 90.3911 27.9019 90.2909 27.9273 90.1916C27.9361 90.155 27.9391 90.1232 27.9479 90.0866C28.0145 89.7773 28.0753 89.4729 28.1467 89.1694C28.1497 89.1376 28.1633 89.1068 28.1663 89.075C28.2407 88.7397 28.3257 88.4054 28.4107 88.0711C28.4361 87.9718 28.4615 87.8726 28.4927 87.7686C28.5523 87.5335 28.6119 87.2984 28.6763 87.0692C28.7085 86.9545 28.7407 86.8399 28.7739 86.7146C28.8325 86.4901 28.9017 86.2667 28.9709 86.0432C28.9885 85.97 29.0109 85.9025 29.0343 85.8245C29.0479 85.7937 29.0509 85.7619 29.0645 85.731C29.1883 85.3255 29.3169 84.9257 29.4455 84.5259C29.4689 84.4479 29.4981 84.365 29.5263 84.2928C29.6587 83.9094 29.7853 83.5308 29.9225 83.1532C29.9361 83.1224 29.945 83.0858 29.9644 83.0501C30.1142 82.6523 30.264 82.2545 30.4186 81.8624C30.4536 81.7748 30.4828 81.6919 30.5226 81.6101C30.682 81.2238 30.8414 80.8376 31.0114 80.4523C31.023 80.4427 31.025 80.4215 31.0318 80.4061C31.0522 80.3598 31.0726 80.3136 31.0988 80.2626C31.2222 79.9746 31.3505 79.6924 31.4845 79.4053C31.5253 79.3129 31.5661 79.2204 31.6175 79.1289C31.7777 78.7909 31.9379 78.4528 32.1087 78.1157L39.1225 64.0716C38.9575 64.4038 38.7915 64.7467 38.6313 65.0848C38.5905 65.1772 38.5439 65.2745 38.5031 65.367C38.3749 65.6492 38.2408 65.9362 38.1174 66.2242C38.0902 66.2859 38.063 66.3475 38.0358 66.4091C37.8658 66.7944 37.7064 67.1807 37.547 67.5669C37.512 67.6546 37.4828 67.7374 37.443 67.8193C37.2884 68.2113 37.1338 68.6034 36.9888 69.007C36.9752 69.0378 36.9664 69.0744 36.947 69.11C36.8097 69.4876 36.6773 69.871 36.5507 70.2496C36.5273 70.3277 36.4981 70.4105 36.4699 70.4827C36.3413 70.8825 36.2127 71.2823 36.0889 71.6879C36.0577 71.7919 36.0323 71.8912 36.0011 71.9952C35.9319 72.2187 35.8733 72.4432 35.8041 72.6667C35.7719 72.7813 35.7397 72.8959 35.7065 73.0212C35.6421 73.2505 35.5825 73.4855 35.5229 73.7206C35.4975 73.8198 35.4721 73.9191 35.4409 74.0231C35.3559 74.3574 35.2767 74.6869 35.1965 75.027C35.1887 75.053 35.1857 75.0848 35.1779 75.1108C35.1113 75.4201 35.0399 75.7236 34.9781 76.0386C34.9497 76.1697 34.9213 76.3007 34.9035 76.4327C34.8711 76.6061 34.8329 76.7844 34.8005 76.9578C34.7769 77.0946 34.7475 77.2362 34.7239 77.3731C34.6915 77.5465 34.6591 77.7199 34.6315 77.8991C34.6079 78.036 34.5833 78.1834 34.5645 78.326C34.5379 78.4946 34.5103 78.6738 34.4837 78.8424C34.4649 78.985 34.4403 79.1324 34.4215 79.2751C34.3997 79.4495 34.3779 79.6239 34.3455 79.7973C34.3257 79.9505 34.3069 80.0931 34.2871 80.2463C34.2684 80.3889 34.2543 80.5373 34.2355 80.6799C34.2206 80.8389 34.2056 80.9979 34.18 81.1559C34.166 81.3043 34.1472 81.4469 34.1332 81.5953C34.1182 81.7543 34.1032 81.9133 34.093 82.0781C34.079 82.2265 34.0708 82.3701 34.0568 82.5185C34.0418 82.6775 34.0316 82.8422 34.0224 82.9964C34.0084 83.1448 34.005 83.2942 33.991 83.4426C33.9798 83.618 33.9696 83.7827 33.9642 83.9533C33.958 84.0757 33.9518 84.1981 33.9446 84.3311C33.9383 84.5123 33.9261 84.6982 33.9245 84.8852C33.9241 85.0028 33.9179 85.1252 33.9127 85.2369C33.9043 85.4393 33.9065 85.6427 33.8981 85.845C33.8939 85.9462 33.8945 86.0532 33.8961 86.1495C33.8951 86.4435 33.8941 86.7374 33.8979 87.0371C33.8979 87.0371 33.8959 87.0583 33.9007 87.0641C33.903 87.5508 33.9158 88.0385 33.9334 88.5319C33.936 88.6177 33.9386 88.7035 33.946 88.795C33.9656 89.2673 33.9901 89.7453 34.0203 90.2185C34.0257 90.3313 34.0369 90.4392 34.0423 90.552C34.0635 90.8373 34.0847 91.1226 34.1059 91.4079C34.1161 91.5264 34.1264 91.645 34.1366 91.7635C34.169 92.1567 34.212 92.551 34.255 92.9452C34.3028 93.3452 34.3565 93.7404 34.4043 94.1404C34.4401 94.3842 34.4701 94.6329 34.5059 94.8768C34.5473 95.1746 34.5946 95.4676 34.6466 95.7665C34.6882 96.0055 34.724 96.2494 34.7656 96.4884C34.8225 96.793 34.8745 97.0919 34.9313 97.3965C34.9739 97.6249 35.0165 97.8534 35.0639 98.0876C35.1256 98.398 35.192 98.7142 35.2642 99.0255C35.3078 99.2434 35.3562 99.4671 35.4057 99.6801C35.4807 100.018 35.5663 100.358 35.6471 100.691C35.6937 100.877 35.7346 101.068 35.786 101.26C35.8954 101.687 36.0106 102.109 36.1307 102.537C36.1535 102.636 36.1869 102.735 36.2097 102.833C36.3583 103.355 36.5118 103.882 36.6768 104.4C36.7217 104.549 36.7675 104.686 36.8181 104.83C36.9373 105.21 37.0623 105.585 37.1874 105.96C37.259 106.164 37.3306 106.369 37.4022 106.573C37.5169 106.888 37.6209 107.203 37.7355 107.518C37.8168 107.734 37.9028 107.956 37.984 108.172C38.0948 108.471 38.2115 108.765 38.3281 109.059C38.4275 109.309 38.5317 109.564 38.6312 109.814C38.7392 110.086 38.853 110.353 38.9668 110.62C39.0769 110.871 39.1869 111.121 39.2969 111.372C39.4107 111.639 39.5304 111.901 39.65 112.164C39.7734 112.442 39.9075 112.722 40.0367 112.996C40.1525 113.242 40.2636 113.482 40.3794 113.728C40.5134 114.007 40.6533 114.282 40.7931 114.557C40.9147 114.798 41.0315 115.033 41.1532 115.274C41.3208 115.595 41.4884 115.915 41.6561 116.235C41.7653 116.437 41.8687 116.645 41.978 116.847C42.1734 117.213 42.3804 117.569 42.5817 117.929C42.6689 118.082 42.7503 118.239 42.8424 118.397C43.1548 118.939 43.4779 119.482 43.8068 120.02C43.8988 120.178 43.9966 120.332 44.0944 120.485C44.3313 120.865 44.573 121.251 44.8156 121.626C45.0669 122.023 45.3239 122.416 45.5868 122.804C45.6252 122.85 45.6578 122.901 45.6904 122.952C45.9533 123.34 46.2161 123.728 46.4896 124.116C46.5558 124.208 46.6172 124.294 46.6776 124.39C46.9703 124.802 47.2629 125.214 47.5614 125.621C47.6382 125.714 47.7082 125.822 47.7793 125.919C48.0259 126.252 48.2677 126.579 48.5202 126.907C48.6162 127.023 48.7054 127.154 48.8015 127.27C49.0923 127.644 49.388 128.024 49.6846 128.394C49.7183 128.434 49.7471 128.469 49.7807 128.509C50.1061 128.914 50.4326 129.307 50.7639 129.707C50.9079 129.88 51.0471 130.048 51.1912 130.222C51.4072 130.482 51.629 130.738 51.8557 130.999C52.0045 131.179 52.165 131.349 52.3196 131.523C52.5366 131.773 52.7595 132.018 52.9871 132.269C53.1418 132.444 53.307 132.619 53.4616 132.794C53.6845 133.039 53.9179 133.285 54.1466 133.525C54.307 133.695 54.4674 133.865 54.6279 134.035C54.9583 134.386 55.2946 134.732 55.6319 135.068C55.6511 135.091 55.6655 135.109 55.6847 135.132C56.0555 135.508 56.4322 135.88 56.8195 136.252C56.9175 136.347 57.0155 136.441 57.1184 136.541C57.4566 136.867 57.7949 137.192 58.1389 137.512C58.188 137.56 58.2418 137.613 58.2908 137.66C58.6791 138.022 59.0731 138.379 59.4672 138.736C59.571 138.826 59.6643 138.914 59.7681 139.004C60.1035 139.302 60.4438 139.606 60.7851 139.9C60.8591 139.965 60.9331 140.031 61.0071 140.097C61.3926 140.432 61.7791 140.756 62.1761 141.081C62.702 141.514 63.2279 141.948 63.7654 142.372C63.8001 142.402 63.8453 142.432 63.8799 142.462C64.377 142.861 64.8809 143.244 65.3848 143.627C65.5646 143.762 65.7444 143.896 65.9243 144.03C66.3041 144.311 66.6734 144.591 67.0591 144.867C67.2591 145.014 67.465 145.156 67.665 145.302C68.0411 145.567 68.4219 145.837 68.798 146.102C68.9884 146.237 69.1847 146.367 69.3799 146.508C69.832 146.817 70.2947 147.127 70.7584 147.426C70.8738 147.507 70.995 147.582 71.1104 147.662C71.6896 148.041 72.2755 148.405 72.8614 148.77C73.023 148.87 73.1798 148.965 73.3415 149.065C73.7763 149.33 74.2112 149.594 74.6519 149.854C74.8645 149.981 75.0724 150.101 75.2908 150.223C75.6911 150.458 76.0924 150.682 76.4984 150.912C76.7727 151.065 77.0469 151.219 77.3212 151.372C77.4434 151.437 77.5704 151.508 77.6927 151.572C78.1709 151.83 78.6598 152.089 79.1439 152.342C79.1949 152.368 79.2411 152.389 79.2863 152.419C79.73 152.647 80.1843 152.876 80.6338 153.1C80.7666 153.165 80.8946 153.225 81.0217 153.296C81.5173 153.539 82.0082 153.777 82.5097 154.016C83.0112 154.254 83.5137 154.482 84.0162 154.71C84.1442 154.77 84.2828 154.831 84.4109 154.891C84.873 155.094 85.335 155.297 85.7923 155.494C85.8433 155.52 85.8953 155.536 85.9463 155.562C86.4864 155.788 87.0217 156.008 87.5676 156.23C87.7169 156.292 87.8719 156.349 88.0211 156.411C88.413 156.564 88.8049 156.718 89.1919 156.866C89.3932 156.943 89.5944 157.021 89.7966 157.087C90.1481 157.216 90.4937 157.349 90.851 157.473C91.0628 157.552 91.2805 157.625 91.4923 157.703C91.891 157.842 92.2897 157.98 92.6835 158.113C92.8029 158.15 92.9166 158.193 93.036 158.231C93.5599 158.402 94.0838 158.573 94.6135 158.739C94.7329 158.777 94.8475 158.809 94.9669 158.847C95.3984 158.977 95.8347 159.114 96.272 159.24C96.4126 159.279 96.558 159.325 96.6986 159.365C97.2139 159.514 97.735 159.658 98.2513 159.796C98.3399 159.821 98.4285 159.845 98.5171 159.869C99.0286 160.002 99.5401 160.134 100.052 160.267C100.104 160.282 100.161 160.293 100.213 160.309C100.705 160.429 101.191 160.543 101.678 160.657C102.08 160.753 102.484 160.839 102.898 160.925C103.15 160.98 103.401 161.035 103.658 161.086C104.12 161.182 104.577 161.272 105.039 161.357C105.238 161.397 105.438 161.437 105.643 161.472C106.116 161.558 106.59 161.634 107.063 161.72C107.232 161.747 107.405 161.779 107.574 161.805C108.217 161.907 108.865 162.004 109.515 162.091C109.9 162.142 110.292 162.189 110.683 162.236C110.921 162.263 111.158 162.301 111.396 162.328C111.872 162.383 112.354 162.432 112.831 162.476C112.979 162.49 113.133 162.51 113.281 162.523C113.917 162.582 114.548 162.635 115.181 162.677C115.722 162.716 116.255 162.744 116.791 162.777C116.946 162.786 117.106 162.79 117.26 162.799C117.659 162.82 118.064 162.836 118.464 162.846C118.613 162.849 118.768 162.858 118.917 162.861C119.45 162.878 119.978 162.889 120.502 162.895C120.55 162.894 120.592 162.898 120.641 162.897C121.116 162.903 121.592 162.899 122.068 162.895C122.224 162.893 122.379 162.891 122.54 162.885C122.926 162.877 123.305 162.875 123.686 162.862C123.831 162.859 123.981 162.852 124.126 162.849C124.641 162.832 125.145 162.815 125.65 162.786C125.699 162.785 125.742 162.779 125.784 162.783C126.252 162.756 126.709 162.729 127.167 162.691C127.318 162.683 127.469 162.665 127.62 162.658C128.002 162.624 128.379 162.594 128.762 162.56C128.897 162.546 129.037 162.537 129.178 162.518C129.675 162.468 130.177 162.412 130.669 162.356C130.734 162.351 130.793 162.341 130.858 162.336C131.302 162.281 131.745 162.225 132.184 162.164C132.331 162.14 132.482 162.122 132.623 162.103C133.019 162.049 133.409 161.988 133.801 161.918C133.915 161.901 134.024 161.879 134.138 161.863C134.637 161.781 135.132 161.693 135.622 161.599C135.742 161.578 135.851 161.556 135.966 161.529C136.363 161.453 136.756 161.372 137.148 161.291C137.28 161.26 137.41 161.24 137.541 161.209C138.054 161.096 138.557 160.982 139.066 160.863C139.142 160.849 139.213 160.829 139.29 160.804C139.739 160.695 140.172 160.58 140.616 160.466C140.737 160.434 140.857 160.403 140.984 160.366C141.494 160.226 142.011 160.081 142.516 159.936C142.593 159.911 142.681 159.887 142.759 159.862C143.215 159.727 143.662 159.581 144.114 159.441C144.213 159.408 144.317 159.38 144.417 159.346C144.946 159.171 145.472 158.989 146.002 158.803C146.108 158.764 146.213 158.726 146.318 158.688C146.85 158.491 147.382 158.294 147.904 158.085C148.182 157.972 148.454 157.863 148.732 157.75C148.793 157.729 148.855 157.697 148.916 157.676C149.256 157.531 149.59 157.391 149.93 157.246C150.03 157.201 150.125 157.162 150.225 157.118C150.46 157.011 150.699 156.91 150.934 156.803C151.062 156.746 151.186 156.682 151.314 156.625C151.521 156.531 151.717 156.437 151.919 156.338C152.176 156.212 152.434 156.086 152.698 155.956C152.788 155.91 152.878 155.865 152.967 155.82C153.315 155.649 153.658 155.472 154.002 155.285C154.086 155.244 154.165 155.198 154.244 155.152C154.503 155.015 154.762 154.879 155.016 154.737C155.145 154.668 155.264 154.599 155.389 154.525C155.603 154.406 155.812 154.291 156.021 154.166C156.123 154.112 156.225 154.046 156.327 153.991C156.632 153.816 156.927 153.64 157.222 153.454C157.33 153.384 157.443 153.319 157.552 153.249C157.915 153.026 158.273 152.797 158.626 152.573C158.643 152.558 158.661 152.544 158.683 152.535C159.059 152.292 159.424 152.048 159.785 151.797C159.893 151.727 159.99 151.656 160.094 151.58C160.374 151.387 160.649 151.187 160.925 150.988C161.017 150.922 161.109 150.856 161.2 150.789C161.573 150.519 161.936 150.248 162.299 149.966C162.369 149.908 162.439 149.85 162.508 149.792C162.814 149.559 163.114 149.319 163.404 149.078C163.497 149.001 163.584 148.929 163.677 148.852C164.025 148.564 164.379 148.27 164.717 147.97C164.764 147.931 164.804 147.898 164.851 147.859C165.159 147.594 165.457 147.327 165.75 147.055C165.843 146.978 165.926 146.889 166.019 146.812C166.352 146.506 166.681 146.194 167.005 145.877C167.329 145.559 167.649 145.236 167.962 144.917C168.045 144.829 168.128 144.74 168.211 144.662C168.489 144.372 168.757 144.082 169.025 143.791C169.067 143.747 169.109 143.702 169.144 143.663C169.448 143.333 169.737 142.996 170.031 142.654C170.103 142.564 170.181 142.481 170.254 142.391C170.495 142.103 170.736 141.815 170.971 141.532C171.031 141.463 171.085 141.399 171.14 141.323C171.419 140.975 171.692 140.631 171.956 140.276C172.022 140.191 172.079 140.106 172.145 140.021C172.365 139.731 172.586 139.431 172.796 139.129C172.852 139.044 172.919 138.959 172.975 138.873C173.234 138.512 173.482 138.15 173.731 137.777C173.781 137.707 173.825 137.631 173.875 137.561C174.08 137.254 174.286 136.936 174.482 136.617C174.539 136.521 174.607 136.425 174.664 136.329C174.898 135.95 175.132 135.57 175.35 135.184C175.376 135.133 175.407 135.088 175.433 135.037C175.631 134.697 175.824 134.351 176.012 134C176.071 133.893 176.123 133.791 176.181 133.684C176.39 133.286 176.598 132.888 176.796 132.489L169.783 146.534C169.585 146.932 169.376 147.33 169.167 147.728C169.109 147.835 169.057 147.937 168.999 148.044C168.81 148.395 168.612 148.735 168.419 149.081C168.393 149.132 168.362 149.177 168.336 149.228C168.113 149.609 167.884 149.994 167.651 150.373C167.593 150.47 167.53 150.571 167.468 150.661C167.268 150.974 167.067 151.287 166.866 151.6C166.817 151.67 166.772 151.746 166.723 151.817C166.48 152.185 166.226 152.551 165.967 152.912C165.911 152.998 165.844 153.083 165.782 153.173C165.567 153.469 165.352 153.765 165.133 154.054C165.066 154.139 165.009 154.225 164.943 154.31C164.674 154.659 164.4 155.013 164.127 155.357C164.067 155.426 164.013 155.491 163.958 155.566C163.722 155.86 163.487 156.143 163.241 156.425C163.168 156.514 163.091 156.598 163.018 156.688C162.73 157.024 162.431 157.36 162.132 157.696C162.09 157.741 162.048 157.785 162.013 157.824C161.745 158.115 161.471 158.411 161.198 158.696C161.115 158.784 161.031 158.873 160.949 158.951C160.63 159.274 160.317 159.593 159.993 159.91C159.993 159.91 159.993 159.91 159.987 159.915C159.663 160.233 159.334 160.544 159 160.851C158.907 160.928 158.824 161.016 158.731 161.093C158.438 161.365 158.135 161.637 157.832 161.898C157.786 161.936 157.739 161.975 157.699 162.008C157.355 162.303 157.012 162.597 156.658 162.891C156.565 162.968 156.478 163.04 156.386 163.117C156.09 163.362 155.795 163.597 155.49 163.831C155.42 163.889 155.35 163.946 155.276 163.998C154.918 164.275 154.55 164.551 154.177 164.822C154.148 164.846 154.119 164.87 154.09 164.894C154.032 164.942 153.959 164.983 153.901 165.032C153.625 165.231 153.35 165.43 153.069 165.623C152.966 165.699 152.864 165.765 152.76 165.841C152.4 166.091 152.029 166.34 151.659 166.578C151.641 166.593 151.624 166.607 151.602 166.616C151.243 166.845 150.891 167.069 150.527 167.292C150.419 167.362 150.306 167.427 150.198 167.497C149.897 167.678 149.603 167.854 149.302 168.034C149.235 168.071 149.172 168.113 149.098 168.155C149.069 168.179 149.031 168.191 148.991 168.214C148.782 168.339 148.573 168.454 148.359 168.573C148.234 168.647 148.11 168.71 147.986 168.785C147.732 168.927 147.473 169.063 147.214 169.2C147.135 169.246 147.051 169.286 146.972 169.333C146.629 169.509 146.286 169.686 145.937 169.868C145.847 169.913 145.758 169.958 145.668 170.004C145.41 170.13 145.152 170.255 144.888 170.386C144.871 170.401 144.838 170.408 144.821 170.423C144.647 170.508 144.468 170.588 144.29 170.668C144.161 170.725 144.038 170.789 143.909 170.847C143.675 170.953 143.44 171.06 143.201 171.161C143.1 171.205 143 171.249 142.905 171.289C142.565 171.434 142.231 171.574 141.891 171.719C141.825 171.745 141.764 171.766 141.702 171.798C141.441 171.907 141.168 172.016 140.902 172.12C140.896 172.125 140.89 172.129 140.874 172.133C140.352 172.342 139.82 172.539 139.288 172.735C139.183 172.774 139.077 172.812 138.972 172.851C138.452 173.038 137.921 173.224 137.386 173.394C137.348 173.407 137.32 173.42 137.281 173.433C137.215 173.459 137.149 173.474 137.077 173.494C136.631 173.64 136.179 173.78 135.722 173.914C135.645 173.939 135.557 173.963 135.48 173.988C134.969 174.139 134.463 174.285 133.948 174.419C133.899 174.431 133.844 174.447 133.799 174.464C133.728 174.484 133.656 174.505 133.58 174.519C133.141 174.639 132.703 174.748 132.254 174.856C132.183 174.877 132.107 174.891 132.035 174.911C131.532 175.036 131.024 175.144 130.511 175.257C130.462 175.269 130.407 175.285 130.353 175.291C130.271 175.31 130.194 175.324 130.112 175.343C129.72 175.425 129.327 175.506 128.93 175.582C128.81 175.603 128.701 175.625 128.586 175.652C128.096 175.746 127.601 175.834 127.102 175.916C127.075 175.919 127.042 175.926 127.015 175.929C126.934 175.938 126.852 175.957 126.771 175.966C126.38 176.026 125.984 176.091 125.593 176.151C125.446 176.175 125.295 176.193 125.154 176.212C124.715 176.273 124.272 176.329 123.828 176.384C123.774 176.39 123.73 176.396 123.676 176.402C123.671 176.407 123.649 176.405 123.639 176.404C123.141 176.465 122.644 176.516 122.148 176.566C122.013 176.58 121.867 176.594 121.732 176.608C121.349 176.642 120.966 176.676 120.589 176.706C120.498 176.713 120.411 176.727 120.325 176.729C120.26 176.734 120.202 176.734 120.142 176.745C119.679 176.777 119.216 176.809 118.754 176.831C118.711 176.837 118.668 176.833 118.625 176.84C118.12 176.868 117.61 176.891 117.101 176.903C117.052 176.904 116.998 176.909 116.95 176.91C116.854 176.912 116.757 176.914 116.661 176.916C116.28 176.929 115.894 176.936 115.515 176.938C115.359 176.94 115.204 176.942 115.043 176.948C114.567 176.953 114.096 176.952 113.615 176.95C113.578 176.952 113.535 176.948 113.498 176.95C113.498 176.95 113.487 176.949 113.476 176.948C112.953 176.943 112.425 176.932 111.892 176.915C111.742 176.911 111.588 176.903 111.438 176.9L111.419 176.876Z" fill="#FF834E" stroke="black" stroke-width="0.175375" stroke-miterlimit="10"/>
</svg>
