<svg width="149" height="175" viewBox="0 0 149 175" fill="none" xmlns="http://www.w3.org/2000/svg">
<path d="M49.8264 144.429C83.3759 156.871 127.552 138.566 148.5 103.539C169.449 68.5123 159.234 30.0298 125.683 17.5804C92.1337 5.13844 47.9557 23.4368 27.0091 58.4708C6.06087 93.4976 16.2753 131.98 49.8264 144.429Z" fill="#A1D0E6" stroke="black" stroke-width="0.175375" stroke-miterlimit="10"/>
<path d="M128.579 32.8887C126.341 31.5391 123.896 30.3682 121.323 29.4122C114.754 26.9767 107.506 25.9572 99.7747 26.3941C92.0491 26.822 84.1945 28.6713 76.4455 31.8883C60.2895 38.5814 46.567 50.3298 37.8128 64.9662C22.8814 89.9361 26.7134 116.916 46.9286 129.117C49.1674 130.467 51.612 131.638 54.1848 132.594C60.7544 135.029 68.0021 136.049 75.7334 135.612C83.459 135.184 91.3136 133.335 99.0626 130.118C115.219 123.425 128.941 111.676 137.695 97.0398C152.627 72.07 148.795 45.0897 128.579 32.8887Z" fill="white" stroke="black" stroke-width="0.175375" stroke-miterlimit="10"/>
<path d="M159.516 113.276C159.327 113.628 159.129 113.976 158.932 114.33C158.882 114.411 158.84 114.498 158.789 114.579C158.763 114.632 158.729 114.686 158.7 114.731C158.436 115.194 158.165 115.658 157.886 116.124C157.564 116.67 157.233 117.21 156.892 117.744C156.802 117.889 156.704 118.035 156.614 118.179C156.364 118.569 156.121 118.957 155.862 119.342C155.725 119.551 155.585 119.746 155.455 119.953C155.241 120.265 155.036 120.583 154.822 120.895C154.822 120.895 154.809 120.906 154.811 120.913C154.441 121.454 154.063 121.989 153.682 122.517C153.583 122.656 153.476 122.797 153.377 122.935C153.096 123.325 152.808 123.716 152.516 124.092C152.497 124.112 152.481 124.139 152.464 124.166C152.357 124.306 152.249 124.439 152.142 124.58C151.858 124.954 151.572 125.322 151.278 125.691C151.116 125.89 150.953 126.09 150.798 126.288C150.54 126.61 150.275 126.934 150.01 127.258C149.95 127.333 149.89 127.409 149.83 127.484C149.571 127.799 149.31 128.106 149.048 128.414C149.011 128.453 148.976 128.5 148.938 128.54C148.599 128.942 148.25 129.339 147.9 129.729C147.838 129.797 147.777 129.866 147.715 129.934C147.421 130.264 147.132 130.586 146.836 130.909C146.767 130.979 146.7 131.056 146.631 131.126C146.532 131.234 146.426 131.343 146.327 131.451C146.018 131.785 145.707 132.111 145.389 132.44C145.302 132.529 145.222 132.617 145.134 132.707C144.747 133.105 144.359 133.496 143.97 133.887C143.882 133.976 143.793 134.058 143.706 134.148C143.524 134.329 143.341 134.51 143.159 134.691C143.039 134.804 142.925 134.915 142.804 135.028C142.639 135.182 142.476 135.343 142.31 135.497C142.037 135.753 141.764 136.009 141.491 136.265C141.332 136.41 141.172 136.555 141.021 136.705C140.708 136.986 140.401 137.265 140.088 137.546C139.965 137.651 139.845 137.764 139.722 137.869C139.299 138.245 138.867 138.615 138.435 138.985C138.422 138.995 138.409 139.006 138.396 139.017C138.35 139.05 138.313 139.09 138.266 139.124C137.886 139.451 137.497 139.772 137.106 140.086C136.997 140.181 136.878 140.27 136.769 140.364C136.339 140.711 135.909 141.057 135.47 141.397C135.47 141.397 135.47 141.397 135.463 141.399C135.032 141.738 134.591 142.071 134.151 142.404C134.039 142.491 133.921 142.58 133.808 142.66C133.407 142.961 133.005 143.262 132.593 143.55C132.547 143.584 132.508 143.616 132.461 143.65C132.018 143.968 131.574 144.287 131.121 144.599C131.008 144.679 130.888 144.761 130.775 144.841C130.635 144.935 130.496 145.037 130.348 145.132C130.228 145.214 130.106 145.288 129.986 145.37C129.598 145.629 129.217 145.887 128.828 146.139C128.619 146.272 128.419 146.41 128.211 146.543C127.78 146.82 127.348 147.089 126.916 147.358C126.761 147.456 126.599 147.555 126.444 147.652C125.855 148.012 125.259 148.373 124.659 148.719C124.536 148.786 124.421 148.859 124.298 148.926C123.822 149.205 123.337 149.479 122.85 149.745C122.645 149.862 122.439 149.971 122.233 150.08C121.829 150.305 121.416 150.523 121.009 150.732C120.788 150.845 120.568 150.965 120.347 151.078C119.927 151.298 119.504 151.503 119.089 151.714C118.888 151.815 118.688 151.915 118.494 152.013C117.918 152.292 117.349 152.57 116.769 152.835C116.727 152.852 116.679 152.878 116.637 152.896C116.016 153.185 115.393 153.46 114.769 153.734C114.719 153.753 114.672 153.78 114.622 153.799C114.208 153.979 113.785 154.154 113.37 154.326C113.278 154.363 113.186 154.399 113.094 154.436C112.678 154.609 112.254 154.776 111.836 154.941C111.709 154.993 111.581 155.038 111.461 155.089C110.965 155.28 110.469 155.471 109.978 155.654C109.914 155.676 109.842 155.7 109.778 155.723C109.337 155.886 108.895 156.042 108.452 156.197C108.323 156.242 108.187 156.289 108.059 156.334C107.558 156.503 107.056 156.672 106.555 156.842C106.526 156.848 106.496 156.855 106.467 156.862C106.115 156.974 105.762 157.085 105.41 157.197C105.302 157.23 105.201 157.261 105.092 157.293C104.869 157.36 104.645 157.427 104.421 157.494C104.104 157.59 103.777 157.68 103.46 157.776C103.236 157.843 103.003 157.904 102.777 157.964C102.458 158.053 102.137 158.134 101.811 158.224C101.584 158.276 101.36 158.343 101.134 158.403C100.806 158.486 100.478 158.569 100.148 158.645C99.9283 158.695 99.7084 158.746 99.4959 158.794C99.4226 158.811 99.3493 158.828 99.276 158.845C98.8436 158.944 98.4184 159.042 97.9843 159.134C97.933 159.145 97.889 159.156 97.8377 159.167C97.3669 159.268 96.9018 159.359 96.4367 159.45C96.2901 159.484 96.1328 159.505 95.9862 159.538C95.5797 159.616 95.1788 159.685 94.7706 159.755C94.6534 159.782 94.5254 159.796 94.4064 159.816C94.3551 159.827 94.3038 159.839 94.2508 159.844C93.8043 159.915 93.3578 159.987 92.9096 160.051C92.7979 160.069 92.6936 160.085 92.5803 160.096C92.1174 160.163 91.6455 160.225 91.181 160.285C91.1224 160.299 91.062 160.305 91.0091 160.309C90.6195 160.36 90.2282 160.404 89.837 160.447C89.762 160.457 89.6853 160.459 89.6103 160.468C89.1661 160.516 88.7128 160.558 88.2669 160.599C88.0859 160.617 87.8976 160.637 87.715 160.648C87.0864 160.7 86.4561 160.744 85.8314 160.779C85.8168 160.782 85.8095 160.784 85.7948 160.787C85.6268 160.795 85.4661 160.801 85.3055 160.807C84.8928 160.824 84.4745 160.851 84.0602 160.861C83.8301 160.867 83.6075 160.872 83.3775 160.878C83.0161 160.884 82.6491 160.898 82.2861 160.897C82.2404 160.899 82.1948 160.902 82.1474 160.898C81.9247 160.902 81.706 160.891 81.4833 160.895C81.175 160.897 80.8666 160.898 80.5566 160.892C80.2849 160.884 80.0131 160.877 79.7488 160.868C79.4461 160.86 79.136 160.854 78.8316 160.839C78.7696 160.838 78.7149 160.835 78.6529 160.834C78.4269 160.824 78.1918 160.808 77.9657 160.798C77.6923 160.784 77.419 160.769 77.1456 160.754C76.8558 160.736 76.5644 160.71 76.2746 160.691C75.9996 160.669 75.7335 160.653 75.4567 160.624C75.402 160.621 75.3474 160.618 75.2927 160.615C75.0323 160.59 74.7701 160.557 74.5097 160.532C74.2803 160.507 74.0435 160.484 73.8141 160.46C73.481 160.42 73.1479 160.381 72.8204 160.332C72.6056 160.304 72.3908 160.276 72.1761 160.248C72.1524 160.246 72.1214 160.245 72.096 160.236C71.7302 160.188 71.3684 160.124 71.0082 160.068C70.8554 160.041 70.7044 160.021 70.5516 159.995C70.0223 159.907 69.484 159.814 68.9587 159.711C68.9587 159.711 68.9514 159.712 68.944 159.714C68.8386 159.692 68.7406 159.668 68.6368 159.653C68.2079 159.566 67.779 159.479 67.3484 159.384C67.1612 159.342 66.9724 159.293 66.778 159.253C66.4854 159.188 66.1912 159.117 65.897 159.045C65.8553 159.031 65.8063 159.019 65.7662 159.013C65.5464 158.963 65.3322 158.904 65.1107 158.846C64.8002 158.771 64.4953 158.686 64.1904 158.602C63.9672 158.537 63.7366 158.474 63.5134 158.409C63.2976 158.343 63.0761 158.285 62.8602 158.219C62.7858 158.197 62.7097 158.168 62.628 158.148C62.3958 158.078 62.1619 158 61.9297 157.93C61.6468 157.84 61.3548 157.745 61.0719 157.655C60.838 157.577 60.6024 157.492 60.3685 157.414C60.1927 157.354 60.0169 157.294 59.841 157.234C59.6398 157.164 59.4369 157.087 59.234 157.01C58.8626 156.871 58.4912 156.732 58.1255 156.584C58.015 156.539 57.9046 156.495 57.7941 156.451C57.5298 156.342 57.2655 156.232 57.0012 156.123C56.9324 156.092 56.8653 156.069 56.7966 156.038C56.7622 156.023 56.7278 156.008 56.6935 155.992C56.2573 155.806 55.8194 155.613 55.3888 155.418C55.3111 155.382 55.2333 155.345 55.1482 155.311C54.6996 155.104 54.2584 154.896 53.8227 154.679C53.8227 154.679 53.8047 154.668 53.7974 154.67C53.528 154.538 53.266 154.405 53.004 154.272C52.9155 154.223 52.8287 154.181 52.7329 154.133C52.5486 154.036 52.3734 153.945 52.1964 153.846C52.0916 153.793 51.9851 153.733 51.8876 153.678C51.7287 153.59 51.5608 153.498 51.4019 153.41C51.2954 153.35 51.1889 153.289 51.075 153.23C50.9866 153.181 50.8891 153.126 50.8006 153.077C50.7392 153.044 50.6851 153.01 50.622 152.971C50.4974 152.899 50.3639 152.821 50.2394 152.749C50.0968 152.666 49.9616 152.581 49.819 152.498C49.6928 152.418 49.5682 152.347 49.442 152.267C49.3068 152.182 49.1715 152.097 49.029 152.014C48.9028 151.935 48.7765 151.856 48.6577 151.775C48.5224 151.69 48.3872 151.605 48.2576 151.511C48.1314 151.431 48.0125 151.35 47.8936 151.269C47.8305 151.23 47.7674 151.19 47.7116 151.149C47.6468 151.102 47.5837 151.062 47.5189 151.015C47.373 150.917 47.227 150.819 47.0794 150.714C46.9605 150.633 46.8416 150.552 46.721 150.464C46.5751 150.366 46.4348 150.259 46.2962 150.159C46.1773 150.078 46.0641 149.988 45.9452 149.907C45.8049 149.8 45.6646 149.693 45.526 149.594C45.4144 149.511 45.3012 149.421 45.1896 149.338C45.0493 149.232 44.909 149.125 44.767 149.01C44.6915 148.95 44.6087 148.892 44.5315 148.825C44.5028 148.8 44.4758 148.783 44.447 148.759C44.2008 148.56 43.9563 148.369 43.7174 148.169C43.6904 148.152 43.669 148.126 43.6419 148.109C43.376 147.891 43.1157 147.665 42.8554 147.439C42.7782 147.371 42.701 147.304 42.6222 147.229C42.4391 147.07 42.256 146.911 42.0802 146.75C41.9923 146.67 41.9044 146.59 41.8075 146.504C41.6334 146.35 41.465 146.188 41.2966 146.026C41.2391 145.977 41.189 145.927 41.1298 145.871C41.1084 145.845 41.0814 145.828 41.0599 145.802C40.7535 145.509 40.4543 145.214 40.1552 144.919C40.0961 144.863 40.0352 144.8 39.9834 144.742C39.7006 144.451 39.4195 144.168 39.1441 143.875C39.1226 143.849 39.0939 143.825 39.0708 143.792C38.783 143.479 38.4951 143.166 38.2146 142.851C38.1521 142.781 38.0913 142.717 38.0361 142.645C37.7629 142.329 37.4897 142.013 37.2221 141.687C37.2188 141.673 37.2007 141.661 37.19 141.648C37.1579 141.609 37.1258 141.57 37.092 141.524C36.8904 141.284 36.6961 141.043 36.5001 140.794C36.4359 140.716 36.3716 140.638 36.3131 140.551C36.0833 140.255 35.8535 139.96 35.6293 139.656L26.2441 127.072C26.4666 127.369 26.6981 127.672 26.9279 127.967C26.9921 128.045 27.058 128.13 27.1222 128.208C27.3165 128.45 27.5125 128.699 27.7142 128.939C27.757 128.991 27.7998 129.043 27.8426 129.095C28.1101 129.42 28.3833 129.736 28.6565 130.052C28.7191 130.123 28.7799 130.186 28.8351 130.259C29.1156 130.573 29.3961 130.888 29.6913 131.199C29.7127 131.225 29.7414 131.249 29.7645 131.283C30.04 131.575 30.3228 131.866 30.6039 132.149C30.663 132.205 30.7238 132.269 30.7757 132.326C31.0748 132.621 31.3739 132.916 31.6804 133.209C31.7593 133.284 31.8365 133.351 31.9153 133.426C32.0838 133.588 32.2579 133.741 32.4263 133.904C32.5142 133.984 32.6021 134.064 32.699 134.15C32.8747 134.311 33.0578 134.47 33.2409 134.629C33.3181 134.696 33.3953 134.764 33.4742 134.838C33.7345 135.065 33.9931 135.284 34.2607 135.509C34.2804 135.527 34.3074 135.544 34.3272 135.563C34.5734 135.761 34.8123 135.962 35.0658 136.159C35.17 136.243 35.2743 136.327 35.3841 136.403C35.5244 136.51 35.6664 136.624 35.8067 136.731C35.9183 136.814 36.0315 136.904 36.1431 136.986C36.2834 137.093 36.4237 137.2 36.5713 137.306C36.6828 137.388 36.8034 137.477 36.9223 137.558C37.0609 137.657 37.2085 137.762 37.3471 137.862C37.466 137.943 37.5866 138.031 37.7055 138.112C37.8514 138.21 37.9974 138.308 38.1377 138.415C38.2656 138.502 38.3845 138.583 38.5124 138.669C38.6313 138.75 38.7575 138.83 38.8764 138.911C39.0116 138.996 39.1468 139.081 39.2764 139.174C39.4026 139.254 39.5215 139.335 39.6478 139.414C39.783 139.499 39.9182 139.584 40.0608 139.667C40.187 139.746 40.3115 139.818 40.4378 139.898C40.573 139.983 40.7156 140.066 40.8491 140.143C40.9753 140.223 41.1072 140.293 41.2334 140.372C41.385 140.461 41.5276 140.544 41.6774 140.626C41.784 140.687 41.8905 140.747 42.006 140.814C42.1649 140.901 42.3255 140.995 42.4917 141.081C42.5965 141.134 42.7031 141.195 42.8005 141.25C42.9775 141.348 43.1601 141.438 43.337 141.536C43.4255 141.586 43.5213 141.633 43.6081 141.675C43.8701 141.808 44.1321 141.942 44.4015 142.073C44.4015 142.073 44.4195 142.084 44.4269 142.083C44.8625 142.3 45.3037 142.508 45.7523 142.714C45.8301 142.75 45.9078 142.787 45.9929 142.821C46.4235 143.016 46.8614 143.21 47.2976 143.396C47.4007 143.441 47.5022 143.48 47.6053 143.526C47.8696 143.635 48.1339 143.745 48.3982 143.854C48.5087 143.899 48.6191 143.943 48.7296 143.987C49.0954 144.135 49.4668 144.274 49.8382 144.413C50.2169 144.55 50.5939 144.68 50.9727 144.818C51.2066 144.895 51.4421 144.98 51.676 145.058C51.9606 145.155 52.2436 145.245 52.5338 145.333C52.766 145.403 52.9999 145.481 53.2321 145.552C53.5297 145.638 53.82 145.726 54.1176 145.812C54.3408 145.877 54.564 145.942 54.7945 146.005C55.0994 146.089 55.4116 146.172 55.7222 146.248C55.9364 146.307 56.1579 146.365 56.3704 146.416C56.7063 146.502 57.0478 146.578 57.3821 146.656C57.5692 146.698 57.758 146.747 57.9525 146.788C58.3831 146.882 58.812 146.969 59.2483 147.055C59.3464 147.079 59.4501 147.094 59.5482 147.117C60.0808 147.219 60.6208 147.32 61.1574 147.405C61.3102 147.432 61.4539 147.453 61.605 147.473C61.9978 147.537 62.389 147.594 62.7802 147.651C62.995 147.679 63.2097 147.707 63.4245 147.735C63.7576 147.775 64.0851 147.824 64.4182 147.863C64.6477 147.888 64.8844 147.911 65.1138 147.935C65.4306 147.971 65.7457 147.999 66.0608 148.027C66.3286 148.051 66.6037 148.073 66.8714 148.096C67.1629 148.122 67.4526 148.141 67.7423 148.159C68.0157 148.174 68.2891 148.189 68.5625 148.203C68.8523 148.222 69.1403 148.233 69.4284 148.244C69.7328 148.259 70.0428 148.265 70.3455 148.273C70.6173 148.28 70.8817 148.289 71.1534 148.297C71.4634 148.303 71.7718 148.302 72.0801 148.3C72.3502 148.3 72.6128 148.302 72.8829 148.302C73.2442 148.296 73.6056 148.29 73.9669 148.285C74.1969 148.278 74.4286 148.279 74.6586 148.273C75.073 148.263 75.4839 148.238 75.8966 148.221C76.0719 148.211 76.2489 148.209 76.4316 148.198C77.0562 148.163 77.6865 148.119 78.3151 148.068C78.4978 148.057 78.6787 148.038 78.8597 148.02C79.3056 147.98 79.7589 147.937 80.2032 147.889C80.6711 147.844 81.1373 147.791 81.6019 147.731C81.6605 147.717 81.7208 147.711 81.7812 147.705C82.2457 147.645 82.7103 147.585 83.1805 147.515C83.2921 147.497 83.3964 147.481 83.5097 147.471C84.0092 147.395 84.5087 147.319 85.0066 147.235C85.1238 147.208 85.2518 147.195 85.3708 147.175C85.779 147.104 86.1798 147.036 86.5863 146.958C86.7329 146.924 86.8902 146.904 87.0368 146.87C87.502 146.779 87.9744 146.686 88.4379 146.587C88.4892 146.575 88.5331 146.565 88.5844 146.553C89.0919 146.445 89.5903 146.33 90.096 146.214C90.3159 146.164 90.5285 146.115 90.7484 146.064C91.0782 145.989 91.4064 145.906 91.7418 145.821C91.969 145.769 92.1929 145.702 92.4184 145.642C92.7393 145.561 93.0584 145.472 93.3848 145.382C93.6104 145.322 93.8416 145.254 94.0671 145.194C94.3862 145.106 94.711 145.008 95.0285 144.912C95.2523 144.845 95.4761 144.778 95.7 144.711C96.1623 144.574 96.623 144.43 97.0747 144.28C97.104 144.273 97.126 144.268 97.1553 144.261C97.6582 144.099 98.1595 143.93 98.6664 143.752C98.795 143.707 98.9235 143.662 99.0594 143.615C99.5021 143.46 99.9447 143.304 100.386 143.141C100.45 143.118 100.522 143.094 100.586 143.072C101.084 142.888 101.58 142.697 102.076 142.505C102.203 142.453 102.324 142.41 102.451 142.357C102.868 142.192 103.293 142.025 103.709 141.852C103.8 141.816 103.892 141.779 103.984 141.743C104.457 141.549 104.92 141.35 105.39 141.142C106.013 140.867 106.637 140.592 107.257 140.303C107.299 140.286 107.347 140.259 107.39 140.242C107.969 139.977 108.538 139.7 109.107 139.422C109.308 139.322 109.509 139.222 109.71 139.122C110.132 138.909 110.548 138.705 110.968 138.485C111.189 138.372 111.408 138.252 111.629 138.14C112.035 137.923 112.448 137.704 112.853 137.488C113.059 137.378 113.264 137.262 113.478 137.151C113.957 136.886 114.442 136.613 114.918 136.333C115.042 136.266 115.164 136.192 115.287 136.125C115.887 135.778 116.475 135.419 117.064 135.06C117.227 134.96 117.382 134.863 117.544 134.764C117.976 134.495 118.408 134.225 118.838 133.949C119.047 133.816 119.248 133.684 119.455 133.544C119.845 133.292 120.226 133.035 120.614 132.776C120.874 132.6 121.135 132.424 121.395 132.248C121.508 132.168 121.628 132.087 121.741 132.007C122.187 131.695 122.638 131.375 123.082 131.057C123.128 131.023 123.167 130.991 123.215 130.965C123.618 130.671 124.027 130.368 124.429 130.067C124.547 129.978 124.658 129.891 124.778 129.809C125.219 129.476 125.652 129.145 126.091 128.804C126.53 128.464 126.96 128.118 127.389 127.772C127.5 127.684 127.617 127.588 127.728 127.501C128.118 127.179 128.507 126.858 128.889 126.538C128.935 126.505 128.972 126.465 129.018 126.431C129.463 126.051 129.901 125.672 130.344 125.284C130.467 125.179 130.588 125.066 130.71 124.96C131.024 124.68 131.337 124.399 131.643 124.12C131.803 123.975 131.963 123.83 132.113 123.679C132.386 123.423 132.661 123.175 132.932 122.912C133.098 122.758 133.261 122.596 133.427 122.442C133.73 122.149 134.032 121.855 134.328 121.563C134.415 121.473 134.505 121.391 134.592 121.301C134.981 120.91 135.369 120.52 135.756 120.121C135.844 120.032 135.924 119.944 136.011 119.854C136.322 119.528 136.64 119.199 136.95 118.866C137.048 118.758 137.154 118.648 137.253 118.541C137.618 118.148 137.981 117.747 138.337 117.348C138.399 117.28 138.46 117.212 138.522 117.144C138.871 116.747 139.219 116.35 139.568 115.953C139.605 115.913 139.641 115.866 139.678 115.827C140.006 115.442 140.327 115.059 140.648 114.676C140.915 114.36 141.173 114.038 141.436 113.706C141.599 113.507 141.761 113.307 141.922 113.1C142.216 112.731 142.502 112.364 142.786 111.989C142.911 111.829 143.037 111.669 143.16 111.501C143.45 111.118 143.731 110.729 144.021 110.345C144.121 110.206 144.227 110.066 144.327 109.927C144.707 109.399 145.085 108.864 145.455 108.322C145.675 108.001 145.892 107.673 146.11 107.345C146.242 107.144 146.382 106.95 146.514 106.749C146.777 106.349 147.038 105.941 147.292 105.535C147.371 105.408 147.457 105.28 147.536 105.154C147.875 104.612 148.206 104.072 148.529 103.527C148.807 103.06 149.071 102.598 149.343 102.133C149.42 102 149.496 101.859 149.573 101.725C149.771 101.378 149.968 101.023 150.157 100.671C150.227 100.539 150.304 100.405 150.374 100.273C150.629 99.8044 150.877 99.3377 151.118 98.8727C151.138 98.8293 151.161 98.7932 151.182 98.7497C151.402 98.3281 151.612 97.9009 151.823 97.4737C151.891 97.3343 151.959 97.1949 152.026 97.0482C152.193 96.7005 152.362 96.3602 152.522 96.0142C152.584 95.8839 152.645 95.7461 152.708 95.6158C152.925 95.1485 153.136 94.6902 153.338 94.2262C153.359 94.1828 153.372 94.141 153.395 94.1049C153.582 93.6754 153.763 93.2549 153.935 92.8287C153.996 92.691 154.048 92.5476 154.109 92.4099C154.251 92.0526 154.394 91.7026 154.536 91.3454C154.584 91.2183 154.64 91.0897 154.686 90.9553C154.864 90.4891 155.041 90.0155 155.212 89.5509C155.237 89.4911 155.255 89.4329 155.279 89.3731C155.43 88.952 155.58 88.5309 155.723 88.1115C155.767 87.9698 155.819 87.8264 155.866 87.692C155.995 87.3144 156.117 86.9384 156.23 86.5568C156.267 86.4478 156.296 86.3406 156.333 86.2316C156.484 85.7484 156.628 85.2668 156.765 84.787C156.8 84.6707 156.83 84.5634 156.857 84.4488C156.969 84.0598 157.073 83.6725 157.177 83.2852C157.208 83.1542 157.249 83.0289 157.281 82.8979C157.411 82.3887 157.535 81.8884 157.658 81.3809C157.679 81.3064 157.693 81.2335 157.706 81.1533C157.811 80.7039 157.903 80.2652 158.001 79.8174C158.027 79.6955 158.053 79.5735 158.077 79.4442C158.182 78.9253 158.285 78.3991 158.382 77.8819C158.395 77.8017 158.413 77.7125 158.425 77.6323C158.511 77.1642 158.582 76.6995 158.66 76.2331C158.674 76.1292 158.696 76.0236 158.711 75.9197C158.793 75.3674 158.867 74.8168 158.94 74.2589C158.953 74.1477 158.966 74.0364 158.979 73.9252C159.042 73.3616 159.106 72.798 159.155 72.2378C159.178 71.9385 159.204 71.6465 159.228 71.3472C159.236 71.2834 159.236 71.2139 159.244 71.1501C159.268 70.7813 159.293 70.4199 159.316 70.0511C159.322 69.9415 159.329 69.8393 159.335 69.7297C159.345 69.4722 159.363 69.213 159.373 68.9554C159.38 68.8148 159.379 68.6759 159.385 68.5352C159.395 68.3088 159.399 68.0913 159.401 67.8665C159.405 67.5796 159.408 67.2927 159.41 66.9984C159.41 66.8979 159.41 66.7973 159.41 66.6968C159.414 66.3093 159.41 65.9235 159.398 65.5321C159.399 65.4389 159.394 65.3474 159.388 65.2559C159.383 64.9633 159.377 64.6707 159.365 64.3798C159.362 64.2335 159.354 64.0963 159.344 63.9517C159.334 63.7065 159.325 63.4687 159.308 63.2252C159.305 63.11 159.292 62.9891 159.289 62.8739C159.27 62.5225 159.246 62.1802 159.212 61.8322C159.198 61.704 159.191 61.5741 159.177 61.4459C159.142 61.0211 159.098 60.5979 159.057 60.1822C159.052 60.1601 159.047 60.1381 159.049 60.1144C159.001 59.6692 158.947 59.2331 158.886 58.7986C158.872 58.6704 158.852 58.5512 158.831 58.4246C158.784 58.0874 158.731 57.7518 158.677 57.4162C158.659 57.3043 158.641 57.1925 158.623 57.0806C158.549 56.6258 158.47 56.18 158.382 55.7286C158.362 55.6404 158.341 55.5523 158.321 55.4642C158.25 55.0862 158.171 54.7099 158.087 54.3426C158.06 54.2251 158.035 54.1149 158.008 53.9974C157.907 53.5567 157.804 53.1086 157.688 52.6712C157.674 52.6125 157.663 52.561 157.649 52.5023C157.551 52.1073 157.447 51.7214 157.335 51.3371C157.308 51.2196 157.267 51.1054 157.24 50.9879C157.117 50.5522 156.986 50.1182 156.848 49.6859C156.71 49.2536 156.565 48.823 156.422 48.3997C156.38 48.2855 156.339 48.1714 156.306 48.0629C156.173 47.6837 156.034 47.3135 155.895 46.9433C155.874 46.8862 155.853 46.8291 155.834 46.7794C155.676 46.3595 155.505 45.9503 155.332 45.5337C155.285 45.4286 155.245 45.3218 155.197 45.2166C155.049 44.8718 154.9 44.5271 154.753 44.1896C154.718 44.1048 154.685 44.0274 154.643 43.9443C154.457 43.5385 154.273 43.14 154.075 42.7448C154.029 42.6471 153.978 42.5583 153.932 42.4605C153.772 42.1338 153.603 41.8014 153.429 41.478C153.378 41.3893 153.332 41.2915 153.281 41.2027C153.075 40.8093 152.863 40.4248 152.642 40.0348C152.602 39.959 152.554 39.8849 152.513 39.8092C152.332 39.4875 152.141 39.1602 151.944 38.8418C151.884 38.7474 151.829 38.644 151.769 38.5495C151.535 38.1702 151.302 37.7908 151.055 37.4221C151.021 37.3758 150.995 37.3277 150.961 37.2813C150.746 36.9517 150.524 36.6237 150.295 36.2975C150.226 36.1974 150.158 36.1046 150.089 36.0046C149.828 35.6393 149.567 35.2739 149.3 34.9177L158.685 47.5014C158.952 47.8577 159.213 48.223 159.474 48.5883C159.544 48.6883 159.611 48.7811 159.68 48.8812C159.91 49.2074 160.124 49.5371 160.346 49.865C160.38 49.9114 160.406 49.9595 160.44 50.0058C160.679 50.3762 160.92 50.7539 161.154 51.1333C161.214 51.2277 161.276 51.3294 161.329 51.4256C161.518 51.7456 161.708 52.0656 161.897 52.3855C161.937 52.4613 161.985 52.5354 162.026 52.6111C162.245 52.9939 162.458 53.3856 162.664 53.7791C162.715 53.8678 162.761 53.9656 162.814 54.0617C162.981 54.3868 163.148 54.7118 163.308 55.0386C163.354 55.1363 163.405 55.2251 163.451 55.3229C163.642 55.7197 163.835 56.1239 164.019 56.5224C164.054 56.6071 164.087 56.6846 164.13 56.7677C164.285 57.1108 164.432 57.4482 164.574 57.7947C164.621 57.8998 164.661 58.0066 164.708 58.1118C164.879 58.521 165.045 58.9392 165.21 59.3574C165.231 59.4145 165.252 59.4716 165.271 59.5213C165.41 59.8915 165.551 60.269 165.682 60.6409C165.724 60.7551 165.765 60.8692 165.798 60.9777C165.943 61.4084 166.087 61.8316 166.224 62.264C166.224 62.264 166.224 62.264 166.226 62.2713C166.364 62.7036 166.494 63.1376 166.618 63.5733C166.645 63.6908 166.686 63.805 166.713 63.9225C166.825 64.3068 166.93 64.7 167.027 65.0877C167.04 65.1464 167.054 65.2052 167.066 65.2566C167.174 65.6956 167.283 66.1347 167.386 66.5828C167.413 66.7003 167.438 66.8105 167.465 66.928C167.551 67.3026 167.628 67.6716 167.699 68.0495C167.719 68.1377 167.74 68.2258 167.752 68.3157C167.839 68.7598 167.92 69.2129 167.993 69.6677C168.002 69.7044 168.01 69.7411 168.019 69.7778C168.036 69.8513 168.039 69.9355 168.056 70.0089C168.11 70.3445 168.164 70.6801 168.211 71.0174C168.232 71.1439 168.244 71.2648 168.266 71.3914C168.327 71.8258 168.382 72.2693 168.429 72.7071C168.434 72.7291 168.439 72.7512 168.437 72.7749C168.48 73.198 168.521 73.6138 168.557 74.0386C168.571 74.1668 168.578 74.2967 168.592 74.425C168.618 74.7746 168.642 75.117 168.669 75.4666C168.671 75.5435 168.68 75.6186 168.684 75.7027C168.693 75.7395 168.686 75.7796 168.689 75.8253C168.707 76.0688 168.715 76.3066 168.725 76.5517C168.735 76.6964 168.736 76.8353 168.746 76.9799C168.759 77.2708 168.764 77.5634 168.77 77.856C168.775 77.9475 168.773 78.0407 168.779 78.1322C168.783 78.518 168.786 78.9037 168.792 79.2969C168.792 79.3974 168.792 79.4979 168.791 79.5985C168.788 79.8854 168.784 80.1723 168.782 80.4666C168.787 80.4886 168.78 80.5214 168.785 80.5434C168.783 80.7371 168.774 80.9325 168.764 81.128C168.758 81.2686 168.759 81.4075 168.753 81.5482C168.743 81.8057 168.732 82.0632 168.715 82.3225C168.709 82.432 168.703 82.5416 168.696 82.6438C168.672 83.0126 168.647 83.374 168.624 83.7428C168.617 83.814 168.609 83.8778 168.609 83.9473C168.589 84.2302 168.564 84.5222 168.536 84.8068C168.538 84.8141 168.54 84.8215 168.536 84.8379C168.487 85.3981 168.423 85.9617 168.36 86.5253C168.347 86.6365 168.334 86.7478 168.321 86.859C168.254 87.4079 168.181 87.9658 168.092 88.5198C168.086 88.5598 168.086 88.5909 168.079 88.631C168.073 88.7022 168.057 88.7677 168.043 88.8405C167.972 89.3052 167.894 89.7716 167.808 90.2397C167.796 90.3199 167.778 90.4091 167.765 90.4893C167.67 91.0139 167.572 91.5311 167.46 92.0517C167.448 92.1008 167.438 92.1572 167.434 92.2047C167.42 92.2775 167.405 92.3504 167.384 92.4249C167.293 92.8709 167.194 93.3113 167.089 93.7608C167.075 93.8336 167.053 93.9081 167.039 93.9809C166.924 94.4868 166.792 94.9887 166.662 95.498C166.65 95.5471 166.64 95.6036 166.621 95.6544C166.601 95.7363 166.579 95.8108 166.56 95.8926C166.456 96.2799 166.352 96.6672 166.24 97.0562C166.205 97.1725 166.176 97.2798 166.148 97.3944C166.011 97.8742 165.867 98.3558 165.716 98.839C165.706 98.8644 165.698 98.8972 165.689 98.9226C165.66 98.9988 165.64 99.0807 165.611 99.1569C165.489 99.5328 165.369 99.9161 165.247 100.292C165.202 100.434 165.15 100.577 165.104 100.712C164.961 101.131 164.811 101.552 164.661 101.973C164.641 102.024 164.628 102.066 164.609 102.117C164.61 102.124 164.599 102.142 164.593 102.151C164.424 102.623 164.246 103.089 164.067 103.555C164.019 103.682 163.965 103.818 163.917 103.945C163.776 104.303 163.634 104.66 163.49 105.01C163.456 105.095 163.429 105.179 163.393 105.257C163.368 105.316 163.341 105.369 163.324 105.427C163.144 105.855 162.965 106.283 162.776 106.705C162.763 106.747 162.74 106.783 162.726 106.825C162.524 107.289 162.315 107.754 162.096 108.214C162.076 108.258 162.056 108.308 162.035 108.352C161.994 108.439 161.952 108.526 161.91 108.613C161.75 108.959 161.583 109.306 161.414 109.647C161.346 109.786 161.278 109.925 161.211 110.072C161.001 110.499 160.788 110.919 160.57 111.348C160.555 111.383 160.533 111.419 160.517 111.453C160.517 111.453 160.512 111.462 160.506 111.471C160.266 111.936 160.018 112.403 159.763 112.871C159.693 113.003 159.615 113.137 159.545 113.269L159.516 113.276Z" fill="#0D67AA" stroke="black" stroke-width="0.175375" stroke-miterlimit="10"/>
</svg>
