<svg width="271" height="258" viewBox="0 0 271 258" fill="none" xmlns="http://www.w3.org/2000/svg">
<g clip-path="url(#clip0_109_8756)">
<path d="M223.859 62.9402L243.772 147.169L113.648 179.818L92.1215 214.683L87.902 215.574L80.6427 187.542L47.1144 195.393L27.1962 111.156L223.859 62.9402Z" fill="#A1D0E6"/>
<path d="M66.9791 122.725L60.9805 124.134L72.2368 171.727L64.4705 173.539L53.2142 125.946L47.296 127.333L45.8054 121.02L65.4885 116.412L66.9791 122.725Z" fill="white"/>
<path d="M97.8928 154.998C98.7725 158.745 98.5475 161.785 97.2065 164.101C95.8575 166.422 93.5767 167.958 90.3426 168.712C87.0575 169.48 84.3049 169.123 82.0576 167.638C79.816 166.16 78.2496 163.54 77.362 159.798L69.3989 126.139C68.5186 122.44 68.7586 119.438 70.1076 117.117C71.4486 114.801 73.7667 113.25 77.0439 112.488C80.321 111.727 83.0758 112.07 85.2786 113.527C87.4872 114.992 89.0364 117.589 89.9297 121.338L97.8928 154.998ZM80.6007 119.258C80.0493 118.764 79.3391 118.616 78.4678 118.826C77.5908 119.028 77.0382 119.477 76.7929 120.151C76.5454 120.838 76.5974 121.888 76.931 123.326L85.3624 158.989C85.696 160.426 86.1353 161.412 86.6688 161.931C87.2023 162.45 87.9025 162.618 88.7659 162.414C89.6372 162.204 90.2034 161.756 90.4687 161.044C90.7341 160.331 90.7 159.256 90.3528 157.817L81.9214 122.153C81.5799 120.722 81.1385 119.749 80.5871 119.256L80.6007 119.258Z" fill="white"/>
<path d="M116.715 128.562C117.639 132.471 117.358 135.648 115.89 138.104C114.414 140.566 112.009 142.18 108.679 142.968L106.684 143.439L111.223 162.619L103.457 164.43L90.704 110.516L100.393 108.251C103.78 107.458 106.671 107.823 109.087 109.342C111.504 110.862 113.175 113.575 114.093 117.476L116.715 128.562ZM104.48 114.889C103.827 114.421 102.964 114.31 101.883 114.564L99.9608 115.018L105.188 137.118L107.11 136.664C108.183 136.416 108.904 135.917 109.277 135.187C109.644 134.448 109.661 133.361 109.314 131.921L105.959 117.754C105.618 116.322 105.126 115.363 104.472 114.894L104.48 114.889Z" fill="white"/>
<path d="M130.488 107.861L123.642 109.463L127.799 127.023L134.181 125.529L135.672 131.842L129.29 133.336L133.408 150.743L140.943 148.979L142.434 155.292L127.138 158.876L114.385 104.962L128.992 101.54L130.482 107.853L130.488 107.861Z" fill="white"/>
<path d="M162.746 138.601C163.647 142.394 163.339 145.47 161.836 147.794C160.325 150.125 157.915 151.682 154.579 152.462L144.818 154.744L132.065 100.83L141.754 98.5647C145.141 97.7718 148.015 98.0643 150.401 99.4248C152.779 100.791 154.423 103.403 155.337 107.247L162.754 138.596L162.746 138.601ZM145.847 105.21C145.194 104.742 144.331 104.632 143.25 104.886L141.328 105.34L151.094 146.62L153.016 146.166C154.097 145.912 154.81 145.418 155.183 144.688C155.55 143.95 155.567 142.862 155.225 141.431L147.34 108.078C146.999 106.646 146.506 105.686 145.853 105.218L145.847 105.21Z" fill="white"/>
<path d="M198.846 131.372C199.752 135.222 199.479 138.296 198.023 140.586C196.568 142.877 194.219 144.402 190.985 145.156C187.75 145.911 184.958 145.582 182.591 144.148C180.222 142.727 178.599 140.112 177.693 136.311L167.35 92.5618L175.116 90.7505L185.693 135.502C186.035 136.933 186.495 137.916 187.072 138.428C187.654 138.947 188.429 139.085 189.408 138.857C190.379 138.635 191.027 138.152 191.344 137.427C191.66 136.702 191.647 135.623 191.3 134.184L180.723 89.4323L188.484 87.6131L198.827 131.362L198.846 131.372Z" fill="white"/>
<path d="M217.587 104.959C218.512 108.867 218.23 112.045 216.762 114.501C215.287 116.963 212.882 118.577 209.56 119.359L207.565 119.829L212.103 139.009L204.343 140.829L191.59 86.9149L201.279 84.6494C204.666 83.8566 207.557 84.2215 209.974 85.7408C212.39 87.26 214.061 89.9739 214.979 93.8746L217.601 104.961L217.587 104.959ZM205.353 91.285C204.7 90.8169 203.837 90.7068 202.756 90.9601L200.833 91.4143L206.06 113.514L207.983 113.06C209.064 112.807 209.777 112.313 210.15 111.583C210.517 110.845 210.534 109.757 210.186 108.317L206.832 94.15C206.491 92.7183 205.998 91.7588 205.345 91.2907L205.353 91.285Z" fill="white"/>
</g>
<defs>
<clipPath id="clip0_109_8756">
<rect width="220.843" height="156.431" fill="white" transform="translate(0.177246 130.785) rotate(-35.9981)"/>
</clipPath>
</defs>
</svg>
