<svg width="190" height="103" viewBox="0 0 190 103" fill="none" xmlns="http://www.w3.org/2000/svg">
<path d="M189.627 1.33173L188.961 83.6088L46.1759 83.6089L26.401 102.942L23.4922 102.845L23.2997 83.3491L0.0605469 83.0877L0.724249 0.804688L189.627 1.33173Z" fill="#FDA813"/>
<path d="M16.0095 35.275V22.627H17.5455V35.275H16.0095ZM14.1615 35.707V34.363H19.3935V35.707H14.1615ZM14.1615 23.539V22.195H19.3935V23.539H14.1615ZM20.9247 35.707V25.939H22.2447L22.5087 28.363H22.5567C22.5887 28.283 22.6607 28.115 22.7727 27.859C22.9007 27.587 23.0927 27.307 23.3487 27.019C23.6047 26.731 23.9487 26.483 24.3807 26.275C24.8287 26.051 25.3887 25.939 26.0607 25.939C26.7327 25.939 27.2927 26.043 27.7407 26.251C28.1887 26.443 28.5407 26.715 28.7967 27.067C29.0687 27.403 29.2687 27.787 29.3967 28.219C29.5247 28.651 29.6047 29.099 29.6367 29.563C29.6847 30.011 29.7087 30.451 29.7087 30.883V35.707H28.2207V30.883C28.2207 30.179 28.1407 29.563 27.9807 29.035C27.8367 28.491 27.5727 28.075 27.1887 27.787C26.8047 27.483 26.2607 27.331 25.5567 27.331C24.8367 27.331 24.2527 27.507 23.8047 27.859C23.3567 28.195 23.0287 28.651 22.8207 29.227C22.6127 29.787 22.5087 30.403 22.5087 31.075V35.707H20.9247ZM34.6596 35.947C34.1156 35.947 33.6196 35.867 33.1716 35.707C32.7236 35.563 32.3316 35.363 31.9956 35.107C31.6756 34.851 31.3956 34.579 31.1556 34.291C30.9316 33.987 30.7636 33.683 30.6516 33.379C30.5396 33.075 30.4836 32.803 30.4836 32.563H31.9716C31.9716 32.579 31.9876 32.699 32.0196 32.923C32.0516 33.147 32.1476 33.403 32.3076 33.691C32.4676 33.979 32.7316 34.235 33.0996 34.459C33.4676 34.667 33.9876 34.771 34.6596 34.771C35.1396 34.771 35.5716 34.715 35.9556 34.603C36.3396 34.491 36.6356 34.315 36.8436 34.075C37.0676 33.835 37.1716 33.539 37.1556 33.187C37.1556 32.723 36.9956 32.371 36.6756 32.131C36.3716 31.875 35.9716 31.683 35.4756 31.555C34.9796 31.411 34.4596 31.275 33.9156 31.147C33.3716 31.019 32.8516 30.859 32.3556 30.667C31.8596 30.459 31.4596 30.171 31.1556 29.803C30.8516 29.435 30.7076 28.923 30.7236 28.267C30.7396 27.467 31.0996 26.835 31.8036 26.371C32.5236 25.891 33.4436 25.651 34.5636 25.651C35.0276 25.651 35.4996 25.707 35.9796 25.819C36.4756 25.931 36.9236 26.115 37.3236 26.371C37.7396 26.611 38.0676 26.955 38.3076 27.403C38.5476 27.835 38.6516 28.379 38.6196 29.035H37.1796C37.1956 28.587 37.1156 28.227 36.9396 27.955C36.7796 27.667 36.5556 27.451 36.2676 27.307C35.9956 27.147 35.6996 27.043 35.3796 26.995C35.0756 26.931 34.7876 26.899 34.5156 26.899C33.8276 26.899 33.2596 27.027 32.8116 27.283C32.3796 27.539 32.1636 27.899 32.1636 28.363C32.1636 28.795 32.3156 29.131 32.6196 29.371C32.9396 29.611 33.3396 29.803 33.8196 29.947C34.3156 30.075 34.8356 30.203 35.3796 30.331C35.9396 30.443 36.4676 30.603 36.9636 30.811C37.4596 31.019 37.8596 31.315 38.1636 31.699C38.4836 32.083 38.6436 32.611 38.6436 33.283C38.6436 33.907 38.4676 34.419 38.1156 34.819C37.7796 35.203 37.3076 35.491 36.6996 35.683C36.1076 35.859 35.4276 35.947 34.6596 35.947ZM41.8198 35.707C41.2438 35.707 40.8358 35.547 40.5958 35.227C40.3558 34.907 40.2358 34.467 40.2358 33.907V26.875H41.7238V34.459H44.0038V35.707H41.8198ZM38.6998 27.091V25.939C39.0838 25.939 39.3878 25.923 39.6118 25.891C39.8518 25.843 40.0278 25.747 40.1398 25.603C40.2518 25.443 40.3238 25.187 40.3558 24.835C40.3878 24.483 40.4038 24.011 40.4038 23.419H41.7238V25.939H43.9798V27.091H38.6998ZM48.4767 35.923C47.5807 35.923 46.8447 35.707 46.2687 35.275C45.6927 34.827 45.2607 34.227 44.9727 33.475C44.7007 32.723 44.5647 31.867 44.5647 30.907C44.5647 29.915 44.7087 29.043 44.9967 28.291C45.2847 27.539 45.7167 26.947 46.2927 26.515C46.8847 26.067 47.6127 25.843 48.4767 25.843C48.9887 25.843 49.4287 25.915 49.7967 26.059C50.1807 26.187 50.5087 26.363 50.7807 26.587C51.0527 26.811 51.2767 27.051 51.4527 27.307C51.6447 27.547 51.7887 27.779 51.8847 28.003H51.9087V25.939H53.4927V35.707H52.1727L51.9327 33.811H51.8847C51.7727 34.051 51.6287 34.299 51.4527 34.555C51.2767 34.795 51.0447 35.019 50.7567 35.227C50.4847 35.435 50.1567 35.603 49.7727 35.731C49.4047 35.859 48.9727 35.923 48.4767 35.923ZM49.0767 34.555C49.7487 34.555 50.2847 34.411 50.6847 34.123C51.1007 33.819 51.4047 33.395 51.5967 32.851C51.7887 32.307 51.8847 31.667 51.8847 30.931C51.8847 30.147 51.7807 29.483 51.5727 28.939C51.3807 28.395 51.0767 27.987 50.6607 27.715C50.2447 27.427 49.7167 27.283 49.0767 27.283C48.3727 27.283 47.7967 27.443 47.3487 27.763C46.9167 28.083 46.6047 28.515 46.4127 29.059C46.2207 29.603 46.1247 30.219 46.1247 30.907C46.1247 31.611 46.2207 32.243 46.4127 32.803C46.6207 33.347 46.9407 33.779 47.3727 34.099C47.8207 34.403 48.3887 34.555 49.0767 34.555ZM54.3268 35.707V25.939H55.6468L55.9108 28.363H55.9588C55.9908 28.283 56.0628 28.115 56.1748 27.859C56.3028 27.587 56.4948 27.307 56.7508 27.019C57.0068 26.731 57.3508 26.483 57.7828 26.275C58.2308 26.051 58.7908 25.939 59.4628 25.939C60.1348 25.939 60.6948 26.043 61.1428 26.251C61.5908 26.443 61.9428 26.715 62.1988 27.067C62.4708 27.403 62.6708 27.787 62.7988 28.219C62.9268 28.651 63.0068 29.099 63.0388 29.563C63.0868 30.011 63.1108 30.451 63.1108 30.883V35.707H61.6228V30.883C61.6228 30.179 61.5428 29.563 61.3828 29.035C61.2388 28.491 60.9748 28.075 60.5908 27.787C60.2068 27.483 59.6628 27.331 58.9588 27.331C58.2388 27.331 57.6548 27.507 57.2068 27.859C56.7588 28.195 56.4308 28.651 56.2228 29.227C56.0148 29.787 55.9108 30.403 55.9108 31.075V35.707H54.3268ZM66.5258 35.707C65.9498 35.707 65.5418 35.547 65.3018 35.227C65.0618 34.907 64.9418 34.467 64.9418 33.907V26.875H66.4298V34.459H68.7098V35.707H66.5258ZM63.4058 27.091V25.939C63.7898 25.939 64.0938 25.923 64.3178 25.891C64.5578 25.843 64.7338 25.747 64.8458 25.603C64.9578 25.443 65.0298 25.187 65.0618 24.835C65.0938 24.483 65.1098 24.011 65.1098 23.419H66.4298V25.939H68.6858V27.091H63.4058ZM84.5659 22.195H86.1259V35.707H83.2219L76.5019 22.891H76.4539V35.707H74.8939V22.195H77.6059L84.5179 35.011H84.5659V22.195ZM91.8872 35.947C90.8472 35.947 89.9752 35.731 89.2712 35.299C88.5832 34.867 88.0632 34.275 87.7112 33.523C87.3752 32.771 87.2072 31.915 87.2072 30.955C87.2072 29.979 87.3752 29.115 87.7112 28.363C88.0632 27.595 88.5832 26.995 89.2712 26.563C89.9752 26.131 90.8472 25.915 91.8872 25.915C93.4072 25.915 94.5672 26.379 95.3672 27.307C96.1672 28.219 96.5672 29.435 96.5672 30.955C96.5672 31.899 96.3992 32.747 96.0632 33.499C95.7272 34.251 95.2152 34.851 94.5272 35.299C93.8392 35.731 92.9592 35.947 91.8872 35.947ZM91.8872 34.603C92.7352 34.603 93.3832 34.419 93.8312 34.051C94.2792 33.683 94.5912 33.219 94.7672 32.659C94.9592 32.083 95.0552 31.499 95.0552 30.907C95.0552 30.315 94.9592 29.731 94.7672 29.155C94.5912 28.579 94.2792 28.107 93.8312 27.739C93.3832 27.371 92.7352 27.187 91.8872 27.187C91.0712 27.187 90.4232 27.371 89.9432 27.739C89.4792 28.107 89.1592 28.579 88.9832 29.155C88.8072 29.731 88.7192 30.315 88.7192 30.907C88.7192 31.499 88.8072 32.083 88.9832 32.659C89.1592 33.219 89.4792 33.683 89.9432 34.051C90.4232 34.419 91.0712 34.603 91.8872 34.603ZM99.928 35.707C99.352 35.707 98.944 35.547 98.704 35.227C98.464 34.907 98.344 34.467 98.344 33.907V26.875H99.832V34.459H102.112V35.707H99.928ZM96.808 27.091V25.939C97.192 25.939 97.496 25.923 97.72 25.891C97.96 25.843 98.136 25.747 98.248 25.603C98.36 25.443 98.432 25.187 98.464 24.835C98.496 24.483 98.512 24.011 98.512 23.419H99.832V25.939H102.088V27.091H96.808ZM103.489 35.707V25.939H105.049V35.707H103.489ZM104.281 24.475C103.881 24.475 103.609 24.371 103.465 24.163C103.321 23.955 103.249 23.715 103.249 23.443C103.249 23.187 103.321 22.963 103.465 22.771C103.609 22.563 103.881 22.459 104.281 22.459C104.681 22.459 104.945 22.563 105.073 22.771C105.201 22.963 105.265 23.187 105.265 23.443C105.265 23.715 105.201 23.955 105.073 24.163C104.945 24.371 104.681 24.475 104.281 24.475ZM107.159 35.779V23.779C107.159 23.219 107.279 22.779 107.519 22.459C107.759 22.139 108.167 21.979 108.743 21.979H111.647V23.251H108.719V35.779H107.159ZM105.647 27.091V25.939H111.479V27.091H105.647ZM112.631 35.707V25.939H114.191V35.707H112.631ZM113.423 24.475C113.023 24.475 112.751 24.371 112.607 24.163C112.463 23.955 112.391 23.715 112.391 23.443C112.391 23.187 112.463 22.963 112.607 22.771C112.751 22.563 113.023 22.459 113.423 22.459C113.823 22.459 114.087 22.563 114.215 22.771C114.343 22.963 114.407 23.187 114.407 23.443C114.407 23.715 114.343 23.955 114.215 24.163C114.087 24.371 113.823 24.475 113.423 24.475ZM119.878 35.947C118.966 35.947 118.15 35.755 117.43 35.371C116.71 34.987 116.142 34.427 115.726 33.691C115.31 32.955 115.102 32.067 115.102 31.027C115.134 30.003 115.35 29.107 115.75 28.339C116.166 27.571 116.734 26.979 117.454 26.563C118.174 26.131 118.998 25.915 119.926 25.915C120.79 25.915 121.542 26.083 122.182 26.419C122.822 26.739 123.334 27.171 123.718 27.715C124.102 28.243 124.342 28.835 124.438 29.491H123.022C122.878 28.803 122.534 28.267 121.99 27.883C121.446 27.483 120.774 27.283 119.974 27.283C119.286 27.283 118.694 27.443 118.198 27.763C117.702 28.067 117.318 28.499 117.046 29.059C116.774 29.603 116.63 30.235 116.614 30.955C116.614 32.043 116.91 32.915 117.502 33.571C118.094 34.227 118.91 34.555 119.95 34.555C120.718 34.555 121.382 34.363 121.942 33.979C122.518 33.595 122.878 33.043 123.022 32.323H124.438C124.342 32.979 124.094 33.587 123.694 34.147C123.31 34.691 122.79 35.131 122.134 35.467C121.494 35.787 120.742 35.947 119.878 35.947ZM128.714 35.923C127.818 35.923 127.082 35.707 126.506 35.275C125.93 34.827 125.498 34.227 125.21 33.475C124.938 32.723 124.802 31.867 124.802 30.907C124.802 29.915 124.946 29.043 125.234 28.291C125.522 27.539 125.954 26.947 126.53 26.515C127.122 26.067 127.85 25.843 128.714 25.843C129.226 25.843 129.666 25.915 130.034 26.059C130.418 26.187 130.746 26.363 131.018 26.587C131.29 26.811 131.514 27.051 131.69 27.307C131.882 27.547 132.026 27.779 132.122 28.003H132.146V25.939H133.73V35.707H132.41L132.17 33.811H132.122C132.01 34.051 131.866 34.299 131.69 34.555C131.514 34.795 131.282 35.019 130.994 35.227C130.722 35.435 130.394 35.603 130.01 35.731C129.642 35.859 129.21 35.923 128.714 35.923ZM129.314 34.555C129.986 34.555 130.522 34.411 130.922 34.123C131.338 33.819 131.642 33.395 131.834 32.851C132.026 32.307 132.122 31.667 132.122 30.931C132.122 30.147 132.018 29.483 131.81 28.939C131.618 28.395 131.314 27.987 130.898 27.715C130.482 27.427 129.954 27.283 129.314 27.283C128.61 27.283 128.034 27.443 127.586 27.763C127.154 28.083 126.842 28.515 126.65 29.059C126.458 29.603 126.362 30.219 126.362 30.907C126.362 31.611 126.458 32.243 126.65 32.803C126.858 33.347 127.178 33.779 127.61 34.099C128.058 34.403 128.626 34.555 129.314 34.555ZM137.012 35.707C136.436 35.707 136.028 35.547 135.788 35.227C135.548 34.907 135.428 34.467 135.428 33.907V26.875H136.916V34.459H139.196V35.707H137.012ZM133.892 27.091V25.939C134.276 25.939 134.58 25.923 134.804 25.891C135.044 25.843 135.22 25.747 135.332 25.603C135.444 25.443 135.516 25.187 135.548 24.835C135.58 24.483 135.596 24.011 135.596 23.419H136.916V25.939H139.172V27.091H133.892ZM140.573 35.707V25.939H142.133V35.707H140.573ZM141.365 24.475C140.965 24.475 140.693 24.371 140.549 24.163C140.405 23.955 140.333 23.715 140.333 23.443C140.333 23.187 140.405 22.963 140.549 22.771C140.693 22.563 140.965 22.459 141.365 22.459C141.765 22.459 142.029 22.563 142.157 22.771C142.285 22.963 142.349 23.187 142.349 23.443C142.349 23.715 142.285 23.955 142.157 24.163C142.029 24.371 141.765 24.475 141.365 24.475ZM147.747 35.947C146.707 35.947 145.835 35.731 145.131 35.299C144.443 34.867 143.923 34.275 143.571 33.523C143.235 32.771 143.067 31.915 143.067 30.955C143.067 29.979 143.235 29.115 143.571 28.363C143.923 27.595 144.443 26.995 145.131 26.563C145.835 26.131 146.707 25.915 147.747 25.915C149.267 25.915 150.427 26.379 151.227 27.307C152.027 28.219 152.427 29.435 152.427 30.955C152.427 31.899 152.259 32.747 151.923 33.499C151.587 34.251 151.075 34.851 150.387 35.299C149.699 35.731 148.819 35.947 147.747 35.947ZM147.747 34.603C148.595 34.603 149.243 34.419 149.691 34.051C150.139 33.683 150.451 33.219 150.627 32.659C150.819 32.083 150.915 31.499 150.915 30.907C150.915 30.315 150.819 29.731 150.627 29.155C150.451 28.579 150.139 28.107 149.691 27.739C149.243 27.371 148.595 27.187 147.747 27.187C146.931 27.187 146.283 27.371 145.803 27.739C145.339 28.107 145.019 28.579 144.843 29.155C144.667 29.731 144.579 30.315 144.579 30.907C144.579 31.499 144.667 32.083 144.843 32.659C145.019 33.219 145.339 33.683 145.803 34.051C146.283 34.419 146.931 34.603 147.747 34.603ZM153.34 35.707V25.939H154.66L154.924 28.363H154.972C155.004 28.283 155.076 28.115 155.188 27.859C155.316 27.587 155.508 27.307 155.764 27.019C156.02 26.731 156.364 26.483 156.796 26.275C157.244 26.051 157.804 25.939 158.476 25.939C159.148 25.939 159.708 26.043 160.156 26.251C160.604 26.443 160.956 26.715 161.212 27.067C161.484 27.403 161.684 27.787 161.812 28.219C161.94 28.651 162.02 29.099 162.052 29.563C162.1 30.011 162.124 30.451 162.124 30.883V35.707H160.636V30.883C160.636 30.179 160.556 29.563 160.396 29.035C160.252 28.491 159.988 28.075 159.604 27.787C159.22 27.483 158.676 27.331 157.972 27.331C157.252 27.331 156.668 27.507 156.22 27.859C155.772 28.195 155.444 28.651 155.236 29.227C155.028 29.787 154.924 30.403 154.924 31.075V35.707H153.34ZM167.075 35.947C166.531 35.947 166.035 35.867 165.587 35.707C165.139 35.563 164.747 35.363 164.411 35.107C164.091 34.851 163.811 34.579 163.571 34.291C163.347 33.987 163.179 33.683 163.067 33.379C162.955 33.075 162.899 32.803 162.899 32.563H164.387C164.387 32.579 164.403 32.699 164.435 32.923C164.467 33.147 164.563 33.403 164.723 33.691C164.883 33.979 165.147 34.235 165.515 34.459C165.883 34.667 166.403 34.771 167.075 34.771C167.555 34.771 167.987 34.715 168.371 34.603C168.755 34.491 169.051 34.315 169.259 34.075C169.483 33.835 169.587 33.539 169.571 33.187C169.571 32.723 169.411 32.371 169.091 32.131C168.787 31.875 168.387 31.683 167.891 31.555C167.395 31.411 166.875 31.275 166.331 31.147C165.787 31.019 165.267 30.859 164.771 30.667C164.275 30.459 163.875 30.171 163.571 29.803C163.267 29.435 163.123 28.923 163.139 28.267C163.155 27.467 163.515 26.835 164.219 26.371C164.939 25.891 165.859 25.651 166.979 25.651C167.443 25.651 167.915 25.707 168.395 25.819C168.891 25.931 169.339 26.115 169.739 26.371C170.155 26.611 170.483 26.955 170.723 27.403C170.963 27.835 171.067 28.379 171.035 29.035H169.595C169.611 28.587 169.531 28.227 169.355 27.955C169.195 27.667 168.971 27.451 168.683 27.307C168.411 27.147 168.115 27.043 167.795 26.995C167.491 26.931 167.203 26.899 166.931 26.899C166.243 26.899 165.675 27.027 165.227 27.283C164.795 27.539 164.579 27.899 164.579 28.363C164.579 28.795 164.731 29.131 165.035 29.371C165.355 29.611 165.755 29.803 166.235 29.947C166.731 30.075 167.251 30.203 167.795 30.331C168.355 30.443 168.883 30.603 169.379 30.811C169.875 31.019 170.275 31.315 170.579 31.699C170.899 32.083 171.059 32.611 171.059 33.283C171.059 33.907 170.883 34.419 170.531 34.819C170.195 35.203 169.723 35.491 169.115 35.683C168.523 35.859 167.843 35.947 167.075 35.947ZM17.1135 59.923C16.2175 59.923 15.4815 59.707 14.9055 59.275C14.3295 58.827 13.8975 58.227 13.6095 57.475C13.3375 56.723 13.2015 55.867 13.2015 54.907C13.2015 53.915 13.3455 53.043 13.6335 52.291C13.9215 51.539 14.3535 50.947 14.9295 50.515C15.5215 50.067 16.2495 49.843 17.1135 49.843C17.6255 49.843 18.0655 49.915 18.4335 50.059C18.8175 50.187 19.1455 50.363 19.4175 50.587C19.6895 50.811 19.9135 51.051 20.0895 51.307C20.2815 51.547 20.4255 51.779 20.5215 52.003H20.5455V49.939H22.1295V59.707H20.8095L20.5695 57.811H20.5215C20.4095 58.051 20.2655 58.299 20.0895 58.555C19.9135 58.795 19.6815 59.019 19.3935 59.227C19.1215 59.435 18.7935 59.603 18.4095 59.731C18.0415 59.859 17.6095 59.923 17.1135 59.923ZM17.7135 58.555C18.3855 58.555 18.9215 58.411 19.3215 58.123C19.7375 57.819 20.0415 57.395 20.2335 56.851C20.4255 56.307 20.5215 55.667 20.5215 54.931C20.5215 54.147 20.4175 53.483 20.2095 52.939C20.0175 52.395 19.7135 51.987 19.2975 51.715C18.8815 51.427 18.3535 51.283 17.7135 51.283C17.0095 51.283 16.4335 51.443 15.9855 51.763C15.5535 52.083 15.2415 52.515 15.0495 53.059C14.8575 53.603 14.7615 54.219 14.7615 54.907C14.7615 55.611 14.8575 56.243 15.0495 56.803C15.2575 57.347 15.5775 57.779 16.0095 58.099C16.4575 58.403 17.0255 58.555 17.7135 58.555ZM22.9637 59.707V49.939H24.2837L24.5477 52.363H24.5957C24.6277 52.283 24.6997 52.115 24.8117 51.859C24.9397 51.587 25.1317 51.307 25.3877 51.019C25.6437 50.731 25.9877 50.483 26.4197 50.275C26.8677 50.051 27.4277 49.939 28.0997 49.939C28.7717 49.939 29.3317 50.043 29.7797 50.251C30.2277 50.443 30.5797 50.715 30.8357 51.067C31.1077 51.403 31.3077 51.787 31.4357 52.219C31.5637 52.651 31.6437 53.099 31.6757 53.563C31.7237 54.011 31.7477 54.451 31.7477 54.883V59.707H30.2597V54.883C30.2597 54.179 30.1797 53.563 30.0197 53.035C29.8757 52.491 29.6117 52.075 29.2277 51.787C28.8437 51.483 28.2997 51.331 27.5957 51.331C26.8757 51.331 26.2917 51.507 25.8437 51.859C25.3957 52.195 25.0677 52.651 24.8597 53.227C24.6517 53.787 24.5477 54.403 24.5477 55.075V59.707H22.9637ZM37.1547 59.947C36.2267 59.947 35.4427 59.731 34.8027 59.299C34.1787 58.851 33.7067 58.251 33.3867 57.499C33.0667 56.747 32.9067 55.899 32.9067 54.955C32.9067 53.979 33.0667 53.115 33.3867 52.363C33.7227 51.595 34.2027 51.003 34.8267 50.587C35.4667 50.155 36.2507 49.939 37.1787 49.939C37.8347 49.939 38.3867 50.051 38.8347 50.275C39.2827 50.483 39.6347 50.739 39.8907 51.043C40.1627 51.347 40.3627 51.627 40.4907 51.883C40.6187 52.139 40.6987 52.307 40.7307 52.387H40.7787V46.195H42.3627V59.707H41.0427L40.8027 57.547H40.7547C40.7227 57.627 40.6347 57.795 40.4907 58.051C40.3467 58.307 40.1307 58.579 39.8427 58.867C39.5707 59.155 39.2107 59.411 38.7627 59.635C38.3307 59.843 37.7947 59.947 37.1547 59.947ZM37.5387 58.579C38.1787 58.579 38.7387 58.435 39.2187 58.147C39.6987 57.859 40.0747 57.443 40.3467 56.899C40.6187 56.339 40.7547 55.691 40.7547 54.955C40.7547 54.219 40.6267 53.579 40.3707 53.035C40.1147 52.491 39.7547 52.075 39.2907 51.787C38.8267 51.499 38.2827 51.355 37.6587 51.355C36.9067 51.355 36.2907 51.531 35.8107 51.883C35.3307 52.219 34.9787 52.659 34.7547 53.203C34.5307 53.747 34.4187 54.331 34.4187 54.955C34.4187 55.563 34.5147 56.147 34.7067 56.707C34.9147 57.251 35.2507 57.699 35.7147 58.051C36.1787 58.403 36.7867 58.579 37.5387 58.579ZM48.7613 59.707V46.195H53.2253C54.3773 46.195 55.3453 46.315 56.1293 46.555C56.9293 46.779 57.5373 47.171 57.9533 47.731C58.3853 48.291 58.6013 49.067 58.6013 50.059C58.6013 50.699 58.4813 51.291 58.2413 51.835C58.0173 52.363 57.6653 52.787 57.1853 53.107C56.7213 53.427 56.1373 53.587 55.4333 53.587C56.0093 53.587 56.4573 53.699 56.7773 53.923C57.0973 54.131 57.3293 54.411 57.4733 54.763C57.6173 55.115 57.7133 55.491 57.7613 55.891C57.8093 56.291 57.8413 56.683 57.8573 57.067C57.8733 57.451 57.9053 57.787 57.9533 58.075C58.0173 58.363 58.1453 58.563 58.3373 58.675C58.5293 58.787 58.8173 58.771 59.2013 58.627V59.635C59.0573 59.763 58.8333 59.851 58.5293 59.899C58.2413 59.963 57.9373 59.947 57.6173 59.851C57.2973 59.755 57.0253 59.539 56.8013 59.203C56.5933 58.867 56.4893 58.371 56.4893 57.715C56.4893 56.915 56.4573 56.267 56.3933 55.771C56.3293 55.259 56.1853 54.867 55.9613 54.595C55.7533 54.323 55.4253 54.131 54.9773 54.019C54.5293 53.907 53.9293 53.851 53.1773 53.851C52.4253 53.851 51.4733 53.859 50.3213 53.875V59.707H48.7613ZM50.3213 52.699H53.4653C54.3133 52.699 55.0093 52.627 55.5533 52.483C56.1133 52.339 56.5293 52.091 56.8013 51.739C57.0733 51.371 57.2093 50.843 57.2093 50.155C57.2093 49.339 57.0413 48.747 56.7053 48.379C56.3693 48.011 55.8813 47.779 55.2413 47.683C54.6173 47.571 53.8413 47.515 52.9133 47.515H50.3213V52.699ZM64.4153 59.947C63.3433 59.947 62.4553 59.707 61.7513 59.227C61.0633 58.731 60.5513 58.099 60.2153 57.331C59.8953 56.547 59.7353 55.739 59.7353 54.907C59.7353 53.995 59.9113 53.163 60.2633 52.411C60.6313 51.643 61.1593 51.035 61.8473 50.587C62.5513 50.139 63.3913 49.915 64.3673 49.915C65.2153 49.915 65.9593 50.099 66.5993 50.467C67.2553 50.819 67.7753 51.331 68.1593 52.003C68.5593 52.675 68.7833 53.467 68.8313 54.379C68.8473 54.443 68.8553 54.539 68.8553 54.667C68.8553 54.779 68.8553 54.883 68.8553 54.979H61.2233C61.2233 56.115 61.4953 57.011 62.0393 57.667C62.5993 58.307 63.3833 58.627 64.3913 58.627C65.1433 58.627 65.7833 58.435 66.3113 58.051C66.8553 57.667 67.1913 57.147 67.3193 56.491H68.8313C68.7193 57.147 68.4713 57.739 68.0873 58.267C67.7033 58.795 67.1993 59.211 66.5753 59.515C65.9513 59.803 65.2313 59.947 64.4153 59.947ZM61.2713 54.139H67.2713C67.2713 53.883 67.2153 53.595 67.1033 53.275C67.0073 52.939 66.8473 52.619 66.6233 52.315C66.3993 51.995 66.1033 51.731 65.7353 51.523C65.3673 51.315 64.9033 51.211 64.3433 51.211C63.8473 51.211 63.4153 51.299 63.0473 51.475C62.6793 51.635 62.3673 51.859 62.1113 52.147C61.8713 52.419 61.6793 52.731 61.5353 53.083C61.4073 53.435 61.3193 53.787 61.2713 54.139ZM69.8434 59.707V49.939H71.2834L71.3554 52.363H71.4034C71.4354 52.251 71.5074 52.067 71.6194 51.811C71.7474 51.539 71.9234 51.259 72.1474 50.971C72.3874 50.683 72.6994 50.443 73.0834 50.251C73.4674 50.043 73.9554 49.939 74.5474 49.939C75.1554 49.939 75.6514 50.059 76.0354 50.299C76.4194 50.523 76.7154 50.819 76.9234 51.187C77.1314 51.555 77.2914 51.947 77.4034 52.363H77.4514C77.4834 52.235 77.5634 52.043 77.6914 51.787C77.8194 51.531 78.0114 51.259 78.2674 50.971C78.5234 50.683 78.8514 50.443 79.2514 50.251C79.6674 50.043 80.1714 49.939 80.7634 49.939C81.3874 49.939 81.8994 50.067 82.2994 50.323C82.7154 50.563 83.0434 50.891 83.2834 51.307C83.5234 51.707 83.6914 52.131 83.7874 52.579C83.8994 53.027 83.9714 53.459 84.0034 53.875C84.0354 54.291 84.0514 54.627 84.0514 54.883V59.707H82.5394V54.883C82.5394 54.611 82.5234 54.283 82.4914 53.899C82.4754 53.499 82.3954 53.107 82.2514 52.723C82.1234 52.323 81.9074 51.995 81.6034 51.739C81.2994 51.467 80.8674 51.331 80.3074 51.331C79.6994 51.331 79.1954 51.507 78.7954 51.859C78.4114 52.211 78.1314 52.675 77.9554 53.251C77.7794 53.811 77.6914 54.419 77.6914 55.075V59.707H76.2034V54.883C76.2034 54.611 76.1874 54.283 76.1554 53.899C76.1234 53.499 76.0434 53.107 75.9154 52.723C75.7874 52.323 75.5714 51.995 75.2674 51.739C74.9634 51.467 74.5314 51.331 73.9714 51.331C73.3474 51.331 72.8434 51.507 72.4594 51.859C72.0754 52.211 71.7954 52.675 71.6194 53.251C71.4434 53.811 71.3554 54.419 71.3554 55.075V59.707H69.8434ZM85.321 59.707V49.939H86.881V59.707H85.321ZM86.113 48.475C85.713 48.475 85.441 48.371 85.297 48.163C85.153 47.955 85.081 47.715 85.081 47.443C85.081 47.187 85.153 46.963 85.297 46.771C85.441 46.563 85.713 46.459 86.113 46.459C86.513 46.459 86.777 46.563 86.905 46.771C87.033 46.963 87.097 47.187 87.097 47.443C87.097 47.715 87.033 47.955 86.905 48.163C86.777 48.371 86.513 48.475 86.113 48.475ZM88.0797 59.707V49.939H89.3997L89.6637 52.363H89.7117C89.7437 52.283 89.8157 52.115 89.9277 51.859C90.0557 51.587 90.2477 51.307 90.5037 51.019C90.7597 50.731 91.1037 50.483 91.5357 50.275C91.9837 50.051 92.5437 49.939 93.2157 49.939C93.8877 49.939 94.4477 50.043 94.8957 50.251C95.3437 50.443 95.6957 50.715 95.9517 51.067C96.2237 51.403 96.4237 51.787 96.5517 52.219C96.6797 52.651 96.7597 53.099 96.7917 53.563C96.8397 54.011 96.8637 54.451 96.8637 54.883V59.707H95.3757V54.883C95.3757 54.179 95.2957 53.563 95.1357 53.035C94.9917 52.491 94.7277 52.075 94.3437 51.787C93.9597 51.483 93.4157 51.331 92.7117 51.331C91.9917 51.331 91.4077 51.507 90.9597 51.859C90.5117 52.195 90.1837 52.651 89.9757 53.227C89.7677 53.787 89.6637 54.403 89.6637 55.075V59.707H88.0797ZM102.271 59.947C101.343 59.947 100.559 59.731 99.9186 59.299C99.2946 58.851 98.8226 58.251 98.5026 57.499C98.1826 56.747 98.0226 55.899 98.0226 54.955C98.0226 53.979 98.1826 53.115 98.5026 52.363C98.8386 51.595 99.3186 51.003 99.9426 50.587C100.583 50.155 101.367 49.939 102.295 49.939C102.951 49.939 103.503 50.051 103.951 50.275C104.399 50.483 104.751 50.739 105.007 51.043C105.279 51.347 105.479 51.627 105.607 51.883C105.735 52.139 105.815 52.307 105.847 52.387H105.895V46.195H107.479V59.707H106.159L105.919 57.547H105.871C105.839 57.627 105.751 57.795 105.607 58.051C105.463 58.307 105.247 58.579 104.959 58.867C104.687 59.155 104.327 59.411 103.879 59.635C103.447 59.843 102.911 59.947 102.271 59.947ZM102.655 58.579C103.295 58.579 103.855 58.435 104.335 58.147C104.815 57.859 105.191 57.443 105.463 56.899C105.735 56.339 105.871 55.691 105.871 54.955C105.871 54.219 105.743 53.579 105.487 53.035C105.231 52.491 104.871 52.075 104.407 51.787C103.943 51.499 103.399 51.355 102.775 51.355C102.023 51.355 101.407 51.531 100.927 51.883C100.447 52.219 100.095 52.659 99.8706 53.203C99.6466 53.747 99.5346 54.331 99.5346 54.955C99.5346 55.563 99.6306 56.147 99.8226 56.707C100.031 57.251 100.367 57.699 100.831 58.051C101.295 58.403 101.903 58.579 102.655 58.579ZM113.006 59.947C111.934 59.947 111.046 59.707 110.342 59.227C109.654 58.731 109.142 58.099 108.806 57.331C108.486 56.547 108.326 55.739 108.326 54.907C108.326 53.995 108.502 53.163 108.854 52.411C109.222 51.643 109.75 51.035 110.438 50.587C111.142 50.139 111.982 49.915 112.958 49.915C113.806 49.915 114.55 50.099 115.19 50.467C115.846 50.819 116.366 51.331 116.75 52.003C117.15 52.675 117.374 53.467 117.422 54.379C117.438 54.443 117.446 54.539 117.446 54.667C117.446 54.779 117.446 54.883 117.446 54.979H109.814C109.814 56.115 110.086 57.011 110.63 57.667C111.19 58.307 111.974 58.627 112.982 58.627C113.734 58.627 114.374 58.435 114.902 58.051C115.446 57.667 115.782 57.147 115.91 56.491H117.422C117.31 57.147 117.062 57.739 116.678 58.267C116.294 58.795 115.79 59.211 115.166 59.515C114.542 59.803 113.822 59.947 113.006 59.947ZM109.862 54.139H115.862C115.862 53.883 115.806 53.595 115.694 53.275C115.598 52.939 115.438 52.619 115.214 52.315C114.99 51.995 114.694 51.731 114.326 51.523C113.958 51.315 113.494 51.211 112.934 51.211C112.438 51.211 112.006 51.299 111.638 51.475C111.27 51.635 110.958 51.859 110.702 52.147C110.462 52.419 110.27 52.731 110.126 53.083C109.998 53.435 109.91 53.787 109.862 54.139ZM118.674 59.707V49.939H120.066L120.234 52.747L120.21 54.859V59.707H118.674ZM120.21 55.147L120.138 53.011C120.17 52.643 120.266 52.275 120.426 51.907C120.586 51.539 120.81 51.211 121.098 50.923C121.402 50.619 121.786 50.379 122.25 50.203C122.714 50.027 123.258 49.939 123.882 49.939H124.338V51.643H123.858C123.09 51.643 122.466 51.731 121.986 51.907C121.506 52.067 121.138 52.307 120.882 52.627C120.626 52.931 120.45 53.299 120.354 53.731C120.258 54.163 120.21 54.635 120.21 55.147ZM128.7 59.947C128.156 59.947 127.66 59.867 127.212 59.707C126.764 59.563 126.372 59.363 126.036 59.107C125.716 58.851 125.436 58.579 125.196 58.291C124.972 57.987 124.804 57.683 124.692 57.379C124.58 57.075 124.524 56.803 124.524 56.563H126.012C126.012 56.579 126.028 56.699 126.06 56.923C126.092 57.147 126.188 57.403 126.348 57.691C126.508 57.979 126.772 58.235 127.14 58.459C127.508 58.667 128.028 58.771 128.7 58.771C129.18 58.771 129.612 58.715 129.996 58.603C130.38 58.491 130.676 58.315 130.884 58.075C131.108 57.835 131.212 57.539 131.196 57.187C131.196 56.723 131.036 56.371 130.716 56.131C130.412 55.875 130.012 55.683 129.516 55.555C129.02 55.411 128.5 55.275 127.956 55.147C127.412 55.019 126.892 54.859 126.396 54.667C125.9 54.459 125.5 54.171 125.196 53.803C124.892 53.435 124.748 52.923 124.764 52.267C124.78 51.467 125.14 50.835 125.844 50.371C126.564 49.891 127.484 49.651 128.604 49.651C129.068 49.651 129.54 49.707 130.02 49.819C130.516 49.931 130.964 50.115 131.364 50.371C131.78 50.611 132.108 50.955 132.348 51.403C132.588 51.835 132.692 52.379 132.66 53.035H131.22C131.236 52.587 131.156 52.227 130.98 51.955C130.82 51.667 130.596 51.451 130.308 51.307C130.036 51.147 129.74 51.043 129.42 50.995C129.116 50.931 128.828 50.899 128.556 50.899C127.868 50.899 127.3 51.027 126.852 51.283C126.42 51.539 126.204 51.899 126.204 52.363C126.204 52.795 126.356 53.131 126.66 53.371C126.98 53.611 127.38 53.803 127.86 53.947C128.356 54.075 128.876 54.203 129.42 54.331C129.98 54.443 130.508 54.603 131.004 54.811C131.5 55.019 131.9 55.315 132.204 55.699C132.524 56.083 132.684 56.611 132.684 57.283C132.684 57.907 132.508 58.419 132.156 58.819C131.82 59.203 131.348 59.491 130.74 59.683C130.148 59.859 129.468 59.947 128.7 59.947Z" fill="white"/>
</svg>
