<svg width="250" height="78" viewBox="0 0 250 78" fill="none" xmlns="http://www.w3.org/2000/svg">
<path d="M249.113 0.814272L248.447 58.0914L46.586 58.0913L26.8111 77.4247L23.9024 77.3279L23.7098 57.8316L0.470703 57.5701L1.1344 0.287109L249.113 0.814272Z" fill="#FF834E"/>
<path d="M13.415 34.6895L18.167 21.1775H20.711L25.535 34.6895H23.903L19.487 21.8495L15.047 34.6895H13.415ZM16.031 30.4655L16.151 29.1695H22.751L22.895 30.4655H16.031ZM26.2314 34.6895V24.9215H27.7914V34.6895H26.2314ZM27.0234 23.4575C26.6234 23.4575 26.3514 23.3535 26.2074 23.1455C26.0634 22.9375 25.9914 22.6975 25.9914 22.4255C25.9914 22.1695 26.0634 21.9455 26.2074 21.7535C26.3514 21.5455 26.6234 21.4415 27.0234 21.4415C27.4234 21.4415 27.6874 21.5455 27.8154 21.7535C27.9434 21.9455 28.0074 22.1695 28.0074 22.4255C28.0074 22.6975 27.9434 22.9375 27.8154 23.1455C27.6874 23.3535 27.4234 23.4575 27.0234 23.4575ZM29.23 34.6895V24.9215H30.622L30.79 27.7295L30.766 29.8415V34.6895H29.23ZM30.766 30.1295L30.694 27.9935C30.726 27.6255 30.822 27.2575 30.982 26.8895C31.142 26.5215 31.366 26.1935 31.654 25.9055C31.958 25.6015 32.342 25.3615 32.806 25.1855C33.27 25.0095 33.814 24.9215 34.438 24.9215H34.894V26.6255H34.414C33.646 26.6255 33.022 26.7135 32.542 26.8895C32.062 27.0495 31.694 27.2895 31.438 27.6095C31.182 27.9135 31.006 28.2815 30.91 28.7135C30.814 29.1455 30.766 29.6175 30.766 30.1295ZM38.353 34.6895C37.777 34.6895 37.369 34.5295 37.129 34.2095C36.889 33.8895 36.769 33.4495 36.769 32.8895V25.8575H38.257V33.4415H40.537V34.6895H38.353ZM35.233 26.0735V24.9215C35.617 24.9215 35.921 24.9055 36.145 24.8735C36.385 24.8255 36.561 24.7295 36.673 24.5855C36.785 24.4255 36.857 24.1695 36.889 23.8175C36.921 23.4655 36.937 22.9935 36.937 22.4015H38.257V24.9215H40.513V26.0735H35.233ZM41.9139 34.6895V24.9215H43.4739V34.6895H41.9139ZM42.7059 23.4575C42.3059 23.4575 42.0339 23.3535 41.8899 23.1455C41.7459 22.9375 41.6739 22.6975 41.6739 22.4255C41.6739 22.1695 41.7459 21.9455 41.8899 21.7535C42.0339 21.5455 42.3059 21.4415 42.7059 21.4415C43.1059 21.4415 43.3699 21.5455 43.4979 21.7535C43.6259 21.9455 43.6899 22.1695 43.6899 22.4255C43.6899 22.6975 43.6259 22.9375 43.4979 23.1455C43.3699 23.3535 43.1059 23.4575 42.7059 23.4575ZM44.6725 34.6895V24.9215H46.1125L46.1845 27.3455H46.2325C46.2645 27.2335 46.3365 27.0495 46.4485 26.7935C46.5765 26.5215 46.7525 26.2415 46.9765 25.9535C47.2165 25.6655 47.5285 25.4255 47.9125 25.2335C48.2965 25.0255 48.7845 24.9215 49.3765 24.9215C49.9845 24.9215 50.4805 25.0415 50.8645 25.2815C51.2485 25.5055 51.5445 25.8015 51.7525 26.1695C51.9605 26.5375 52.1205 26.9295 52.2325 27.3455H52.2805C52.3125 27.2175 52.3925 27.0255 52.5205 26.7695C52.6485 26.5135 52.8405 26.2415 53.0965 25.9535C53.3525 25.6655 53.6805 25.4255 54.0805 25.2335C54.4965 25.0255 55.0005 24.9215 55.5925 24.9215C56.2165 24.9215 56.7285 25.0495 57.1285 25.3055C57.5445 25.5455 57.8725 25.8735 58.1125 26.2895C58.3525 26.6895 58.5205 27.1135 58.6165 27.5615C58.7285 28.0095 58.8005 28.4415 58.8325 28.8575C58.8645 29.2735 58.8805 29.6095 58.8805 29.8655V34.6895H57.3685V29.8655C57.3685 29.5935 57.3525 29.2655 57.3205 28.8815C57.3045 28.4815 57.2245 28.0895 57.0805 27.7055C56.9525 27.3055 56.7365 26.9775 56.4325 26.7215C56.1285 26.4495 55.6965 26.3135 55.1365 26.3135C54.5285 26.3135 54.0245 26.4895 53.6245 26.8415C53.2405 27.1935 52.9605 27.6575 52.7845 28.2335C52.6085 28.7935 52.5205 29.4015 52.5205 30.0575V34.6895H51.0325V29.8655C51.0325 29.5935 51.0165 29.2655 50.9845 28.8815C50.9525 28.4815 50.8725 28.0895 50.7445 27.7055C50.6165 27.3055 50.4005 26.9775 50.0965 26.7215C49.7925 26.4495 49.3605 26.3135 48.8005 26.3135C48.1765 26.3135 47.6725 26.4895 47.2885 26.8415C46.9045 27.1935 46.6245 27.6575 46.4485 28.2335C46.2725 28.7935 46.1845 29.4015 46.1845 30.0575V34.6895H44.6725ZM64.2541 34.9295C63.1821 34.9295 62.2941 34.6895 61.5901 34.2095C60.9021 33.7135 60.3901 33.0815 60.0541 32.3135C59.7341 31.5295 59.5741 30.7215 59.5741 29.8895C59.5741 28.9775 59.7501 28.1455 60.1021 27.3935C60.4701 26.6255 60.9981 26.0175 61.6861 25.5695C62.3901 25.1215 63.2301 24.8975 64.2061 24.8975C65.0541 24.8975 65.7981 25.0815 66.4381 25.4495C67.0941 25.8015 67.6141 26.3135 67.9981 26.9855C68.3981 27.6575 68.6221 28.4495 68.6701 29.3615C68.6861 29.4255 68.6941 29.5215 68.6941 29.6495C68.6941 29.7615 68.6941 29.8655 68.6941 29.9615H61.0621C61.0621 31.0975 61.3341 31.9935 61.8781 32.6495C62.4381 33.2895 63.2221 33.6095 64.2301 33.6095C64.9821 33.6095 65.6221 33.4175 66.1501 33.0335C66.6941 32.6495 67.0301 32.1295 67.1581 31.4735H68.6701C68.5581 32.1295 68.3101 32.7215 67.9261 33.2495C67.5421 33.7775 67.0381 34.1935 66.4141 34.4975C65.7901 34.7855 65.0701 34.9295 64.2541 34.9295ZM61.1101 29.1215H67.1101C67.1101 28.8655 67.0541 28.5775 66.9421 28.2575C66.8461 27.9215 66.6861 27.6015 66.4621 27.2975C66.2381 26.9775 65.9421 26.7135 65.5741 26.5055C65.2061 26.2975 64.7421 26.1935 64.1821 26.1935C63.6861 26.1935 63.2541 26.2815 62.8861 26.4575C62.5181 26.6175 62.2061 26.8415 61.9501 27.1295C61.7101 27.4015 61.5181 27.7135 61.3741 28.0655C61.2461 28.4175 61.1581 28.7695 61.1101 29.1215ZM77.8495 34.9055C76.9535 34.9055 76.2175 34.6895 75.6415 34.2575C75.0655 33.8095 74.6335 33.2095 74.3455 32.4575C74.0735 31.7055 73.9375 30.8495 73.9375 29.8895C73.9375 28.8975 74.0815 28.0255 74.3695 27.2735C74.6575 26.5215 75.0895 25.9295 75.6655 25.4975C76.2575 25.0495 76.9855 24.8255 77.8495 24.8255C78.3615 24.8255 78.8015 24.8975 79.1695 25.0415C79.5535 25.1695 79.8815 25.3455 80.1535 25.5695C80.4255 25.7935 80.6495 26.0335 80.8255 26.2895C81.0175 26.5295 81.1615 26.7615 81.2575 26.9855H81.2815V24.9215H82.8655V34.6895H81.5455L81.3055 32.7935H81.2575C81.1455 33.0335 81.0015 33.2815 80.8255 33.5375C80.6495 33.7775 80.4175 34.0015 80.1295 34.2095C79.8575 34.4175 79.5295 34.5855 79.1455 34.7135C78.7775 34.8415 78.3455 34.9055 77.8495 34.9055ZM78.4495 33.5375C79.1215 33.5375 79.6575 33.3935 80.0575 33.1055C80.4735 32.8015 80.7775 32.3775 80.9695 31.8335C81.1615 31.2895 81.2575 30.6495 81.2575 29.9135C81.2575 29.1295 81.1535 28.4655 80.9455 27.9215C80.7535 27.3775 80.4495 26.9695 80.0335 26.6975C79.6175 26.4095 79.0895 26.2655 78.4495 26.2655C77.7455 26.2655 77.1695 26.4255 76.7215 26.7455C76.2895 27.0655 75.9775 27.4975 75.7855 28.0415C75.5935 28.5855 75.4975 29.2015 75.4975 29.8895C75.4975 30.5935 75.5935 31.2255 75.7855 31.7855C75.9935 32.3295 76.3135 32.7615 76.7455 33.0815C77.1935 33.3855 77.7615 33.5375 78.4495 33.5375ZM83.6997 34.6895V24.9215H85.0197L85.2837 27.3455H85.3317C85.3637 27.2655 85.4357 27.0975 85.5477 26.8415C85.6757 26.5695 85.8677 26.2895 86.1237 26.0015C86.3797 25.7135 86.7237 25.4655 87.1557 25.2575C87.6037 25.0335 88.1637 24.9215 88.8357 24.9215C89.5077 24.9215 90.0677 25.0255 90.5157 25.2335C90.9637 25.4255 91.3157 25.6975 91.5717 26.0495C91.8437 26.3855 92.0437 26.7695 92.1717 27.2015C92.2997 27.6335 92.3797 28.0815 92.4117 28.5455C92.4597 28.9935 92.4837 29.4335 92.4837 29.8655V34.6895H90.9957V29.8655C90.9957 29.1615 90.9157 28.5455 90.7557 28.0175C90.6117 27.4735 90.3477 27.0575 89.9637 26.7695C89.5797 26.4655 89.0357 26.3135 88.3317 26.3135C87.6117 26.3135 87.0277 26.4895 86.5797 26.8415C86.1317 27.1775 85.8037 27.6335 85.5957 28.2095C85.3877 28.7695 85.2837 29.3855 85.2837 30.0575V34.6895H83.6997ZM97.8907 34.9295C96.9627 34.9295 96.1787 34.7135 95.5387 34.2815C94.9147 33.8335 94.4427 33.2335 94.1227 32.4815C93.8027 31.7295 93.6427 30.8815 93.6427 29.9375C93.6427 28.9615 93.8027 28.0975 94.1227 27.3455C94.4587 26.5775 94.9387 25.9855 95.5627 25.5695C96.2027 25.1375 96.9867 24.9215 97.9147 24.9215C98.5707 24.9215 99.1227 25.0335 99.5707 25.2575C100.019 25.4655 100.371 25.7215 100.627 26.0255C100.899 26.3295 101.099 26.6095 101.227 26.8655C101.355 27.1215 101.435 27.2895 101.467 27.3695H101.515V21.1775H103.099V34.6895H101.779L101.539 32.5295H101.491C101.459 32.6095 101.371 32.7775 101.227 33.0335C101.083 33.2895 100.867 33.5615 100.579 33.8495C100.307 34.1375 99.9467 34.3935 99.4987 34.6175C99.0667 34.8255 98.5307 34.9295 97.8907 34.9295ZM98.2747 33.5615C98.9147 33.5615 99.4747 33.4175 99.9547 33.1295C100.435 32.8415 100.811 32.4255 101.083 31.8815C101.355 31.3215 101.491 30.6735 101.491 29.9375C101.491 29.2015 101.363 28.5615 101.107 28.0175C100.851 27.4735 100.491 27.0575 100.027 26.7695C99.5627 26.4815 99.0187 26.3375 98.3947 26.3375C97.6427 26.3375 97.0267 26.5135 96.5467 26.8655C96.0667 27.2015 95.7147 27.6415 95.4907 28.1855C95.2667 28.7295 95.1547 29.3135 95.1547 29.9375C95.1547 30.5455 95.2507 31.1295 95.4427 31.6895C95.6507 32.2335 95.9867 32.6815 96.4507 33.0335C96.9147 33.3855 97.5227 33.5615 98.2747 33.5615ZM111.153 33.3695C111.841 33.3695 112.361 33.3695 112.713 33.3695C113.081 33.3695 113.353 33.3695 113.529 33.3695C114.457 33.3695 115.297 33.2975 116.049 33.1535C116.817 33.0095 117.465 32.7375 117.993 32.3375C118.537 31.9375 118.953 31.3855 119.241 30.6815C119.529 29.9615 119.673 29.0415 119.673 27.9215C119.673 26.6895 119.417 25.6815 118.905 24.8975C118.409 24.0975 117.697 23.5055 116.769 23.1215C115.857 22.7375 114.777 22.5455 113.529 22.5455H111.153V33.3695ZM121.305 27.9215C121.305 29.6975 120.969 31.0815 120.297 32.0735C119.625 33.0495 118.681 33.7295 117.465 34.1135C116.249 34.4975 114.825 34.6895 113.193 34.6895C112.937 34.6895 112.529 34.6895 111.969 34.6895C111.425 34.6895 110.641 34.6895 109.617 34.6895V21.1775C110.705 21.1775 111.513 21.1775 112.041 21.1775C112.585 21.1775 112.969 21.1775 113.193 21.1775C114.825 21.1775 116.249 21.4335 117.465 21.9455C118.681 22.4415 119.625 23.1855 120.297 24.1775C120.969 25.1695 121.305 26.4175 121.305 27.9215ZM125.503 34.9055C124.607 34.9055 123.871 34.6895 123.295 34.2575C122.719 33.8095 122.287 33.2095 121.999 32.4575C121.727 31.7055 121.591 30.8495 121.591 29.8895C121.591 28.8975 121.735 28.0255 122.023 27.2735C122.311 26.5215 122.743 25.9295 123.319 25.4975C123.911 25.0495 124.639 24.8255 125.503 24.8255C126.015 24.8255 126.455 24.8975 126.823 25.0415C127.207 25.1695 127.535 25.3455 127.807 25.5695C128.079 25.7935 128.303 26.0335 128.479 26.2895C128.671 26.5295 128.815 26.7615 128.911 26.9855H128.935V24.9215H130.519V34.6895H129.199L128.959 32.7935H128.911C128.799 33.0335 128.655 33.2815 128.479 33.5375C128.303 33.7775 128.071 34.0015 127.783 34.2095C127.511 34.4175 127.183 34.5855 126.799 34.7135C126.431 34.8415 125.999 34.9055 125.503 34.9055ZM126.103 33.5375C126.775 33.5375 127.311 33.3935 127.711 33.1055C128.127 32.8015 128.431 32.3775 128.623 31.8335C128.815 31.2895 128.911 30.6495 128.911 29.9135C128.911 29.1295 128.807 28.4655 128.599 27.9215C128.407 27.3775 128.103 26.9695 127.687 26.6975C127.271 26.4095 126.743 26.2655 126.103 26.2655C125.399 26.2655 124.823 26.4255 124.375 26.7455C123.943 27.0655 123.631 27.4975 123.439 28.0415C123.247 28.5855 123.151 29.2015 123.151 29.8895C123.151 30.5935 123.247 31.2255 123.439 31.7855C123.647 32.3295 123.967 32.7615 124.399 33.0815C124.847 33.3855 125.415 33.5375 126.103 33.5375ZM133.801 34.6895C133.225 34.6895 132.817 34.5295 132.577 34.2095C132.337 33.8895 132.217 33.4495 132.217 32.8895V25.8575H133.705V33.4415H135.985V34.6895H133.801ZM130.681 26.0735V24.9215C131.065 24.9215 131.369 24.9055 131.593 24.8735C131.833 24.8255 132.009 24.7295 132.121 24.5855C132.233 24.4255 132.305 24.1695 132.337 23.8175C132.369 23.4655 132.385 22.9935 132.385 22.4015H133.705V24.9215H135.961V26.0735H130.681ZM140.458 34.9055C139.562 34.9055 138.826 34.6895 138.25 34.2575C137.674 33.8095 137.242 33.2095 136.954 32.4575C136.682 31.7055 136.546 30.8495 136.546 29.8895C136.546 28.8975 136.69 28.0255 136.978 27.2735C137.266 26.5215 137.698 25.9295 138.274 25.4975C138.866 25.0495 139.594 24.8255 140.458 24.8255C140.97 24.8255 141.41 24.8975 141.778 25.0415C142.162 25.1695 142.49 25.3455 142.762 25.5695C143.034 25.7935 143.258 26.0335 143.434 26.2895C143.626 26.5295 143.77 26.7615 143.866 26.9855H143.89V24.9215H145.474V34.6895H144.154L143.914 32.7935H143.866C143.754 33.0335 143.61 33.2815 143.434 33.5375C143.258 33.7775 143.026 34.0015 142.738 34.2095C142.466 34.4175 142.138 34.5855 141.754 34.7135C141.386 34.8415 140.954 34.9055 140.458 34.9055ZM141.058 33.5375C141.73 33.5375 142.266 33.3935 142.666 33.1055C143.082 32.8015 143.386 32.3775 143.578 31.8335C143.77 31.2895 143.866 30.6495 143.866 29.9135C143.866 29.1295 143.762 28.4655 143.554 27.9215C143.362 27.3775 143.058 26.9695 142.642 26.6975C142.226 26.4095 141.698 26.2655 141.058 26.2655C140.354 26.2655 139.778 26.4255 139.33 26.7455C138.898 27.0655 138.586 27.4975 138.394 28.0415C138.202 28.5855 138.106 29.2015 138.106 29.8895C138.106 30.5935 138.202 31.2255 138.394 31.7855C138.602 32.3295 138.922 32.7615 139.354 33.0815C139.802 33.3855 140.37 33.5375 141.058 33.5375ZM151.619 34.6895V21.1775H156.083C157.235 21.1775 158.203 21.2975 158.987 21.5375C159.787 21.7615 160.395 22.1535 160.811 22.7135C161.243 23.2735 161.459 24.0495 161.459 25.0415C161.459 25.6815 161.339 26.2735 161.099 26.8175C160.875 27.3455 160.523 27.7695 160.043 28.0895C159.579 28.4095 158.995 28.5695 158.291 28.5695C158.867 28.5695 159.315 28.6815 159.635 28.9055C159.955 29.1135 160.187 29.3935 160.331 29.7455C160.475 30.0975 160.571 30.4735 160.619 30.8735C160.667 31.2735 160.699 31.6655 160.715 32.0495C160.731 32.4335 160.763 32.7695 160.811 33.0575C160.875 33.3455 161.003 33.5455 161.195 33.6575C161.387 33.7695 161.675 33.7535 162.059 33.6095V34.6175C161.915 34.7455 161.691 34.8335 161.387 34.8815C161.099 34.9455 160.795 34.9295 160.475 34.8335C160.155 34.7375 159.883 34.5215 159.659 34.1855C159.451 33.8495 159.347 33.3535 159.347 32.6975C159.347 31.8975 159.315 31.2495 159.251 30.7535C159.187 30.2415 159.043 29.8495 158.819 29.5775C158.611 29.3055 158.283 29.1135 157.835 29.0015C157.387 28.8895 156.787 28.8335 156.035 28.8335C155.283 28.8335 154.331 28.8415 153.179 28.8575V34.6895H151.619ZM153.179 27.6815H156.323C157.171 27.6815 157.867 27.6095 158.411 27.4655C158.971 27.3215 159.387 27.0735 159.659 26.7215C159.931 26.3535 160.067 25.8255 160.067 25.1375C160.067 24.3215 159.899 23.7295 159.563 23.3615C159.227 22.9935 158.739 22.7615 158.099 22.6655C157.475 22.5535 156.699 22.4975 155.771 22.4975H153.179V27.6815ZM167.273 34.9295C166.201 34.9295 165.313 34.6895 164.609 34.2095C163.921 33.7135 163.409 33.0815 163.073 32.3135C162.753 31.5295 162.593 30.7215 162.593 29.8895C162.593 28.9775 162.769 28.1455 163.121 27.3935C163.489 26.6255 164.017 26.0175 164.705 25.5695C165.409 25.1215 166.249 24.8975 167.225 24.8975C168.073 24.8975 168.817 25.0815 169.457 25.4495C170.113 25.8015 170.633 26.3135 171.017 26.9855C171.417 27.6575 171.641 28.4495 171.689 29.3615C171.705 29.4255 171.713 29.5215 171.713 29.6495C171.713 29.7615 171.713 29.8655 171.713 29.9615H164.081C164.081 31.0975 164.353 31.9935 164.897 32.6495C165.457 33.2895 166.241 33.6095 167.249 33.6095C168.001 33.6095 168.641 33.4175 169.169 33.0335C169.713 32.6495 170.049 32.1295 170.177 31.4735H171.689C171.577 32.1295 171.329 32.7215 170.945 33.2495C170.561 33.7775 170.057 34.1935 169.433 34.4975C168.809 34.7855 168.089 34.9295 167.273 34.9295ZM164.129 29.1215H170.129C170.129 28.8655 170.073 28.5775 169.961 28.2575C169.865 27.9215 169.705 27.6015 169.481 27.2975C169.257 26.9775 168.961 26.7135 168.593 26.5055C168.225 26.2975 167.761 26.1935 167.201 26.1935C166.705 26.1935 166.273 26.2815 165.905 26.4575C165.537 26.6175 165.225 26.8415 164.969 27.1295C164.729 27.4015 164.537 27.7135 164.393 28.0655C164.265 28.4175 164.177 28.7695 164.129 29.1215ZM177.189 34.9295C176.277 34.9295 175.461 34.7375 174.741 34.3535C174.021 33.9695 173.453 33.4095 173.037 32.6735C172.621 31.9375 172.413 31.0495 172.413 30.0095C172.445 28.9855 172.661 28.0895 173.061 27.3215C173.477 26.5535 174.045 25.9615 174.765 25.5455C175.485 25.1135 176.309 24.8975 177.237 24.8975C178.101 24.8975 178.853 25.0655 179.493 25.4015C180.133 25.7215 180.645 26.1535 181.029 26.6975C181.413 27.2255 181.653 27.8175 181.749 28.4735H180.333C180.189 27.7855 179.845 27.2495 179.301 26.8655C178.757 26.4655 178.085 26.2655 177.285 26.2655C176.597 26.2655 176.005 26.4255 175.509 26.7455C175.013 27.0495 174.629 27.4815 174.357 28.0415C174.085 28.5855 173.941 29.2175 173.925 29.9375C173.925 31.0255 174.221 31.8975 174.813 32.5535C175.405 33.2095 176.221 33.5375 177.261 33.5375C178.029 33.5375 178.693 33.3455 179.253 32.9615C179.829 32.5775 180.189 32.0255 180.333 31.3055H181.749C181.653 31.9615 181.405 32.5695 181.005 33.1295C180.621 33.6735 180.101 34.1135 179.445 34.4495C178.805 34.7695 178.053 34.9295 177.189 34.9295ZM182.689 34.6895V21.1775H184.249V27.3455H184.297C184.329 27.2655 184.401 27.0975 184.513 26.8415C184.641 26.5695 184.833 26.2895 185.089 26.0015C185.345 25.7135 185.689 25.4655 186.121 25.2575C186.553 25.0335 187.097 24.9215 187.753 24.9215C188.425 24.9215 188.985 25.0255 189.433 25.2335C189.881 25.4255 190.241 25.6975 190.513 26.0495C190.785 26.4015 190.985 26.8015 191.113 27.2495C191.257 27.6815 191.353 28.1215 191.401 28.5695C191.449 29.0175 191.473 29.4495 191.473 29.8655V34.6895H189.961V29.8655C189.961 29.1615 189.881 28.5455 189.721 28.0175C189.577 27.4735 189.313 27.0575 188.929 26.7695C188.561 26.4655 188.025 26.3135 187.321 26.3135C186.585 26.3135 185.993 26.4895 185.545 26.8415C185.097 27.1775 184.769 27.6335 184.561 28.2095C184.353 28.7695 184.249 29.3855 184.249 30.0575V34.6895H182.689ZM195.94 34.9055C195.044 34.9055 194.308 34.6895 193.732 34.2575C193.156 33.8095 192.724 33.2095 192.436 32.4575C192.164 31.7055 192.028 30.8495 192.028 29.8895C192.028 28.8975 192.172 28.0255 192.46 27.2735C192.748 26.5215 193.18 25.9295 193.756 25.4975C194.348 25.0495 195.076 24.8255 195.94 24.8255C196.452 24.8255 196.892 24.8975 197.26 25.0415C197.644 25.1695 197.972 25.3455 198.244 25.5695C198.516 25.7935 198.74 26.0335 198.916 26.2895C199.108 26.5295 199.252 26.7615 199.348 26.9855H199.372V24.9215H200.956V34.6895H199.636L199.396 32.7935H199.348C199.236 33.0335 199.092 33.2815 198.916 33.5375C198.74 33.7775 198.508 34.0015 198.22 34.2095C197.948 34.4175 197.62 34.5855 197.236 34.7135C196.868 34.8415 196.436 34.9055 195.94 34.9055ZM196.54 33.5375C197.212 33.5375 197.748 33.3935 198.148 33.1055C198.564 32.8015 198.868 32.3775 199.06 31.8335C199.252 31.2895 199.348 30.6495 199.348 29.9135C199.348 29.1295 199.244 28.4655 199.036 27.9215C198.844 27.3775 198.54 26.9695 198.124 26.6975C197.708 26.4095 197.18 26.2655 196.54 26.2655C195.836 26.2655 195.26 26.4255 194.812 26.7455C194.38 27.0655 194.068 27.4975 193.876 28.0415C193.684 28.5855 193.588 29.2015 193.588 29.8895C193.588 30.5935 193.684 31.2255 193.876 31.7855C194.084 32.3295 194.404 32.7615 194.836 33.0815C195.284 33.3855 195.852 33.5375 196.54 33.5375ZM202.03 34.6895V24.9215H203.422L203.59 27.7295L203.566 29.8415V34.6895H202.03ZM203.566 30.1295L203.494 27.9935C203.526 27.6255 203.622 27.2575 203.782 26.8895C203.942 26.5215 204.166 26.1935 204.454 25.9055C204.758 25.6015 205.142 25.3615 205.606 25.1855C206.07 25.0095 206.614 24.9215 207.238 24.9215H207.694V26.6255H207.214C206.446 26.6255 205.822 26.7135 205.342 26.8895C204.862 27.0495 204.494 27.2895 204.238 27.6095C203.982 27.9135 203.806 28.2815 203.71 28.7135C203.614 29.1455 203.566 29.6175 203.566 30.1295ZM210.472 38.7215V37.2575H215.344V32.5295H215.296C215.264 32.6095 215.176 32.7775 215.032 33.0335C214.904 33.2895 214.696 33.5615 214.408 33.8495C214.136 34.1375 213.776 34.3935 213.328 34.6175C212.896 34.8255 212.368 34.9295 211.744 34.9295C210.8 34.9295 210.008 34.7135 209.368 34.2815C208.744 33.8335 208.272 33.2335 207.952 32.4815C207.632 31.7295 207.472 30.8815 207.472 29.9375C207.472 28.9615 207.632 28.0975 207.952 27.3455C208.272 26.5775 208.752 25.9855 209.392 25.5695C210.032 25.1375 210.824 24.9215 211.768 24.9215C212.408 24.9215 212.952 25.0335 213.4 25.2575C213.848 25.4655 214.2 25.7215 214.456 26.0255C214.728 26.3295 214.928 26.6095 215.056 26.8655C215.184 27.1215 215.264 27.2895 215.296 27.3695H215.344V24.9215H216.928V36.3695C216.928 36.8815 216.864 37.3135 216.736 37.6655C216.624 38.0175 216.416 38.2815 216.112 38.4575C215.824 38.6335 215.432 38.7215 214.936 38.7215H210.472ZM212.08 33.5615C212.72 33.5615 213.28 33.4175 213.76 33.1295C214.256 32.8415 214.632 32.4255 214.888 31.8815C215.16 31.3215 215.296 30.6735 215.296 29.9375C215.296 29.2015 215.168 28.5615 214.912 28.0175C214.672 27.4735 214.32 27.0575 213.856 26.7695C213.392 26.4815 212.848 26.3375 212.224 26.3375C211.472 26.3375 210.856 26.5135 210.376 26.8655C209.896 27.2015 209.544 27.6415 209.32 28.1855C209.096 28.7295 208.984 29.3135 208.984 29.9375C208.984 30.5455 209.08 31.1295 209.272 31.6895C209.48 32.2335 209.808 32.6815 210.256 33.0335C210.72 33.3855 211.328 33.5615 212.08 33.5615ZM222.451 34.9295C221.379 34.9295 220.491 34.6895 219.787 34.2095C219.099 33.7135 218.587 33.0815 218.251 32.3135C217.931 31.5295 217.771 30.7215 217.771 29.8895C217.771 28.9775 217.947 28.1455 218.299 27.3935C218.667 26.6255 219.195 26.0175 219.883 25.5695C220.587 25.1215 221.427 24.8975 222.403 24.8975C223.251 24.8975 223.995 25.0815 224.635 25.4495C225.291 25.8015 225.811 26.3135 226.195 26.9855C226.595 27.6575 226.819 28.4495 226.867 29.3615C226.883 29.4255 226.891 29.5215 226.891 29.6495C226.891 29.7615 226.891 29.8655 226.891 29.9615H219.259C219.259 31.0975 219.531 31.9935 220.075 32.6495C220.635 33.2895 221.419 33.6095 222.427 33.6095C223.179 33.6095 223.819 33.4175 224.347 33.0335C224.891 32.6495 225.227 32.1295 225.355 31.4735H226.867C226.755 32.1295 226.507 32.7215 226.123 33.2495C225.739 33.7775 225.235 34.1935 224.611 34.4975C223.987 34.7855 223.267 34.9295 222.451 34.9295ZM219.307 29.1215H225.307C225.307 28.8655 225.251 28.5775 225.139 28.2575C225.043 27.9215 224.883 27.6015 224.659 27.2975C224.435 26.9775 224.139 26.7135 223.771 26.5055C223.403 26.2975 222.939 26.1935 222.379 26.1935C221.883 26.1935 221.451 26.2815 221.083 26.4575C220.715 26.6175 220.403 26.8415 220.147 27.1295C219.907 27.4015 219.715 27.7135 219.571 28.0655C219.443 28.4175 219.355 28.7695 219.307 29.1215ZM231.863 34.9295C231.319 34.9295 230.823 34.8495 230.375 34.6895C229.927 34.5455 229.535 34.3455 229.199 34.0895C228.879 33.8335 228.599 33.5615 228.359 33.2735C228.135 32.9695 227.967 32.6655 227.855 32.3615C227.743 32.0575 227.687 31.7855 227.687 31.5455H229.175C229.175 31.5615 229.191 31.6815 229.223 31.9055C229.255 32.1295 229.351 32.3855 229.511 32.6735C229.671 32.9615 229.935 33.2175 230.303 33.4415C230.671 33.6495 231.191 33.7535 231.863 33.7535C232.343 33.7535 232.775 33.6975 233.159 33.5855C233.543 33.4735 233.839 33.2975 234.047 33.0575C234.271 32.8175 234.375 32.5215 234.359 32.1695C234.359 31.7055 234.199 31.3535 233.879 31.1135C233.575 30.8575 233.175 30.6655 232.679 30.5375C232.183 30.3935 231.663 30.2575 231.119 30.1295C230.575 30.0015 230.055 29.8415 229.559 29.6495C229.063 29.4415 228.663 29.1535 228.359 28.7855C228.055 28.4175 227.911 27.9055 227.927 27.2495C227.943 26.4495 228.303 25.8175 229.007 25.3535C229.727 24.8735 230.647 24.6335 231.767 24.6335C232.231 24.6335 232.703 24.6895 233.183 24.8015C233.679 24.9135 234.127 25.0975 234.527 25.3535C234.943 25.5935 235.271 25.9375 235.511 26.3855C235.751 26.8175 235.855 27.3615 235.823 28.0175H234.383C234.399 27.5695 234.319 27.2095 234.143 26.9375C233.983 26.6495 233.759 26.4335 233.471 26.2895C233.199 26.1295 232.903 26.0255 232.583 25.9775C232.279 25.9135 231.991 25.8815 231.719 25.8815C231.031 25.8815 230.463 26.0095 230.015 26.2655C229.583 26.5215 229.367 26.8815 229.367 27.3455C229.367 27.7775 229.519 28.1135 229.823 28.3535C230.143 28.5935 230.543 28.7855 231.023 28.9295C231.519 29.0575 232.039 29.1855 232.583 29.3135C233.143 29.4255 233.671 29.5855 234.167 29.7935C234.663 30.0015 235.063 30.2975 235.367 30.6815C235.687 31.0655 235.847 31.5935 235.847 32.2655C235.847 32.8895 235.671 33.4015 235.319 33.8015C234.983 34.1855 234.511 34.4735 233.903 34.6655C233.311 34.8415 232.631 34.9295 231.863 34.9295Z" fill="white"/>
</svg>
