<svg width="179" height="78" viewBox="0 0 179 78" fill="none" xmlns="http://www.w3.org/2000/svg">
<path d="M178.277 0.633027L177.611 57.9101L46.8258 57.9102L27.0509 77.2436L24.1421 77.1468L23.9496 57.6504L0.710449 57.389L1.37415 0.105957L178.277 0.633027Z" fill="#17235D"/>
<path d="M20.317 36.0108C18.509 36.0108 17.117 35.4828 16.141 34.4268C15.181 33.3548 14.701 31.8508 14.701 29.9148V22.1628H16.285V29.9148C16.285 30.7148 16.389 31.4108 16.597 32.0028C16.805 32.5788 17.085 33.0588 17.437 33.4428C17.805 33.8268 18.229 34.1068 18.709 34.2828C19.205 34.4588 19.741 34.5468 20.317 34.5468C21.149 34.5468 21.861 34.3948 22.453 34.0908C23.061 33.7708 23.533 33.2668 23.869 32.5788C24.205 31.8908 24.373 31.0028 24.373 29.9148V22.1628H25.957V29.9148C25.957 31.8828 25.477 33.3948 24.517 34.4508C23.573 35.4908 22.173 36.0108 20.317 36.0108ZM29.7046 35.6748C29.1286 35.6748 28.7206 35.5148 28.4806 35.1948C28.2406 34.8748 28.1206 34.4348 28.1206 33.8748V26.8428H29.6086V34.4268H31.8886V35.6748H29.7046ZM26.5846 27.0588V25.9068C26.9686 25.9068 27.2726 25.8908 27.4966 25.8588C27.7366 25.8108 27.9126 25.7148 28.0246 25.5708C28.1366 25.4108 28.2086 25.1548 28.2406 24.8028C28.2726 24.4508 28.2886 23.9788 28.2886 23.3868H29.6086V25.9068H31.8646V27.0588H26.5846ZM33.2654 35.6748V25.9068H34.8254V35.6748H33.2654ZM34.0574 24.4428C33.6574 24.4428 33.3854 24.3388 33.2414 24.1308C33.0974 23.9228 33.0254 23.6828 33.0254 23.4108C33.0254 23.1548 33.0974 22.9308 33.2414 22.7388C33.3854 22.5308 33.6574 22.4268 34.0574 22.4268C34.4574 22.4268 34.7214 22.5308 34.8494 22.7388C34.9774 22.9308 35.0414 23.1548 35.0414 23.4108C35.0414 23.6828 34.9774 23.9228 34.8494 24.1308C34.7214 24.3388 34.4574 24.4428 34.0574 24.4428ZM36.3601 35.6748V22.1628H37.8721V35.6748H36.3601ZM39.4079 35.6748V25.9068H40.9679V35.6748H39.4079ZM40.1999 24.4428C39.7999 24.4428 39.5279 24.3388 39.3839 24.1308C39.2399 23.9228 39.1679 23.6828 39.1679 23.4108C39.1679 23.1548 39.2399 22.9308 39.3839 22.7388C39.5279 22.5308 39.7999 22.4268 40.1999 22.4268C40.5999 22.4268 40.8639 22.5308 40.9919 22.7388C41.1199 22.9308 41.1839 23.1548 41.1839 23.4108C41.1839 23.6828 41.1199 23.9228 40.9919 24.1308C40.8639 24.3388 40.5999 24.4428 40.1999 24.4428ZM44.849 35.6748C44.273 35.6748 43.865 35.5148 43.625 35.1948C43.385 34.8748 43.265 34.4348 43.265 33.8748V26.8428H44.753V34.4268H47.033V35.6748H44.849ZM41.729 27.0588V25.9068C42.113 25.9068 42.417 25.8908 42.641 25.8588C42.881 25.8108 43.057 25.7148 43.169 25.5708C43.281 25.4108 43.353 25.1548 43.385 24.8028C43.417 24.4508 43.433 23.9788 43.433 23.3868H44.753V25.9068H47.009V27.0588H41.729ZM47.0898 40.0428V38.7948H48.4338C48.6418 38.7948 48.8258 38.7628 48.9858 38.6988C49.1458 38.6348 49.3058 38.4988 49.4658 38.2908C49.6258 38.0828 49.8018 37.7628 49.9938 37.3308L51.0258 35.0988L47.1858 25.9068H48.7938L51.7938 33.4668L54.9858 25.9068H56.6178L51.3858 37.5468C51.1458 38.0908 50.9298 38.5228 50.7378 38.8428C50.5458 39.1788 50.3458 39.4348 50.1378 39.6108C49.9298 39.7868 49.6978 39.8988 49.4418 39.9468C49.2018 40.0108 48.9058 40.0428 48.5538 40.0428H47.0898ZM62.1505 35.6748V22.1628H67.0225C67.4865 22.1628 67.9585 22.1868 68.4385 22.2348C68.9345 22.2828 69.3985 22.3788 69.8305 22.5228C70.2785 22.6508 70.6785 22.8508 71.0305 23.1228C71.3825 23.3788 71.6545 23.7228 71.8465 24.1548C72.0545 24.5708 72.1585 25.0988 72.1585 25.7388C72.1585 26.2508 72.0545 26.7308 71.8465 27.1788C71.6545 27.6268 71.2945 27.9868 70.7665 28.2588C70.2545 28.5148 69.5105 28.6588 68.5345 28.6908V28.7868C69.6705 28.7868 70.5425 28.9468 71.1505 29.2668C71.7585 29.5708 72.1745 29.9708 72.3985 30.4668C72.6385 30.9628 72.7585 31.5148 72.7585 32.1228C72.7585 32.7628 72.6465 33.2988 72.4225 33.7308C72.1985 34.1628 71.8945 34.5068 71.5105 34.7628C71.1425 35.0188 70.7185 35.2108 70.2385 35.3388C69.7745 35.4668 69.2785 35.5548 68.7505 35.6028C68.2385 35.6508 67.7505 35.6748 67.2865 35.6748H62.1505ZM63.6865 34.3788H67.1665C67.9025 34.3788 68.5665 34.3308 69.1585 34.2348C69.7665 34.1228 70.2465 33.8988 70.5985 33.5628C70.9665 33.2108 71.1505 32.6748 71.1505 31.9548C71.1505 31.2028 70.9585 30.6428 70.5745 30.2748C70.1905 29.9068 69.6785 29.6588 69.0385 29.5308C68.3985 29.4028 67.6865 29.3388 66.9025 29.3388H63.6865V34.3788ZM63.6865 28.0908H66.8545C67.6065 28.0908 68.2625 28.0428 68.8225 27.9468C69.3825 27.8508 69.8145 27.6508 70.1185 27.3468C70.4385 27.0268 70.5985 26.5388 70.5985 25.8828C70.5985 25.1308 70.4225 24.5868 70.0705 24.2508C69.7345 23.9148 69.2785 23.7068 68.7025 23.6268C68.1425 23.5308 67.5345 23.4828 66.8785 23.4828H63.6865V28.0908ZM73.8892 35.6748V25.9068H75.4492V35.6748H73.8892ZM74.6812 24.4428C74.2812 24.4428 74.0092 24.3388 73.8652 24.1308C73.7212 23.9228 73.6492 23.6828 73.6492 23.4108C73.6492 23.1548 73.7212 22.9308 73.8652 22.7388C74.0092 22.5308 74.2812 22.4268 74.6812 22.4268C75.0812 22.4268 75.3452 22.5308 75.4732 22.7388C75.6012 22.9308 75.6652 23.1548 75.6652 23.4108C75.6652 23.6828 75.6012 23.9228 75.4732 24.1308C75.3452 24.3388 75.0812 24.4428 74.6812 24.4428ZM76.9838 35.6748V22.1628H78.4958V35.6748H76.9838ZM80.0317 35.6748V22.1628H81.5437V35.6748H80.0317ZM89.6148 35.6748H88.0788V22.1628H89.6148V35.6748ZM89.3748 22.1628H93.2148C94.7028 22.1628 95.8388 22.5228 96.6228 23.2428C97.4068 23.9628 97.7988 25.0348 97.7988 26.4588C97.7988 27.7868 97.3908 28.8108 96.5748 29.5308C95.7748 30.2508 94.6548 30.6108 93.2148 30.6108H89.3748V29.4108H93.0468C94.1028 29.4108 94.9188 29.1708 95.4948 28.6908C96.0868 28.1948 96.3828 27.4508 96.3828 26.4588C96.3828 25.4348 96.0948 24.6828 95.5188 24.2028C94.9588 23.7228 94.1348 23.4828 93.0468 23.4828H89.3748V22.1628ZM101.693 35.8908C100.797 35.8908 100.061 35.6748 99.485 35.2428C98.909 34.7948 98.477 34.1948 98.189 33.4428C97.917 32.6908 97.781 31.8348 97.781 30.8748C97.781 29.8828 97.925 29.0108 98.213 28.2588C98.501 27.5068 98.933 26.9148 99.509 26.4828C100.101 26.0348 100.829 25.8108 101.693 25.8108C102.205 25.8108 102.645 25.8828 103.013 26.0268C103.397 26.1548 103.725 26.3308 103.997 26.5548C104.269 26.7788 104.493 27.0188 104.669 27.2748C104.861 27.5148 105.005 27.7468 105.101 27.9708H105.125V25.9068H106.709V35.6748H105.389L105.149 33.7788H105.101C104.989 34.0188 104.845 34.2668 104.669 34.5228C104.493 34.7628 104.261 34.9868 103.973 35.1948C103.701 35.4028 103.373 35.5708 102.989 35.6988C102.621 35.8268 102.189 35.8908 101.693 35.8908ZM102.293 34.5228C102.965 34.5228 103.501 34.3788 103.901 34.0908C104.317 33.7868 104.621 33.3628 104.813 32.8188C105.005 32.2748 105.101 31.6348 105.101 30.8988C105.101 30.1148 104.997 29.4508 104.789 28.9068C104.597 28.3628 104.293 27.9548 103.877 27.6828C103.461 27.3948 102.933 27.2508 102.293 27.2508C101.589 27.2508 101.013 27.4108 100.565 27.7308C100.133 28.0508 99.821 28.4828 99.629 29.0268C99.437 29.5708 99.341 30.1868 99.341 30.8748C99.341 31.5788 99.437 32.2108 99.629 32.7708C99.837 33.3148 100.157 33.7468 100.589 34.0668C101.037 34.3708 101.605 34.5228 102.293 34.5228ZM106.559 40.0428V38.7948H107.903C108.111 38.7948 108.295 38.7628 108.455 38.6988C108.615 38.6348 108.775 38.4988 108.935 38.2908C109.095 38.0828 109.271 37.7628 109.463 37.3308L110.495 35.0988L106.655 25.9068H108.263L111.263 33.4668L114.455 25.9068H116.087L110.855 37.5468C110.615 38.0908 110.399 38.5228 110.207 38.8428C110.015 39.1788 109.815 39.4348 109.607 39.6108C109.399 39.7868 109.167 39.8988 108.911 39.9468C108.671 40.0108 108.375 40.0428 108.023 40.0428H106.559ZM116.357 35.6748V25.9068H117.797L117.869 28.3308H117.917C117.949 28.2188 118.021 28.0348 118.133 27.7788C118.261 27.5068 118.437 27.2268 118.661 26.9388C118.901 26.6508 119.213 26.4108 119.597 26.2188C119.981 26.0108 120.469 25.9068 121.061 25.9068C121.669 25.9068 122.165 26.0268 122.549 26.2668C122.933 26.4908 123.229 26.7868 123.437 27.1548C123.645 27.5228 123.805 27.9148 123.917 28.3308H123.965C123.997 28.2028 124.077 28.0108 124.205 27.7548C124.333 27.4988 124.525 27.2268 124.781 26.9388C125.037 26.6508 125.365 26.4108 125.765 26.2188C126.181 26.0108 126.685 25.9068 127.277 25.9068C127.901 25.9068 128.413 26.0348 128.813 26.2908C129.229 26.5308 129.557 26.8588 129.797 27.2748C130.037 27.6748 130.205 28.0988 130.301 28.5468C130.413 28.9948 130.485 29.4268 130.517 29.8428C130.549 30.2588 130.565 30.5948 130.565 30.8508V35.6748H129.053V30.8508C129.053 30.5788 129.037 30.2508 129.005 29.8668C128.989 29.4668 128.909 29.0748 128.765 28.6908C128.637 28.2908 128.421 27.9628 128.117 27.7068C127.813 27.4348 127.381 27.2988 126.821 27.2988C126.213 27.2988 125.709 27.4748 125.309 27.8268C124.925 28.1788 124.645 28.6428 124.469 29.2188C124.293 29.7788 124.205 30.3868 124.205 31.0428V35.6748H122.717V30.8508C122.717 30.5788 122.701 30.2508 122.669 29.8668C122.637 29.4668 122.557 29.0748 122.429 28.6908C122.301 28.2908 122.085 27.9628 121.781 27.7068C121.477 27.4348 121.045 27.2988 120.485 27.2988C119.861 27.2988 119.357 27.4748 118.973 27.8268C118.589 28.1788 118.309 28.6428 118.133 29.2188C117.957 29.7788 117.869 30.3868 117.869 31.0428V35.6748H116.357ZM135.938 35.9148C134.866 35.9148 133.978 35.6748 133.274 35.1948C132.586 34.6988 132.074 34.0668 131.738 33.2988C131.418 32.5148 131.258 31.7068 131.258 30.8748C131.258 29.9628 131.434 29.1308 131.786 28.3788C132.154 27.6108 132.682 27.0028 133.37 26.5548C134.074 26.1068 134.914 25.8828 135.89 25.8828C136.738 25.8828 137.482 26.0668 138.122 26.4348C138.778 26.7868 139.298 27.2988 139.682 27.9708C140.082 28.6428 140.306 29.4348 140.354 30.3468C140.37 30.4108 140.378 30.5068 140.378 30.6348C140.378 30.7468 140.378 30.8508 140.378 30.9468H132.746C132.746 32.0828 133.018 32.9788 133.562 33.6348C134.122 34.2748 134.906 34.5948 135.914 34.5948C136.666 34.5948 137.306 34.4028 137.834 34.0188C138.378 33.6348 138.714 33.1148 138.842 32.4588H140.354C140.242 33.1148 139.994 33.7068 139.61 34.2348C139.226 34.7628 138.722 35.1788 138.098 35.4828C137.474 35.7708 136.754 35.9148 135.938 35.9148ZM132.794 30.1068H138.794C138.794 29.8508 138.738 29.5628 138.626 29.2428C138.53 28.9068 138.37 28.5868 138.146 28.2828C137.922 27.9628 137.626 27.6988 137.258 27.4908C136.89 27.2828 136.426 27.1788 135.866 27.1788C135.37 27.1788 134.938 27.2668 134.57 27.4428C134.202 27.6028 133.89 27.8268 133.634 28.1148C133.394 28.3868 133.202 28.6988 133.058 29.0508C132.93 29.4028 132.842 29.7548 132.794 30.1068ZM141.366 35.6748V25.9068H142.686L142.95 28.3308H142.998C143.03 28.2508 143.102 28.0828 143.214 27.8268C143.342 27.5548 143.534 27.2748 143.79 26.9868C144.046 26.6988 144.39 26.4508 144.822 26.2428C145.27 26.0188 145.83 25.9068 146.502 25.9068C147.174 25.9068 147.734 26.0108 148.182 26.2188C148.63 26.4108 148.982 26.6828 149.238 27.0348C149.51 27.3708 149.71 27.7548 149.838 28.1868C149.966 28.6188 150.046 29.0668 150.078 29.5308C150.126 29.9788 150.15 30.4188 150.15 30.8508V35.6748H148.662V30.8508C148.662 30.1468 148.582 29.5308 148.422 29.0028C148.278 28.4588 148.014 28.0428 147.63 27.7548C147.246 27.4508 146.702 27.2988 145.998 27.2988C145.278 27.2988 144.694 27.4748 144.246 27.8268C143.798 28.1628 143.47 28.6188 143.262 29.1948C143.054 29.7548 142.95 30.3708 142.95 31.0428V35.6748H141.366ZM153.565 35.6748C152.989 35.6748 152.581 35.5148 152.341 35.1948C152.101 34.8748 151.981 34.4348 151.981 33.8748V26.8428H153.469V34.4268H155.749V35.6748H153.565ZM150.445 27.0588V25.9068C150.829 25.9068 151.133 25.8908 151.357 25.8588C151.597 25.8108 151.773 25.7148 151.885 25.5708C151.997 25.4108 152.069 25.1548 152.101 24.8028C152.133 24.4508 152.149 23.9788 152.149 23.3868H153.469V25.9068H155.725V27.0588H150.445ZM160.774 35.9148C160.23 35.9148 159.734 35.8348 159.286 35.6748C158.838 35.5308 158.446 35.3308 158.11 35.0748C157.79 34.8188 157.51 34.5468 157.27 34.2588C157.046 33.9548 156.878 33.6508 156.766 33.3468C156.654 33.0428 156.598 32.7708 156.598 32.5308H158.086C158.086 32.5468 158.102 32.6668 158.134 32.8908C158.166 33.1148 158.262 33.3708 158.422 33.6588C158.582 33.9468 158.846 34.2028 159.214 34.4268C159.582 34.6348 160.102 34.7388 160.774 34.7388C161.254 34.7388 161.686 34.6828 162.07 34.5708C162.454 34.4588 162.75 34.2828 162.958 34.0428C163.182 33.8028 163.286 33.5068 163.27 33.1548C163.27 32.6908 163.11 32.3388 162.79 32.0988C162.486 31.8428 162.086 31.6508 161.59 31.5228C161.094 31.3788 160.574 31.2428 160.03 31.1148C159.486 30.9868 158.966 30.8268 158.47 30.6348C157.974 30.4268 157.574 30.1388 157.27 29.7708C156.966 29.4028 156.822 28.8908 156.838 28.2348C156.854 27.4348 157.214 26.8028 157.918 26.3388C158.638 25.8588 159.558 25.6188 160.678 25.6188C161.142 25.6188 161.614 25.6748 162.094 25.7868C162.59 25.8988 163.038 26.0828 163.438 26.3388C163.854 26.5788 164.182 26.9228 164.422 27.3708C164.662 27.8028 164.766 28.3468 164.734 29.0028H163.294C163.31 28.5548 163.23 28.1948 163.054 27.9228C162.894 27.6348 162.67 27.4188 162.382 27.2748C162.11 27.1148 161.814 27.0108 161.494 26.9628C161.19 26.8988 160.902 26.8668 160.63 26.8668C159.942 26.8668 159.374 26.9948 158.926 27.2508C158.494 27.5068 158.278 27.8668 158.278 28.3308C158.278 28.7628 158.43 29.0988 158.734 29.3388C159.054 29.5788 159.454 29.7708 159.934 29.9148C160.43 30.0428 160.95 30.1708 161.494 30.2988C162.054 30.4108 162.582 30.5708 163.078 30.7788C163.574 30.9868 163.974 31.2828 164.278 31.6668C164.598 32.0508 164.758 32.5788 164.758 33.2508C164.758 33.8748 164.582 34.3868 164.23 34.7868C163.894 35.1708 163.422 35.4588 162.814 35.6508C162.222 35.8268 161.542 35.9148 160.774 35.9148Z" fill="white"/>
</svg>
