<svg width="446" height="526" viewBox="0 0 446 526" fill="none" xmlns="http://www.w3.org/2000/svg">
<path d="M414.335 9.90869L414.84 89.1718L392.851 102.009L387.868 105.004L387.352 131.905L383.894 133.963L360.794 120.606L126.677 255.606L126.167 176.343L414.335 9.90869Z" fill="#A1D0E6" stroke="black" stroke-width="0.392968" stroke-miterlimit="10"/>
<path d="M126.676 255.605L110.256 246.084L109.746 166.821L126.166 176.342L126.676 255.605Z" fill="#17235D" stroke="black" stroke-width="0.392968" stroke-miterlimit="10"/>
<path d="M126.166 176.343L109.746 166.822L397.914 0.387695L414.334 9.90848L126.166 176.343Z" fill="#17235D" stroke="black" stroke-width="0.392968" stroke-miterlimit="10"/>
<path d="M104.06 420.466L87.6453 410.945L86.9795 384.724L103.4 394.245L104.06 420.466Z" fill="#E78052" stroke="black" stroke-width="0.392968" stroke-miterlimit="10"/>
<path d="M363.431 164.6L363.936 243.863L130.582 378.456L107.514 418.548L104.061 420.466L103.401 394.245L75.7738 410.292L75.2637 331.034L363.431 164.6Z" fill="#EFBB50" stroke="black" stroke-width="0.392968" stroke-miterlimit="10"/>
<path d="M75.7731 410.292L59.3527 400.771L58.8425 321.513L75.2629 331.034L75.7731 410.292Z" fill="#E78052" stroke="black" stroke-width="0.392968" stroke-miterlimit="10"/>
<path d="M75.2629 331.034L58.8425 321.513L347.01 155.079L363.431 164.599L75.2629 331.034Z" fill="#E78052" stroke="black" stroke-width="0.392968" stroke-miterlimit="10"/>
<path d="M341.253 197.667L341.301 214.437L87.172 360.833L87.1237 344.068L341.253 197.667Z" fill="#F3E1C2" stroke="black" stroke-width="0.392968" stroke-miterlimit="10"/>
<path d="M250.576 274.798L250.624 291.568L90.3295 383.91L90.2811 367.14L250.576 274.798Z" fill="#F3E1C2" stroke="black" stroke-width="0.392968" stroke-miterlimit="10"/>
<path d="M400.331 36.0547L400.374 52.8192L146.244 199.221L146.196 182.456L400.331 36.0547Z" fill="white" stroke="black" stroke-width="0.392968" stroke-miterlimit="10"/>
<path d="M400.159 62.7944L400.208 79.5643L239.913 171.906L239.865 155.136L400.159 62.7944Z" fill="white" stroke="black" stroke-width="0.392968" stroke-miterlimit="10"/>
<path d="M84.052 181.968C98.0399 203.282 92.3696 236.875 71.385 257.004C50.4004 277.133 22.0486 276.174 8.0553 254.861C-5.93264 233.548 -0.267659 199.954 20.7223 179.825C41.7069 159.696 70.0587 160.655 84.052 181.968Z" fill="#3F76B7" stroke="black" stroke-width="0.24364" stroke-miterlimit="10"/>
<path d="M19.1497 254.432C17.8556 253.092 16.6528 251.582 15.5789 249.947C12.8403 245.774 10.9771 240.903 10.0481 235.465C9.11379 230.033 9.14601 224.284 10.1448 218.39C12.2174 206.105 18.1885 194.703 26.9571 186.292C41.917 171.943 61.2638 170.304 72.9589 182.396C74.253 183.736 75.4558 185.247 76.5298 186.881C79.2683 191.055 81.1316 195.925 82.0605 201.363C82.9948 206.796 82.9626 212.545 81.9639 218.438C79.8912 230.724 73.9201 242.125 65.1515 250.537C50.1916 264.885 30.8448 266.524 19.1497 254.432Z" fill="white" stroke="black" stroke-width="0.24364" stroke-miterlimit="10"/>
<path d="M79.9013 263.104C80.1161 262.916 80.3255 262.723 80.5403 262.53C80.5886 262.482 80.6423 262.439 80.6907 262.391C80.7229 262.364 80.7551 262.332 80.7819 262.305C81.0612 262.048 81.3404 261.786 81.6196 261.518C81.9472 261.207 82.2693 260.891 82.5862 260.569C82.6721 260.484 82.758 260.393 82.8439 260.307C83.0748 260.071 83.3057 259.841 83.5312 259.6C83.6547 259.471 83.7675 259.342 83.891 259.219C84.0735 259.021 84.2615 258.828 84.4441 258.63C84.4441 258.63 84.4494 258.619 84.4548 258.619C84.7716 258.276 85.083 257.928 85.3891 257.58C85.4697 257.489 85.5502 257.392 85.6307 257.301C85.8563 257.044 86.0818 256.781 86.2966 256.519C86.3073 256.503 86.3234 256.487 86.3395 256.471C86.4201 256.374 86.4953 256.278 86.5758 256.181C86.7906 255.924 87 255.667 87.2094 255.404C87.3222 255.26 87.4349 255.115 87.5477 254.976C87.7303 254.745 87.9128 254.51 88.0954 254.274C88.1384 254.22 88.1813 254.167 88.2243 254.113C88.4015 253.883 88.5733 253.652 88.7451 253.422C88.7666 253.39 88.7935 253.358 88.8149 253.326C89.0405 253.026 89.2606 252.72 89.4754 252.415C89.513 252.361 89.5506 252.308 89.5882 252.254C89.7708 251.997 89.9479 251.745 90.1251 251.488C90.1627 251.429 90.2057 251.37 90.2433 251.311C90.3023 251.225 90.3614 251.134 90.4205 251.049C90.603 250.781 90.7802 250.513 90.9574 250.24C91.0058 250.164 91.0541 250.095 91.1024 250.02C91.3172 249.688 91.5266 249.355 91.736 249.023C91.7844 248.948 91.8273 248.873 91.8756 248.798C91.9723 248.643 92.069 248.488 92.1656 248.332C92.2247 248.23 92.2837 248.134 92.3428 248.032C92.4233 247.893 92.5093 247.753 92.5898 247.614C92.7241 247.384 92.8583 247.153 92.9925 246.923C93.0677 246.789 93.1429 246.655 93.2234 246.527C93.3684 246.264 93.5134 246.007 93.6584 245.744C93.7121 245.643 93.7711 245.541 93.8248 245.439C94.0181 245.085 94.2061 244.726 94.394 244.367C94.3994 244.357 94.4048 244.346 94.4101 244.335C94.4262 244.298 94.4477 244.266 94.4638 244.228C94.6303 243.912 94.7914 243.59 94.9471 243.269C94.9954 243.178 95.0384 243.082 95.0867 242.99C95.2585 242.637 95.4304 242.283 95.5968 241.924C95.5968 241.924 95.5968 241.924 95.5968 241.919C95.7633 241.565 95.9244 241.206 96.0855 240.847C96.1284 240.756 96.1714 240.66 96.209 240.569C96.3539 240.242 96.4989 239.915 96.6332 239.583C96.6493 239.545 96.6654 239.513 96.6815 239.476C96.8318 239.117 96.9822 238.758 97.1272 238.393C97.1648 238.302 97.2023 238.206 97.2399 238.115C97.2829 238.002 97.3312 237.89 97.3742 237.772C97.4118 237.675 97.444 237.579 97.4816 237.483C97.5997 237.172 97.7178 236.866 97.8306 236.556C97.8897 236.39 97.9541 236.229 98.0132 236.063C98.1367 235.72 98.2548 235.377 98.3729 235.034C98.4159 234.911 98.4588 234.782 98.5018 234.659C98.6575 234.193 98.8132 233.721 98.9582 233.25C98.9851 233.154 99.0173 233.062 99.0441 232.966C99.1623 232.591 99.275 232.211 99.3824 231.83C99.4307 231.669 99.4737 231.509 99.5167 231.348C99.6079 231.032 99.6939 230.71 99.7744 230.394C99.8174 230.223 99.8657 230.051 99.9087 229.88C99.9946 229.553 100.07 229.226 100.15 228.905C100.188 228.749 100.225 228.594 100.263 228.444C100.365 227.999 100.467 227.56 100.558 227.115C100.564 227.083 100.574 227.046 100.58 227.014C100.682 226.537 100.773 226.06 100.864 225.583C100.87 225.545 100.881 225.508 100.886 225.47C100.945 225.154 100.999 224.833 101.052 224.517C101.063 224.447 101.074 224.377 101.085 224.308C101.138 223.992 101.187 223.67 101.235 223.354C101.251 223.258 101.262 223.161 101.278 223.07C101.332 222.695 101.385 222.32 101.434 221.95C101.439 221.902 101.444 221.849 101.45 221.8C101.493 221.468 101.53 221.136 101.568 220.804C101.579 220.707 101.589 220.606 101.6 220.509C101.638 220.134 101.675 219.759 101.713 219.384C101.713 219.363 101.713 219.341 101.713 219.32C101.734 219.057 101.756 218.795 101.777 218.532C101.783 218.452 101.788 218.377 101.793 218.296C101.804 218.13 101.815 217.964 101.826 217.798C101.842 217.562 101.852 217.321 101.869 217.086C101.879 216.919 101.885 216.748 101.89 216.582C101.901 216.346 101.906 216.11 101.917 215.869C101.917 215.703 101.928 215.537 101.933 215.371C101.938 215.13 101.944 214.889 101.944 214.648C101.944 214.487 101.944 214.326 101.944 214.171C101.944 214.117 101.944 214.064 101.944 214.01C101.944 213.694 101.944 213.383 101.938 213.067C101.938 213.03 101.938 212.998 101.938 212.96C101.933 212.617 101.922 212.28 101.912 211.942C101.912 211.835 101.901 211.722 101.901 211.615C101.89 211.321 101.874 211.031 101.858 210.737C101.858 210.651 101.847 210.56 101.842 210.474C101.842 210.437 101.842 210.399 101.836 210.362C101.815 210.04 101.793 209.719 101.767 209.397C101.761 209.317 101.756 209.242 101.745 209.161C101.718 208.829 101.686 208.492 101.654 208.159C101.654 208.117 101.648 208.074 101.643 208.036C101.616 207.758 101.584 207.479 101.552 207.2C101.546 207.147 101.536 207.093 101.53 207.04C101.493 206.724 101.45 206.402 101.407 206.086C101.391 205.957 101.375 205.823 101.353 205.695C101.289 205.25 101.219 204.805 101.144 204.366C101.144 204.355 101.144 204.35 101.144 204.339C101.122 204.221 101.101 204.109 101.079 203.996C101.026 203.707 100.977 203.412 100.918 203.123C100.886 202.962 100.854 202.807 100.821 202.646C100.768 202.394 100.719 202.137 100.66 201.885C100.655 201.853 100.65 201.821 100.639 201.789C100.607 201.634 100.564 201.484 100.532 201.328C100.483 201.114 100.435 200.9 100.381 200.685C100.333 200.498 100.285 200.31 100.236 200.128C100.183 199.919 100.129 199.705 100.07 199.496C100.059 199.453 100.048 199.416 100.038 199.373C99.9946 199.217 99.9462 199.057 99.9033 198.901C99.8496 198.714 99.7959 198.526 99.7422 198.339C99.6831 198.14 99.6187 197.942 99.5596 197.744C99.5005 197.556 99.4469 197.374 99.3824 197.187C99.3717 197.149 99.3609 197.112 99.3502 197.074C99.2911 196.897 99.2267 196.721 99.1676 196.544C99.1139 196.388 99.0602 196.228 99.0065 196.072C98.926 195.847 98.8455 195.622 98.7595 195.403C98.7058 195.258 98.6522 195.113 98.5985 194.969C98.5931 194.953 98.5877 194.931 98.577 194.915C98.4857 194.669 98.3837 194.427 98.287 194.186C98.2441 194.085 98.2065 193.983 98.1635 193.881C98.0185 193.527 97.8682 193.168 97.7125 192.82C97.7125 192.82 97.7125 192.815 97.7125 192.809C97.6802 192.74 97.648 192.675 97.6212 192.606C97.4923 192.322 97.3634 192.038 97.2292 191.754C97.1701 191.631 97.1057 191.507 97.0466 191.379C96.9553 191.186 96.8587 190.993 96.762 190.8C96.7459 190.773 96.7298 190.741 96.7191 190.715C96.6493 190.57 96.5741 190.431 96.4989 190.286C96.3969 190.082 96.2895 189.884 96.1821 189.686C96.1016 189.541 96.021 189.391 95.9405 189.246C95.8599 189.107 95.7848 188.963 95.7042 188.823C95.6774 188.775 95.6451 188.727 95.6183 188.673C95.5324 188.523 95.4411 188.373 95.3552 188.223C95.2478 188.041 95.135 187.853 95.0276 187.671C94.9363 187.521 94.8397 187.371 94.7484 187.221C94.6786 187.109 94.6088 186.996 94.539 186.884C94.4585 186.755 94.3725 186.627 94.2866 186.498C94.1309 186.262 93.9752 186.026 93.8141 185.796C93.7658 185.726 93.7174 185.657 93.6691 185.587C93.551 185.421 93.4329 185.255 93.3147 185.089C93.2825 185.046 93.2557 185.003 93.2234 184.96C93.2073 184.939 93.1912 184.917 93.1751 184.896C92.9764 184.623 92.7724 184.349 92.5683 184.082C92.5308 184.033 92.4932 183.985 92.4556 183.932C92.2408 183.653 92.026 183.38 91.8058 183.112C91.8058 183.112 91.7951 183.101 91.7951 183.096C91.6609 182.93 91.5266 182.769 91.3924 182.608C91.3441 182.555 91.3011 182.501 91.2528 182.442C91.1561 182.33 91.0648 182.222 90.9682 182.115C90.9145 182.051 90.8554 181.987 90.8017 181.928C90.7158 181.831 90.6245 181.73 90.5386 181.633C90.4795 181.569 90.4205 181.504 90.3614 181.435C90.3131 181.381 90.2594 181.322 90.2111 181.269C90.1788 181.231 90.1466 181.199 90.109 181.162C90.0392 181.087 89.9641 181.006 89.8942 180.931C89.8137 180.845 89.7332 180.765 89.6526 180.679C89.5774 180.604 89.5076 180.529 89.4325 180.454C89.3519 180.374 89.2714 180.294 89.1908 180.208C89.1156 180.133 89.0405 180.058 88.9653 179.988C88.8848 179.908 88.8042 179.827 88.7183 179.752C88.6431 179.677 88.5679 179.608 88.4928 179.538C88.4552 179.501 88.4176 179.463 88.38 179.431C88.3371 179.393 88.2995 179.356 88.2565 179.318C88.1652 179.233 88.0739 179.147 87.9773 179.061C87.9021 178.992 87.8269 178.922 87.7464 178.852C87.6551 178.767 87.5585 178.686 87.4672 178.606C87.392 178.536 87.3114 178.472 87.2363 178.402C87.1396 178.322 87.043 178.242 86.9517 178.161C86.8765 178.097 86.796 178.033 86.7208 177.968C86.6241 177.888 86.5275 177.808 86.4255 177.727C86.3718 177.684 86.3181 177.636 86.259 177.593C86.2375 177.577 86.2214 177.561 86.1999 177.545C86.0227 177.406 85.8509 177.266 85.6737 177.133C85.6576 177.116 85.6361 177.106 85.62 177.09C85.4267 176.94 85.228 176.795 85.0293 176.65C84.9703 176.607 84.9112 176.565 84.8468 176.522C84.7072 176.42 84.5676 176.318 84.4279 176.222C84.3581 176.173 84.2883 176.125 84.2132 176.072C84.0789 175.975 83.9393 175.884 83.7997 175.793C83.7567 175.761 83.7138 175.734 83.6655 175.702C83.644 175.691 83.6279 175.675 83.6064 175.664C83.354 175.498 83.1016 175.338 82.8493 175.177C82.8009 175.145 82.7472 175.113 82.6989 175.086C82.4519 174.936 82.2103 174.786 81.9633 174.641C81.9418 174.63 81.9203 174.614 81.8935 174.604C81.6304 174.454 81.3672 174.304 81.1041 174.159C81.0451 174.127 80.9914 174.095 80.9323 174.068C80.6692 173.929 80.4061 173.789 80.1376 173.655C80.1269 173.655 80.1161 173.645 80.1054 173.639C80.0732 173.623 80.0409 173.607 80.0033 173.591C79.8047 173.489 79.606 173.393 79.402 173.296C79.3375 173.264 79.2731 173.232 79.2033 173.205C78.9616 173.093 78.72 172.98 78.473 172.873L68.2384 168.362C68.4801 168.469 68.7271 168.581 68.9687 168.694C69.0331 168.726 69.103 168.758 69.1674 168.79C69.3661 168.887 69.5701 168.983 69.7688 169.085C69.8118 169.107 69.8547 169.128 69.8977 169.149C70.1662 169.283 70.4293 169.423 70.6924 169.562C70.7514 169.594 70.8051 169.626 70.8642 169.653C71.1273 169.798 71.3904 169.942 71.6535 170.098C71.675 170.108 71.6965 170.125 71.7233 170.135C71.9704 170.28 72.2174 170.43 72.459 170.58C72.5073 170.612 72.561 170.644 72.6093 170.671C72.8617 170.832 73.1141 170.992 73.3665 171.159C73.4309 171.201 73.49 171.244 73.5544 171.287C73.694 171.378 73.8283 171.475 73.9679 171.566C74.0377 171.614 74.1075 171.662 74.1826 171.716C74.3223 171.812 74.4619 171.914 74.6015 172.016C74.6605 172.059 74.7196 172.102 74.784 172.144C74.9827 172.289 75.176 172.434 75.3747 172.584C75.3908 172.594 75.4069 172.611 75.423 172.621C75.6002 172.761 75.7774 172.895 75.9546 173.039C76.0298 173.098 76.105 173.157 76.1748 173.221C76.2714 173.302 76.3735 173.382 76.4701 173.462C76.5453 173.527 76.6258 173.591 76.701 173.655C76.7977 173.736 76.8943 173.816 76.991 173.902C77.0662 173.966 77.1467 174.036 77.2219 174.105C77.3132 174.186 77.4098 174.271 77.5011 174.352C77.5763 174.421 77.6568 174.491 77.732 174.561C77.8233 174.647 77.9146 174.732 78.0112 174.813C78.0918 174.888 78.1669 174.957 78.2475 175.032C78.3226 175.102 78.3978 175.177 78.473 175.247C78.5535 175.327 78.6341 175.407 78.72 175.482C78.7952 175.557 78.8704 175.627 78.9455 175.702C79.0261 175.782 79.1066 175.863 79.1872 175.948C79.2623 176.023 79.3321 176.098 79.4073 176.173C79.4879 176.254 79.5684 176.34 79.6436 176.42C79.7188 176.495 79.7886 176.575 79.8637 176.65C79.9497 176.741 80.0302 176.827 80.1107 176.918C80.1698 176.982 80.2289 177.047 80.2933 177.116C80.3792 177.213 80.4705 177.309 80.5564 177.411C80.6101 177.475 80.6692 177.54 80.7229 177.599C80.8195 177.706 80.9108 177.818 81.0075 177.925C81.0558 177.979 81.1041 178.038 81.1471 178.092C81.2813 178.252 81.4156 178.413 81.5498 178.579C81.5498 178.579 81.5606 178.59 81.5606 178.595C81.7807 178.863 81.9955 179.136 82.2103 179.415C82.2479 179.463 82.2855 179.511 82.323 179.565C82.5271 179.833 82.7311 180.106 82.9298 180.379C82.9781 180.444 83.0211 180.508 83.0694 180.572C83.1876 180.738 83.3057 180.904 83.4238 181.07C83.4721 181.14 83.5205 181.21 83.5688 181.279C83.7299 181.51 83.8856 181.746 84.0413 181.981C84.197 182.222 84.3474 182.464 84.5031 182.705C84.5944 182.855 84.6911 183.005 84.7823 183.155C84.8951 183.337 85.0025 183.519 85.1099 183.707C85.1958 183.857 85.2871 184.007 85.373 184.157C85.4804 184.349 85.5878 184.537 85.6952 184.73C85.7757 184.875 85.8563 185.019 85.9368 185.169C86.0442 185.367 86.1516 185.571 86.2536 185.775C86.3288 185.914 86.404 186.059 86.4738 186.198C86.5865 186.418 86.6939 186.643 86.8013 186.862C86.8604 186.985 86.9248 187.109 86.9839 187.237C87.1181 187.521 87.247 187.805 87.3759 188.095C87.4081 188.159 87.435 188.228 87.4672 188.293C87.6229 188.646 87.7786 189.005 87.9236 189.364C87.9665 189.466 88.0041 189.563 88.0417 189.664C88.1491 189.927 88.2511 190.189 88.3532 190.452C88.4069 190.597 88.4606 190.741 88.5143 190.886C88.5948 191.111 88.6807 191.331 88.7612 191.556C88.8149 191.711 88.8686 191.872 88.9223 192.027C88.9975 192.241 89.0673 192.456 89.1371 192.67C89.1962 192.852 89.2553 193.04 89.3143 193.222C89.3788 193.42 89.4378 193.618 89.4969 193.817C89.5506 194.004 89.6043 194.192 89.658 194.379C89.717 194.577 89.7708 194.776 89.8244 194.974C89.8835 195.183 89.9372 195.397 89.9909 195.606C90.0392 195.794 90.0876 195.976 90.1359 196.163C90.1896 196.378 90.2379 196.592 90.2862 196.806C90.3292 196.994 90.3721 197.176 90.4151 197.364C90.4688 197.615 90.5225 197.867 90.5762 198.119C90.6084 198.28 90.646 198.44 90.6782 198.601C90.7373 198.89 90.7856 199.18 90.8393 199.469C90.8608 199.592 90.8876 199.716 90.9091 199.844C90.9843 200.284 91.0541 200.728 91.1185 201.173C91.14 201.301 91.1561 201.43 91.1722 201.559C91.2152 201.875 91.2581 202.196 91.2957 202.512C91.3387 202.845 91.3763 203.177 91.4085 203.509C91.4085 203.552 91.4139 203.595 91.4192 203.637C91.4515 203.97 91.4837 204.302 91.5105 204.639C91.5159 204.72 91.5213 204.795 91.532 204.875C91.5588 205.234 91.5857 205.593 91.6072 205.952C91.6072 206.038 91.6179 206.129 91.6233 206.215C91.6394 206.509 91.6555 206.799 91.6662 207.093C91.6662 207.2 91.677 207.313 91.677 207.42C91.6877 207.758 91.6985 208.101 91.7038 208.438C91.7038 208.476 91.7038 208.508 91.7038 208.545C91.7092 208.915 91.7092 209.279 91.7092 209.649C91.7092 209.81 91.7092 209.965 91.7092 210.126C91.7092 210.367 91.7038 210.608 91.6984 210.854C91.6984 211.021 91.6877 211.187 91.6823 211.353C91.677 211.588 91.6662 211.824 91.6555 212.065C91.6501 212.231 91.6394 212.403 91.634 212.569C91.6233 212.805 91.6072 213.046 91.5911 213.282C91.5803 213.448 91.5696 213.614 91.5588 213.78C91.5374 214.123 91.5105 214.466 91.4783 214.803C91.4783 214.825 91.4783 214.841 91.4783 214.862C91.4461 215.237 91.4085 215.612 91.3655 215.993C91.3548 216.089 91.3441 216.185 91.3333 216.287C91.2957 216.619 91.2581 216.952 91.2152 217.284C91.2098 217.332 91.2044 217.386 91.1991 217.434C91.1507 217.809 91.097 218.184 91.0434 218.559C91.0272 218.655 91.0165 218.746 91.0004 218.843C90.9521 219.159 90.9037 219.48 90.85 219.797C90.8393 219.866 90.8286 219.936 90.8178 220.006C90.7588 220.364 90.6943 220.718 90.6245 221.077C90.5332 221.554 90.4419 222.031 90.3399 222.508C90.3346 222.54 90.3238 222.577 90.3185 222.609C90.2272 223.054 90.1251 223.493 90.0231 223.933C89.9855 224.088 89.9479 224.244 89.9104 224.399C89.8298 224.726 89.7546 225.047 89.6687 225.374C89.6258 225.545 89.5774 225.717 89.5345 225.888C89.4486 226.204 89.3627 226.526 89.2767 226.842C89.2338 227.003 89.1855 227.164 89.1425 227.33C89.0351 227.705 88.9223 228.085 88.8042 228.46C88.7774 228.557 88.7451 228.653 88.7183 228.749C88.5733 229.221 88.4176 229.687 88.2619 230.153C88.2189 230.282 88.176 230.405 88.133 230.534C88.0149 230.876 87.8967 231.219 87.7732 231.562C87.7142 231.728 87.6551 231.889 87.5907 232.055C87.4779 232.366 87.3598 232.671 87.2416 232.982C87.1611 233.191 87.0805 233.4 87 233.609C86.9624 233.7 86.9248 233.796 86.8872 233.888C86.7423 234.247 86.5919 234.611 86.4416 234.97C86.4255 235.007 86.4093 235.039 86.3986 235.077C86.259 235.404 86.114 235.736 85.969 236.063C85.9261 236.159 85.8831 236.25 85.8455 236.347C85.6844 236.706 85.5233 237.059 85.3569 237.418C85.1904 237.777 85.0186 238.131 84.8468 238.485C84.8038 238.576 84.7555 238.672 84.7125 238.763C84.5514 239.085 84.3904 239.406 84.2293 239.722C84.2132 239.76 84.1917 239.792 84.1756 239.829C83.9823 240.199 83.789 240.563 83.5903 240.933C83.5366 241.035 83.4775 241.137 83.4238 241.238C83.2788 241.501 83.1339 241.763 82.9889 242.021C82.9137 242.155 82.8385 242.289 82.758 242.417C82.6237 242.648 82.4949 242.878 82.3553 243.108C82.2747 243.248 82.1888 243.387 82.1082 243.526C81.9525 243.783 81.7968 244.041 81.6411 244.292C81.5928 244.367 81.5498 244.442 81.5015 244.517C81.2921 244.85 81.0826 245.182 80.8679 245.514C80.8195 245.589 80.7712 245.659 80.7229 245.734C80.5457 246.001 80.3685 246.275 80.1859 246.543C80.1269 246.628 80.0678 246.719 80.0087 246.805C79.7939 247.121 79.5738 247.437 79.3536 247.748C79.316 247.802 79.2784 247.855 79.2409 247.909C79.0207 248.214 78.8006 248.52 78.5804 248.825C78.5589 248.857 78.5321 248.889 78.5106 248.921C78.2958 249.211 78.081 249.495 77.8662 249.779C77.689 250.014 77.5065 250.245 77.3185 250.481C77.2058 250.625 77.093 250.77 76.9749 250.915C76.7654 251.177 76.556 251.434 76.3413 251.691C76.25 251.804 76.1587 251.916 76.062 252.029C75.8419 252.292 75.6163 252.549 75.3962 252.811C75.3156 252.902 75.2351 252.999 75.1546 253.09C74.8485 253.438 74.537 253.786 74.2202 254.129C74.0323 254.333 73.839 254.536 73.6457 254.74C73.5276 254.863 73.4148 254.992 73.2967 255.115C73.0604 255.362 72.8188 255.608 72.5771 255.849C72.5019 255.924 72.4268 256.004 72.3516 256.079C72.0294 256.401 71.7072 256.717 71.3797 257.028C71.1005 257.296 70.8212 257.553 70.542 257.815C70.4615 257.89 70.3756 257.965 70.295 258.04C70.0856 258.233 69.8708 258.426 69.656 258.614C69.5755 258.683 69.4949 258.758 69.4144 258.828C69.1298 259.08 68.8452 259.326 68.5606 259.567C68.5338 259.589 68.5123 259.61 68.4854 259.632C68.2277 259.851 67.9646 260.066 67.7015 260.28C67.6156 260.35 67.5297 260.419 67.4384 260.489C67.2236 260.66 67.0142 260.832 66.7994 260.998C66.7188 261.062 66.6329 261.127 66.5524 261.191C66.2624 261.416 65.9778 261.636 65.6879 261.85C65.661 261.871 65.6342 261.887 65.6127 261.909C65.3442 262.107 65.0811 262.3 64.8126 262.487C64.7267 262.552 64.6354 262.611 64.5495 262.675C64.324 262.83 64.1038 262.986 63.8783 263.141C63.7977 263.195 63.7172 263.254 63.6313 263.307C63.336 263.505 63.0353 263.704 62.7399 263.896C62.7023 263.923 62.6647 263.945 62.6272 263.972C62.3587 264.143 62.0902 264.314 61.8217 264.481C61.7304 264.534 61.6391 264.593 61.5532 264.647C61.3116 264.797 61.07 264.941 60.823 265.081C60.7531 265.123 60.6833 265.161 60.6135 265.204C60.3021 265.386 59.9907 265.563 59.6792 265.734C59.604 265.777 59.5342 265.815 59.4591 265.852C59.2067 265.991 58.9543 266.125 58.7019 266.259C58.616 266.302 58.5355 266.35 58.4496 266.393C58.1166 266.565 57.7891 266.731 57.4562 266.897C57.4079 266.924 57.3595 266.945 57.3058 266.967C57.0105 267.111 56.7205 267.245 56.4252 267.384C56.3447 267.422 56.2641 267.459 56.1782 267.497C55.8346 267.652 55.4855 267.808 55.1419 267.958C55.0882 267.979 55.0291 268.006 54.9754 268.027C54.664 268.161 54.3525 268.285 54.0411 268.413C53.9713 268.44 53.9015 268.472 53.8317 268.499C53.4612 268.644 53.0907 268.783 52.7148 268.922C52.6396 268.949 52.5644 268.976 52.4893 269.002C52.108 269.136 51.7268 269.27 51.3455 269.394C51.1415 269.458 50.9428 269.522 50.7388 269.586C50.6958 269.603 50.6475 269.613 50.6045 269.629C50.3521 269.704 50.1051 269.779 49.8528 269.854C49.7776 269.876 49.7078 269.897 49.6326 269.919C49.4554 269.967 49.2782 270.02 49.101 270.069C49.0044 270.095 48.9077 270.117 48.811 270.144C48.6553 270.187 48.505 270.224 48.3493 270.262C48.1506 270.31 47.9519 270.358 47.7479 270.406C47.6781 270.422 47.6082 270.438 47.5384 270.454C47.27 270.519 47.0015 270.578 46.7276 270.631C46.6632 270.647 46.5987 270.658 46.5343 270.669C46.3303 270.712 46.1262 270.754 45.9222 270.792C45.8201 270.813 45.7235 270.829 45.6215 270.846C45.4496 270.878 45.2832 270.91 45.1114 270.937C45.0308 270.953 44.9449 270.963 44.8643 270.979C44.6173 271.022 44.3757 271.06 44.1287 271.092C44.0374 271.103 43.9461 271.119 43.8549 271.13C43.5542 271.172 43.2535 271.21 42.9581 271.247C42.942 271.247 42.9259 271.247 42.9098 271.253C42.593 271.29 42.2815 271.322 41.9701 271.349C41.8788 271.36 41.7929 271.365 41.7016 271.371C41.46 271.392 41.2184 271.408 40.9767 271.424C40.8962 271.43 40.8156 271.435 40.7351 271.44C40.4075 271.462 40.0854 271.478 39.7578 271.488C39.6934 271.488 39.6289 271.488 39.5645 271.488C39.2907 271.499 39.0168 271.505 38.7483 271.505C38.6624 271.505 38.5819 271.505 38.4959 271.505C38.1738 271.505 37.8462 271.505 37.524 271.494C37.4811 271.494 37.4435 271.494 37.4005 271.494C37.1106 271.488 36.826 271.478 36.5414 271.462C36.4555 271.462 36.3696 271.451 36.2836 271.451C35.9615 271.435 35.6393 271.413 35.3171 271.387C34.9949 271.36 34.6728 271.328 34.3559 271.296C34.27 271.285 34.1841 271.274 34.1036 271.269C33.819 271.237 33.5398 271.199 33.2605 271.162C33.2176 271.156 33.1746 271.151 33.137 271.146C32.8202 271.103 32.5088 271.049 32.192 270.996C32.1114 270.979 32.0309 270.969 31.9503 270.953C31.6872 270.904 31.4241 270.856 31.1664 270.808C31.1019 270.797 31.0429 270.787 30.9784 270.771C30.667 270.706 30.3609 270.642 30.0549 270.567C29.9797 270.551 29.9099 270.529 29.8347 270.513C29.5823 270.454 29.3246 270.39 29.0722 270.32C29.0024 270.299 28.9272 270.283 28.8574 270.262C28.5514 270.181 28.2507 270.095 27.9446 270.004C27.8855 269.988 27.8264 269.967 27.7674 269.951C27.515 269.876 27.2573 269.795 27.0049 269.71C26.9297 269.683 26.8492 269.661 26.774 269.635C26.4733 269.533 26.1726 269.431 25.8773 269.319C25.8397 269.303 25.8021 269.292 25.7645 269.276C25.5014 269.179 25.2383 269.077 24.9752 268.97C24.8946 268.938 24.8194 268.906 24.7389 268.874C24.4436 268.751 24.1482 268.627 23.8583 268.499L34.0928 273.01C34.3828 273.139 34.6781 273.262 34.9735 273.385C35.054 273.417 35.1292 273.449 35.2097 273.482C35.4728 273.589 35.7359 273.685 35.9991 273.787C36.0366 273.803 36.0742 273.814 36.1118 273.83C36.4072 273.937 36.7079 274.044 37.0086 274.146C37.0837 274.173 37.1643 274.2 37.2394 274.221C37.4918 274.301 37.7442 274.382 37.9966 274.462C38.0556 274.478 38.1147 274.5 38.1738 274.516C38.4745 274.607 38.7805 274.692 39.0866 274.773C39.1564 274.794 39.2316 274.81 39.3068 274.832C39.5591 274.896 39.8115 274.96 40.0639 275.019C40.1391 275.035 40.2089 275.057 40.284 275.073C40.5901 275.142 40.9015 275.212 41.2076 275.276C41.2721 275.287 41.3311 275.298 41.3956 275.314C41.6587 275.368 41.9164 275.416 42.1795 275.459C42.2601 275.475 42.3406 275.485 42.4212 275.501C42.7326 275.555 43.0494 275.603 43.3662 275.651C43.4092 275.657 43.4521 275.662 43.4897 275.668C43.7689 275.705 44.0535 275.743 44.3328 275.775C44.4187 275.785 44.5046 275.796 44.5851 275.802C44.9073 275.834 45.2241 275.866 45.5463 275.893C45.5463 275.893 45.5463 275.893 45.5517 275.893C45.8738 275.919 46.196 275.941 46.5182 275.957C46.6041 275.957 46.69 275.968 46.776 275.968C47.0605 275.984 47.3505 275.994 47.6351 276C47.678 276 47.721 276 47.7586 276C48.0808 276.005 48.403 276.01 48.7305 276.01C48.8164 276.01 48.897 276.01 48.9829 276.01C49.2567 276.01 49.5252 276.005 49.7991 275.994C49.8635 275.994 49.9279 275.994 49.9924 275.989C50.3145 275.978 50.6421 275.962 50.9696 275.941C50.9965 275.941 51.0233 275.941 51.0502 275.941C51.1039 275.941 51.163 275.93 51.2166 275.93C51.4583 275.914 51.6999 275.898 51.9416 275.876C52.0328 275.871 52.1188 275.86 52.21 275.855C52.5215 275.828 52.8383 275.796 53.1497 275.759C53.1658 275.759 53.1819 275.759 53.1981 275.753C53.4988 275.716 53.7941 275.678 54.0948 275.635C54.1861 275.625 54.2774 275.609 54.3686 275.598C54.6156 275.56 54.8573 275.523 55.1043 275.485C55.158 275.475 55.2117 275.469 55.2707 275.459C55.2976 275.459 55.3244 275.448 55.3567 275.443C55.5285 275.416 55.6949 275.384 55.8668 275.351C55.9688 275.335 56.0654 275.314 56.1675 275.298C56.3715 275.26 56.5756 275.217 56.7796 275.175C56.844 275.164 56.9085 275.148 56.9729 275.137C57.2414 275.078 57.5099 275.019 57.7837 274.96C57.8535 274.944 57.9233 274.928 57.9932 274.912C58.1918 274.864 58.3905 274.816 58.5946 274.767C58.6107 274.767 58.6321 274.757 58.6482 274.757C58.7825 274.725 58.9167 274.687 59.051 274.65C59.1476 274.623 59.2443 274.601 59.3409 274.575C59.5181 274.526 59.6953 274.478 59.8725 274.425C59.9477 274.403 60.0229 274.382 60.0927 274.36C60.3451 274.285 60.5921 274.21 60.8444 274.135C60.8928 274.119 60.9357 274.103 60.984 274.092C61.1774 274.033 61.376 273.969 61.5693 273.905C61.5747 273.905 61.5801 273.905 61.5908 273.899C61.9721 273.776 62.3533 273.642 62.7346 273.508C62.8097 273.482 62.8849 273.455 62.9601 273.428C63.3306 273.294 63.7065 273.155 64.077 273.005C64.1038 272.994 64.1253 272.989 64.1521 272.978C64.2005 272.962 64.2434 272.94 64.2918 272.919C64.6032 272.796 64.9146 272.667 65.2261 272.533C65.2798 272.512 65.3388 272.485 65.3925 272.464C65.7416 272.314 66.0852 272.164 66.4289 272.003C66.4611 271.987 66.4987 271.971 66.5309 271.96C66.5792 271.939 66.6276 271.917 66.6759 271.89C66.9712 271.756 67.2612 271.617 67.5565 271.472C67.6048 271.451 67.6531 271.424 67.7015 271.403C68.0344 271.242 68.3619 271.071 68.6949 270.899C68.7271 270.883 68.7647 270.867 68.7969 270.846C68.8506 270.819 68.8989 270.792 68.9526 270.765C69.205 270.631 69.4574 270.497 69.7097 270.358C69.7849 270.315 69.8547 270.278 69.9299 270.24C70.2413 270.069 70.5528 269.892 70.8642 269.71C70.8803 269.699 70.9018 269.688 70.9179 269.678C70.9662 269.645 71.0199 269.619 71.0682 269.586C71.3099 269.442 71.5569 269.297 71.7985 269.152C71.8898 269.099 71.9811 269.04 72.067 268.986C72.3355 268.82 72.604 268.649 72.8725 268.477C72.9047 268.456 72.9315 268.44 72.9637 268.418C72.9691 268.418 72.9799 268.408 72.9852 268.402C73.2859 268.21 73.5812 268.011 73.8766 267.813C73.9571 267.759 74.043 267.701 74.1236 267.647C74.3491 267.492 74.5746 267.336 74.7948 267.181C74.8485 267.143 74.9022 267.111 74.9505 267.074C74.9881 267.047 75.0203 267.02 75.0579 266.999C75.3264 266.806 75.5949 266.613 75.858 266.415C75.8848 266.399 75.9063 266.377 75.9332 266.361C76.2231 266.147 76.5131 265.927 76.7977 265.702C76.8245 265.681 76.8567 265.659 76.8836 265.638C76.9373 265.595 76.991 265.552 77.0447 265.509C77.2595 265.343 77.4742 265.172 77.6837 265C77.7696 264.931 77.8555 264.861 77.9468 264.791C78.2099 264.577 78.4676 264.363 78.7307 264.143C78.7522 264.127 78.7737 264.105 78.7952 264.089C78.7952 264.089 78.8005 264.084 78.8059 264.079C79.0905 263.838 79.3751 263.591 79.6597 263.339C79.7402 263.27 79.8208 263.195 79.9013 263.125V263.104Z" fill="#A1D0E6" stroke="black" stroke-width="0.24364" stroke-miterlimit="10"/>
<path d="M414.337 279.952L414.842 359.209L392.853 372.047L387.87 375.047L387.354 401.943L383.896 404.006L360.796 390.644L126.679 525.644L126.169 446.386L414.337 279.952Z" fill="#A1D0E6" stroke="black" stroke-width="0.392968" stroke-miterlimit="10"/>
<path d="M126.678 525.644L110.258 516.123L109.748 436.865L126.168 446.386L126.678 525.644Z" fill="#A1D0E6" stroke="black" stroke-width="0.392968" stroke-miterlimit="10"/>
<path d="M126.168 446.386L109.748 436.865L397.916 270.431L414.336 279.951L126.168 446.386Z" fill="#0D67AA" stroke="black" stroke-width="0.392968" stroke-miterlimit="10"/>
<path d="M400.331 306.098L400.374 322.863L146.245 469.264L146.196 452.494L400.331 306.098Z" fill="white" stroke="black" stroke-width="0.392968" stroke-miterlimit="10"/>
<path d="M400.16 332.838L400.208 349.608L239.913 441.949L239.865 425.179L400.16 332.838Z" fill="white" stroke="black" stroke-width="0.392968" stroke-miterlimit="10"/>
<path d="M429.339 328.362C413.901 333.816 393.781 325.174 384.411 309.058C375.036 292.947 379.955 275.465 395.392 270.01C410.83 264.556 430.95 273.198 440.32 289.314C449.696 305.425 444.777 322.908 429.339 328.362Z" fill="#3F76B7" stroke="black" stroke-width="0.157187" stroke-miterlimit="10"/>
<path d="M393.97 276.975C395.006 276.375 396.128 275.855 397.315 275.437C400.338 274.371 403.662 273.953 407.201 274.205C410.734 274.451 414.321 275.346 417.849 276.862C425.205 280.023 431.412 285.472 435.332 292.202C442.017 303.689 440.095 315.964 430.763 321.396C429.726 321.996 428.604 322.516 427.417 322.934C424.394 324 421.07 324.418 417.532 324.166C413.999 323.92 410.412 323.025 406.884 321.509C399.527 318.348 393.315 312.899 389.4 306.169C382.715 294.682 384.637 282.408 393.97 276.975Z" fill="white" stroke="black" stroke-width="0.157187" stroke-miterlimit="10"/>
<path d="M379.303 313.429C379.389 313.59 379.475 313.751 379.567 313.912C379.588 313.949 379.609 313.987 379.631 314.029C379.642 314.051 379.658 314.078 379.674 314.099C379.792 314.313 379.916 314.528 380.039 314.737C380.184 314.989 380.334 315.235 380.485 315.481C380.528 315.546 380.571 315.615 380.608 315.68C380.721 315.857 380.828 316.039 380.941 316.215C381 316.312 381.065 316.403 381.124 316.494C381.22 316.639 381.312 316.783 381.408 316.928C381.408 316.928 381.408 316.933 381.414 316.939C381.58 317.185 381.752 317.432 381.924 317.678C381.967 317.742 382.015 317.807 382.063 317.871C382.192 318.048 382.321 318.23 382.45 318.407C382.455 318.418 382.466 318.428 382.471 318.439C382.52 318.503 382.568 318.568 382.616 318.632C382.745 318.803 382.874 318.975 383.003 319.146C383.073 319.237 383.148 319.328 383.218 319.425C383.336 319.575 383.454 319.725 383.572 319.869C383.599 319.902 383.626 319.939 383.653 319.971C383.771 320.116 383.889 320.255 384.007 320.4C384.023 320.421 384.039 320.437 384.056 320.459C384.211 320.641 384.367 320.829 384.523 321.011C384.55 321.043 384.576 321.075 384.603 321.107C384.737 321.257 384.866 321.407 385.001 321.557C385.033 321.589 385.06 321.627 385.092 321.659C385.135 321.707 385.183 321.761 385.231 321.809C385.371 321.964 385.511 322.114 385.656 322.264C385.693 322.307 385.731 322.345 385.768 322.388C385.94 322.57 386.117 322.752 386.295 322.934C386.332 322.977 386.375 323.015 386.413 323.057C386.493 323.143 386.579 323.223 386.66 323.309C386.713 323.363 386.767 323.411 386.821 323.465C386.896 323.54 386.971 323.609 387.041 323.684C387.165 323.802 387.288 323.92 387.412 324.038C387.481 324.107 387.557 324.172 387.626 324.241C387.766 324.37 387.906 324.504 388.051 324.633C388.104 324.681 388.163 324.734 388.217 324.783C388.41 324.954 388.604 325.125 388.797 325.297C388.802 325.297 388.808 325.308 388.813 325.313C388.835 325.329 388.851 325.345 388.872 325.361C389.044 325.511 389.221 325.661 389.398 325.806C389.447 325.849 389.5 325.892 389.549 325.935C389.742 326.095 389.941 326.256 390.134 326.417C390.333 326.572 390.526 326.727 390.73 326.883C390.784 326.926 390.832 326.963 390.886 327.001C391.068 327.14 391.251 327.279 391.433 327.419C391.455 327.435 391.471 327.451 391.492 327.461C391.691 327.611 391.895 327.756 392.099 327.901C392.153 327.938 392.207 327.976 392.26 328.013C392.325 328.056 392.389 328.104 392.454 328.147C392.507 328.185 392.561 328.222 392.615 328.26C392.792 328.383 392.964 328.501 393.141 328.619C393.232 328.683 393.329 328.742 393.42 328.806C393.614 328.935 393.812 329.063 394.011 329.187C394.081 329.235 394.156 329.278 394.226 329.326C394.494 329.497 394.763 329.664 395.036 329.824C395.09 329.856 395.144 329.889 395.203 329.921C395.423 330.049 395.638 330.178 395.858 330.301C395.949 330.355 396.046 330.408 396.137 330.462C396.32 330.564 396.508 330.671 396.696 330.767C396.798 330.821 396.894 330.874 396.996 330.928C397.184 331.03 397.378 331.126 397.571 331.228C397.662 331.276 397.754 331.319 397.845 331.367C398.108 331.501 398.366 331.63 398.629 331.753C398.65 331.764 398.666 331.774 398.688 331.78C398.972 331.914 399.257 332.048 399.542 332.176C399.563 332.187 399.585 332.198 399.611 332.208C399.799 332.294 399.993 332.375 400.181 332.46C400.224 332.476 400.267 332.498 400.304 332.514C400.492 332.594 400.685 332.675 400.879 332.755C400.938 332.776 400.991 332.803 401.05 332.825C401.276 332.916 401.502 333.007 401.727 333.093C401.759 333.103 401.786 333.114 401.818 333.125C402.017 333.2 402.221 333.275 402.42 333.35C402.479 333.371 402.538 333.393 402.597 333.414C402.828 333.494 403.053 333.575 403.284 333.655C403.295 333.655 403.311 333.666 403.322 333.666C403.483 333.719 403.644 333.773 403.805 333.827C403.853 333.843 403.902 333.859 403.95 333.869C404.052 333.902 404.154 333.934 404.256 333.966C404.401 334.009 404.546 334.057 404.696 334.1C404.799 334.132 404.906 334.159 405.008 334.191C405.153 334.234 405.303 334.277 405.448 334.314C405.55 334.341 405.652 334.373 405.76 334.4C405.91 334.443 406.06 334.48 406.211 334.518C406.313 334.544 406.409 334.571 406.511 334.593C406.544 334.603 406.576 334.609 406.613 334.619C406.812 334.668 407.005 334.716 407.204 334.759C407.226 334.759 407.247 334.77 407.274 334.775C407.489 334.823 407.703 334.871 407.913 334.914C407.983 334.93 408.053 334.941 408.122 334.957C408.305 334.995 408.493 335.032 408.675 335.064C408.729 335.075 408.788 335.086 408.842 335.096C408.863 335.096 408.89 335.107 408.912 335.107C409.116 335.145 409.32 335.177 409.524 335.209C409.572 335.22 409.626 335.225 409.674 335.23C409.889 335.262 410.098 335.295 410.313 335.327C410.34 335.327 410.367 335.332 410.394 335.337C410.571 335.364 410.753 335.386 410.931 335.407C410.963 335.407 411 335.412 411.033 335.418C411.237 335.445 411.441 335.466 411.645 335.487C411.731 335.498 411.811 335.504 411.897 335.514C412.187 335.541 412.472 335.568 412.762 335.584C412.767 335.584 412.772 335.584 412.778 335.584C412.853 335.584 412.928 335.595 413.003 335.595C413.191 335.605 413.385 335.616 413.572 335.627C413.675 335.627 413.782 335.632 413.884 335.637C414.05 335.643 414.217 335.648 414.383 335.654C414.405 335.654 414.426 335.654 414.448 335.654C414.55 335.654 414.652 335.654 414.754 335.654C414.893 335.654 415.038 335.654 415.178 335.654C415.302 335.654 415.425 335.654 415.549 335.654C415.688 335.654 415.828 335.654 415.967 335.648C415.994 335.648 416.021 335.648 416.048 335.648C416.155 335.648 416.257 335.637 416.365 335.637C416.488 335.637 416.617 335.627 416.741 335.621C416.875 335.616 417.004 335.605 417.138 335.595C417.261 335.589 417.385 335.579 417.514 335.568C417.541 335.568 417.562 335.568 417.589 335.568C417.707 335.557 417.831 335.546 417.949 335.536C418.056 335.525 418.164 335.52 418.271 335.509C418.421 335.493 418.577 335.477 418.727 335.461C418.824 335.45 418.926 335.439 419.023 335.428C419.033 335.428 419.05 335.428 419.06 335.428C419.227 335.407 419.393 335.386 419.56 335.359C419.629 335.348 419.699 335.343 419.769 335.332C420.016 335.295 420.258 335.257 420.499 335.214C420.499 335.214 420.505 335.214 420.51 335.214C420.558 335.203 420.601 335.198 420.65 335.187C420.848 335.15 421.047 335.112 421.24 335.075C421.326 335.059 421.412 335.037 421.503 335.021C421.638 334.995 421.772 334.962 421.912 334.936C421.933 334.936 421.949 334.925 421.971 334.919C422.073 334.898 422.169 334.871 422.271 334.845C422.411 334.812 422.556 334.775 422.696 334.737C422.798 334.711 422.905 334.684 423.007 334.652C423.109 334.625 423.211 334.598 423.308 334.571C423.345 334.561 423.377 334.55 423.415 334.539C423.522 334.507 423.63 334.475 423.737 334.443C423.866 334.405 424 334.362 424.129 334.319C424.237 334.287 424.344 334.25 424.451 334.212C424.532 334.185 424.613 334.159 424.693 334.132C424.784 334.1 424.881 334.068 424.972 334.035C425.144 333.977 425.316 333.912 425.482 333.848C425.531 333.827 425.584 333.81 425.633 333.789C425.756 333.741 425.88 333.693 425.998 333.644C426.03 333.634 426.062 333.623 426.089 333.607C426.105 333.601 426.121 333.591 426.137 333.585C426.342 333.505 426.54 333.419 426.739 333.334C426.776 333.318 426.814 333.301 426.852 333.285C427.056 333.194 427.26 333.103 427.464 333.007C427.464 333.007 427.469 333.007 427.475 333.007C427.598 332.948 427.722 332.889 427.84 332.83C427.883 332.809 427.92 332.787 427.963 332.766C428.044 332.723 428.13 332.68 428.21 332.637C428.258 332.61 428.307 332.589 428.355 332.562C428.43 332.525 428.506 332.482 428.581 332.444C428.629 332.417 428.683 332.391 428.731 332.364C428.774 332.342 428.817 332.316 428.86 332.294C428.887 332.278 428.914 332.262 428.94 332.246C429 332.214 429.059 332.182 429.118 332.144C429.182 332.107 429.247 332.069 429.311 332.032C429.37 332 429.429 331.962 429.488 331.93C429.553 331.892 429.617 331.855 429.676 331.817C429.735 331.78 429.789 331.748 429.848 331.71C429.912 331.673 429.971 331.635 430.036 331.592C430.095 331.555 430.149 331.523 430.208 331.485C430.235 331.469 430.267 331.448 430.294 331.432C430.326 331.41 430.353 331.394 430.38 331.373C430.449 331.33 430.514 331.282 430.578 331.239C430.632 331.201 430.686 331.164 430.745 331.126C430.809 331.083 430.879 331.035 430.943 330.987C430.997 330.949 431.051 330.912 431.104 330.874C431.169 330.826 431.233 330.783 431.298 330.735C431.351 330.698 431.4 330.66 431.453 330.623C431.518 330.574 431.582 330.526 431.647 330.478C431.684 330.451 431.722 330.424 431.754 330.398C431.765 330.387 431.781 330.376 431.792 330.365C431.905 330.28 432.017 330.189 432.13 330.103C432.141 330.092 432.152 330.087 432.162 330.076C432.286 329.98 432.404 329.878 432.527 329.776C432.565 329.744 432.603 329.717 432.635 329.685C432.721 329.615 432.801 329.54 432.887 329.471C432.93 329.433 432.973 329.396 433.011 329.358C433.091 329.288 433.172 329.219 433.247 329.144C433.274 329.122 433.295 329.101 433.322 329.074C433.333 329.063 433.344 329.053 433.354 329.042C433.494 328.913 433.634 328.779 433.773 328.646C433.8 328.619 433.827 328.592 433.854 328.565C433.983 328.437 434.117 328.308 434.24 328.174C434.251 328.163 434.262 328.153 434.278 328.137C434.412 327.997 434.546 327.858 434.675 327.713C434.702 327.681 434.729 327.649 434.761 327.622C434.89 327.478 435.019 327.338 435.142 327.194C435.142 327.188 435.153 327.183 435.159 327.177C435.175 327.161 435.191 327.14 435.207 327.124C435.298 327.017 435.389 326.904 435.481 326.797C435.508 326.76 435.54 326.727 435.567 326.69C435.674 326.556 435.781 326.422 435.883 326.288L440.26 320.609C440.158 320.743 440.05 320.877 439.943 321.011C439.916 321.048 439.884 321.086 439.852 321.118C439.76 321.23 439.669 321.338 439.578 321.445C439.556 321.466 439.54 321.493 439.519 321.514C439.395 321.659 439.266 321.804 439.137 321.943C439.111 321.975 439.084 322.007 439.052 322.034C438.923 322.179 438.788 322.318 438.654 322.457C438.643 322.468 438.633 322.479 438.617 322.495C438.488 322.629 438.359 322.757 438.23 322.886C438.203 322.913 438.176 322.939 438.149 322.966C438.01 323.1 437.87 323.234 437.731 323.363C437.693 323.395 437.661 323.427 437.623 323.459C437.543 323.529 437.467 323.604 437.387 323.674C437.344 323.711 437.306 323.749 437.263 323.786C437.178 323.861 437.097 323.931 437.011 324C436.973 324.032 436.941 324.065 436.904 324.091C436.786 324.193 436.662 324.29 436.539 324.391C436.528 324.402 436.517 324.408 436.506 324.418C436.394 324.509 436.281 324.595 436.168 324.686C436.12 324.724 436.071 324.761 436.023 324.799C435.959 324.847 435.894 324.895 435.83 324.943C435.776 324.981 435.728 325.018 435.674 325.056C435.61 325.104 435.545 325.152 435.475 325.195C435.422 325.233 435.368 325.27 435.314 325.308C435.25 325.356 435.18 325.399 435.116 325.447C435.062 325.484 435.008 325.522 434.949 325.559C434.885 325.602 434.815 325.651 434.75 325.693C434.691 325.731 434.632 325.768 434.579 325.806C434.525 325.843 434.466 325.876 434.407 325.913C434.348 325.951 434.283 325.988 434.219 326.031C434.16 326.068 434.106 326.101 434.047 326.138C433.983 326.176 433.923 326.213 433.859 326.251C433.8 326.283 433.741 326.32 433.682 326.352C433.617 326.39 433.553 326.427 433.489 326.465C433.429 326.497 433.37 326.535 433.311 326.567C433.242 326.604 433.172 326.642 433.107 326.679C433.059 326.706 433.005 326.733 432.957 326.76C432.882 326.797 432.807 326.84 432.731 326.877C432.683 326.904 432.635 326.926 432.586 326.952C432.506 326.995 432.42 327.038 432.339 327.076C432.296 327.097 432.254 327.119 432.216 327.14C432.092 327.199 431.974 327.258 431.851 327.317C431.851 327.317 431.845 327.317 431.84 327.322C431.641 327.419 431.437 327.51 431.228 327.601C431.19 327.617 431.153 327.633 431.115 327.649C430.916 327.735 430.718 327.82 430.514 327.901C430.465 327.922 430.417 327.938 430.369 327.96C430.245 328.008 430.127 328.056 430.004 328.104C429.955 328.126 429.902 328.142 429.853 328.163C429.687 328.228 429.515 328.292 429.343 328.351C429.171 328.41 428.994 328.469 428.822 328.528C428.715 328.565 428.608 328.597 428.5 328.635C428.371 328.678 428.237 328.715 428.108 328.758C428.001 328.79 427.893 328.822 427.786 328.854C427.652 328.892 427.512 328.93 427.378 328.967C427.276 328.994 427.168 329.026 427.066 329.053C426.927 329.09 426.782 329.122 426.642 329.16C426.54 329.181 426.444 329.208 426.342 329.23C426.186 329.267 426.03 329.299 425.874 329.331C425.788 329.347 425.703 329.369 425.611 329.385C425.413 329.422 425.214 329.46 425.015 329.497C424.967 329.508 424.924 329.513 424.876 329.524C424.629 329.567 424.382 329.61 424.135 329.647C424.065 329.658 423.995 329.664 423.931 329.674C423.753 329.701 423.571 329.728 423.394 329.749C423.297 329.76 423.195 329.771 423.098 329.781C422.948 329.797 422.798 329.819 422.642 329.83C422.534 329.84 422.427 329.851 422.325 329.856C422.18 329.867 422.035 329.883 421.89 329.894C421.767 329.905 421.643 329.91 421.52 329.921C421.385 329.931 421.256 329.937 421.122 329.947C420.999 329.953 420.87 329.958 420.746 329.964C420.612 329.964 420.483 329.974 420.349 329.98C420.209 329.98 420.07 329.98 419.93 329.985C419.807 329.985 419.683 329.985 419.56 329.985C419.42 329.985 419.275 329.985 419.135 329.985C419.012 329.985 418.888 329.985 418.765 329.985C418.599 329.985 418.432 329.974 418.271 329.969C418.164 329.969 418.062 329.964 417.954 329.958C417.766 329.947 417.573 329.937 417.385 329.926C417.304 329.926 417.224 329.915 417.143 329.91C416.859 329.889 416.569 329.867 416.279 329.84C416.193 329.835 416.112 329.824 416.026 329.814C415.822 329.792 415.618 329.771 415.409 329.744C415.194 329.717 414.979 329.69 414.77 329.664C414.743 329.664 414.716 329.658 414.689 329.653C414.475 329.621 414.265 329.588 414.05 329.556C414.002 329.551 413.948 329.54 413.9 329.535C413.675 329.497 413.444 329.46 413.218 329.417C413.164 329.406 413.105 329.396 413.052 329.385C412.869 329.353 412.681 329.315 412.499 329.278C412.429 329.262 412.359 329.251 412.295 329.235C412.08 329.192 411.865 329.144 411.656 329.096C411.634 329.096 411.613 329.085 411.586 329.08C411.355 329.026 411.124 328.972 410.898 328.913C410.802 328.887 410.7 328.865 410.603 328.838C410.453 328.801 410.302 328.763 410.152 328.721C410.05 328.694 409.948 328.667 409.841 328.635C409.696 328.592 409.545 328.554 409.4 328.512C409.298 328.479 409.191 328.453 409.089 328.421C408.944 328.378 408.794 328.335 408.649 328.287C408.547 328.254 408.444 328.222 408.342 328.19C408.133 328.12 407.924 328.056 407.714 327.987C407.703 327.987 407.693 327.981 407.677 327.976C407.446 327.895 407.22 327.815 406.989 327.735C406.93 327.713 406.871 327.692 406.812 327.67C406.608 327.595 406.409 327.52 406.205 327.445C406.173 327.435 406.146 327.424 406.114 327.413C405.889 327.328 405.663 327.236 405.437 327.145C405.378 327.124 405.325 327.097 405.266 327.076C405.072 326.995 404.884 326.915 404.691 326.835C404.648 326.819 404.611 326.797 404.568 326.781C404.353 326.69 404.143 326.594 403.929 326.497C403.644 326.368 403.359 326.24 403.08 326.106C403.059 326.095 403.037 326.085 403.021 326.074C402.758 325.951 402.5 325.822 402.237 325.688C402.146 325.64 402.055 325.597 401.963 325.549C401.77 325.452 401.582 325.35 401.389 325.249C401.287 325.195 401.19 325.142 401.088 325.088C400.9 324.986 400.718 324.884 400.53 324.783C400.433 324.729 400.342 324.675 400.245 324.622C400.025 324.499 399.81 324.37 399.59 324.241C399.536 324.209 399.477 324.177 399.423 324.145C399.155 323.984 398.881 323.818 398.613 323.647C398.543 323.599 398.468 323.556 398.398 323.507C398.199 323.384 398.006 323.256 397.813 323.127C397.721 323.063 397.625 323.004 397.533 322.939C397.356 322.822 397.184 322.704 397.007 322.581C396.889 322.5 396.771 322.414 396.653 322.334C396.599 322.297 396.545 322.259 396.497 322.222C396.293 322.077 396.089 321.932 395.89 321.782C395.869 321.766 395.853 321.75 395.831 321.739C395.649 321.6 395.466 321.466 395.283 321.321C395.23 321.284 395.181 321.241 395.128 321.198C394.929 321.043 394.73 320.887 394.532 320.732C394.333 320.571 394.14 320.416 393.946 320.25C393.898 320.207 393.844 320.164 393.796 320.121C393.619 319.971 393.442 319.827 393.27 319.671C393.248 319.655 393.232 319.639 393.211 319.623C393.012 319.446 392.808 319.269 392.609 319.093C392.556 319.044 392.497 318.991 392.443 318.943C392.303 318.814 392.158 318.685 392.019 318.551C391.949 318.482 391.874 318.418 391.804 318.348C391.68 318.23 391.557 318.112 391.433 317.994C391.358 317.925 391.283 317.85 391.213 317.775C391.074 317.641 390.939 317.507 390.805 317.367C390.768 317.325 390.725 317.287 390.687 317.244C390.51 317.062 390.333 316.88 390.161 316.698C390.123 316.655 390.086 316.617 390.048 316.574C389.908 316.424 389.763 316.269 389.624 316.119C389.576 316.071 389.533 316.017 389.484 315.969C389.318 315.787 389.157 315.605 388.996 315.417C388.969 315.385 388.942 315.353 388.915 315.321C388.759 315.139 388.598 314.956 388.448 314.769C388.432 314.747 388.416 314.731 388.4 314.71C388.255 314.533 388.11 314.356 387.965 314.18C387.846 314.03 387.728 313.885 387.61 313.735C387.535 313.644 387.465 313.553 387.39 313.456C387.261 313.285 387.132 313.113 387.003 312.942C386.95 312.867 386.891 312.792 386.837 312.717C386.708 312.54 386.579 312.363 386.45 312.181C386.402 312.117 386.359 312.052 386.311 311.988C386.139 311.742 385.967 311.495 385.801 311.249C385.699 311.099 385.602 310.949 385.505 310.799C385.446 310.708 385.387 310.617 385.328 310.526C385.21 310.338 385.092 310.156 384.979 309.968C384.942 309.909 384.904 309.85 384.872 309.792C384.721 309.545 384.571 309.293 384.426 309.041C384.303 308.827 384.179 308.613 384.061 308.404C384.029 308.34 383.991 308.281 383.959 308.216C383.873 308.056 383.782 307.895 383.696 307.734C383.664 307.675 383.631 307.611 383.599 307.552C383.486 307.338 383.374 307.123 383.266 306.909C383.255 306.888 383.25 306.872 383.239 306.85C383.143 306.657 383.046 306.459 382.955 306.266C382.923 306.202 382.896 306.137 382.863 306.073C382.788 305.912 382.713 305.757 382.643 305.596C382.616 305.537 382.59 305.473 382.557 305.414C382.461 305.2 382.369 304.991 382.278 304.777C382.273 304.755 382.262 304.739 382.257 304.718C382.176 304.525 382.096 304.327 382.015 304.134C381.988 304.069 381.967 304.005 381.94 303.941C381.875 303.78 381.811 303.614 381.752 303.453C381.73 303.394 381.709 303.335 381.682 303.276C381.602 303.062 381.526 302.848 381.451 302.633C381.441 302.607 381.435 302.58 381.424 302.553C381.36 302.36 381.296 302.167 381.231 301.974C381.21 301.91 381.188 301.846 381.167 301.782C381.113 301.61 381.059 301.433 381.006 301.262C380.989 301.214 380.973 301.165 380.963 301.112C380.898 300.892 380.834 300.667 380.775 300.448C380.759 300.394 380.748 300.346 380.732 300.292C380.683 300.115 380.635 299.939 380.592 299.762C380.576 299.703 380.56 299.644 380.549 299.585C380.49 299.355 380.436 299.124 380.388 298.894C380.383 298.862 380.372 298.824 380.367 298.792C380.324 298.588 380.281 298.385 380.238 298.181C380.227 298.122 380.216 298.069 380.205 298.01C380.157 297.769 380.114 297.533 380.077 297.292C380.071 297.254 380.066 297.217 380.061 297.174C380.028 296.96 379.996 296.745 379.964 296.536C379.958 296.488 379.948 296.44 379.942 296.392C379.91 296.14 379.878 295.888 379.851 295.636C379.846 295.588 379.84 295.534 379.835 295.486C379.808 295.229 379.781 294.972 379.765 294.715C379.754 294.581 379.744 294.441 379.738 294.307C379.738 294.275 379.738 294.249 379.733 294.216C379.722 294.05 379.711 293.884 379.706 293.713C379.706 293.665 379.706 293.616 379.706 293.568C379.706 293.45 379.695 293.332 379.695 293.215C379.695 293.15 379.695 293.086 379.695 293.022C379.695 292.92 379.695 292.818 379.695 292.716C379.695 292.582 379.695 292.454 379.695 292.32C379.695 292.272 379.695 292.229 379.695 292.18C379.695 292.004 379.701 291.827 379.706 291.65C379.706 291.607 379.706 291.564 379.706 291.521C379.706 291.387 379.717 291.254 379.722 291.12C379.722 291.055 379.728 290.991 379.733 290.927C379.738 290.814 379.744 290.707 379.754 290.595C379.754 290.541 379.765 290.487 379.765 290.434C379.776 290.273 379.792 290.118 379.808 289.957C379.814 289.898 379.819 289.839 379.824 289.78C379.846 289.587 379.867 289.394 379.889 289.207C379.889 289.196 379.889 289.185 379.889 289.175C379.916 288.976 379.942 288.773 379.969 288.575C379.98 288.516 379.985 288.462 379.996 288.403C380.018 288.248 380.044 288.098 380.071 287.942C380.082 287.889 380.087 287.841 380.098 287.787C380.136 287.583 380.173 287.375 380.216 287.171C380.227 287.133 380.232 287.091 380.243 287.053C380.281 286.882 380.318 286.71 380.356 286.544C380.367 286.49 380.383 286.442 380.393 286.389C380.442 286.185 380.495 285.987 380.549 285.789C380.555 285.762 380.565 285.735 380.571 285.714C380.619 285.537 380.667 285.36 380.721 285.183C380.737 285.13 380.753 285.076 380.769 285.028C380.828 284.83 380.893 284.631 380.957 284.438C381.022 284.24 381.091 284.047 381.161 283.854C381.177 283.801 381.199 283.753 381.22 283.699C381.285 283.528 381.349 283.362 381.414 283.19C381.424 283.163 381.435 283.142 381.441 283.115C381.516 282.928 381.596 282.74 381.677 282.553C381.698 282.504 381.72 282.456 381.741 282.408C381.811 282.252 381.881 282.097 381.951 281.942C381.967 281.904 381.983 281.867 382.004 281.829C382.09 281.647 382.182 281.465 382.273 281.283C382.294 281.24 382.316 281.197 382.337 281.154C382.412 281.004 382.493 280.859 382.574 280.709C382.595 280.667 382.616 280.624 382.643 280.586C382.74 280.409 382.842 280.233 382.944 280.061C382.965 280.029 382.987 279.991 383.003 279.959C383.089 279.815 383.18 279.67 383.272 279.525C383.298 279.483 383.325 279.44 383.352 279.391C383.46 279.22 383.572 279.049 383.685 278.882C383.701 278.861 383.717 278.84 383.728 278.818C383.83 278.668 383.932 278.518 384.039 278.373C384.072 278.331 384.104 278.288 384.136 278.239C384.254 278.073 384.378 277.907 384.501 277.747L380.125 283.426C380.001 283.587 379.878 283.753 379.76 283.919C379.728 283.962 379.695 284.004 379.663 284.053C379.556 284.197 379.454 284.347 379.352 284.497C379.336 284.519 379.319 284.54 379.309 284.562C379.196 284.728 379.083 284.899 378.976 285.071C378.949 285.114 378.922 285.162 378.89 285.205C378.799 285.349 378.713 285.494 378.627 285.639C378.605 285.671 378.584 285.708 378.568 285.74C378.466 285.917 378.364 286.089 378.267 286.265C378.246 286.308 378.219 286.351 378.197 286.394C378.117 286.539 378.042 286.689 377.961 286.839C377.94 286.882 377.918 286.924 377.897 286.967C377.805 287.149 377.714 287.332 377.628 287.514C377.612 287.551 377.596 287.589 377.574 287.626C377.505 287.782 377.429 287.937 377.365 288.092C377.343 288.141 377.322 288.189 377.3 288.237C377.22 288.425 377.139 288.612 377.064 288.8C377.053 288.826 377.043 288.848 377.032 288.875C376.968 289.041 376.898 289.212 376.839 289.384C376.817 289.437 376.801 289.485 376.78 289.539C376.71 289.732 376.64 289.93 376.576 290.123C376.511 290.316 376.447 290.514 376.388 290.712C376.372 290.766 376.355 290.82 376.339 290.873C376.286 291.05 376.237 291.227 376.189 291.404C376.184 291.43 376.173 291.457 376.168 291.479C376.114 291.677 376.065 291.88 376.012 292.079C376.001 292.132 375.985 292.18 375.974 292.234C375.937 292.405 375.894 292.572 375.861 292.743C375.851 292.786 375.845 292.823 375.835 292.866C375.792 293.07 375.754 293.273 375.716 293.477C375.716 293.493 375.711 293.509 375.706 293.525C375.7 293.563 375.695 293.595 375.69 293.632C375.663 293.782 375.636 293.938 375.614 294.088C375.604 294.147 375.598 294.2 375.588 294.259C375.555 294.458 375.529 294.656 375.507 294.859C375.507 294.87 375.507 294.881 375.507 294.891C375.486 295.084 375.464 295.272 375.443 295.465C375.437 295.524 375.432 295.583 375.426 295.642C375.41 295.797 375.4 295.958 375.384 296.118C375.384 296.156 375.378 296.188 375.373 296.226C375.373 296.242 375.373 296.263 375.373 296.279C375.367 296.392 375.357 296.499 375.351 296.611C375.351 296.676 375.341 296.74 375.341 296.804C375.335 296.938 375.33 297.072 375.324 297.206C375.324 297.249 375.324 297.292 375.324 297.335C375.319 297.511 375.314 297.688 375.314 297.865C375.314 297.913 375.314 297.956 375.314 298.004C375.314 298.138 375.314 298.267 375.314 298.401C375.314 298.412 375.314 298.422 375.314 298.433C375.314 298.524 375.314 298.61 375.314 298.701C375.314 298.765 375.314 298.829 375.314 298.894C375.314 299.012 375.319 299.13 375.324 299.247C375.324 299.296 375.324 299.344 375.324 299.397C375.33 299.563 375.341 299.73 375.351 299.901C375.351 299.933 375.351 299.965 375.357 299.992C375.367 300.121 375.373 300.255 375.384 300.383V300.394C375.405 300.651 375.426 300.908 375.453 301.165C375.453 301.214 375.464 301.267 375.469 301.315C375.496 301.567 375.529 301.819 375.561 302.071C375.561 302.087 375.561 302.103 375.566 302.119C375.566 302.151 375.577 302.183 375.582 302.216C375.614 302.43 375.647 302.639 375.679 302.853C375.684 302.891 375.69 302.928 375.695 302.971C375.733 303.207 375.776 303.448 375.824 303.689C375.824 303.71 375.835 303.737 375.835 303.759C375.84 303.791 375.851 303.823 375.856 303.855C375.894 304.059 375.937 304.262 375.985 304.466C375.99 304.498 376.001 304.536 376.006 304.568C376.06 304.798 376.114 305.028 376.168 305.259C376.173 305.28 376.178 305.307 376.184 305.328C376.194 305.366 376.205 305.398 376.21 305.436C376.253 305.612 376.302 305.789 376.35 305.966C376.366 306.02 376.377 306.068 376.393 306.121C376.452 306.341 376.517 306.561 376.581 306.786C376.581 306.796 376.586 306.813 376.592 306.823C376.602 306.861 376.613 306.893 376.624 306.93C376.678 307.102 376.731 307.279 376.785 307.45C376.807 307.514 376.828 307.579 376.849 307.643C376.914 307.836 376.978 308.029 377.043 308.222C377.048 308.243 377.059 308.265 377.064 308.286C377.064 308.286 377.064 308.297 377.07 308.302C377.145 308.516 377.225 308.731 377.3 308.945C377.322 309.004 377.343 309.063 377.37 309.122C377.429 309.283 377.494 309.449 377.558 309.609C377.574 309.647 377.585 309.684 377.601 309.722C377.612 309.749 377.623 309.775 377.633 309.797C377.714 309.995 377.795 310.188 377.875 310.386C377.88 310.402 377.891 310.424 377.897 310.44C377.988 310.654 378.079 310.868 378.176 311.077C378.186 311.099 378.192 311.12 378.203 311.142C378.219 311.179 378.24 311.222 378.256 311.26C378.326 311.42 378.401 311.576 378.476 311.736C378.509 311.801 378.536 311.865 378.568 311.929C378.659 312.122 378.756 312.32 378.852 312.513C378.858 312.529 378.868 312.545 378.874 312.561C378.874 312.561 378.874 312.567 378.874 312.572C378.981 312.787 379.094 313.001 379.207 313.215C379.239 313.274 379.271 313.338 379.303 313.397V313.429Z" fill="#A1D0E6" stroke="black" stroke-width="0.157187" stroke-miterlimit="10"/>
</svg>
